<svg xmlns="http://www.w3.org/2000/svg" xmlns:xlink="http://www.w3.org/1999/xlink" width="360" zoomAndPan="magnify" viewBox="0 0 270 44.999999" height="60" preserveAspectRatio="xMidYMid meet" version="1.0"><defs><g/><clipPath id="dce813dca0"><path d="M 4.5 3.25 L 42.75 3.25 L 42.75 41.5 L 4.5 41.5 Z M 4.5 3.25 " clip-rule="nonzero"/></clipPath></defs><g fill="#39b75d" fill-opacity="1"><g transform="translate(48.501969, 34.768929)"><g><path d="M 1.125 -11.21875 C 1.125 -13.507812 1.554688 -15.523438 2.421875 -17.265625 C 3.285156 -19.003906 4.46875 -20.335938 5.96875 -21.265625 C 7.46875 -22.203125 9.140625 -22.671875 10.984375 -22.671875 C 12.554688 -22.671875 13.9375 -22.347656 15.125 -21.703125 C 16.3125 -21.066406 17.226562 -20.226562 17.875 -19.1875 L 17.875 -22.359375 L 24.71875 -22.359375 L 24.71875 0 L 17.875 0 L 17.875 -3.171875 C 17.195312 -2.128906 16.265625 -1.285156 15.078125 -0.640625 C 13.890625 0.00390625 12.507812 0.328125 10.9375 0.328125 C 9.125 0.328125 7.46875 -0.144531 5.96875 -1.09375 C 4.46875 -2.050781 3.285156 -3.398438 2.421875 -5.140625 C 1.554688 -6.890625 1.125 -8.914062 1.125 -11.21875 Z M 17.875 -11.171875 C 17.875 -12.878906 17.394531 -14.226562 16.4375 -15.21875 C 15.488281 -16.207031 14.335938 -16.703125 12.984375 -16.703125 C 11.617188 -16.703125 10.460938 -16.210938 9.515625 -15.234375 C 8.566406 -14.265625 8.09375 -12.925781 8.09375 -11.21875 C 8.09375 -9.507812 8.566406 -8.15625 9.515625 -7.15625 C 10.460938 -6.15625 11.617188 -5.65625 12.984375 -5.65625 C 14.335938 -5.65625 15.488281 -6.144531 16.4375 -7.125 C 17.394531 -8.113281 17.875 -9.460938 17.875 -11.171875 Z M 17.875 -11.171875 "/></g></g></g><g fill="#39b75d" fill-opacity="1"><g transform="translate(75.699092, 34.768929)"><g><path d="M 16.109375 -22.59375 C 18.722656 -22.59375 20.8125 -21.742188 22.375 -20.046875 C 23.9375 -18.347656 24.71875 -16.019531 24.71875 -13.0625 L 24.71875 0 L 17.90625 0 L 17.90625 -12.140625 C 17.90625 -13.628906 17.515625 -14.785156 16.734375 -15.609375 C 15.960938 -16.441406 14.925781 -16.859375 13.625 -16.859375 C 12.3125 -16.859375 11.265625 -16.441406 10.484375 -15.609375 C 9.710938 -14.785156 9.328125 -13.628906 9.328125 -12.140625 L 9.328125 0 L 2.484375 0 L 2.484375 -22.359375 L 9.328125 -22.359375 L 9.328125 -19.390625 C 10.023438 -20.378906 10.960938 -21.160156 12.140625 -21.734375 C 13.316406 -22.304688 14.640625 -22.59375 16.109375 -22.59375 Z M 16.109375 -22.59375 "/></g></g></g><g fill="#39b75d" fill-opacity="1"><g transform="translate(102.695943, 34.768929)"><g><path d="M 1.125 -11.21875 C 1.125 -13.507812 1.554688 -15.523438 2.421875 -17.265625 C 3.285156 -19.003906 4.46875 -20.335938 5.96875 -21.265625 C 7.46875 -22.203125 9.140625 -22.671875 10.984375 -22.671875 C 12.453125 -22.671875 13.789062 -22.363281 15 -21.75 C 16.21875 -21.132812 17.175781 -20.304688 17.875 -19.265625 L 17.875 -29.640625 L 24.71875 -29.640625 L 24.71875 0 L 17.875 0 L 17.875 -3.203125 C 17.226562 -2.140625 16.3125 -1.285156 15.125 -0.640625 C 13.9375 0.00390625 12.554688 0.328125 10.984375 0.328125 C 9.140625 0.328125 7.46875 -0.144531 5.96875 -1.09375 C 4.46875 -2.050781 3.285156 -3.398438 2.421875 -5.140625 C 1.554688 -6.890625 1.125 -8.914062 1.125 -11.21875 Z M 17.875 -11.171875 C 17.875 -12.878906 17.394531 -14.226562 16.4375 -15.21875 C 15.488281 -16.207031 14.335938 -16.703125 12.984375 -16.703125 C 11.617188 -16.703125 10.460938 -16.210938 9.515625 -15.234375 C 8.566406 -14.265625 8.09375 -12.925781 8.09375 -11.21875 C 8.09375 -9.507812 8.566406 -8.15625 9.515625 -7.15625 C 10.460938 -6.15625 11.617188 -5.65625 12.984375 -5.65625 C 14.335938 -5.65625 15.488281 -6.144531 16.4375 -7.125 C 17.394531 -8.113281 17.875 -9.460938 17.875 -11.171875 Z M 17.875 -11.171875 "/></g></g></g><g fill="#39b75d" fill-opacity="1"><g transform="translate(129.893066, 34.768929)"><g><path d="M 23.5625 -11.53125 C 23.5625 -10.894531 23.519531 -10.226562 23.4375 -9.53125 L 7.9375 -9.53125 C 8.039062 -8.144531 8.484375 -7.082031 9.265625 -6.34375 C 10.054688 -5.613281 11.023438 -5.25 12.171875 -5.25 C 13.890625 -5.25 15.082031 -5.96875 15.75 -7.40625 L 23.03125 -7.40625 C 22.65625 -5.9375 21.976562 -4.613281 21 -3.4375 C 20.03125 -2.269531 18.8125 -1.347656 17.34375 -0.671875 C 15.875 -0.00390625 14.234375 0.328125 12.421875 0.328125 C 10.234375 0.328125 8.28125 -0.140625 6.5625 -1.078125 C 4.851562 -2.015625 3.519531 -3.347656 2.5625 -5.078125 C 1.601562 -6.816406 1.125 -8.847656 1.125 -11.171875 C 1.125 -13.492188 1.597656 -15.523438 2.546875 -17.265625 C 3.492188 -19.003906 4.820312 -20.335938 6.53125 -21.265625 C 8.238281 -22.203125 10.203125 -22.671875 12.421875 -22.671875 C 14.585938 -22.671875 16.507812 -22.21875 18.1875 -21.3125 C 19.875 -20.40625 21.191406 -19.109375 22.140625 -17.421875 C 23.085938 -15.742188 23.5625 -13.78125 23.5625 -11.53125 Z M 16.546875 -13.34375 C 16.546875 -14.519531 16.144531 -15.453125 15.34375 -16.140625 C 14.539062 -16.835938 13.539062 -17.1875 12.34375 -17.1875 C 11.1875 -17.1875 10.210938 -16.851562 9.421875 -16.1875 C 8.640625 -15.519531 8.15625 -14.570312 7.96875 -13.34375 Z M 16.546875 -13.34375 "/></g></g></g><g fill="#39b75d" fill-opacity="1"><g transform="translate(154.566744, 34.768929)"><g><path d="M 9.328125 -18.625 C 10.128906 -19.851562 11.128906 -20.820312 12.328125 -21.53125 C 13.535156 -22.238281 14.875 -22.59375 16.34375 -22.59375 L 16.34375 -15.34375 L 14.46875 -15.34375 C 12.757812 -15.34375 11.472656 -14.972656 10.609375 -14.234375 C 9.753906 -13.503906 9.328125 -12.21875 9.328125 -10.375 L 9.328125 0 L 2.484375 0 L 2.484375 -22.359375 L 9.328125 -22.359375 Z M 9.328125 -18.625 "/></g></g></g><g fill="#39b75d" fill-opacity="1"><g transform="translate(171.710141, 34.768929)"><g><path d="M 1.125 -11.21875 C 1.125 -13.507812 1.554688 -15.523438 2.421875 -17.265625 C 3.285156 -19.003906 4.46875 -20.335938 5.96875 -21.265625 C 7.46875 -22.203125 9.140625 -22.671875 10.984375 -22.671875 C 12.453125 -22.671875 13.789062 -22.363281 15 -21.75 C 16.21875 -21.132812 17.175781 -20.304688 17.875 -19.265625 L 17.875 -29.640625 L 24.71875 -29.640625 L 24.71875 0 L 17.875 0 L 17.875 -3.203125 C 17.226562 -2.140625 16.3125 -1.285156 15.125 -0.640625 C 13.9375 0.00390625 12.554688 0.328125 10.984375 0.328125 C 9.140625 0.328125 7.46875 -0.144531 5.96875 -1.09375 C 4.46875 -2.050781 3.285156 -3.398438 2.421875 -5.140625 C 1.554688 -6.890625 1.125 -8.914062 1.125 -11.21875 Z M 17.875 -11.171875 C 17.875 -12.878906 17.394531 -14.226562 16.4375 -15.21875 C 15.488281 -16.207031 14.335938 -16.703125 12.984375 -16.703125 C 11.617188 -16.703125 10.460938 -16.210938 9.515625 -15.234375 C 8.566406 -14.265625 8.09375 -12.925781 8.09375 -11.21875 C 8.09375 -9.507812 8.566406 -8.15625 9.515625 -7.15625 C 10.460938 -6.15625 11.617188 -5.65625 12.984375 -5.65625 C 14.335938 -5.65625 15.488281 -6.144531 16.4375 -7.125 C 17.394531 -8.113281 17.875 -9.460938 17.875 -11.171875 Z M 17.875 -11.171875 "/></g></g></g><g fill="#39b75d" fill-opacity="1"><g transform="translate(198.907264, 34.768929)"><g><path d="M 9.328125 -18.625 C 10.128906 -19.851562 11.128906 -20.820312 12.328125 -21.53125 C 13.535156 -22.238281 14.875 -22.59375 16.34375 -22.59375 L 16.34375 -15.34375 L 14.46875 -15.34375 C 12.757812 -15.34375 11.472656 -14.972656 10.609375 -14.234375 C 9.753906 -13.503906 9.328125 -12.21875 9.328125 -10.375 L 9.328125 0 L 2.484375 0 L 2.484375 -22.359375 L 9.328125 -22.359375 Z M 9.328125 -18.625 "/></g></g></g><g fill="#39b75d" fill-opacity="1"><g transform="translate(216.050661, 34.768929)"><g><path d="M 12.65625 0.328125 C 10.46875 0.328125 8.5 -0.140625 6.75 -1.078125 C 5 -2.015625 3.625 -3.347656 2.625 -5.078125 C 1.625 -6.816406 1.125 -8.847656 1.125 -11.171875 C 1.125 -13.472656 1.628906 -15.5 2.640625 -17.25 C 3.660156 -19 5.050781 -20.335938 6.8125 -21.265625 C 8.570312 -22.203125 10.546875 -22.671875 12.734375 -22.671875 C 14.929688 -22.671875 16.910156 -22.203125 18.671875 -21.265625 C 20.429688 -20.335938 21.816406 -19 22.828125 -17.25 C 23.847656 -15.5 24.359375 -13.472656 24.359375 -11.171875 C 24.359375 -8.878906 23.84375 -6.859375 22.8125 -5.109375 C 21.78125 -3.359375 20.375 -2.015625 18.59375 -1.078125 C 16.820312 -0.140625 14.84375 0.328125 12.65625 0.328125 Z M 12.65625 -5.609375 C 13.96875 -5.609375 15.082031 -6.085938 16 -7.046875 C 16.925781 -8.015625 17.390625 -9.390625 17.390625 -11.171875 C 17.390625 -12.960938 16.941406 -14.335938 16.046875 -15.296875 C 15.148438 -16.265625 14.046875 -16.75 12.734375 -16.75 C 11.398438 -16.75 10.289062 -16.273438 9.40625 -15.328125 C 8.53125 -14.378906 8.09375 -12.992188 8.09375 -11.171875 C 8.09375 -9.390625 8.523438 -8.015625 9.390625 -7.046875 C 10.265625 -6.085938 11.351562 -5.609375 12.65625 -5.609375 Z M 12.65625 -5.609375 "/></g></g></g><g fill="#39b75d" fill-opacity="1"><g transform="translate(241.565479, 34.768929)"><g><path d="M 9.328125 -19.1875 C 10.003906 -20.226562 10.925781 -21.066406 12.09375 -21.703125 C 13.269531 -22.347656 14.644531 -22.671875 16.21875 -22.671875 C 18.0625 -22.671875 19.734375 -22.203125 21.234375 -21.265625 C 22.734375 -20.335938 23.914062 -19.003906 24.78125 -17.265625 C 25.644531 -15.523438 26.078125 -13.507812 26.078125 -11.21875 C 26.078125 -8.914062 25.644531 -6.890625 24.78125 -5.140625 C 23.914062 -3.398438 22.734375 -2.050781 21.234375 -1.09375 C 19.734375 -0.144531 18.0625 0.328125 16.21875 0.328125 C 14.675781 0.328125 13.3125 0.00390625 12.125 -0.640625 C 10.9375 -1.285156 10.003906 -2.113281 9.328125 -3.125 L 9.328125 10.65625 L 2.484375 10.65625 L 2.484375 -22.359375 L 9.328125 -22.359375 Z M 19.109375 -11.21875 C 19.109375 -12.925781 18.632812 -14.265625 17.6875 -15.234375 C 16.738281 -16.210938 15.570312 -16.703125 14.1875 -16.703125 C 12.820312 -16.703125 11.664062 -16.207031 10.71875 -15.21875 C 9.769531 -14.226562 9.296875 -12.878906 9.296875 -11.171875 C 9.296875 -9.460938 9.769531 -8.113281 10.71875 -7.125 C 11.664062 -6.144531 12.820312 -5.65625 14.1875 -5.65625 C 15.539062 -5.65625 16.695312 -6.15625 17.65625 -7.15625 C 18.625 -8.15625 19.109375 -9.507812 19.109375 -11.21875 Z M 19.109375 -11.21875 "/></g></g></g><g clip-path="url(#dce813dca0)"><path fill="#39b75d" d="M 10.445312 3.28125 L 23.5 3.28125 C 24.78125 3.28125 26.03125 3.40625 27.246094 3.648438 C 28.488281 3.894531 29.691406 4.261719 30.84375 4.738281 C 32.015625 5.21875 33.128906 5.8125 34.167969 6.507812 C 35.222656 7.210938 36.203125 8.007812 37.089844 8.890625 C 37.980469 9.769531 38.785156 10.746094 39.488281 11.792969 C 40.1875 12.824219 40.789062 13.929688 41.273438 15.09375 C 41.753906 16.234375 42.121094 17.429688 42.371094 18.664062 C 42.613281 19.867188 42.738281 21.109375 42.738281 22.375 C 42.738281 23.640625 42.613281 24.886719 42.371094 26.089844 C 42.121094 27.320312 41.75 28.519531 41.273438 29.660156 C 40.789062 30.820312 40.1875 31.929688 39.488281 32.960938 C 38.785156 34.007812 37.980469 34.976562 37.089844 35.859375 C 36.199219 36.746094 35.222656 37.542969 34.167969 38.242188 C 33.125 38.933594 32.007812 39.53125 30.839844 40.015625 C 29.691406 40.488281 28.488281 40.859375 27.242188 41.101562 C 26.03125 41.34375 24.777344 41.46875 23.5 41.46875 L 10.445312 41.46875 C 10.335938 41.460938 10.222656 41.464844 10.109375 41.460938 C 9.824219 41.4375 9.539062 41.363281 9.273438 41.230469 C 9.011719 41.101562 8.769531 40.921875 8.566406 40.691406 C 8.367188 40.464844 8.164062 40.21875 7.964844 39.972656 C 7.773438 39.730469 7.585938 39.484375 7.410156 39.242188 C 7.234375 38.992188 7.0625 38.734375 6.898438 38.472656 C 6.738281 38.214844 6.582031 37.957031 6.433594 37.691406 L 6.425781 37.671875 C 6.28125 37.410156 6.144531 37.144531 6.019531 36.886719 C 5.898438 36.628906 5.769531 36.347656 5.648438 36.054688 L 5.644531 36.039062 C 5.523438 35.75 5.414062 35.46875 5.324219 35.199219 L 5.316406 35.179688 C 5.21875 34.894531 5.132812 34.617188 5.054688 34.347656 C 4.953125 33.976562 4.859375 33.605469 4.789062 33.238281 L 4.785156 33.214844 C 4.714844 32.84375 4.652344 32.484375 4.609375 32.125 C 4.5625 31.769531 4.53125 31.398438 4.515625 31.011719 C 4.496094 30.640625 4.496094 30.257812 4.507812 29.875 C 4.523438 29.492188 4.550781 29.113281 4.589844 28.746094 C 4.628906 28.375 4.6875 28.007812 4.757812 27.652344 C 4.832031 27.292969 4.917969 26.9375 5.019531 26.582031 C 5.121094 26.230469 5.238281 25.878906 5.371094 25.527344 C 5.503906 25.179688 5.652344 24.832031 5.8125 24.496094 C 5.976562 24.152344 6.15625 23.828125 6.339844 23.511719 C 6.535156 23.191406 6.734375 22.882812 6.949219 22.582031 C 7.164062 22.285156 7.398438 21.992188 7.644531 21.703125 L 7.871094 21.453125 C 8.789062 20.324219 10.960938 18.941406 10.960938 18.941406 L 11.117188 18.851562 C 11.46875 18.652344 11.824219 18.464844 12.183594 18.296875 C 12.554688 18.121094 12.929688 17.964844 13.3125 17.820312 C 13.703125 17.671875 14.09375 17.542969 14.492188 17.425781 C 14.902344 17.304688 15.308594 17.203125 15.710938 17.117188 C 16.035156 17.046875 16.382812 16.980469 16.742188 16.925781 L 16.765625 16.921875 C 17.125 16.867188 17.496094 16.820312 17.882812 16.78125 L 18.613281 16.722656 L 18.613281 14.359375 C 18.613281 14.03125 18.679688 13.71875 18.800781 13.429688 C 18.925781 13.136719 19.101562 12.875 19.320312 12.652344 L 19.34375 12.628906 C 19.566406 12.402344 19.839844 12.222656 20.144531 12.097656 C 20.433594 11.976562 20.75 11.910156 21.082031 11.910156 C 21.25 11.910156 21.414062 11.929688 21.578125 11.960938 C 21.734375 11.992188 21.886719 12.042969 22.03125 12.101562 L 22.089844 12.132812 C 22.222656 12.191406 22.347656 12.261719 22.46875 12.34375 C 22.597656 12.429688 22.71875 12.53125 22.828125 12.640625 L 32.519531 21.125 C 32.769531 21.34375 32.964844 21.605469 33.101562 21.882812 C 33.242188 22.175781 33.324219 22.488281 33.347656 22.808594 C 33.363281 23.121094 33.324219 23.441406 33.214844 23.746094 C 33.113281 24.042969 32.953125 24.320312 32.730469 24.566406 L 32.613281 24.695312 L 25.167969 31.214844 C 25.144531 31.238281 25.117188 31.257812 25.089844 31.273438 L 22.828125 33.25 C 22.71875 33.363281 22.601562 33.464844 22.46875 33.550781 C 22.351562 33.628906 22.222656 33.699219 22.089844 33.761719 L 22.050781 33.777344 C 21.902344 33.839844 21.742188 33.890625 21.578125 33.925781 C 21.414062 33.960938 21.246094 33.976562 21.082031 33.976562 C 20.75 33.976562 20.433594 33.910156 20.144531 33.792969 C 19.839844 33.667969 19.566406 33.484375 19.34375 33.261719 L 19.335938 33.253906 C 19.109375 33.027344 18.925781 32.757812 18.800781 32.460938 C 18.679688 32.171875 18.613281 31.855469 18.613281 31.527344 L 18.613281 28.808594 L 18.21875 28.847656 C 17.992188 28.875 17.761719 28.910156 17.542969 28.953125 C 17.179688 29.019531 16.832031 29.117188 16.507812 29.226562 C 16.195312 29.335938 15.890625 29.46875 15.605469 29.625 C 14.988281 29.960938 14.484375 30.398438 14.074219 30.902344 C 13.617188 31.460938 13.28125 32.109375 13.035156 32.808594 C 12.433594 34.507812 12.335938 36.605469 12.5 38.394531 L 23.503906 38.394531 C 24.578125 38.394531 25.632812 38.289062 26.648438 38.089844 C 27.695312 37.882812 28.703125 37.578125 29.660156 37.179688 C 30.640625 36.773438 31.574219 36.277344 32.449219 35.691406 C 33.328125 35.105469 34.152344 34.433594 34.90625 33.683594 C 35.660156 32.933594 36.339844 32.117188 36.933594 31.246094 C 37.515625 30.378906 38.019531 29.453125 38.425781 28.476562 C 38.828125 27.527344 39.136719 26.527344 39.34375 25.492188 C 39.542969 24.480469 39.652344 23.4375 39.652344 22.371094 C 39.652344 21.300781 39.542969 20.253906 39.34375 19.25 C 39.136719 18.210938 38.824219 17.214844 38.425781 16.261719 C 38.019531 15.285156 37.515625 14.359375 36.933594 13.496094 C 36.34375 12.625 35.671875 11.8125 34.925781 11.070312 L 34.90625 11.054688 C 34.152344 10.308594 33.328125 9.636719 32.449219 9.046875 C 31.574219 8.46875 30.640625 7.964844 29.660156 7.5625 C 28.699219 7.167969 27.691406 6.859375 26.648438 6.652344 C 25.636719 6.453125 24.582031 6.347656 23.503906 6.347656 L 10.960938 6.347656 L 10.960938 12.367188 C 10.960938 13.210938 10.269531 13.902344 9.414062 13.902344 C 8.5625 13.902344 7.871094 13.214844 7.871094 12.367188 L 7.871094 5.835938 C 7.871094 5.492188 7.9375 5.164062 8.066406 4.859375 C 8.195312 4.546875 8.386719 4.265625 8.625 4.03125 C 8.859375 3.796875 9.144531 3.609375 9.460938 3.476562 L 9.476562 3.46875 C 9.777344 3.347656 10.105469 3.28125 10.445312 3.28125 M 22.832031 29.175781 C 22.855469 29.152344 22.882812 29.132812 22.90625 29.117188 L 29.953125 22.949219 L 21.703125 15.726562 L 21.703125 19.433594 C 21.699219 19.605469 21.5625 19.738281 21.394531 19.738281 L 20.15625 19.734375 C 19.828125 19.734375 19.496094 19.738281 19.15625 19.757812 C 18.828125 19.773438 18.507812 19.792969 18.183594 19.824219 C 17.878906 19.855469 17.574219 19.894531 17.269531 19.941406 C 16.980469 19.988281 16.679688 20.046875 16.359375 20.113281 C 16.015625 20.1875 15.679688 20.273438 15.351562 20.367188 C 15.03125 20.457031 14.714844 20.5625 14.402344 20.683594 C 14.101562 20.792969 13.804688 20.921875 13.507812 21.0625 C 13.226562 21.191406 12.949219 21.339844 12.675781 21.492188 C 12.578125 21.550781 12.421875 21.65625 12.328125 21.699219 C 12.144531 21.816406 11.953125 21.945312 11.761719 22.082031 C 11.578125 22.214844 11.394531 22.355469 11.214844 22.5 C 10.90625 22.753906 10.628906 23.023438 10.339844 23.304688 L 9.984375 23.699219 C 9.800781 23.90625 9.628906 24.128906 9.464844 24.355469 C 9.300781 24.582031 9.144531 24.824219 8.996094 25.070312 C 8.847656 25.320312 8.710938 25.570312 8.589844 25.824219 C 8.46875 26.074219 8.355469 26.335938 8.253906 26.601562 C 8.15625 26.859375 8.066406 27.125 7.988281 27.402344 C 7.910156 27.671875 7.84375 27.949219 7.785156 28.234375 C 7.730469 28.527344 7.683594 28.816406 7.652344 29.101562 C 7.617188 29.394531 7.59375 29.6875 7.585938 29.96875 C 7.574219 30.253906 7.578125 30.546875 7.59375 30.84375 C 7.609375 31.132812 7.632812 31.433594 7.671875 31.738281 L 7.675781 31.773438 C 7.710938 32.0625 7.761719 32.355469 7.816406 32.644531 C 7.878906 32.941406 7.949219 33.238281 8.03125 33.519531 C 8.09375 33.75 8.167969 33.976562 8.246094 34.210938 C 8.328125 34.445312 8.414062 34.671875 8.503906 34.890625 C 8.59375 35.113281 8.695312 35.332031 8.796875 35.550781 C 8.902344 35.765625 9.015625 35.988281 9.144531 36.222656 L 9.351562 36.578125 C 9.292969 35.179688 9.65625 33.121094 10.125 31.804688 C 10.492188 30.769531 11.007812 29.796875 11.710938 28.945312 C 12.351562 28.164062 13.148438 27.484375 14.121094 26.953125 C 14.550781 26.71875 15 26.519531 15.464844 26.355469 C 15.945312 26.1875 16.445312 26.058594 16.953125 25.957031 C 17.457031 25.859375 17.980469 25.792969 18.515625 25.757812 L 18.519531 25.757812 C 19.070312 25.71875 19.640625 25.71875 20.21875 25.738281 L 21.394531 25.785156 C 21.566406 25.785156 21.703125 25.921875 21.703125 26.089844 L 21.703125 30.175781 Z M 22.832031 29.175781 " fill-opacity="1" fill-rule="evenodd"/></g></svg>