<svg xmlns="http://www.w3.org/2000/svg" xmlns:xlink="http://www.w3.org/1999/xlink" width="500" zoomAndPan="magnify" viewBox="0 0 375 82.499998" height="110" preserveAspectRatio="xMidYMid meet" version="1.0"><defs><g/><clipPath id="356b6886be"><path d="M 1.128906 0 L 373.871094 0 L 373.871094 82.003906 L 1.128906 82.003906 Z M 1.128906 0 " clip-rule="nonzero"/></clipPath><clipPath id="d5f6073716"><path d="M 20.480469 21 L 32 21 L 32 71.210938 L 20.480469 71.210938 Z M 20.480469 21 " clip-rule="nonzero"/></clipPath><clipPath id="49ded04433"><path d="M 20.480469 21 L 30 21 L 30 29 L 20.480469 29 Z M 20.480469 21 " clip-rule="nonzero"/></clipPath><clipPath id="4e80cfa01b"><path d="M 20.480469 62 L 30 62 L 30 71.210938 L 20.480469 71.210938 Z M 20.480469 62 " clip-rule="nonzero"/></clipPath><clipPath id="7bc8bc110a"><path d="M 74 21 L 86.082031 21 L 86.082031 71.210938 L 74 71.210938 Z M 74 21 " clip-rule="nonzero"/></clipPath><clipPath id="a69b1a7e2a"><path d="M 77 62 L 86.082031 62 L 86.082031 71.210938 L 77 71.210938 Z M 77 62 " clip-rule="nonzero"/></clipPath><clipPath id="88ea162415"><path d="M 36 10.824219 L 70 10.824219 L 70 71.210938 L 36 71.210938 Z M 36 10.824219 " clip-rule="nonzero"/></clipPath><clipPath id="7736cae46e"><path d="M 31 21 L 37 21 L 37 71.210938 L 31 71.210938 Z M 31 21 " clip-rule="nonzero"/></clipPath><clipPath id="2f00c619ae"><path d="M 69 21 L 75 21 L 75 71.210938 L 69 71.210938 Z M 69 21 " clip-rule="nonzero"/></clipPath></defs><g clip-path="url(#356b6886be)"><path fill="#ffffff" d="M 1.128906 0 L 373.871094 0 L 373.871094 82.003906 L 1.128906 82.003906 Z M 1.128906 0 " fill-opacity="1" fill-rule="nonzero"/><path fill="#ffffff" d="M 1.128906 0 L 373.871094 0 L 373.871094 82.003906 L 1.128906 82.003906 Z M 1.128906 0 " fill-opacity="1" fill-rule="nonzero"/></g><g clip-path="url(#d5f6073716)"><path fill="#995726" d="M 29.070312 21.085938 C 28.597656 23.425781 26.804688 26.875 20.578125 28.316406 C 20.519531 28.695312 20.484375 29.085938 20.484375 29.480469 L 20.484375 62.796875 C 27.953125 64.492188 29.109375 69.054688 29.214844 71.210938 L 31.378906 71.210938 L 31.378906 21.085938 L 29.070312 21.085938 " fill-opacity="1" fill-rule="nonzero"/></g><g clip-path="url(#49ded04433)"><path fill="#5b3922" d="M 29.070312 21.085938 L 28.828125 21.085938 C 24.617188 21.085938 21.140625 24.234375 20.578125 28.316406 C 26.804688 26.875 28.597656 23.425781 29.070312 21.085938 " fill-opacity="1" fill-rule="nonzero"/></g><g clip-path="url(#4e80cfa01b)"><path fill="#5b3922" d="M 20.484375 62.796875 L 20.484375 62.820312 C 20.484375 67.453125 24.222656 71.210938 28.828125 71.210938 L 29.214844 71.210938 C 29.109375 69.054688 27.953125 64.492188 20.484375 62.796875 " fill-opacity="1" fill-rule="nonzero"/></g><g clip-path="url(#7bc8bc110a)"><path fill="#995726" d="M 86.074219 62.742188 L 86.074219 29.480469 C 86.074219 29.101562 86.046875 28.734375 85.996094 28.371094 C 79.5625 26.960938 77.730469 23.453125 77.25 21.085938 L 74.765625 21.085938 L 74.765625 71.210938 L 77.105469 71.210938 C 77.214844 69.03125 78.390625 64.394531 86.074219 62.742188 " fill-opacity="1" fill-rule="nonzero"/></g><path fill="#5b3922" d="M 85.996094 28.371094 C 85.453125 24.261719 81.96875 21.085938 77.734375 21.085938 L 77.25 21.085938 C 77.730469 23.453125 79.5625 26.960938 85.996094 28.371094 " fill-opacity="1" fill-rule="nonzero"/><g clip-path="url(#a69b1a7e2a)"><path fill="#5b3922" d="M 77.105469 71.210938 L 77.734375 71.210938 C 82.339844 71.210938 86.074219 67.453125 86.074219 62.820312 L 86.074219 62.742188 C 78.390625 64.394531 77.214844 69.03125 77.105469 71.210938 " fill-opacity="1" fill-rule="nonzero"/></g><g clip-path="url(#88ea162415)"><path fill="#995726" d="M 61.988281 21.085938 L 44.570312 21.085938 L 44.570312 20.855469 C 44.570312 17.832031 47.015625 15.371094 50.023438 15.371094 L 56.539062 15.371094 C 59.546875 15.371094 61.988281 17.832031 61.988281 20.855469 Z M 66.519531 21.085938 C 66.570312 20.707031 66.609375 20.320312 66.609375 19.921875 L 66.609375 19.222656 C 66.609375 14.585938 62.871094 10.828125 58.265625 10.828125 L 48.296875 10.828125 C 43.6875 10.828125 39.953125 14.585938 39.953125 19.222656 L 39.953125 19.921875 C 39.953125 20.320312 39.988281 20.707031 40.042969 21.085938 L 36.710938 21.085938 L 36.710938 71.210938 L 69.433594 71.210938 L 69.433594 21.085938 L 66.519531 21.085938 " fill-opacity="1" fill-rule="nonzero"/></g><g clip-path="url(#7736cae46e)"><path fill="#d6a479" d="M 31.378906 21.085938 L 31.378906 71.210938 L 36.710938 71.210938 L 36.710938 21.085938 L 31.378906 21.085938 " fill-opacity="1" fill-rule="nonzero"/></g><g clip-path="url(#2f00c619ae)"><path fill="#d6a479" d="M 69.433594 21.085938 L 69.433594 71.210938 L 74.765625 71.210938 L 74.765625 21.085938 L 69.433594 21.085938 " fill-opacity="1" fill-rule="nonzero"/></g><path fill="#5b3922" d="M 37.152344 43.46875 L 30.933594 43.46875 L 30.933594 37.472656 L 33.394531 37.472656 C 33.367188 37.558594 33.347656 37.65625 33.347656 37.757812 L 33.347656 38.804688 C 33.347656 39.257812 33.632812 39.617188 33.984375 39.617188 C 34.335938 39.617188 34.621094 39.257812 34.621094 38.804688 L 34.621094 37.757812 C 34.621094 37.65625 34.605469 37.558594 34.578125 37.472656 L 37.152344 37.472656 Z M 29.742188 36.320312 L 29.742188 44.617188 L 38.34375 44.617188 L 38.34375 36.320312 L 29.742188 36.320312 " fill-opacity="1" fill-rule="nonzero"/><path fill="#5b3922" d="M 75.207031 43.46875 L 68.992188 43.46875 L 68.992188 37.472656 L 71.503906 37.472656 C 71.480469 37.558594 71.460938 37.65625 71.460938 37.757812 L 71.460938 38.804688 C 71.460938 39.257812 71.746094 39.617188 72.097656 39.617188 C 72.449219 39.617188 72.734375 39.257812 72.734375 38.804688 L 72.734375 37.757812 C 72.734375 37.65625 72.714844 37.558594 72.691406 37.472656 L 75.207031 37.472656 Z M 67.796875 36.320312 L 67.796875 44.617188 L 76.398438 44.617188 L 76.398438 36.320312 L 67.796875 36.320312 " fill-opacity="1" fill-rule="nonzero"/><path fill="#53c391" d="M 66.140625 47.738281 C 65.726562 50.867188 62.226562 52.976562 58.324219 52.453125 C 54.421875 51.929688 51.59375 48.96875 52.007812 45.84375 C 52.421875 42.714844 55.921875 40.601562 59.828125 41.125 C 63.730469 41.648438 66.554688 44.609375 66.140625 47.738281 " fill-opacity="1" fill-rule="nonzero"/><path fill="#e3eff1" d="M 59.808594 41.277344 C 55.992188 40.765625 52.5625 42.820312 52.15625 45.863281 C 51.757812 48.898438 54.53125 51.792969 58.347656 52.304688 C 62.15625 52.816406 65.585938 50.753906 65.988281 47.71875 C 66.394531 44.679688 63.621094 41.789062 59.808594 41.277344 Z M 58.304688 52.605469 C 54.324219 52.070312 51.433594 49.027344 51.859375 45.820312 C 52.285156 42.617188 55.867188 40.441406 59.847656 40.972656 C 63.820312 41.507812 66.71875 44.550781 66.292969 47.753906 C 65.867188 50.964844 62.285156 53.136719 58.304688 52.605469 " fill-opacity="1" fill-rule="nonzero"/><path fill="#5579a5" d="M 57.753906 46.890625 C 57.753906 46.890625 55.964844 47.007812 54.4375 46.878906 C 54.4375 46.878906 58.0625 47.742188 59 47.855469 L 57.753906 46.890625 " fill-opacity="1" fill-rule="nonzero"/><path fill="#f4f6f3" d="M 62.03125 48.949219 C 62.03125 48.949219 62.5625 47.3125 62.476562 46.867188 L 62.324219 46.734375 L 61.464844 48.488281 L 62.03125 48.949219 " fill-opacity="1" fill-rule="nonzero"/><path fill="#f4f6f3" d="M 54.414062 44.871094 C 54.410156 44.554688 54.5 44.324219 54.5 44.324219 C 54.65625 43.929688 55.324219 44.035156 55.539062 43.882812 C 56.261719 43.367188 56.953125 43.871094 56.953125 43.871094 C 57.695312 44.582031 62.089844 48.867188 62.089844 48.867188 C 62.363281 49.433594 61.449219 49.078125 61.449219 49.078125 L 61.269531 48.992188 C 60.414062 48.03125 59.195312 46.621094 58.050781 45.820312 C 57.074219 45.140625 55.445312 44.929688 54.414062 44.871094 " fill-opacity="1" fill-rule="nonzero"/><path fill="#262f63" d="M 58.050781 45.820312 C 59.195312 46.621094 60.414062 48.03125 61.269531 48.992188 L 55.375 46.253906 C 54.589844 45.878906 54.417969 45.296875 54.414062 44.871094 C 55.445312 44.929688 57.074219 45.140625 58.050781 45.820312 " fill-opacity="1" fill-rule="nonzero"/><path fill="#5579a5" d="M 60.039062 47.304688 C 61.539062 47.867188 63.84375 48.589844 65.1875 48.53125 C 65.1875 48.53125 63.558594 49.265625 60.535156 48.167969 C 60.238281 47.835938 59.914062 47.492188 59.585938 47.15625 C 59.707031 47.183594 59.855469 47.230469 60.039062 47.304688 " fill-opacity="1" fill-rule="nonzero"/><path fill="#050607" d="M 55.507812 44.070312 C 55.507812 44.070312 56.164062 44.089844 56.28125 44.371094 C 56.28125 44.371094 56.613281 44.0625 55.484375 43.910156 C 55.484375 43.910156 55.304688 44.054688 55.507812 44.070312 " fill-opacity="1" fill-rule="nonzero"/><path fill="#f4f6f3" d="M 60.476562 48.167969 C 60.4375 48.433594 60.628906 48.679688 60.898438 48.714844 C 61.171875 48.75 61.417969 48.566406 61.449219 48.300781 C 61.488281 48.035156 61.296875 47.789062 61.027344 47.753906 C 60.757812 47.71875 60.511719 47.902344 60.476562 48.167969 " fill-opacity="1" fill-rule="nonzero"/><path fill="#050607" d="M 60.578125 48.183594 C 60.554688 48.347656 60.667969 48.496094 60.835938 48.519531 C 60.996094 48.539062 61.148438 48.425781 61.167969 48.261719 C 61.191406 48.09375 61.074219 47.945312 60.910156 47.925781 C 60.75 47.902344 60.597656 48.015625 60.578125 48.183594 " fill-opacity="1" fill-rule="nonzero"/><path fill="#f4f6f3" d="M 62.511719 48.574219 C 62.480469 48.78125 62.628906 48.972656 62.84375 49 C 63.050781 49.03125 63.242188 48.886719 63.269531 48.679688 C 63.296875 48.472656 63.148438 48.28125 62.941406 48.253906 C 62.726562 48.226562 62.535156 48.371094 62.511719 48.574219 " fill-opacity="1" fill-rule="nonzero"/><path fill="#050607" d="M 62.589844 48.585938 C 62.570312 48.714844 62.660156 48.832031 62.789062 48.851562 C 62.914062 48.863281 63.03125 48.777344 63.050781 48.648438 C 63.0625 48.519531 62.976562 48.402344 62.851562 48.386719 C 62.722656 48.371094 62.605469 48.457031 62.589844 48.585938 " fill-opacity="1" fill-rule="nonzero"/><path fill="#f4f6f3" d="M 56.015625 47.265625 C 55.984375 47.484375 56.140625 47.6875 56.367188 47.71875 C 56.589844 47.746094 56.792969 47.597656 56.824219 47.375 C 56.851562 47.15625 56.695312 46.953125 56.472656 46.921875 C 56.25 46.894531 56.042969 47.046875 56.015625 47.265625 " fill-opacity="1" fill-rule="nonzero"/><path fill="#050607" d="M 56.097656 47.277344 C 56.082031 47.410156 56.175781 47.539062 56.3125 47.558594 C 56.445312 47.574219 56.566406 47.480469 56.589844 47.34375 C 56.605469 47.207031 56.511719 47.085938 56.375 47.066406 C 56.238281 47.046875 56.117188 47.144531 56.097656 47.277344 " fill-opacity="1" fill-rule="nonzero"/><path fill="#f4f6f3" d="M 54.957031 47.183594 C 54.9375 47.351562 55.058594 47.511719 55.230469 47.53125 C 55.40625 47.558594 55.566406 47.4375 55.589844 47.265625 C 55.609375 47.097656 55.488281 46.941406 55.316406 46.914062 C 55.140625 46.890625 54.980469 47.011719 54.957031 47.183594 " fill-opacity="1" fill-rule="nonzero"/><path fill="#050607" d="M 55.027344 47.191406 C 55.007812 47.296875 55.085938 47.394531 55.1875 47.40625 C 55.296875 47.421875 55.394531 47.347656 55.40625 47.242188 C 55.421875 47.140625 55.34375 47.039062 55.242188 47.023438 C 55.136719 47.011719 55.039062 47.085938 55.027344 47.191406 " fill-opacity="1" fill-rule="nonzero"/><path fill="#050607" d="M 57.042969 44.617188 C 57.035156 44.683594 57.0625 44.734375 57.105469 44.738281 C 57.144531 44.742188 57.183594 44.699219 57.191406 44.636719 C 57.199219 44.578125 57.175781 44.523438 57.136719 44.515625 C 57.089844 44.515625 57.054688 44.558594 57.042969 44.617188 " fill-opacity="1" fill-rule="nonzero"/><path fill="#050607" d="M 57.265625 44.808594 C 57.261719 44.863281 57.28125 44.910156 57.324219 44.917969 C 57.359375 44.925781 57.394531 44.882812 57.402344 44.824219 C 57.40625 44.773438 57.386719 44.722656 57.347656 44.714844 C 57.308594 44.710938 57.273438 44.753906 57.265625 44.808594 " fill-opacity="1" fill-rule="nonzero"/><path fill="#050607" d="M 57.488281 45.011719 C 57.480469 45.0625 57.503906 45.109375 57.539062 45.113281 C 57.578125 45.121094 57.613281 45.078125 57.621094 45.027344 C 57.628906 44.972656 57.601562 44.925781 57.5625 44.921875 C 57.53125 44.914062 57.496094 44.957031 57.488281 45.011719 " fill-opacity="1" fill-rule="nonzero"/><path fill="#050607" d="M 57.738281 45.230469 C 57.734375 45.277344 57.757812 45.320312 57.792969 45.324219 C 57.820312 45.328125 57.851562 45.292969 57.859375 45.246094 C 57.867188 45.195312 57.84375 45.15625 57.8125 45.148438 C 57.777344 45.144531 57.746094 45.179688 57.738281 45.230469 " fill-opacity="1" fill-rule="nonzero"/><path fill="#050607" d="M 57.964844 45.433594 C 57.957031 45.472656 57.976562 45.5 58 45.511719 C 58.027344 45.511719 58.050781 45.484375 58.058594 45.441406 C 58.0625 45.402344 58.046875 45.371094 58.019531 45.371094 C 57.996094 45.367188 57.964844 45.394531 57.964844 45.433594 " fill-opacity="1" fill-rule="nonzero"/><path fill="#4877b5" d="M 66.195312 66.761719 L 57.785156 66.761719 L 57.785156 56.644531 L 66.195312 56.644531 L 66.195312 66.761719 " fill-opacity="1" fill-rule="nonzero"/><path fill="#e3eff1" d="M 58.042969 66.503906 L 65.9375 66.503906 L 65.9375 56.902344 L 58.042969 56.902344 Z M 66.449219 67.015625 L 57.53125 67.015625 L 57.53125 56.390625 L 66.449219 56.390625 L 66.449219 67.015625 " fill-opacity="1" fill-rule="nonzero"/><path fill="#e3eff1" d="M 59.367188 60.117188 C 59.367188 60.117188 59.566406 59.550781 59.980469 59.996094 C 59.980469 59.996094 60.1875 59.496094 60.578125 59.941406 C 60.578125 59.941406 60.125 59.765625 60 60.132812 C 60 60.132812 59.78125 59.738281 59.367188 60.117188 " fill-opacity="1" fill-rule="nonzero"/><path fill="#e3eff1" d="M 60.539062 60.480469 C 60.539062 60.480469 60.714844 59.972656 61.089844 60.371094 C 61.089844 60.371094 61.273438 59.925781 61.625 60.324219 C 61.625 60.324219 61.214844 60.164062 61.101562 60.492188 C 61.101562 60.492188 60.90625 60.140625 60.539062 60.480469 " fill-opacity="1" fill-rule="nonzero"/><path fill="#db315e" d="M 62.835938 61.261719 C 62.835938 61.261719 62.976562 61.027344 63.558594 61.191406 L 64.023438 61.71875 C 64.023438 61.71875 63.421875 61.300781 62.835938 61.261719 " fill-opacity="1" fill-rule="nonzero"/><path fill="#fcfafc" d="M 62.171875 61.453125 C 62.171875 61.453125 62.621094 61.03125 63.375 61.28125 C 63.375 61.28125 64 61.542969 64.074219 61.6875 C 64.140625 61.832031 64.105469 62.085938 64.105469 62.085938 C 64.105469 62.085938 62.484375 61.425781 62.171875 61.453125 " fill-opacity="1" fill-rule="nonzero"/><path fill="#d6d7cc" d="M 64.347656 62.515625 C 64.347656 62.515625 64.621094 62.0625 63.195312 61.636719 C 61.769531 61.210938 61.851562 61.4375 61.820312 61.636719 C 61.820312 61.636719 63.742188 61.804688 64.347656 62.515625 " fill-opacity="1" fill-rule="nonzero"/><path fill="#a4add5" d="M 61.203125 61.839844 C 61.203125 61.839844 61.292969 61.191406 62.96875 61.753906 C 64.640625 62.320312 64.589844 62.21875 64.617188 62.695312 L 61.203125 61.839844 " fill-opacity="1" fill-rule="nonzero"/><path fill="#eca250" d="M 62.921875 62.160156 C 62.921875 62.160156 62.972656 61.878906 63.621094 62.160156 C 64.265625 62.441406 63.980469 62.492188 63.980469 62.492188 L 62.921875 62.160156 " fill-opacity="1" fill-rule="nonzero"/><path fill="#eca250" d="M 61.722656 61.878906 C 61.722656 61.878906 61.769531 61.578125 62.375 61.78125 L 62.453125 62.039062 L 61.722656 61.878906 " fill-opacity="1" fill-rule="nonzero"/><path fill="#fefcf6" d="M 59.726562 61.570312 C 59.726562 61.570312 60.355469 62.703125 60.609375 63.472656 C 60.609375 63.472656 63.273438 63.570312 64.621094 63.433594 C 64.621094 63.433594 64.722656 62.816406 64.648438 62.652344 C 64.648438 62.652344 61.027344 61.429688 59.726562 61.570312 " fill-opacity="1" fill-rule="nonzero"/><path fill="#5b7383" d="M 62.46875 62.695312 C 62.457031 62.746094 62.410156 62.78125 62.363281 62.773438 C 62.308594 62.765625 62.273438 62.714844 62.285156 62.664062 C 62.289062 62.613281 62.335938 62.578125 62.390625 62.585938 C 62.4375 62.59375 62.472656 62.640625 62.46875 62.695312 " fill-opacity="1" fill-rule="nonzero"/><path fill="#5b7383" d="M 62.089844 62.625 C 62.082031 62.679688 62.035156 62.710938 61.980469 62.707031 C 61.933594 62.699219 61.898438 62.652344 61.902344 62.601562 C 61.914062 62.546875 61.960938 62.515625 62.007812 62.519531 C 62.0625 62.527344 62.097656 62.574219 62.089844 62.625 " fill-opacity="1" fill-rule="nonzero"/><path fill="#5b7383" d="M 63.050781 62.765625 C 63.050781 62.796875 63.023438 62.816406 62.988281 62.8125 C 62.957031 62.804688 62.941406 62.777344 62.941406 62.746094 C 62.949219 62.714844 62.976562 62.695312 63.003906 62.703125 C 63.035156 62.703125 63.058594 62.734375 63.050781 62.765625 " fill-opacity="1" fill-rule="nonzero"/><path fill="#5b7383" d="M 62.867188 61.960938 C 62.863281 61.988281 62.835938 62.007812 62.804688 62.003906 C 62.773438 62 62.753906 61.96875 62.761719 61.941406 C 62.761719 61.910156 62.792969 61.886719 62.824219 61.894531 C 62.851562 61.898438 62.871094 61.925781 62.867188 61.960938 " fill-opacity="1" fill-rule="nonzero"/><path fill="#5b7383" d="M 62.765625 62.734375 C 62.761719 62.769531 62.722656 62.796875 62.683594 62.792969 C 62.648438 62.785156 62.621094 62.75 62.628906 62.710938 C 62.632812 62.671875 62.667969 62.648438 62.707031 62.65625 C 62.742188 62.660156 62.769531 62.695312 62.765625 62.734375 " fill-opacity="1" fill-rule="nonzero"/><path fill="#5b7383" d="M 63.285156 62.792969 C 63.28125 62.820312 63.257812 62.839844 63.234375 62.832031 C 63.203125 62.828125 63.191406 62.804688 63.191406 62.78125 C 63.195312 62.753906 63.222656 62.738281 63.246094 62.738281 C 63.273438 62.742188 63.289062 62.769531 63.285156 62.792969 " fill-opacity="1" fill-rule="nonzero"/><path fill="#5b7383" d="M 64.261719 62.382812 C 64.257812 62.40625 64.230469 62.425781 64.203125 62.421875 C 64.179688 62.417969 64.160156 62.394531 64.164062 62.367188 C 64.167969 62.339844 64.191406 62.324219 64.21875 62.324219 C 64.246094 62.332031 64.265625 62.355469 64.261719 62.382812 " fill-opacity="1" fill-rule="nonzero"/><path fill="#5b7383" d="M 63.511719 62.820312 C 63.507812 62.835938 63.488281 62.855469 63.46875 62.851562 C 63.445312 62.847656 63.433594 62.828125 63.4375 62.804688 C 63.441406 62.785156 63.460938 62.769531 63.480469 62.773438 C 63.5 62.777344 63.511719 62.796875 63.511719 62.820312 " fill-opacity="1" fill-rule="nonzero"/><path fill="#5b7383" d="M 63.707031 62.84375 C 63.707031 62.863281 63.6875 62.875 63.671875 62.871094 C 63.652344 62.867188 63.640625 62.855469 63.644531 62.832031 C 63.644531 62.816406 63.664062 62.800781 63.683594 62.804688 C 63.699219 62.808594 63.710938 62.824219 63.707031 62.84375 " fill-opacity="1" fill-rule="nonzero"/><path fill="#5b7383" d="M 63.820312 62.855469 C 63.816406 62.871094 63.832031 62.886719 63.847656 62.890625 C 63.859375 62.894531 63.878906 62.882812 63.878906 62.867188 C 63.878906 62.851562 63.871094 62.832031 63.855469 62.828125 C 63.839844 62.828125 63.820312 62.839844 63.820312 62.855469 " fill-opacity="1" fill-rule="nonzero"/><path fill="#5b7383" d="M 64.027344 62.886719 C 64.023438 62.902344 64.035156 62.917969 64.050781 62.921875 C 64.066406 62.925781 64.082031 62.914062 64.082031 62.898438 C 64.082031 62.882812 64.074219 62.867188 64.058594 62.863281 C 64.042969 62.863281 64.027344 62.871094 64.027344 62.886719 " fill-opacity="1" fill-rule="nonzero"/><path fill="#5e5a4f" d="M 63.375 61.589844 C 63.375 61.589844 63.378906 61.410156 63.582031 61.511719 C 63.789062 61.621094 63.703125 61.742188 63.703125 61.742188 L 63.375 61.589844 " fill-opacity="1" fill-rule="nonzero"/><path fill="#5e5a4f" d="M 63.167969 61.316406 C 63.167969 61.316406 62.6875 61.199219 62.476562 61.359375 L 63.03125 61.445312 C 63.03125 61.445312 63.125 61.398438 63.167969 61.316406 " fill-opacity="1" fill-rule="nonzero"/><path fill="#5b7383" d="M 62.65625 61.902344 C 62.652344 61.941406 62.617188 61.964844 62.578125 61.960938 C 62.542969 61.953125 62.515625 61.917969 62.519531 61.878906 C 62.527344 61.84375 62.5625 61.816406 62.601562 61.824219 C 62.636719 61.824219 62.660156 61.863281 62.65625 61.902344 " fill-opacity="1" fill-rule="nonzero"/><path fill="#5b7383" d="M 59.957031 61.898438 L 59.914062 61.917969 L 59.96875 62.027344 L 60.023438 62 C 60.023438 62 63.957031 62.609375 64.679688 62.886719 C 64.679688 62.886719 64.679688 62.84375 64.675781 62.820312 C 64.675781 62.820312 60.429688 61.824219 59.957031 61.898438 " fill-opacity="1" fill-rule="nonzero"/><path fill="#a9afb1" d="M 59.777344 61.625 C 59.777344 61.625 60.128906 62.082031 60.421875 62.628906 C 60.539062 62.855469 60.753906 63.308594 60.722656 63.386719 C 60.6875 63.472656 60.632812 63.347656 60.445312 62.90625 C 60.335938 62.652344 60.023438 62 59.777344 61.625 " fill-opacity="1" fill-rule="nonzero"/><path fill="#548fd3" d="M 64.933594 63.464844 C 64.933594 63.464844 61.332031 64.21875 60.429688 63.457031 C 59.941406 63.050781 60.414062 63.164062 60.945312 63.390625 C 61.480469 63.613281 61.386719 63.441406 61.5625 63.335938 C 61.734375 63.230469 62.089844 63.390625 62.199219 63.457031 C 62.3125 63.527344 62.4375 63.3125 62.699219 63.363281 C 62.957031 63.414062 63.035156 63.527344 63.285156 63.457031 C 63.539062 63.390625 63.484375 63.230469 63.820312 63.296875 C 64.15625 63.363281 64.328125 63.410156 64.433594 63.296875 C 64.539062 63.183594 64.933594 63.464844 64.933594 63.464844 " fill-opacity="1" fill-rule="nonzero"/><path fill="#90c8d0" d="M 64.933594 63.464844 C 64.933594 63.464844 61.332031 64.457031 60.308594 63.652344 C 59.808594 63.257812 60.414062 63.277344 60.945312 63.5 C 61.480469 63.722656 61.386719 63.550781 61.5625 63.445312 C 61.734375 63.339844 62.089844 63.5 62.199219 63.570312 C 62.3125 63.640625 62.375 63.410156 62.699219 63.472656 C 62.957031 63.527344 63.035156 63.632812 63.285156 63.570312 C 63.539062 63.503906 63.484375 63.339844 63.820312 63.410156 C 64.15625 63.472656 64.328125 63.523438 64.433594 63.410156 C 64.539062 63.292969 64.933594 63.464844 64.933594 63.464844 " fill-opacity="1" fill-rule="nonzero"/><path fill="#548fd3" d="M 64.992188 63.464844 C 64.992188 63.464844 63.902344 63.828125 62.667969 63.96875 C 61.996094 64.042969 60.746094 64.128906 60.507812 63.886719 C 59.84375 63.222656 60.585938 63.472656 60.941406 63.625 C 61.121094 63.707031 61.375 63.734375 61.535156 63.617188 C 61.703125 63.503906 62.066406 63.644531 62.183594 63.707031 C 62.296875 63.765625 62.34375 63.539062 62.671875 63.582031 C 62.941406 63.617188 63.023438 63.722656 63.269531 63.644531 C 63.511719 63.5625 63.453125 63.40625 63.789062 63.453125 C 64.132812 63.5 64.378906 63.550781 64.480469 63.429688 C 64.578125 63.3125 64.992188 63.464844 64.992188 63.464844 " fill-opacity="1" fill-rule="nonzero"/><path fill="#d4502c" d="M 49.164062 64.1875 C 46.542969 65.738281 42.683594 64.050781 40.550781 60.410156 C 38.417969 56.765625 38.8125 52.550781 41.433594 50.996094 C 44.058594 49.441406 47.914062 51.132812 50.046875 54.777344 C 52.183594 58.417969 51.789062 62.628906 49.164062 64.1875 " fill-opacity="1" fill-rule="nonzero"/><path fill="#e3eff1" d="M 41.632812 51.335938 C 39.203125 52.78125 38.871094 56.757812 40.890625 60.207031 C 42.910156 63.652344 46.535156 65.285156 48.964844 63.84375 C 51.394531 62.402344 51.730469 58.421875 49.710938 54.976562 C 47.6875 51.53125 44.0625 49.898438 41.632812 51.335938 Z M 49.367188 64.527344 C 46.558594 66.191406 42.453125 64.429688 40.210938 60.609375 C 37.972656 56.785156 38.429688 52.320312 41.234375 50.65625 C 44.039062 48.992188 48.144531 50.753906 50.386719 54.574219 C 52.625 58.398438 52.171875 62.863281 49.367188 64.527344 " fill-opacity="1" fill-rule="nonzero"/><path fill="#f7eb1d" d="M 45.285156 52.167969 C 45.574219 52.65625 45.410156 53.289062 44.925781 53.578125 C 44.4375 53.863281 43.808594 53.703125 43.523438 53.210938 C 43.238281 52.726562 43.398438 52.089844 43.886719 51.804688 C 44.371094 51.519531 45 51.675781 45.285156 52.167969 " fill-opacity="1" fill-rule="nonzero"/><path fill="#f79827" d="M 46.300781 61.605469 C 45.296875 60.429688 43.808594 58.359375 43.972656 56.691406 C 44.035156 56.070312 43.59375 56.324219 43.558594 56.660156 C 43.210938 59.59375 45.050781 62.074219 45.050781 62.074219 C 45.804688 62.277344 46.300781 61.605469 46.300781 61.605469 " fill-opacity="1" fill-rule="nonzero"/><path fill="#8ad03a" d="M 44.058594 56.066406 C 44.230469 55.855469 44.40625 55.675781 44.585938 55.527344 C 44.4375 55.484375 44.273438 55.453125 44.085938 55.453125 C 44.085938 55.453125 44.285156 55.246094 44.796875 55.363281 C 44.90625 55.289062 45.011719 55.226562 45.121094 55.167969 C 44.957031 55.113281 44.773438 55.074219 44.5625 55.078125 C 44.5625 55.078125 44.800781 54.832031 45.417969 55.023438 C 45.546875 54.96875 45.671875 54.929688 45.789062 54.898438 C 45.589844 54.800781 45.339844 54.726562 45.042969 54.730469 C 45.042969 54.730469 45.363281 54.402344 46.222656 54.808594 C 46.574219 54.757812 46.808594 54.78125 46.808594 54.78125 C 44.136719 53.378906 43.675781 54.933594 43.625 55.949219 C 43.136719 55.273438 42.152344 54.351562 41.019531 55.503906 C 41.011719 55.515625 41.007812 55.527344 41.003906 55.535156 C 41.046875 55.53125 41.175781 55.515625 41.375 55.523438 C 41.726562 55.238281 42.101562 55.414062 42.101562 55.414062 C 41.90625 55.429688 41.78125 55.488281 41.699219 55.550781 C 41.796875 55.570312 41.898438 55.585938 42.007812 55.609375 C 42.308594 55.464844 42.585938 55.597656 42.585938 55.597656 C 42.449219 55.605469 42.347656 55.640625 42.273438 55.675781 C 42.371094 55.703125 42.46875 55.738281 42.574219 55.777344 C 42.847656 55.675781 43.082031 55.792969 43.082031 55.792969 C 42.960938 55.796875 42.867188 55.824219 42.796875 55.859375 C 43.035156 55.957031 43.292969 56.082031 43.566406 56.242188 C 42.417969 55.785156 40.296875 55.546875 40.351562 57.914062 C 40.359375 57.933594 40.367188 57.949219 40.367188 57.964844 C 40.40625 57.921875 40.519531 57.785156 40.722656 57.617188 C 40.769531 56.90625 41.320312 56.8125 41.320312 56.8125 C 41.144531 57.003906 41.082031 57.199219 41.070312 57.363281 C 41.175781 57.296875 41.292969 57.222656 41.429688 57.160156 C 41.574219 56.691406 41.976562 56.617188 41.976562 56.617188 C 41.859375 56.753906 41.789062 56.886719 41.757812 57.015625 C 41.878906 56.964844 42.015625 56.917969 42.15625 56.875 C 42.320312 56.496094 42.671875 56.441406 42.671875 56.441406 C 42.5625 56.558594 42.492188 56.675781 42.460938 56.789062 C 42.460938 56.789062 42.816406 56.539062 43.238281 56.460938 C 41.90625 57.042969 39.957031 58.269531 42.34375 60.15625 C 42.363281 60.164062 42.382812 60.175781 42.40625 60.183594 C 42.390625 60.117188 42.355469 59.929688 42.367188 59.632812 C 41.785156 59.074219 42.128906 58.558594 42.128906 58.558594 C 42.160156 58.84375 42.277344 59.035156 42.414062 59.164062 C 42.4375 59.027344 42.46875 58.882812 42.515625 58.726562 C 42.214844 58.261719 42.464844 57.878906 42.464844 57.878906 C 42.492188 58.078125 42.554688 58.234375 42.636719 58.355469 C 42.691406 58.21875 42.753906 58.078125 42.824219 57.925781 C 42.628906 57.507812 42.839844 57.191406 42.839844 57.191406 C 42.859375 57.363281 42.914062 57.503906 42.988281 57.621094 C 43.121094 57.371094 43.292969 57.109375 43.496094 56.835938 C 43.496094 56.871094 43.5 56.886719 43.515625 56.871094 C 43.617188 56.894531 43.738281 56.875 43.851562 56.816406 C 43.867188 56.808594 43.886719 56.800781 43.902344 56.796875 C 43.9375 56.773438 43.972656 56.742188 44.003906 56.714844 C 44.488281 56.996094 44.882812 57.285156 45.199219 57.570312 C 45.230469 57.441406 45.238281 57.289062 45.199219 57.117188 C 45.199219 57.117188 45.507812 57.351562 45.453125 57.808594 C 45.570312 57.921875 45.671875 58.039062 45.765625 58.152344 C 45.808594 58.007812 45.816406 57.839844 45.773438 57.644531 C 45.773438 57.644531 46.140625 57.921875 46.011719 58.460938 C 46.097656 58.589844 46.179688 58.722656 46.242188 58.84375 C 46.332031 58.671875 46.378906 58.449219 46.316406 58.171875 C 46.316406 58.171875 46.808594 58.546875 46.445312 59.269531 C 46.550781 59.542969 46.582031 59.734375 46.585938 59.796875 C 46.605469 59.785156 46.621094 59.769531 46.640625 59.753906 C 48.445312 56.914062 45.527344 56.492188 44.164062 56.449219 C 44.167969 56.4375 44.167969 56.417969 44.171875 56.410156 C 44.675781 56.28125 45.136719 56.214844 45.554688 56.195312 C 45.46875 56.066406 45.351562 55.933594 45.183594 55.816406 C 45.183594 55.816406 45.59375 55.765625 45.921875 56.191406 C 46.09375 56.195312 46.265625 56.207031 46.417969 56.226562 C 46.335938 56.074219 46.210938 55.925781 46.023438 55.792969 C 46.023438 55.792969 46.503906 55.730469 46.839844 56.292969 C 47.015625 56.328125 47.171875 56.371094 47.3125 56.417969 C 47.246094 56.203125 47.097656 55.984375 46.832031 55.792969 C 46.832031 55.792969 47.484375 55.710938 47.800781 56.613281 C 48.167969 56.792969 48.347656 56.960938 48.347656 56.960938 C 47.515625 53.75 45.183594 55.15625 44.058594 56.066406 " fill-opacity="1" fill-rule="nonzero"/><path fill="#355e42" d="M 52.273438 40.234375 L 42.300781 36.109375 L 45.851562 27.429688 L 55.828125 31.5625 L 52.273438 40.234375 " fill-opacity="1" fill-rule="nonzero"/><path fill="#e3eff1" d="M 42.761719 35.914062 L 52.085938 39.773438 L 55.367188 31.753906 L 46.042969 27.890625 Z M 52.46875 40.695312 L 41.84375 36.300781 L 45.660156 26.96875 L 56.28125 31.367188 L 52.46875 40.695312 " fill-opacity="1" fill-rule="nonzero"/><path fill="#a0ccd8" d="M 51.105469 33.121094 L 51.078125 32.808594 L 50.902344 32.816406 Z M 51.105469 33.121094 " fill-opacity="1" fill-rule="nonzero"/><path fill="#6b92a3" d="M 49.730469 32.863281 L 51.160156 33.597656 L 51.105469 33.121094 L 50.902344 32.816406 L 49.730469 32.863281 " fill-opacity="1" fill-rule="nonzero"/><path fill="#a0ccd8" d="M 49.996094 35.207031 L 49.386719 35.753906 L 50.648438 36.273438 L 50.375 35.828125 L 49.996094 35.207031 " fill-opacity="1" fill-rule="nonzero"/><path fill="#c8dee3" d="M 48.734375 34.8125 L 48.609375 35.429688 L 49.386719 35.753906 L 49.996094 35.207031 L 48.734375 34.8125 " fill-opacity="1" fill-rule="nonzero"/><path fill="#a0ccd8" d="M 48.71875 34.808594 L 47.769531 34.515625 L 47.992188 35.175781 L 48.230469 35.273438 L 48.609375 35.429688 L 48.734375 34.8125 L 48.71875 34.808594 " fill-opacity="1" fill-rule="nonzero"/><path fill="#4f7188" d="M 48.074219 33.8125 L 48.109375 33.828125 L 48.875 34.144531 L 49.019531 33.441406 L 48.074219 33.8125 " fill-opacity="1" fill-rule="nonzero"/><path fill="#608ca6" d="M 48.71875 34.808594 L 48.734375 34.8125 L 48.742188 34.800781 Z M 48.71875 34.808594 " fill-opacity="1" fill-rule="nonzero"/><path fill="#4f7188" d="M 49.414062 34.363281 L 48.742188 34.800781 L 48.734375 34.8125 L 49.996094 35.207031 L 50.234375 34.992188 L 49.414062 34.363281 " fill-opacity="1" fill-rule="nonzero"/><path fill="#6b92a3" d="M 48.875 34.144531 L 49.414062 34.363281 L 49.984375 34.28125 L 49.167969 33.390625 L 49.019531 33.441406 L 48.875 34.144531 " fill-opacity="1" fill-rule="nonzero"/><path fill="#d9dfdd" d="M 49.019531 33.441406 L 49.167969 33.390625 L 49.640625 33.207031 L 49.433594 32.871094 L 49.140625 32.886719 L 48.726562 32.898438 L 49.058594 33.269531 L 49.019531 33.441406 " fill-opacity="1" fill-rule="nonzero"/><path fill="#d9dfdd" d="M 49.996094 35.207031 L 50.375 35.828125 L 50.945312 35.53125 L 50.234375 34.992188 L 49.996094 35.207031 " fill-opacity="1" fill-rule="nonzero"/><path fill="#85a3b0" d="M 51.429688 36.265625 L 52.097656 36.875 L 51.566406 35.21875 L 50.945312 35.53125 L 51.429688 36.265625 " fill-opacity="1" fill-rule="nonzero"/><path fill="#a0ccd8" d="M 51.429688 36.265625 L 50.648438 36.273438 L 52.097656 36.875 Z M 51.429688 36.265625 " fill-opacity="1" fill-rule="nonzero"/><path fill="#608ca6" d="M 50.945312 35.53125 L 50.578125 35.722656 L 50.375 35.828125 L 50.648438 36.273438 L 51.429688 36.265625 L 50.945312 35.53125 " fill-opacity="1" fill-rule="nonzero"/><path fill="#a0ccd8" d="M 47.59375 32.945312 L 48.726562 32.898438 L 48.035156 32.144531 L 47.066406 32.683594 L 47.589844 32.945312 L 47.59375 32.945312 " fill-opacity="1" fill-rule="nonzero"/><path fill="#a0ccd8" d="M 50.503906 32.234375 L 49.445312 31.71875 L 49.375 31.75 L 49.492188 32.636719 L 49.730469 32.863281 L 50.902344 32.816406 L 50.503906 32.234375 " fill-opacity="1" fill-rule="nonzero"/><path fill="#a0ccd8" d="M 49.433594 32.871094 L 49.640625 33.207031 L 49.167969 33.390625 L 49.984375 34.28125 L 51.207031 34.109375 L 51.160156 33.597656 L 49.730469 32.863281 L 49.433594 32.871094 " fill-opacity="1" fill-rule="nonzero"/><path fill="#6b92a3" d="M 48.875 31.976562 L 49.375 31.75 L 49.445312 31.71875 L 50.011719 31.519531 L 49.652344 31.007812 L 49.53125 31.011719 L 49.386719 31.691406 L 48.714844 31.363281 L 48.402344 31.484375 L 48.171875 32.054688 L 48.992188 32.101562 L 48.875 31.976562 " fill-opacity="1" fill-rule="nonzero"/><path fill="#d9dfdd" d="M 50.902344 32.816406 L 51.078125 32.808594 L 51.050781 32.503906 L 50.503906 32.234375 L 50.902344 32.816406 " fill-opacity="1" fill-rule="nonzero"/><path fill="#88c4da" d="M 47.019531 33.675781 L 46.671875 33.839844 L 47.023438 33.683594 Z M 47.019531 33.675781 " fill-opacity="1" fill-rule="nonzero"/><path fill="#88c4da" d="M 46.996094 34.476562 L 46.921875 34.339844 L 46.671875 33.839844 L 46.328125 34.003906 L 46.398438 34.515625 L 46.855469 34.703125 L 46.996094 34.476562 " fill-opacity="1" fill-rule="nonzero"/><path fill="#6b92a3" d="M 46.996094 34.476562 L 46.855469 34.703125 L 47.992188 35.175781 L 47.769531 34.515625 L 46.996094 34.476562 " fill-opacity="1" fill-rule="nonzero"/><path fill="#d9dfdd" d="M 49.667969 31.007812 L 49.652344 31.007812 L 50.011719 31.519531 L 49.445312 31.71875 L 50.503906 32.234375 L 49.667969 31.007812 " fill-opacity="1" fill-rule="nonzero"/><path fill="#a0ccd8" d="M 49.53125 31.011719 L 48.691406 31.042969 L 48.714844 31.363281 L 49.386719 31.691406 L 49.53125 31.011719 " fill-opacity="1" fill-rule="nonzero"/><path fill="#e3eff1" d="M 49.667969 31.007812 L 50.503906 32.234375 L 51.050781 32.503906 L 51.023438 32.285156 L 50.78125 31.40625 L 50.917969 30.476562 L 50.027344 30.402344 L 48.683594 30.953125 L 48.691406 31.042969 L 49.652344 31.007812 L 49.667969 31.007812 " fill-opacity="1" fill-rule="nonzero"/><path fill="#c8dee3" d="M 46.914062 33.730469 L 46.671875 33.839844 L 46.855469 33.757812 Z M 46.914062 33.730469 " fill-opacity="1" fill-rule="nonzero"/><path fill="#c8dee3" d="M 47.523438 33.800781 L 47.421875 33.503906 L 47.136719 33.632812 L 46.855469 33.757812 L 46.671875 33.839844 L 46.921875 34.339844 L 46.992188 34.476562 L 47.769531 34.515625 L 47.527344 33.808594 L 47.523438 33.800781 " fill-opacity="1" fill-rule="nonzero"/><path fill="#88c4da" d="M 49.414062 34.363281 L 50.234375 34.992188 L 50.945312 35.53125 L 51.566406 35.21875 L 51.207031 34.109375 L 49.984375 34.28125 L 49.414062 34.363281 " fill-opacity="1" fill-rule="nonzero"/><path fill="#608ca6" d="M 49.140625 32.886719 L 49.433594 32.871094 L 49.730469 32.863281 L 49.492188 32.636719 L 49.246094 32.375 L 48.996094 32.101562 L 48.171875 32.054688 L 48.035156 32.144531 L 48.726562 32.898438 L 49.140625 32.886719 " fill-opacity="1" fill-rule="nonzero"/><path fill="#85a3b0" d="M 48.875 31.976562 L 48.996094 32.101562 L 49.246094 32.375 L 49.492188 32.636719 L 49.375 31.75 L 48.875 31.976562 " fill-opacity="1" fill-rule="nonzero"/><path fill="#88c4da" d="M 49.414062 34.363281 L 48.875 34.144531 L 48.109375 33.828125 L 47.527344 33.808594 L 47.769531 34.515625 L 48.71875 34.808594 L 48.742188 34.800781 L 49.414062 34.363281 " fill-opacity="1" fill-rule="nonzero"/><path fill="#4f7188" d="M 47.019531 33.675781 L 47.023438 33.683594 L 46.914062 33.730469 L 46.855469 33.757812 L 47.136719 33.632812 L 46.921875 32.773438 L 46.089844 33.289062 L 46.851562 33.757812 L 47.019531 33.675781 " fill-opacity="1" fill-rule="nonzero"/><path fill="#a0ccd8" d="M 46.328125 34.003906 L 46.671875 33.839844 L 46.851562 33.757812 L 46.089844 33.289062 L 45.023438 33.945312 L 46.097656 34.386719 L 46.398438 34.515625 L 46.328125 34.003906 " fill-opacity="1" fill-rule="nonzero"/><path fill="#6b92a3" d="M 47.421875 33.503906 L 47.429688 33.515625 L 47.59375 32.945312 L 47.589844 32.945312 L 47.066406 32.683594 L 46.921875 32.773438 L 47.136719 33.632812 L 47.421875 33.503906 " fill-opacity="1" fill-rule="nonzero"/><path fill="#85a3b0" d="M 47.527344 33.808594 L 48.109375 33.828125 L 48.074219 33.8125 L 49.019531 33.441406 L 49.058594 33.269531 L 48.726562 32.898438 L 47.59375 32.945312 L 47.429688 33.515625 L 47.523438 33.800781 L 47.527344 33.808594 " fill-opacity="1" fill-rule="nonzero"/><g fill="#000000" fill-opacity="1"><g transform="translate(180.939912, 51.015713)"><g><path d="M 12.5 -10.546875 C 13.25 -10.421875 13.929688 -10.113281 14.546875 -9.625 C 15.160156 -9.132812 15.648438 -8.523438 16.015625 -7.796875 C 16.378906 -7.078125 16.5625 -6.304688 16.5625 -5.484375 C 16.5625 -4.453125 16.296875 -3.519531 15.765625 -2.6875 C 15.234375 -1.851562 14.460938 -1.195312 13.453125 -0.71875 C 12.453125 -0.238281 11.265625 0 9.890625 0 L 2.265625 0 L 2.265625 -20.46875 L 9.59375 -20.46875 C 10.988281 -20.46875 12.175781 -20.234375 13.15625 -19.765625 C 14.132812 -19.304688 14.867188 -18.6875 15.359375 -17.90625 C 15.847656 -17.125 16.09375 -16.242188 16.09375 -15.265625 C 16.09375 -14.054688 15.765625 -13.050781 15.109375 -12.25 C 14.453125 -11.457031 13.582031 -10.890625 12.5 -10.546875 Z M 4.9375 -11.625 L 9.421875 -11.625 C 10.671875 -11.625 11.640625 -11.914062 12.328125 -12.5 C 13.015625 -13.09375 13.359375 -13.90625 13.359375 -14.9375 C 13.359375 -15.976562 13.015625 -16.789062 12.328125 -17.375 C 11.640625 -17.96875 10.648438 -18.265625 9.359375 -18.265625 L 4.9375 -18.265625 Z M 9.65625 -2.203125 C 10.988281 -2.203125 12.023438 -2.515625 12.765625 -3.140625 C 13.515625 -3.765625 13.890625 -4.632812 13.890625 -5.75 C 13.890625 -6.882812 13.492188 -7.78125 12.703125 -8.4375 C 11.921875 -9.09375 10.878906 -9.421875 9.578125 -9.421875 L 4.9375 -9.421875 L 4.9375 -2.203125 Z M 9.65625 -2.203125 "/></g></g></g><g fill="#000000" fill-opacity="1"><g transform="translate(198.933546, 51.015713)"><g><path d="M 1.265625 -8.109375 C 1.265625 -9.742188 1.597656 -11.179688 2.265625 -12.421875 C 2.929688 -13.671875 3.84375 -14.640625 5 -15.328125 C 6.164062 -16.015625 7.460938 -16.359375 8.890625 -16.359375 C 10.304688 -16.359375 11.53125 -16.050781 12.5625 -15.4375 C 13.601562 -14.832031 14.378906 -14.070312 14.890625 -13.15625 L 14.890625 -16.09375 L 17.59375 -16.09375 L 17.59375 0 L 14.890625 0 L 14.890625 -3 C 14.359375 -2.050781 13.566406 -1.269531 12.515625 -0.65625 C 11.472656 -0.0390625 10.253906 0.265625 8.859375 0.265625 C 7.429688 0.265625 6.140625 -0.0820312 4.984375 -0.78125 C 3.835938 -1.488281 2.929688 -2.476562 2.265625 -3.75 C 1.597656 -5.03125 1.265625 -6.484375 1.265625 -8.109375 Z M 14.890625 -8.078125 C 14.890625 -9.285156 14.644531 -10.335938 14.15625 -11.234375 C 13.664062 -12.140625 13.003906 -12.832031 12.171875 -13.3125 C 11.335938 -13.789062 10.421875 -14.03125 9.421875 -14.03125 C 8.421875 -14.03125 7.507812 -13.796875 6.6875 -13.328125 C 5.863281 -12.859375 5.207031 -12.171875 4.71875 -11.265625 C 4.238281 -10.367188 4 -9.316406 4 -8.109375 C 4 -6.867188 4.238281 -5.789062 4.71875 -4.875 C 5.207031 -3.96875 5.863281 -3.273438 6.6875 -2.796875 C 7.507812 -2.316406 8.421875 -2.078125 9.421875 -2.078125 C 10.421875 -2.078125 11.335938 -2.316406 12.171875 -2.796875 C 13.003906 -3.273438 13.664062 -3.96875 14.15625 -4.875 C 14.644531 -5.789062 14.890625 -6.859375 14.890625 -8.078125 Z M 14.890625 -8.078125 "/></g></g></g><g fill="#000000" fill-opacity="1"><g transform="translate(218.776438, 51.015713)"><g><path d="M 8.890625 -16.359375 C 10.285156 -16.359375 11.503906 -16.050781 12.546875 -15.4375 C 13.597656 -14.832031 14.378906 -14.070312 14.890625 -13.15625 L 14.890625 -16.09375 L 17.59375 -16.09375 L 17.59375 0.359375 C 17.59375 1.816406 17.273438 3.117188 16.640625 4.265625 C 16.015625 5.410156 15.117188 6.304688 13.953125 6.953125 C 12.796875 7.597656 11.441406 7.921875 9.890625 7.921875 C 7.773438 7.921875 6.015625 7.421875 4.609375 6.421875 C 3.203125 5.429688 2.367188 4.070312 2.109375 2.34375 L 4.75 2.34375 C 5.050781 3.320312 5.660156 4.109375 6.578125 4.703125 C 7.492188 5.304688 8.597656 5.609375 9.890625 5.609375 C 11.359375 5.609375 12.554688 5.144531 13.484375 4.21875 C 14.421875 3.300781 14.890625 2.015625 14.890625 0.359375 L 14.890625 -3.03125 C 14.359375 -2.082031 13.570312 -1.296875 12.53125 -0.671875 C 11.5 -0.046875 10.285156 0.265625 8.890625 0.265625 C 7.460938 0.265625 6.164062 -0.0820312 5 -0.78125 C 3.84375 -1.488281 2.929688 -2.476562 2.265625 -3.75 C 1.597656 -5.03125 1.265625 -6.484375 1.265625 -8.109375 C 1.265625 -9.742188 1.597656 -11.179688 2.265625 -12.421875 C 2.929688 -13.671875 3.84375 -14.640625 5 -15.328125 C 6.164062 -16.015625 7.460938 -16.359375 8.890625 -16.359375 Z M 14.890625 -8.078125 C 14.890625 -9.285156 14.644531 -10.335938 14.15625 -11.234375 C 13.664062 -12.140625 13.003906 -12.832031 12.171875 -13.3125 C 11.335938 -13.789062 10.421875 -14.03125 9.421875 -14.03125 C 8.421875 -14.03125 7.507812 -13.796875 6.6875 -13.328125 C 5.863281 -12.859375 5.207031 -12.171875 4.71875 -11.265625 C 4.238281 -10.367188 4 -9.316406 4 -8.109375 C 4 -6.867188 4.238281 -5.789062 4.71875 -4.875 C 5.207031 -3.96875 5.863281 -3.273438 6.6875 -2.796875 C 7.507812 -2.316406 8.421875 -2.078125 9.421875 -2.078125 C 10.421875 -2.078125 11.335938 -2.316406 12.171875 -2.796875 C 13.003906 -3.273438 13.664062 -3.96875 14.15625 -4.875 C 14.644531 -5.789062 14.890625 -6.859375 14.890625 -8.078125 Z M 14.890625 -8.078125 "/></g></g></g><g fill="#000000" fill-opacity="1"><g transform="translate(238.61933, 51.015713)"><g><path d="M 7.953125 0.265625 C 6.722656 0.265625 5.617188 0.0546875 4.640625 -0.359375 C 3.660156 -0.785156 2.882812 -1.375 2.3125 -2.125 C 1.75 -2.882812 1.4375 -3.753906 1.375 -4.734375 L 4.140625 -4.734375 C 4.210938 -3.921875 4.585938 -3.257812 5.265625 -2.75 C 5.941406 -2.25 6.828125 -2 7.921875 -2 C 8.941406 -2 9.742188 -2.222656 10.328125 -2.671875 C 10.921875 -3.117188 11.21875 -3.6875 11.21875 -4.375 C 11.21875 -5.082031 10.90625 -5.601562 10.28125 -5.9375 C 9.65625 -6.28125 8.6875 -6.617188 7.375 -6.953125 C 6.175781 -7.265625 5.195312 -7.582031 4.4375 -7.90625 C 3.6875 -8.226562 3.039062 -8.707031 2.5 -9.34375 C 1.96875 -9.988281 1.703125 -10.828125 1.703125 -11.859375 C 1.703125 -12.679688 1.945312 -13.4375 2.4375 -14.125 C 2.925781 -14.8125 3.617188 -15.351562 4.515625 -15.75 C 5.421875 -16.15625 6.453125 -16.359375 7.609375 -16.359375 C 9.390625 -16.359375 10.828125 -15.90625 11.921875 -15 C 13.015625 -14.101562 13.601562 -12.867188 13.6875 -11.296875 L 11.015625 -11.296875 C 10.953125 -12.140625 10.613281 -12.816406 10 -13.328125 C 9.382812 -13.835938 8.554688 -14.09375 7.515625 -14.09375 C 6.554688 -14.09375 5.789062 -13.882812 5.21875 -13.46875 C 4.65625 -13.0625 4.375 -12.523438 4.375 -11.859375 C 4.375 -11.328125 4.546875 -10.890625 4.890625 -10.546875 C 5.234375 -10.210938 5.660156 -9.941406 6.171875 -9.734375 C 6.691406 -9.523438 7.414062 -9.296875 8.34375 -9.046875 C 9.488281 -8.734375 10.425781 -8.421875 11.15625 -8.109375 C 11.882812 -7.804688 12.503906 -7.351562 13.015625 -6.75 C 13.535156 -6.144531 13.804688 -5.351562 13.828125 -4.375 C 13.828125 -3.488281 13.582031 -2.691406 13.09375 -1.984375 C 12.601562 -1.285156 11.910156 -0.734375 11.015625 -0.328125 C 10.128906 0.0664062 9.109375 0.265625 7.953125 0.265625 Z M 7.953125 0.265625 "/></g></g></g></svg>