<svg xmlns="http://www.w3.org/2000/svg" xmlns:xlink="http://www.w3.org/1999/xlink" width="500" zoomAndPan="magnify" viewBox="0 0 375 82.499998" height="110" preserveAspectRatio="xMidYMid meet" version="1.0"><defs><g/><clipPath id="42dd2b65d2"><path d="M 1.128906 0 L 373.871094 0 L 373.871094 82.003906 L 1.128906 82.003906 Z M 1.128906 0 " clip-rule="nonzero"/></clipPath><clipPath id="1f70228605"><path d="M 16.351562 14 L 44 14 L 44 66 L 16.351562 66 Z M 16.351562 14 " clip-rule="nonzero"/></clipPath><clipPath id="a7a3848063"><path d="M 16.351562 14 L 44 14 L 44 67 L 16.351562 67 Z M 16.351562 14 " clip-rule="nonzero"/></clipPath><clipPath id="217c4d6f6b"><path d="M 23 65 L 37 65 L 37 75.804688 L 23 75.804688 Z M 23 65 " clip-rule="nonzero"/></clipPath><clipPath id="c5493d766d"><path d="M 22 65 L 38 65 L 38 75.804688 L 22 75.804688 Z M 22 65 " clip-rule="nonzero"/></clipPath><clipPath id="6be35946a7"><path d="M 16.351562 17 L 44 17 L 44 19 L 16.351562 19 Z M 16.351562 17 " clip-rule="nonzero"/></clipPath><clipPath id="b5f2660f54"><path d="M 40 50 L 72 50 L 72 75.804688 L 40 75.804688 Z M 40 50 " clip-rule="nonzero"/></clipPath><clipPath id="9519e489ab"><path d="M 39 50 L 72 50 L 72 75.804688 L 39 75.804688 Z M 39 50 " clip-rule="nonzero"/></clipPath><clipPath id="019cb4a5cb"><path d="M 68 51 L 83 51 L 83 75.804688 L 68 75.804688 Z M 68 51 " clip-rule="nonzero"/></clipPath><clipPath id="9b9042d529"><path d="M 67 50 L 83 50 L 83 75.804688 L 67 75.804688 Z M 67 50 " clip-rule="nonzero"/></clipPath><clipPath id="643a0f45bb"><path d="M 50 13.183594 L 60 13.183594 L 60 27 L 50 27 Z M 50 13.183594 " clip-rule="nonzero"/></clipPath><clipPath id="3eeabf39a1"><path d="M 50 13.183594 L 61 13.183594 L 61 28 L 50 28 Z M 50 13.183594 " clip-rule="nonzero"/></clipPath></defs><g clip-path="url(#42dd2b65d2)"><path fill="#ffffff" d="M 1.128906 0 L 373.871094 0 L 373.871094 439.835938 L 1.128906 439.835938 Z M 1.128906 0 " fill-opacity="1" fill-rule="nonzero"/><path fill="#ffffff" d="M 1.128906 0 L 373.871094 0 L 373.871094 82.003906 L 1.128906 82.003906 Z M 1.128906 0 " fill-opacity="1" fill-rule="nonzero"/><path fill="#ffffff" d="M 1.128906 0 L 373.871094 0 L 373.871094 82.003906 L 1.128906 82.003906 Z M 1.128906 0 " fill-opacity="1" fill-rule="nonzero"/></g><g fill="#000000" fill-opacity="1"><g transform="translate(161.394586, 54.808812)"><g><path d="M 12.5 -10.546875 C 13.25 -10.421875 13.929688 -10.113281 14.546875 -9.625 C 15.160156 -9.132812 15.648438 -8.523438 16.015625 -7.796875 C 16.378906 -7.078125 16.5625 -6.304688 16.5625 -5.484375 C 16.5625 -4.453125 16.296875 -3.519531 15.765625 -2.6875 C 15.234375 -1.851562 14.460938 -1.195312 13.453125 -0.71875 C 12.453125 -0.238281 11.265625 0 9.890625 0 L 2.265625 0 L 2.265625 -20.46875 L 9.59375 -20.46875 C 10.988281 -20.46875 12.175781 -20.234375 13.15625 -19.765625 C 14.132812 -19.304688 14.867188 -18.6875 15.359375 -17.90625 C 15.847656 -17.125 16.09375 -16.242188 16.09375 -15.265625 C 16.09375 -14.054688 15.765625 -13.050781 15.109375 -12.25 C 14.453125 -11.457031 13.582031 -10.890625 12.5 -10.546875 Z M 4.9375 -11.625 L 9.421875 -11.625 C 10.671875 -11.625 11.640625 -11.914062 12.328125 -12.5 C 13.015625 -13.09375 13.359375 -13.90625 13.359375 -14.9375 C 13.359375 -15.976562 13.015625 -16.789062 12.328125 -17.375 C 11.640625 -17.96875 10.648438 -18.265625 9.359375 -18.265625 L 4.9375 -18.265625 Z M 9.65625 -2.203125 C 10.988281 -2.203125 12.023438 -2.515625 12.765625 -3.140625 C 13.515625 -3.765625 13.890625 -4.632812 13.890625 -5.75 C 13.890625 -6.882812 13.492188 -7.78125 12.703125 -8.4375 C 11.921875 -9.09375 10.878906 -9.421875 9.578125 -9.421875 L 4.9375 -9.421875 L 4.9375 -2.203125 Z M 9.65625 -2.203125 "/></g></g></g><g fill="#000000" fill-opacity="1"><g transform="translate(179.38822, 54.808812)"><g><path d="M 16.9375 -8.65625 C 16.9375 -8.144531 16.910156 -7.609375 16.859375 -7.046875 L 4 -7.046875 C 4.09375 -5.460938 4.632812 -4.222656 5.625 -3.328125 C 6.613281 -2.441406 7.8125 -2 9.21875 -2 C 10.375 -2 11.335938 -2.265625 12.109375 -2.796875 C 12.878906 -3.335938 13.421875 -4.0625 13.734375 -4.96875 L 16.625 -4.96875 C 16.1875 -3.414062 15.320312 -2.15625 14.03125 -1.1875 C 12.738281 -0.21875 11.132812 0.265625 9.21875 0.265625 C 7.6875 0.265625 6.316406 -0.078125 5.109375 -0.765625 C 3.910156 -1.453125 2.96875 -2.425781 2.28125 -3.6875 C 1.601562 -4.945312 1.265625 -6.410156 1.265625 -8.078125 C 1.265625 -9.734375 1.597656 -11.1875 2.265625 -12.4375 C 2.929688 -13.695312 3.863281 -14.664062 5.0625 -15.34375 C 6.269531 -16.019531 7.65625 -16.359375 9.21875 -16.359375 C 10.75 -16.359375 12.097656 -16.023438 13.265625 -15.359375 C 14.441406 -14.691406 15.347656 -13.773438 15.984375 -12.609375 C 16.617188 -11.441406 16.9375 -10.125 16.9375 -8.65625 Z M 14.1875 -9.21875 C 14.1875 -10.238281 13.957031 -11.113281 13.5 -11.84375 C 13.050781 -12.582031 12.441406 -13.140625 11.671875 -13.515625 C 10.898438 -13.898438 10.039062 -14.09375 9.09375 -14.09375 C 7.75 -14.09375 6.601562 -13.660156 5.65625 -12.796875 C 4.707031 -11.941406 4.160156 -10.75 4.015625 -9.21875 Z M 14.1875 -9.21875 "/></g></g></g><g fill="#000000" fill-opacity="1"><g transform="translate(197.587324, 54.808812)"><g><path d="M 1.265625 -8.109375 C 1.265625 -9.742188 1.597656 -11.179688 2.265625 -12.421875 C 2.929688 -13.671875 3.84375 -14.640625 5 -15.328125 C 6.164062 -16.015625 7.460938 -16.359375 8.890625 -16.359375 C 10.304688 -16.359375 11.53125 -16.050781 12.5625 -15.4375 C 13.601562 -14.832031 14.378906 -14.070312 14.890625 -13.15625 L 14.890625 -16.09375 L 17.59375 -16.09375 L 17.59375 0 L 14.890625 0 L 14.890625 -3 C 14.359375 -2.050781 13.566406 -1.269531 12.515625 -0.65625 C 11.472656 -0.0390625 10.253906 0.265625 8.859375 0.265625 C 7.429688 0.265625 6.140625 -0.0820312 4.984375 -0.78125 C 3.835938 -1.488281 2.929688 -2.476562 2.265625 -3.75 C 1.597656 -5.03125 1.265625 -6.484375 1.265625 -8.109375 Z M 14.890625 -8.078125 C 14.890625 -9.285156 14.644531 -10.335938 14.15625 -11.234375 C 13.664062 -12.140625 13.003906 -12.832031 12.171875 -13.3125 C 11.335938 -13.789062 10.421875 -14.03125 9.421875 -14.03125 C 8.421875 -14.03125 7.507812 -13.796875 6.6875 -13.328125 C 5.863281 -12.859375 5.207031 -12.171875 4.71875 -11.265625 C 4.238281 -10.367188 4 -9.316406 4 -8.109375 C 4 -6.867188 4.238281 -5.789062 4.71875 -4.875 C 5.207031 -3.96875 5.863281 -3.273438 6.6875 -2.796875 C 7.507812 -2.316406 8.421875 -2.078125 9.421875 -2.078125 C 10.421875 -2.078125 11.335938 -2.316406 12.171875 -2.796875 C 13.003906 -3.273438 13.664062 -3.96875 14.15625 -4.875 C 14.644531 -5.789062 14.890625 -6.859375 14.890625 -8.078125 Z M 14.890625 -8.078125 "/></g></g></g><g fill="#000000" fill-opacity="1"><g transform="translate(217.430216, 54.808812)"><g><path d="M 16.53125 -16.09375 L 16.53125 0 L 13.859375 0 L 13.859375 -2.375 C 13.347656 -1.550781 12.632812 -0.910156 11.71875 -0.453125 C 10.8125 0.00390625 9.8125 0.234375 8.71875 0.234375 C 7.46875 0.234375 6.34375 -0.0234375 5.34375 -0.546875 C 4.34375 -1.066406 3.550781 -1.84375 2.96875 -2.875 C 2.394531 -3.914062 2.109375 -5.179688 2.109375 -6.671875 L 2.109375 -16.09375 L 4.75 -16.09375 L 4.75 -7.015625 C 4.75 -5.429688 5.148438 -4.210938 5.953125 -3.359375 C 6.753906 -2.503906 7.851562 -2.078125 9.25 -2.078125 C 10.675781 -2.078125 11.800781 -2.519531 12.625 -3.40625 C 13.445312 -4.289062 13.859375 -5.570312 13.859375 -7.25 L 13.859375 -16.09375 Z M 16.53125 -16.09375 "/></g></g></g><g fill="#000000" fill-opacity="1"><g transform="translate(236.216392, 54.808812)"><g><path d="M 5.515625 -13.890625 L 5.515625 -4.40625 C 5.515625 -3.625 5.679688 -3.070312 6.015625 -2.75 C 6.347656 -2.425781 6.925781 -2.265625 7.75 -2.265625 L 9.71875 -2.265625 L 9.71875 0 L 7.3125 0 C 5.820312 0 4.703125 -0.34375 3.953125 -1.03125 C 3.210938 -1.71875 2.84375 -2.84375 2.84375 -4.40625 L 2.84375 -13.890625 L 0.765625 -13.890625 L 0.765625 -16.09375 L 2.84375 -16.09375 L 2.84375 -20.140625 L 5.515625 -20.140625 L 5.515625 -16.09375 L 9.71875 -16.09375 L 9.71875 -13.890625 Z M 5.515625 -13.890625 "/></g></g></g><g fill="#000000" fill-opacity="1"><g transform="translate(246.901025, 54.808812)"><g><path d="M 16.125 -16.09375 L 6.4375 7.578125 L 3.671875 7.578125 L 6.84375 -0.171875 L 0.359375 -16.09375 L 3.3125 -16.09375 L 8.375 -3.046875 L 13.359375 -16.09375 Z M 16.125 -16.09375 "/></g></g></g><g clip-path="url(#1f70228605)"><path fill="#ffffff" d="M 36.859375 65.875 L 23.566406 65.875 L 16.917969 14.703125 L 43.503906 14.703125 L 36.859375 65.875 " fill-opacity="1" fill-rule="nonzero"/></g><g clip-path="url(#a7a3848063)"><path fill="#040505" d="M 18.613281 23.957031 L 17.402344 14.640625 L 16.917969 14.703125 L 16.917969 15.1875 L 43.503906 15.1875 L 43.503906 14.703125 L 43.023438 14.640625 L 41.804688 24.011719 C 41.789062 24.144531 41.820312 24.265625 41.902344 24.371094 C 41.984375 24.476562 42.09375 24.539062 42.226562 24.554688 C 42.359375 24.574219 42.480469 24.539062 42.585938 24.457031 C 42.691406 24.375 42.753906 24.269531 42.769531 24.136719 L 43.988281 14.765625 C 43.992188 14.742188 43.992188 14.722656 43.992188 14.703125 C 43.992188 14.566406 43.945312 14.453125 43.851562 14.359375 C 43.753906 14.261719 43.640625 14.214844 43.503906 14.214844 L 16.917969 14.214844 C 16.898438 14.214844 16.878906 14.21875 16.855469 14.21875 C 16.722656 14.238281 16.617188 14.300781 16.535156 14.40625 C 16.453125 14.511719 16.417969 14.632812 16.4375 14.765625 L 17.648438 24.082031 C 17.664062 24.214844 17.726562 24.320312 17.832031 24.402344 C 17.9375 24.484375 18.058594 24.515625 18.191406 24.5 C 18.324219 24.484375 18.433594 24.421875 18.515625 24.316406 C 18.597656 24.207031 18.628906 24.089844 18.613281 23.957031 Z M 40.507812 34.015625 L 36.375 65.8125 L 36.859375 65.875 L 36.859375 65.390625 L 23.566406 65.390625 L 23.566406 65.875 L 24.046875 65.8125 L 19.910156 33.960938 C 19.894531 33.828125 19.832031 33.71875 19.726562 33.636719 C 19.617188 33.554688 19.5 33.523438 19.367188 33.539062 C 19.234375 33.558594 19.125 33.621094 19.042969 33.726562 C 18.960938 33.832031 18.929688 33.953125 18.945312 34.085938 L 23.082031 65.9375 C 23.097656 66.058594 23.152344 66.160156 23.246094 66.242188 C 23.335938 66.324219 23.445312 66.363281 23.566406 66.363281 L 36.859375 66.363281 C 36.980469 66.363281 37.089844 66.324219 37.179688 66.242188 C 37.273438 66.160156 37.324219 66.058594 37.339844 65.9375 L 41.472656 34.140625 C 41.488281 34.007812 41.457031 33.886719 41.375 33.78125 C 41.292969 33.675781 41.183594 33.613281 41.050781 33.597656 C 40.917969 33.578125 40.796875 33.613281 40.691406 33.691406 C 40.585938 33.773438 40.523438 33.882812 40.507812 34.015625 Z M 40.507812 34.015625 " fill-opacity="1" fill-rule="nonzero"/></g><path fill="#8cdaf7" d="M 34.347656 56.222656 L 26.074219 56.222656 L 21.9375 24.355469 L 38.488281 24.355469 L 34.347656 56.222656 " fill-opacity="1" fill-rule="nonzero"/><g clip-path="url(#217c4d6f6b)"><path fill="#ffffff" d="M 34.554688 75.292969 L 25.867188 75.292969 C 24.527344 75.292969 23.445312 74.210938 23.445312 72.871094 L 23.445312 65.636719 L 36.980469 65.636719 L 36.980469 72.871094 C 36.980469 74.210938 35.894531 75.292969 34.554688 75.292969 " fill-opacity="1" fill-rule="nonzero"/></g><g clip-path="url(#c5493d766d)"><path fill="#040505" d="M 34.554688 74.804688 L 25.867188 74.804688 C 25.332031 74.804688 24.875 74.617188 24.5 74.238281 C 24.121094 73.863281 23.933594 73.40625 23.933594 72.871094 L 23.933594 65.636719 L 23.445312 65.636719 L 23.445312 66.121094 L 36.980469 66.121094 L 36.980469 65.636719 L 36.492188 65.636719 L 36.492188 72.871094 C 36.492188 73.40625 36.304688 73.863281 35.925781 74.238281 C 35.546875 74.617188 35.089844 74.804688 34.554688 74.804688 C 34.421875 74.804688 34.304688 74.851562 34.210938 74.949219 C 34.117188 75.042969 34.070312 75.15625 34.070312 75.292969 C 34.070312 75.425781 34.117188 75.539062 34.210938 75.636719 C 34.304688 75.730469 34.421875 75.777344 34.554688 75.777344 C 34.949219 75.777344 35.328125 75.703125 35.6875 75.550781 C 36.039062 75.402344 36.34375 75.195312 36.613281 74.925781 C 36.882812 74.660156 37.089844 74.351562 37.238281 74.003906 C 37.390625 73.644531 37.464844 73.265625 37.464844 72.871094 L 37.464844 65.636719 C 37.464844 65.503906 37.417969 65.386719 37.324219 65.292969 C 37.226562 65.199219 37.113281 65.152344 36.980469 65.152344 L 23.445312 65.152344 C 23.3125 65.152344 23.195312 65.199219 23.101562 65.292969 C 23.007812 65.386719 22.960938 65.503906 22.960938 65.636719 L 22.960938 72.871094 C 22.960938 73.265625 23.035156 73.644531 23.1875 74.003906 C 23.335938 74.351562 23.542969 74.660156 23.8125 74.925781 C 24.078125 75.195312 24.386719 75.402344 24.734375 75.550781 C 25.097656 75.703125 25.472656 75.777344 25.867188 75.777344 L 34.554688 75.777344 C 34.691406 75.777344 34.804688 75.730469 34.898438 75.636719 C 34.996094 75.539062 35.042969 75.425781 35.042969 75.292969 C 35.042969 75.15625 34.996094 75.042969 34.898438 74.949219 C 34.804688 74.851562 34.691406 74.804688 34.554688 74.804688 Z M 34.554688 74.804688 " fill-opacity="1" fill-rule="nonzero"/></g><g clip-path="url(#6be35946a7)"><path fill="#040505" d="M 17.382812 18.75 L 43.042969 18.75 C 43.175781 18.75 43.292969 18.703125 43.386719 18.609375 C 43.480469 18.511719 43.527344 18.398438 43.527344 18.265625 C 43.527344 18.128906 43.480469 18.015625 43.386719 17.921875 C 43.292969 17.824219 43.175781 17.777344 43.042969 17.777344 L 17.382812 17.777344 C 17.25 17.777344 17.132812 17.824219 17.039062 17.921875 C 16.945312 18.015625 16.894531 18.128906 16.894531 18.265625 C 16.894531 18.398438 16.945312 18.511719 17.039062 18.609375 C 17.132812 18.703125 17.25 18.75 17.382812 18.75 Z M 17.382812 18.75 " fill-opacity="1" fill-rule="nonzero"/></g><path fill="#ffffff" d="M 44.4375 40.652344 C 45.175781 38.414062 46.8125 36.410156 49.039062 35.65625 C 48.769531 36.535156 49.101562 37.527344 49.730469 38.203125 C 50.351562 38.878906 51.230469 39.277344 52.117188 39.511719 C 55.253906 40.347656 58.664062 39.363281 61.789062 40.230469 C 64.0625 40.859375 66.03125 42.492188 67.074219 44.605469 C 68.714844 47.933594 63.953125 51.695312 60.945312 51.695312 C 58.828125 51.695312 56.972656 50.578125 55.933594 48.90625 C 55.25 51.390625 52.96875 53.222656 50.257812 53.222656 C 44.328125 53.222656 43.089844 45.640625 44.289062 41.140625 C 44.335938 40.976562 44.382812 40.816406 44.4375 40.652344 " fill-opacity="1" fill-rule="nonzero"/><path fill="#040505" d="M 47.203125 51.761719 C 46.542969 51.269531 45.988281 50.597656 45.539062 49.75 C 45.117188 48.957031 44.808594 48.046875 44.613281 47.019531 C 44.425781 46.054688 44.351562 45.058594 44.386719 44.027344 C 44.417969 43.039062 44.546875 42.121094 44.773438 41.269531 L 44.773438 41.277344 C 44.832031 41.066406 44.878906 40.910156 44.914062 40.808594 C 44.957031 40.675781 44.945312 40.546875 44.882812 40.425781 C 44.820312 40.300781 44.722656 40.21875 44.589844 40.175781 C 44.472656 40.136719 44.355469 40.140625 44.242188 40.1875 C 44.128906 40.238281 44.042969 40.316406 43.984375 40.425781 L 44.4375 40.652344 L 44.914062 40.808594 C 45.277344 39.710938 45.824219 38.753906 46.554688 37.933594 C 47.324219 37.066406 48.207031 36.46875 49.199219 36.128906 L 49.039062 35.65625 L 48.558594 35.507812 C 48.398438 36.03125 48.398438 36.574219 48.566406 37.144531 C 48.714844 37.667969 48.980469 38.132812 49.359375 38.542969 C 49.976562 39.210938 50.851562 39.695312 51.988281 40 C 52.714844 40.191406 53.539062 40.3125 54.46875 40.355469 C 55.015625 40.382812 55.832031 40.386719 56.925781 40.363281 C 58.011719 40.339844 58.824219 40.34375 59.355469 40.371094 C 60.222656 40.414062 60.988281 40.527344 61.65625 40.714844 C 62.722656 41.007812 63.695312 41.519531 64.574219 42.246094 C 65.449219 42.972656 66.132812 43.832031 66.625 44.824219 C 66.953125 45.492188 66.996094 46.207031 66.753906 46.964844 C 66.523438 47.675781 66.074219 48.371094 65.398438 49.042969 C 64.753906 49.683594 64.015625 50.203125 63.183594 50.601562 C 62.363281 50.996094 61.617188 51.191406 60.945312 51.191406 C 59.992188 51.191406 59.105469 50.960938 58.285156 50.492188 C 57.484375 50.039062 56.84375 49.421875 56.363281 48.640625 C 56.289062 48.523438 56.1875 48.449219 56.050781 48.417969 C 55.914062 48.386719 55.789062 48.40625 55.671875 48.476562 C 55.558594 48.546875 55.484375 48.644531 55.449219 48.773438 C 55.386719 49.011719 55.304688 49.242188 55.203125 49.472656 C 55.148438 49.597656 55.148438 49.726562 55.199219 49.855469 C 55.25 49.984375 55.339844 50.078125 55.464844 50.132812 C 55.59375 50.1875 55.722656 50.1875 55.851562 50.136719 C 55.980469 50.085938 56.070312 49.996094 56.125 49.871094 C 56.242188 49.597656 56.339844 49.324219 56.417969 49.039062 L 55.933594 48.90625 L 55.507812 49.167969 C 56.082031 50.09375 56.839844 50.824219 57.785156 51.363281 C 58.761719 51.917969 59.816406 52.195312 60.945312 52.195312 C 61.769531 52.195312 62.660156 51.96875 63.621094 51.507812 C 64.554688 51.058594 65.382812 50.472656 66.109375 49.753906 C 66.898438 48.964844 67.433594 48.136719 67.710938 47.269531 C 68.035156 46.253906 67.972656 45.292969 67.527344 44.382812 C 66.972656 43.261719 66.203125 42.292969 65.214844 41.476562 C 64.226562 40.65625 63.128906 40.078125 61.921875 39.746094 C 61.1875 39.542969 60.347656 39.414062 59.40625 39.367188 C 58.851562 39.339844 58.015625 39.335938 56.90625 39.359375 C 55.835938 39.382812 55.039062 39.378906 54.515625 39.355469 C 53.660156 39.3125 52.90625 39.203125 52.246094 39.027344 C 51.300781 38.777344 50.582031 38.386719 50.097656 37.859375 C 49.828125 37.570312 49.636719 37.238281 49.53125 36.867188 C 49.421875 36.488281 49.417969 36.132812 49.519531 35.800781 C 49.550781 35.699219 49.550781 35.597656 49.515625 35.492188 C 49.46875 35.363281 49.386719 35.265625 49.261719 35.203125 C 49.136719 35.144531 49.007812 35.136719 48.878906 35.179688 C 47.714844 35.574219 46.691406 36.269531 45.804688 37.265625 C 44.980469 38.1875 44.363281 39.265625 43.957031 40.496094 C 43.917969 40.613281 43.921875 40.730469 43.972656 40.84375 C 44.019531 40.960938 44.097656 41.046875 44.210938 41.101562 C 44.335938 41.164062 44.460938 41.171875 44.59375 41.128906 C 44.726562 41.085938 44.824219 41 44.886719 40.875 L 44.4375 40.652344 L 43.957031 40.496094 C 43.921875 40.609375 43.871094 40.78125 43.804688 41.003906 L 43.804688 41.011719 C 43.558594 41.9375 43.417969 42.929688 43.378906 43.996094 C 43.34375 45.101562 43.425781 46.171875 43.625 47.207031 C 43.84375 48.332031 44.183594 49.335938 44.648438 50.21875 C 45.167969 51.199219 45.820312 51.984375 46.601562 52.566406 C 46.714844 52.648438 46.839844 52.679688 46.976562 52.660156 C 47.113281 52.640625 47.222656 52.574219 47.304688 52.464844 C 47.390625 52.351562 47.421875 52.226562 47.402344 52.089844 C 47.378906 51.953125 47.316406 51.84375 47.203125 51.761719 Z M 47.203125 51.761719 " fill-opacity="1" fill-rule="nonzero"/><path fill="#fac57d" d="M 46.527344 43.378906 C 46.675781 42.417969 47.378906 39.144531 47.292969 39.070312 C 49.128906 40.625 51.296875 41.734375 53.613281 42.371094 C 55.871094 42.984375 58.1875 42.488281 60.425781 43.109375 C 62.195312 43.597656 63.730469 44.871094 64.542969 46.515625 C 65.820312 49.105469 62.113281 52.035156 59.773438 52.035156 C 58.121094 52.035156 56.679688 51.164062 55.867188 49.859375 C 55.335938 51.796875 53.5625 53.222656 51.453125 53.222656 C 48.710938 53.222656 47.257812 51.054688 46.859375 48.636719 C 46.582031 46.980469 46.414062 45.28125 46.503906 43.589844 C 46.503906 43.546875 46.511719 43.476562 46.527344 43.378906 " fill-opacity="1" fill-rule="nonzero"/><g clip-path="url(#b5f2660f54)"><path fill="#ffffff" d="M 44.28125 75.089844 L 67.1875 75.089844 C 69.523438 75.089844 71.414062 73.199219 71.414062 70.871094 L 71.414062 54.925781 C 71.414062 52.609375 69.53125 50.734375 67.214844 50.734375 L 44.253906 50.734375 C 41.9375 50.734375 40.054688 52.609375 40.054688 54.925781 L 40.054688 70.871094 C 40.054688 73.199219 41.949219 75.089844 44.28125 75.089844 " fill-opacity="1" fill-rule="nonzero"/></g><g clip-path="url(#9519e489ab)"><path fill="#040505" d="M 67.191406 50.230469 L 44.253906 50.230469 C 43.617188 50.230469 43.007812 50.355469 42.425781 50.601562 C 41.863281 50.835938 41.363281 51.171875 40.929688 51.605469 C 40.496094 52.039062 40.160156 52.535156 39.921875 53.097656 C 39.675781 53.679688 39.554688 54.289062 39.554688 54.925781 L 39.554688 68.027344 C 39.554688 68.167969 39.601562 68.285156 39.699219 68.382812 C 39.796875 68.480469 39.917969 68.53125 40.054688 68.53125 C 40.195312 68.53125 40.3125 68.480469 40.410156 68.382812 C 40.507812 68.285156 40.558594 68.167969 40.558594 68.027344 L 40.558594 54.925781 C 40.558594 54.425781 40.65625 53.945312 40.847656 53.488281 C 41.035156 53.046875 41.300781 52.65625 41.640625 52.316406 C 41.980469 51.976562 42.375 51.710938 42.816406 51.523438 C 43.273438 51.332031 43.753906 51.234375 44.253906 51.234375 L 67.191406 51.234375 C 67.328125 51.234375 67.449219 51.183594 67.546875 51.085938 C 67.644531 50.988281 67.691406 50.871094 67.691406 50.734375 C 67.691406 50.59375 67.644531 50.476562 67.546875 50.378906 C 67.449219 50.28125 67.328125 50.230469 67.191406 50.230469 Z M 44.277344 75.59375 L 67.1875 75.59375 C 67.828125 75.59375 68.441406 75.46875 69.03125 75.222656 C 69.59375 74.984375 70.097656 74.644531 70.53125 74.210938 C 70.96875 73.773438 71.304688 73.273438 71.546875 72.707031 C 71.792969 72.125 71.917969 71.511719 71.917969 70.871094 L 71.917969 57.78125 C 71.917969 57.644531 71.867188 57.523438 71.769531 57.425781 C 71.671875 57.328125 71.554688 57.28125 71.414062 57.28125 C 71.277344 57.28125 71.15625 57.328125 71.058594 57.425781 C 70.960938 57.523438 70.914062 57.644531 70.914062 57.78125 L 70.914062 70.871094 C 70.914062 71.375 70.816406 71.855469 70.621094 72.316406 C 70.433594 72.761719 70.164062 73.15625 69.820312 73.5 C 69.476562 73.84375 69.082031 74.109375 68.636719 74.296875 C 68.175781 74.492188 67.695312 74.589844 67.1875 74.589844 L 44.277344 74.589844 C 44.140625 74.589844 44.019531 74.640625 43.921875 74.738281 C 43.824219 74.835938 43.777344 74.953125 43.773438 75.089844 C 43.773438 75.230469 43.824219 75.347656 43.921875 75.445312 C 44.019531 75.542969 44.136719 75.59375 44.277344 75.59375 Z M 44.277344 75.59375 " fill-opacity="1" fill-rule="nonzero"/></g><path fill="#fac57d" d="M 46.507812 72.722656 L 64.960938 72.722656 C 66.839844 72.722656 68.363281 71.199219 68.363281 69.324219 L 68.363281 56.480469 C 68.363281 54.613281 66.847656 53.101562 64.980469 53.101562 L 46.488281 53.101562 C 44.621094 53.101562 43.105469 54.613281 43.105469 56.480469 L 43.105469 69.324219 C 43.105469 71.199219 44.628906 72.722656 46.507812 72.722656 " fill-opacity="1" fill-rule="nonzero"/><g clip-path="url(#019cb4a5cb)"><path fill="#ffffff" d="M 76.800781 53.859375 L 82.082031 68.914062 C 82.816406 71.007812 81.710938 73.296875 79.617188 74.03125 L 76.160156 75.238281 L 68.21875 52.605469 L 71.675781 51.394531 C 73.773438 50.664062 76.070312 51.765625 76.800781 53.859375 " fill-opacity="1" fill-rule="nonzero"/></g><g clip-path="url(#9b9042d529)"><path stroke-linecap="round" transform="matrix(0.0333331, 0, 0, -0.0332911, -22.15058, 113.855832)" fill="none" stroke-linejoin="round" d="M 2968.563678 1802.179423 L 3127.002398 1349.96525 C 3149.033817 1287.072984 3115.869499 1218.313901 3053.056516 1196.254673 L 2949.34478 1159.99775 L 2711.100759 1839.844381 L 2814.812494 1876.21864 C 2877.742666 1898.160531 2946.649447 1865.071689 2968.563678 1802.179423 Z M 2968.563678 1802.179423 " stroke="#040505" stroke-width="30.146" stroke-opacity="1" stroke-miterlimit="10"/></g><path fill="#ffffff" d="M 43.9375 45.734375 L 67.296875 45.734375 L 67.296875 50.816406 L 43.9375 50.816406 L 43.9375 45.734375 " fill-opacity="1" fill-rule="nonzero"/><path stroke-linecap="round" transform="matrix(0.0333331, 0, 0, -0.0332911, -22.15058, 113.855832)" fill="none" stroke-linejoin="round" d="M 1982.657651 2046.238965 L 2683.444296 2046.238965 L 2683.444296 1893.584415 L 1982.657651 1893.584415 Z M 1982.657651 2046.238965 " stroke="#040505" stroke-width="30.146" stroke-opacity="1" stroke-miterlimit="10"/><path fill="#ffffff" d="M 67.296875 48.277344 L 50.644531 49.664062 " fill-opacity="1" fill-rule="nonzero"/><path fill="#040505" d="M 67.253906 47.777344 L 50.605469 49.164062 C 50.464844 49.175781 50.351562 49.234375 50.261719 49.339844 C 50.171875 49.445312 50.132812 49.566406 50.144531 49.707031 C 50.15625 49.84375 50.214844 49.957031 50.320312 50.046875 C 50.425781 50.136719 50.550781 50.175781 50.6875 50.164062 L 67.335938 48.777344 C 67.476562 48.765625 67.589844 48.707031 67.679688 48.601562 C 67.769531 48.492188 67.808594 48.371094 67.796875 48.234375 C 67.785156 48.097656 67.726562 47.980469 67.621094 47.894531 C 67.515625 47.804688 67.390625 47.765625 67.253906 47.777344 Z M 67.253906 47.777344 " fill-opacity="1" fill-rule="nonzero"/><path fill="#ffffff" d="M 65.976562 31.582031 C 65.976562 31.582031 57.867188 23.222656 50.066406 31.898438 C 50.066406 31.898438 55.910156 39.726562 65.976562 31.582031 " fill-opacity="1" fill-rule="nonzero"/><path stroke-linecap="round" transform="matrix(0.0333331, 0, 0, -0.0332911, -22.15058, 113.855832)" fill="none" stroke-linejoin="round" d="M 2643.834616 2471.348448 C 2643.834616 2471.348448 2400.551493 2722.44817 2166.526254 2461.844206 C 2166.526254 2461.844206 2341.840104 2226.702224 2643.834616 2471.348448 Z M 2643.834616 2471.348448 " stroke="#040505" stroke-width="31.097" stroke-opacity="1" stroke-miterlimit="10"/><g clip-path="url(#643a0f45bb)"><path fill="#ffffff" d="M 59.808594 13.726562 C 59.808594 13.726562 48.320312 15.652344 51.046875 26.996094 C 51.046875 26.996094 60.816406 26.625 59.808594 13.726562 " fill-opacity="1" fill-rule="nonzero"/></g><g clip-path="url(#3eeabf39a1)"><path stroke-linecap="round" transform="matrix(0.0333331, 0, 0, -0.0332911, -22.15058, 113.855832)" fill="none" stroke-linejoin="round" d="M 2458.794129 3007.692761 C 2458.794129 3007.692761 2114.143038 2949.845956 2195.940543 2609.101286 C 2195.940543 2609.101286 2489.028737 2620.248237 2458.794129 3007.692761 Z M 2458.794129 3007.692761 " stroke="#040505" stroke-width="31.097" stroke-opacity="1" stroke-miterlimit="10"/></g></svg>