<svg xmlns="http://www.w3.org/2000/svg" xmlns:xlink="http://www.w3.org/1999/xlink" width="500" zoomAndPan="magnify" viewBox="0 0 375 82.499998" height="110" preserveAspectRatio="xMidYMid meet" version="1.0"><defs><g/><clipPath id="6ffdb051e4"><path d="M 1.128906 0 L 373.871094 0 L 373.871094 82.003906 L 1.128906 82.003906 Z M 1.128906 0 " clip-rule="nonzero"/></clipPath><clipPath id="b49d1c41e4"><path d="M 21.777344 6 L 87.378906 6 L 87.378906 76.585938 L 21.777344 76.585938 Z M 21.777344 6 " clip-rule="nonzero"/></clipPath></defs><g clip-path="url(#6ffdb051e4)"><path fill="#ffffff" d="M 1.128906 0 L 373.871094 0 L 373.871094 82.003906 L 1.128906 82.003906 Z M 1.128906 0 " fill-opacity="1" fill-rule="nonzero"/><path fill="#ffffff" d="M 1.128906 0 L 373.871094 0 L 373.871094 82.003906 L 1.128906 82.003906 Z M 1.128906 0 " fill-opacity="1" fill-rule="nonzero"/></g><path fill="#2f5d62" d="M 33.101562 31.351562 C 33.867188 28.582031 36.382812 26.664062 39.246094 26.664062 L 69.929688 26.664062 C 72.792969 26.664062 75.308594 28.582031 76.070312 31.351562 L 78.902344 41.589844 C 78.84375 41.148438 78.960938 40.699219 79.234375 40.335938 C 79.554688 39.914062 80.054688 39.664062 80.589844 39.664062 L 83.589844 39.664062 C 85.167969 39.664062 86.445312 40.945312 86.445312 42.527344 C 86.445312 43.9375 85.40625 45.128906 84.011719 45.316406 L 80.078125 45.839844 L 80.089844 45.886719 C 80.089844 45.886719 82.011719 48.777344 83.269531 50.671875 C 83.96875 51.71875 84.339844 52.953125 84.339844 54.214844 C 84.339844 57.125 84.339844 58.492188 84.339844 62.933594 C 84.339844 66.464844 81.484375 69.328125 77.964844 69.328125 C 66.527344 69.328125 42.648438 69.328125 31.210938 69.328125 C 27.6875 69.328125 24.832031 66.464844 24.832031 62.933594 L 24.832031 54.214844 C 24.832031 52.953125 25.207031 51.71875 25.902344 50.671875 C 27.164062 48.777344 29.085938 45.886719 29.085938 45.886719 Z M 30.203125 41.828125 C 30.347656 41.3125 30.242188 40.761719 29.921875 40.335938 C 29.597656 39.914062 29.097656 39.664062 28.566406 39.664062 L 25.566406 39.664062 C 23.988281 39.664062 22.707031 40.945312 22.707031 42.527344 C 22.707031 43.9375 23.75 45.128906 25.144531 45.316406 C 26.945312 45.554688 29.085938 45.84375 29.085938 45.84375 C 29.085938 45.84375 29.707031 43.609375 30.203125 41.828125 Z M 30.203125 41.828125 " fill-opacity="1" fill-rule="evenodd"/><path fill="#364547" d="M 24.832031 62.933594 C 24.832031 62.933594 24.832031 70.5 24.832031 73.96875 C 24.832031 74.421875 25.011719 74.855469 25.332031 75.175781 C 25.652344 75.496094 26.082031 75.675781 26.535156 75.675781 L 31.632812 75.675781 C 32.574219 75.675781 33.335938 74.910156 33.335938 73.96875 C 33.335938 72.089844 33.335938 69.328125 33.335938 69.328125 L 31.210938 69.328125 C 29.519531 69.328125 27.898438 68.652344 26.699219 67.453125 C 25.503906 66.257812 24.832031 64.628906 24.832031 62.933594 Z M 84.339844 62.933594 C 84.339844 62.933594 84.339844 70.5 84.339844 73.96875 C 84.339844 74.421875 84.160156 74.855469 83.84375 75.175781 C 83.523438 75.496094 83.089844 75.675781 82.640625 75.675781 L 77.539062 75.675781 C 76.601562 75.675781 75.839844 74.910156 75.839844 73.96875 C 75.839844 72.089844 75.839844 69.328125 75.839844 69.328125 L 77.964844 69.328125 C 79.65625 69.328125 81.277344 68.652344 82.472656 67.453125 C 83.667969 66.257812 84.339844 64.628906 84.339844 62.933594 Z M 84.339844 62.933594 " fill-opacity="1" fill-rule="evenodd"/><path fill="#f0c929" d="M 37.585938 58.378906 C 37.585938 55.011719 34.863281 52.28125 31.503906 52.28125 C 29.679688 52.28125 27.824219 52.28125 26.535156 52.28125 C 25.59375 52.28125 24.832031 53.042969 24.832031 53.984375 L 24.832031 57.609375 C 24.832031 57.890625 24.945312 58.160156 25.144531 58.359375 C 25.34375 58.5625 25.613281 58.671875 25.894531 58.671875 C 28.621094 58.671875 35.757812 58.671875 37.292969 58.671875 C 37.453125 58.671875 37.585938 58.542969 37.585938 58.378906 Z M 71.589844 58.378906 C 71.589844 55.011719 74.3125 52.28125 77.671875 52.28125 C 79.496094 52.28125 81.351562 52.28125 82.640625 52.28125 C 83.578125 52.28125 84.339844 53.042969 84.339844 53.984375 L 84.339844 57.609375 C 84.339844 57.890625 84.230469 58.160156 84.03125 58.359375 C 83.832031 58.5625 83.558594 58.671875 83.277344 58.671875 C 80.550781 58.671875 73.417969 58.671875 71.882812 58.671875 C 71.71875 58.671875 71.589844 58.542969 71.589844 58.378906 Z M 71.589844 58.378906 " fill-opacity="1" fill-rule="evenodd"/><path fill="#8fd6e1" d="M 73.246094 32.472656 C 72.792969 30.804688 71.28125 29.648438 69.554688 29.648438 C 62.835938 29.648438 46.339844 29.648438 39.621094 29.648438 C 37.898438 29.648438 36.386719 30.804688 35.929688 32.472656 C 34.664062 37.125 32.273438 45.886719 32.273438 45.886719 L 76.902344 45.886719 C 76.902344 45.886719 74.515625 37.125 73.246094 32.472656 Z M 73.246094 32.472656 " fill-opacity="1" fill-rule="evenodd"/><path fill="#808080" d="M 65.53125 64.203125 C 65.332031 63.941406 65.019531 63.785156 64.691406 63.785156 C 61.761719 63.785156 47.414062 63.785156 44.484375 63.785156 C 44.152344 63.785156 43.84375 63.941406 43.640625 64.203125 C 42.652344 65.492188 39.710938 69.328125 39.710938 69.328125 L 69.464844 69.328125 C 69.464844 69.328125 66.519531 65.492188 65.53125 64.203125 Z M 65.5 10.933594 C 65.785156 10.398438 66.15625 9.890625 66.605469 9.4375 C 69.082031 6.957031 73.097656 6.957031 75.570312 9.4375 C 77.410156 11.28125 77.882812 13.976562 76.992188 16.257812 L 72.910156 12.164062 L 69.492188 12.332031 L 69.324219 15.757812 L 73.40625 19.851562 C 71.128906 20.746094 68.441406 20.269531 66.605469 18.429688 C 66.050781 17.871094 65.621094 17.238281 65.3125 16.558594 L 43.65625 16.558594 C 43.371094 17.097656 43 17.601562 42.546875 18.054688 C 40.074219 20.535156 36.054688 20.535156 33.582031 18.054688 C 31.746094 16.210938 31.273438 13.519531 32.164062 11.238281 L 36.246094 15.332031 L 39.664062 15.160156 L 39.832031 11.734375 L 35.75 7.640625 C 38.023438 6.75 40.710938 7.222656 42.546875 9.066406 C 43.101562 9.621094 43.535156 10.257812 43.839844 10.933594 Z M 65.5 10.933594 " fill-opacity="1" fill-rule="evenodd"/><g clip-path="url(#b49d1c41e4)"><path fill="#262626" d="M 29.996094 39.175781 C 29.574219 38.902344 29.078125 38.75 28.566406 38.75 L 25.566406 38.75 C 23.484375 38.75 21.796875 40.441406 21.796875 42.527344 C 21.796875 44.394531 23.175781 45.972656 25.023438 46.21875 L 27.542969 46.558594 L 25.148438 50.164062 C 24.457031 51.203125 24.042969 52.398438 23.945312 53.636719 C 23.929688 53.75 23.921875 53.867188 23.921875 53.984375 L 23.921875 73.96875 C 23.921875 74.664062 24.199219 75.328125 24.6875 75.820312 C 25.175781 76.3125 25.839844 76.585938 26.535156 76.585938 L 31.632812 76.585938 C 33.074219 76.585938 34.246094 75.414062 34.246094 73.96875 L 34.246094 70.238281 L 74.929688 70.238281 L 74.929688 73.96875 C 74.929688 75.414062 76.097656 76.585938 77.539062 76.585938 L 82.640625 76.585938 C 83.332031 76.585938 83.996094 76.3125 84.488281 75.820312 C 84.976562 75.328125 85.25 74.664062 85.25 73.96875 L 85.25 53.984375 C 85.25 53.867188 85.242188 53.75 85.226562 53.636719 C 85.128906 52.398438 84.71875 51.203125 84.027344 50.164062 L 81.628906 46.554688 L 84.132812 46.21875 C 85.976562 45.972656 87.355469 44.394531 87.355469 42.527344 C 87.355469 40.441406 85.671875 38.75 83.589844 38.75 C 82.605469 38.75 81.515625 38.75 80.589844 38.75 C 80.082031 38.75 79.59375 38.898438 79.175781 39.164062 L 76.949219 31.105469 C 76.074219 27.941406 73.203125 25.753906 69.929688 25.753906 L 39.246094 25.753906 C 35.972656 25.753906 33.097656 27.941406 32.226562 31.105469 Z M 83.429688 67.765625 C 83.347656 67.863281 83.261719 67.953125 83.171875 68.046875 L 83.148438 68.070312 L 83.136719 68.078125 L 83.128906 68.089844 L 83.070312 68.148438 L 83.054688 68.160156 L 83.035156 68.179688 C 81.730469 69.449219 79.949219 70.234375 77.988281 70.238281 L 77.964844 70.238281 C 77.964844 70.238281 76.75 70.238281 76.75 70.238281 L 76.75 73.96875 C 76.75 74.40625 77.105469 74.761719 77.539062 74.761719 L 82.640625 74.761719 C 82.851562 74.761719 83.050781 74.679688 83.199219 74.53125 C 83.347656 74.378906 83.429688 74.179688 83.429688 73.96875 Z M 25.742188 67.765625 L 25.742188 73.96875 C 25.742188 74.179688 25.828125 74.378906 25.976562 74.53125 C 26.125 74.679688 26.324219 74.761719 26.535156 74.761719 L 31.632812 74.761719 C 32.070312 74.761719 32.425781 74.40625 32.425781 73.96875 L 32.425781 70.238281 L 31.210938 70.238281 C 31.203125 70.238281 31.195312 70.238281 31.1875 70.238281 C 29.222656 70.234375 27.445312 69.449219 26.136719 68.179688 L 26.136719 68.175781 L 26.121094 68.160156 L 26.105469 68.148438 L 26.003906 68.046875 C 25.914062 67.953125 25.828125 67.863281 25.742188 67.765625 Z M 78.011719 41.78125 L 75.195312 31.59375 C 74.539062 29.222656 72.382812 27.578125 69.929688 27.578125 L 39.246094 27.578125 C 36.789062 27.578125 34.636719 29.222656 33.980469 31.59375 C 32.40625 37.285156 29.960938 46.132812 29.960938 46.132812 L 29.929688 46.230469 L 29.886719 46.320312 L 29.839844 46.394531 C 29.839844 46.394531 26.660156 51.175781 26.660156 51.175781 C 26.621094 51.238281 26.578125 51.304688 26.539062 51.367188 L 31.503906 51.367188 C 35.363281 51.367188 38.496094 54.507812 38.496094 58.378906 C 38.496094 59.046875 37.957031 59.585938 37.292969 59.585938 L 25.894531 59.585938 C 25.84375 59.585938 25.792969 59.585938 25.742188 59.578125 L 25.742188 62.953125 C 25.75 64.371094 26.300781 65.730469 27.285156 66.75 L 27.40625 66.871094 C 28.421875 67.855469 29.777344 68.410156 31.191406 68.414062 L 39.261719 68.414062 L 42.921875 63.644531 C 43.292969 63.160156 43.871094 62.875 44.484375 62.875 C 47.414062 62.875 61.761719 62.875 64.691406 62.875 C 65.300781 62.875 65.878906 63.160156 66.253906 63.644531 L 69.914062 68.414062 L 77.980469 68.414062 C 79.390625 68.410156 80.742188 67.859375 81.753906 66.882812 L 81.804688 66.832031 L 81.808594 66.832031 C 81.824219 66.816406 81.835938 66.800781 81.851562 66.789062 L 81.863281 66.773438 L 81.902344 66.734375 C 82.875 65.722656 83.421875 64.375 83.429688 62.96875 L 83.429688 59.578125 C 83.378906 59.585938 83.328125 59.585938 83.277344 59.585938 L 71.882812 59.585938 C 71.21875 59.585938 70.679688 59.046875 70.679688 58.378906 C 70.679688 54.507812 73.808594 51.367188 77.671875 51.367188 L 82.632812 51.367188 C 82.59375 51.304688 82.554688 51.238281 82.511719 51.175781 L 79.332031 46.394531 L 79.28125 46.304688 L 79.257812 46.253906 C 79.230469 46.203125 79.210938 46.148438 79.195312 46.089844 L 78.074219 42.074219 C 78.046875 41.976562 78.027344 41.878906 78.011719 41.78125 Z M 64.8125 64.757812 L 67.613281 68.414062 C 67.613281 68.414062 41.558594 68.414062 41.558594 68.414062 C 41.558594 68.414062 44.363281 64.757812 44.363281 64.757812 C 44.390625 64.722656 44.4375 64.699219 44.484375 64.699219 C 44.484375 64.699219 64.691406 64.699219 64.691406 64.699219 C 64.738281 64.699219 64.78125 64.722656 64.8125 64.757812 Z M 25.742188 57.609375 C 25.742188 57.648438 25.761719 57.6875 25.789062 57.714844 C 25.816406 57.742188 25.855469 57.761719 25.894531 57.761719 L 36.636719 57.761719 C 36.332031 55.1875 34.152344 53.195312 31.503906 53.195312 C 31.503906 53.195312 26.535156 53.195312 26.535156 53.195312 C 26.144531 53.195312 25.824219 53.472656 25.757812 53.84375 C 25.75 53.96875 25.742188 54.089844 25.742188 54.214844 Z M 83.417969 53.84375 C 83.351562 53.472656 83.027344 53.195312 82.640625 53.195312 C 82.640625 53.195312 77.671875 53.195312 77.671875 53.195312 C 75.023438 53.195312 72.839844 55.1875 72.535156 57.761719 L 83.277344 57.761719 C 83.320312 57.761719 83.355469 57.742188 83.386719 57.714844 C 83.414062 57.6875 83.429688 57.648438 83.429688 57.609375 L 83.429688 54.214844 C 83.429688 54.089844 83.425781 53.96875 83.417969 53.84375 Z M 43.960938 56.390625 L 65.214844 56.390625 C 65.714844 56.390625 66.125 55.980469 66.125 55.476562 C 66.125 54.972656 65.714844 54.5625 65.214844 54.5625 L 43.960938 54.5625 C 43.457031 54.5625 43.050781 54.972656 43.050781 55.476562 C 43.050781 55.980469 43.457031 56.390625 43.960938 56.390625 Z M 74.121094 32.230469 C 73.558594 30.167969 71.6875 28.734375 69.554688 28.734375 C 62.835938 28.734375 46.339844 28.734375 39.621094 28.734375 C 37.484375 28.734375 35.613281 30.167969 35.050781 32.230469 C 33.78125 36.882812 31.394531 45.648438 31.394531 45.648438 C 31.320312 45.921875 31.375 46.214844 31.546875 46.441406 C 31.71875 46.667969 31.988281 46.800781 32.273438 46.800781 L 76.902344 46.800781 C 77.1875 46.800781 77.453125 46.667969 77.625 46.441406 C 77.796875 46.214844 77.855469 45.921875 77.78125 45.648438 Z M 72.367188 32.714844 L 75.710938 44.976562 C 75.710938 44.976562 40.445312 44.976562 33.464844 44.976562 C 33.464844 44.976562 36.808594 32.714844 36.808594 32.714844 C 37.152344 31.441406 38.304688 30.5625 39.621094 30.5625 C 46.339844 30.5625 62.835938 30.5625 69.554688 30.5625 C 70.867188 30.5625 72.019531 31.441406 72.367188 32.714844 Z M 29.328125 41.582031 L 28.421875 44.832031 C 28.421875 44.832031 25.261719 44.410156 25.261719 44.410156 C 24.320312 44.285156 23.617188 43.480469 23.617188 42.527344 C 23.617188 41.449219 24.488281 40.574219 25.566406 40.574219 C 25.566406 40.574219 28.566406 40.574219 28.566406 40.574219 C 28.8125 40.574219 29.046875 40.691406 29.195312 40.890625 C 29.34375 41.085938 29.394531 41.34375 29.328125 41.582031 Z M 80.742188 44.832031 L 79.800781 41.421875 C 79.789062 41.230469 79.84375 41.042969 79.960938 40.890625 C 80.109375 40.691406 80.339844 40.574219 80.589844 40.574219 C 80.589844 40.574219 83.589844 40.574219 83.589844 40.574219 C 84.664062 40.574219 85.535156 41.449219 85.535156 42.527344 C 85.535156 43.480469 84.832031 44.285156 83.890625 44.410156 Z M 64.976562 10.019531 L 44.398438 10.019531 C 44.082031 9.445312 43.679688 8.90625 43.191406 8.417969 C 41.089844 6.3125 38.019531 5.769531 35.417969 6.792969 C 35.132812 6.902344 34.921875 7.152344 34.859375 7.453125 C 34.792969 7.757812 34.886719 8.070312 35.105469 8.285156 L 38.902344 12.09375 C 38.902344 12.09375 38.792969 14.289062 38.792969 14.289062 C 38.792969 14.289062 36.605469 14.398438 36.605469 14.398438 C 36.605469 14.398438 32.804688 10.589844 32.804688 10.589844 C 32.589844 10.375 32.277344 10.28125 31.976562 10.34375 C 31.675781 10.40625 31.425781 10.617188 31.316406 10.90625 C 30.296875 13.511719 30.839844 16.59375 32.9375 18.699219 C 35.769531 21.535156 40.363281 21.535156 43.191406 18.699219 C 43.570312 18.320312 43.898438 17.90625 44.175781 17.472656 C 44.175781 17.472656 64.753906 17.472656 64.753906 17.472656 C 65.074219 18.046875 65.476562 18.585938 65.960938 19.074219 C 68.0625 21.179688 71.136719 21.722656 73.738281 20.703125 C 74.023438 20.589844 74.234375 20.339844 74.296875 20.039062 C 74.359375 19.738281 74.265625 19.425781 74.050781 19.207031 L 70.253906 15.398438 C 70.253906 15.398438 70.359375 13.203125 70.359375 13.203125 C 70.359375 13.203125 72.550781 13.09375 72.550781 13.09375 C 72.550781 13.09375 76.347656 16.902344 76.347656 16.902344 C 76.566406 17.121094 76.878906 17.214844 77.179688 17.148438 C 77.480469 17.085938 77.726562 16.875 77.839844 16.589844 C 78.859375 13.980469 78.316406 10.898438 76.214844 8.792969 C 73.386719 5.957031 68.792969 5.957031 65.960938 8.792969 C 65.582031 9.175781 65.253906 9.585938 64.976562 10.019531 Z M 65.5 11.847656 C 65.835938 11.847656 66.144531 11.660156 66.300781 11.363281 C 66.546875 10.90625 66.863281 10.472656 67.25 10.085938 C 69.367188 7.960938 72.808594 7.960938 74.929688 10.085938 C 76.121094 11.28125 76.644531 12.898438 76.492188 14.464844 C 76.492188 14.464844 73.554688 11.515625 73.554688 11.515625 C 73.371094 11.335938 73.121094 11.238281 72.863281 11.25 L 69.445312 11.421875 C 68.980469 11.445312 68.605469 11.816406 68.582031 12.285156 L 68.414062 15.714844 C 68.402344 15.972656 68.496094 16.222656 68.679688 16.40625 L 71.617188 19.351562 C 70.058594 19.503906 68.445312 18.980469 67.25 17.78125 C 66.773438 17.304688 66.40625 16.761719 66.144531 16.183594 C 65.996094 15.855469 65.671875 15.644531 65.3125 15.644531 L 43.65625 15.644531 C 43.320312 15.644531 43.011719 15.832031 42.851562 16.128906 C 42.609375 16.589844 42.292969 17.019531 41.90625 17.410156 C 39.785156 19.53125 36.34375 19.53125 34.226562 17.410156 C 33.03125 16.210938 32.511719 14.59375 32.664062 13.03125 C 32.664062 13.03125 35.601562 15.976562 35.601562 15.976562 C 35.78125 16.160156 36.035156 16.253906 36.289062 16.242188 L 39.707031 16.074219 C 40.175781 16.050781 40.550781 15.675781 40.574219 15.207031 L 40.742188 11.78125 C 40.753906 11.523438 40.65625 11.269531 40.476562 11.089844 L 37.535156 8.144531 C 39.097656 7.992188 40.710938 8.511719 41.90625 9.710938 C 42.378906 10.1875 42.75 10.730469 43.011719 11.3125 C 43.15625 11.636719 43.484375 11.847656 43.839844 11.847656 Z M 64.976562 10.019531 L 64.976562 10.023438 Z M 64.976562 10.019531 " fill-opacity="1" fill-rule="evenodd"/></g><g fill="#000000" fill-opacity="1"><g transform="translate(106.288537, 52.359153)"><g><path d="M 1.265625 -10.25 C 1.265625 -12.238281 1.710938 -14.03125 2.609375 -15.625 C 3.515625 -17.226562 4.742188 -18.476562 6.296875 -19.375 C 7.847656 -20.28125 9.578125 -20.734375 11.484375 -20.734375 C 13.710938 -20.734375 15.65625 -20.191406 17.3125 -19.109375 C 18.976562 -18.035156 20.195312 -16.507812 20.96875 -14.53125 L 17.765625 -14.53125 C 17.191406 -15.757812 16.367188 -16.707031 15.296875 -17.375 C 14.234375 -18.039062 12.960938 -18.375 11.484375 -18.375 C 10.054688 -18.375 8.773438 -18.039062 7.640625 -17.375 C 6.503906 -16.707031 5.613281 -15.765625 4.96875 -14.546875 C 4.320312 -13.328125 4 -11.894531 4 -10.25 C 4 -8.625 4.320312 -7.195312 4.96875 -5.96875 C 5.613281 -4.75 6.503906 -3.804688 7.640625 -3.140625 C 8.773438 -2.472656 10.054688 -2.140625 11.484375 -2.140625 C 12.960938 -2.140625 14.234375 -2.46875 15.296875 -3.125 C 16.367188 -3.78125 17.191406 -4.722656 17.765625 -5.953125 L 20.96875 -5.953125 C 20.195312 -4.003906 18.976562 -2.492188 17.3125 -1.421875 C 15.65625 -0.359375 13.710938 0.171875 11.484375 0.171875 C 9.578125 0.171875 7.847656 -0.269531 6.296875 -1.15625 C 4.742188 -2.050781 3.515625 -3.289062 2.609375 -4.875 C 1.710938 -6.457031 1.265625 -8.25 1.265625 -10.25 Z M 1.265625 -10.25 "/></g></g></g><g fill="#000000" fill-opacity="1"><g transform="translate(128.949362, 52.359153)"><g><path d="M 1.265625 -8.109375 C 1.265625 -9.742188 1.597656 -11.179688 2.265625 -12.421875 C 2.929688 -13.671875 3.84375 -14.640625 5 -15.328125 C 6.164062 -16.015625 7.460938 -16.359375 8.890625 -16.359375 C 10.304688 -16.359375 11.53125 -16.050781 12.5625 -15.4375 C 13.601562 -14.832031 14.378906 -14.070312 14.890625 -13.15625 L 14.890625 -16.09375 L 17.59375 -16.09375 L 17.59375 0 L 14.890625 0 L 14.890625 -3 C 14.359375 -2.050781 13.566406 -1.269531 12.515625 -0.65625 C 11.472656 -0.0390625 10.253906 0.265625 8.859375 0.265625 C 7.429688 0.265625 6.140625 -0.0820312 4.984375 -0.78125 C 3.835938 -1.488281 2.929688 -2.476562 2.265625 -3.75 C 1.597656 -5.03125 1.265625 -6.484375 1.265625 -8.109375 Z M 14.890625 -8.078125 C 14.890625 -9.285156 14.644531 -10.335938 14.15625 -11.234375 C 13.664062 -12.140625 13.003906 -12.832031 12.171875 -13.3125 C 11.335938 -13.789062 10.421875 -14.03125 9.421875 -14.03125 C 8.421875 -14.03125 7.507812 -13.796875 6.6875 -13.328125 C 5.863281 -12.859375 5.207031 -12.171875 4.71875 -11.265625 C 4.238281 -10.367188 4 -9.316406 4 -8.109375 C 4 -6.867188 4.238281 -5.789062 4.71875 -4.875 C 5.207031 -3.96875 5.863281 -3.273438 6.6875 -2.796875 C 7.507812 -2.316406 8.421875 -2.078125 9.421875 -2.078125 C 10.421875 -2.078125 11.335938 -2.316406 12.171875 -2.796875 C 13.003906 -3.273438 13.664062 -3.96875 14.15625 -4.875 C 14.644531 -5.789062 14.890625 -6.859375 14.890625 -8.078125 Z M 14.890625 -8.078125 "/></g></g></g><g fill="#000000" fill-opacity="1"><g transform="translate(148.792254, 52.359153)"><g><path d="M 4.9375 -13.46875 C 5.40625 -14.394531 6.070312 -15.109375 6.9375 -15.609375 C 7.8125 -16.117188 8.875 -16.375 10.125 -16.375 L 10.125 -13.625 L 9.421875 -13.625 C 6.429688 -13.625 4.9375 -12 4.9375 -8.75 L 4.9375 0 L 2.265625 0 L 2.265625 -16.09375 L 4.9375 -16.09375 Z M 4.9375 -13.46875 "/></g></g></g><g fill="#000000" fill-opacity="1"><g transform="translate(159.741075, 52.359153)"><g/></g></g><g fill="#000000" fill-opacity="1"><g transform="translate(167.578429, 52.359153)"><g><path d="M 17.96875 0 L 15.296875 -2.703125 C 14.296875 -1.660156 13.226562 -0.890625 12.09375 -0.390625 C 10.957031 0.109375 9.675781 0.359375 8.25 0.359375 C 6.84375 0.359375 5.59375 0.101562 4.5 -0.40625 C 3.414062 -0.914062 2.578125 -1.640625 1.984375 -2.578125 C 1.390625 -3.523438 1.09375 -4.625 1.09375 -5.875 C 1.09375 -7.300781 1.492188 -8.554688 2.296875 -9.640625 C 3.109375 -10.734375 4.3125 -11.59375 5.90625 -12.21875 C 5.28125 -12.957031 4.828125 -13.640625 4.546875 -14.265625 C 4.273438 -14.890625 4.140625 -15.578125 4.140625 -16.328125 C 4.140625 -17.179688 4.359375 -17.957031 4.796875 -18.65625 C 5.234375 -19.351562 5.863281 -19.894531 6.6875 -20.28125 C 7.507812 -20.675781 8.460938 -20.875 9.546875 -20.875 C 10.597656 -20.875 11.515625 -20.664062 12.296875 -20.25 C 13.078125 -19.84375 13.664062 -19.269531 14.0625 -18.53125 C 14.457031 -17.800781 14.632812 -16.988281 14.59375 -16.09375 L 11.921875 -16.09375 C 11.941406 -16.894531 11.71875 -17.523438 11.25 -17.984375 C 10.78125 -18.441406 10.171875 -18.671875 9.421875 -18.671875 C 8.640625 -18.671875 8.007812 -18.445312 7.53125 -18 C 7.050781 -17.5625 6.8125 -17.003906 6.8125 -16.328125 C 6.8125 -15.734375 6.972656 -15.160156 7.296875 -14.609375 C 7.617188 -14.066406 8.160156 -13.394531 8.921875 -12.59375 L 15.03125 -6.453125 L 15.5625 -7.28125 L 17.5625 -10.625 L 20.4375 -10.625 L 18.03125 -6.453125 C 17.695312 -5.867188 17.304688 -5.253906 16.859375 -4.609375 L 21.46875 0 Z M 8.25 -1.9375 C 9.300781 -1.9375 10.253906 -2.140625 11.109375 -2.546875 C 11.960938 -2.960938 12.769531 -3.601562 13.53125 -4.46875 L 7.515625 -10.515625 C 5.015625 -9.554688 3.765625 -8.035156 3.765625 -5.953125 C 3.765625 -4.804688 4.175781 -3.847656 5 -3.078125 C 5.832031 -2.316406 6.914062 -1.9375 8.25 -1.9375 Z M 8.25 -1.9375 "/></g></g></g><g fill="#000000" fill-opacity="1"><g transform="translate(189.270591, 52.359153)"><g/></g></g><g fill="#000000" fill-opacity="1"><g transform="translate(197.107944, 52.359153)"><g><path d="M 23.015625 -20.3125 L 23.015625 0 L 20.34375 0 L 20.34375 -15.15625 L 13.59375 0 L 11.71875 0 L 4.9375 -15.171875 L 4.9375 0 L 2.265625 0 L 2.265625 -20.3125 L 5.140625 -20.3125 L 12.65625 -3.515625 L 20.171875 -20.3125 Z M 23.015625 -20.3125 "/></g></g></g><g fill="#000000" fill-opacity="1"><g transform="translate(222.38122, 52.359153)"><g><path d="M 9.28125 0.265625 C 7.769531 0.265625 6.398438 -0.078125 5.171875 -0.765625 C 3.953125 -1.453125 2.992188 -2.425781 2.296875 -3.6875 C 1.609375 -4.945312 1.265625 -6.410156 1.265625 -8.078125 C 1.265625 -9.722656 1.617188 -11.175781 2.328125 -12.4375 C 3.046875 -13.695312 4.019531 -14.664062 5.25 -15.34375 C 6.488281 -16.019531 7.867188 -16.359375 9.390625 -16.359375 C 10.921875 -16.359375 12.300781 -16.019531 13.53125 -15.34375 C 14.769531 -14.664062 15.742188 -13.695312 16.453125 -12.4375 C 17.171875 -11.1875 17.53125 -9.734375 17.53125 -8.078125 C 17.53125 -6.410156 17.160156 -4.945312 16.421875 -3.6875 C 15.691406 -2.425781 14.695312 -1.453125 13.4375 -0.765625 C 12.1875 -0.078125 10.800781 0.265625 9.28125 0.265625 Z M 9.28125 -2.078125 C 10.238281 -2.078125 11.132812 -2.300781 11.96875 -2.75 C 12.8125 -3.207031 13.492188 -3.882812 14.015625 -4.78125 C 14.535156 -5.6875 14.796875 -6.785156 14.796875 -8.078125 C 14.796875 -9.367188 14.539062 -10.460938 14.03125 -11.359375 C 13.519531 -12.265625 12.851562 -12.9375 12.03125 -13.375 C 11.207031 -13.8125 10.316406 -14.03125 9.359375 -14.03125 C 8.378906 -14.03125 7.484375 -13.8125 6.671875 -13.375 C 5.859375 -12.9375 5.207031 -12.265625 4.71875 -11.359375 C 4.238281 -10.460938 4 -9.367188 4 -8.078125 C 4 -6.765625 4.238281 -5.65625 4.71875 -4.75 C 5.195312 -3.851562 5.835938 -3.179688 6.640625 -2.734375 C 7.441406 -2.296875 8.320312 -2.078125 9.28125 -2.078125 Z M 9.28125 -2.078125 "/></g></g></g><g fill="#000000" fill-opacity="1"><g transform="translate(241.167396, 52.359153)"><g><path d="M 5.515625 -13.890625 L 5.515625 -4.40625 C 5.515625 -3.625 5.679688 -3.070312 6.015625 -2.75 C 6.347656 -2.425781 6.925781 -2.265625 7.75 -2.265625 L 9.71875 -2.265625 L 9.71875 0 L 7.3125 0 C 5.820312 0 4.703125 -0.34375 3.953125 -1.03125 C 3.210938 -1.71875 2.84375 -2.84375 2.84375 -4.40625 L 2.84375 -13.890625 L 0.765625 -13.890625 L 0.765625 -16.09375 L 2.84375 -16.09375 L 2.84375 -20.140625 L 5.515625 -20.140625 L 5.515625 -16.09375 L 9.71875 -16.09375 L 9.71875 -13.890625 Z M 5.515625 -13.890625 "/></g></g></g><g fill="#000000" fill-opacity="1"><g transform="translate(251.852029, 52.359153)"><g><path d="M 9.28125 0.265625 C 7.769531 0.265625 6.398438 -0.078125 5.171875 -0.765625 C 3.953125 -1.453125 2.992188 -2.425781 2.296875 -3.6875 C 1.609375 -4.945312 1.265625 -6.410156 1.265625 -8.078125 C 1.265625 -9.722656 1.617188 -11.175781 2.328125 -12.4375 C 3.046875 -13.695312 4.019531 -14.664062 5.25 -15.34375 C 6.488281 -16.019531 7.867188 -16.359375 9.390625 -16.359375 C 10.921875 -16.359375 12.300781 -16.019531 13.53125 -15.34375 C 14.769531 -14.664062 15.742188 -13.695312 16.453125 -12.4375 C 17.171875 -11.1875 17.53125 -9.734375 17.53125 -8.078125 C 17.53125 -6.410156 17.160156 -4.945312 16.421875 -3.6875 C 15.691406 -2.425781 14.695312 -1.453125 13.4375 -0.765625 C 12.1875 -0.078125 10.800781 0.265625 9.28125 0.265625 Z M 9.28125 -2.078125 C 10.238281 -2.078125 11.132812 -2.300781 11.96875 -2.75 C 12.8125 -3.207031 13.492188 -3.882812 14.015625 -4.78125 C 14.535156 -5.6875 14.796875 -6.785156 14.796875 -8.078125 C 14.796875 -9.367188 14.539062 -10.460938 14.03125 -11.359375 C 13.519531 -12.265625 12.851562 -12.9375 12.03125 -13.375 C 11.207031 -13.8125 10.316406 -14.03125 9.359375 -14.03125 C 8.378906 -14.03125 7.484375 -13.8125 6.671875 -13.375 C 5.859375 -12.9375 5.207031 -12.265625 4.71875 -11.359375 C 4.238281 -10.460938 4 -9.367188 4 -8.078125 C 4 -6.765625 4.238281 -5.65625 4.71875 -4.75 C 5.195312 -3.851562 5.835938 -3.179688 6.640625 -2.734375 C 7.441406 -2.296875 8.320312 -2.078125 9.28125 -2.078125 Z M 9.28125 -2.078125 "/></g></g></g><g fill="#000000" fill-opacity="1"><g transform="translate(270.638204, 52.359153)"><g><path d="M 4.9375 -13.46875 C 5.40625 -14.394531 6.070312 -15.109375 6.9375 -15.609375 C 7.8125 -16.117188 8.875 -16.375 10.125 -16.375 L 10.125 -13.625 L 9.421875 -13.625 C 6.429688 -13.625 4.9375 -12 4.9375 -8.75 L 4.9375 0 L 2.265625 0 L 2.265625 -16.09375 L 4.9375 -16.09375 Z M 4.9375 -13.46875 "/></g></g></g><g fill="#000000" fill-opacity="1"><g transform="translate(281.587026, 52.359153)"><g><path d="M 1.265625 -8.078125 C 1.265625 -9.734375 1.597656 -11.179688 2.265625 -12.421875 C 2.929688 -13.671875 3.851562 -14.640625 5.03125 -15.328125 C 6.21875 -16.015625 7.570312 -16.359375 9.09375 -16.359375 C 11.070312 -16.359375 12.703125 -15.875 13.984375 -14.90625 C 15.265625 -13.945312 16.113281 -12.617188 16.53125 -10.921875 L 13.65625 -10.921875 C 13.375 -11.898438 12.835938 -12.671875 12.046875 -13.234375 C 11.253906 -13.804688 10.269531 -14.09375 9.09375 -14.09375 C 7.570312 -14.09375 6.34375 -13.566406 5.40625 -12.515625 C 4.46875 -11.472656 4 -9.992188 4 -8.078125 C 4 -6.140625 4.46875 -4.640625 5.40625 -3.578125 C 6.34375 -2.523438 7.570312 -2 9.09375 -2 C 10.269531 -2 11.25 -2.269531 12.03125 -2.8125 C 12.820312 -3.363281 13.363281 -4.148438 13.65625 -5.171875 L 16.53125 -5.171875 C 16.101562 -3.523438 15.242188 -2.207031 13.953125 -1.21875 C 12.660156 -0.226562 11.039062 0.265625 9.09375 0.265625 C 7.570312 0.265625 6.21875 -0.078125 5.03125 -0.765625 C 3.851562 -1.453125 2.929688 -2.421875 2.265625 -3.671875 C 1.597656 -4.921875 1.265625 -6.390625 1.265625 -8.078125 Z M 1.265625 -8.078125 "/></g></g></g><g fill="#000000" fill-opacity="1"><g transform="translate(299.404538, 52.359153)"><g><path d="M 16.125 -16.09375 L 6.4375 7.578125 L 3.671875 7.578125 L 6.84375 -0.171875 L 0.359375 -16.09375 L 3.3125 -16.09375 L 8.375 -3.046875 L 13.359375 -16.09375 Z M 16.125 -16.09375 "/></g></g></g><g fill="#000000" fill-opacity="1"><g transform="translate(315.930516, 52.359153)"><g><path d="M 1.265625 -8.078125 C 1.265625 -9.734375 1.597656 -11.179688 2.265625 -12.421875 C 2.929688 -13.671875 3.851562 -14.640625 5.03125 -15.328125 C 6.21875 -16.015625 7.570312 -16.359375 9.09375 -16.359375 C 11.070312 -16.359375 12.703125 -15.875 13.984375 -14.90625 C 15.265625 -13.945312 16.113281 -12.617188 16.53125 -10.921875 L 13.65625 -10.921875 C 13.375 -11.898438 12.835938 -12.671875 12.046875 -13.234375 C 11.253906 -13.804688 10.269531 -14.09375 9.09375 -14.09375 C 7.570312 -14.09375 6.34375 -13.566406 5.40625 -12.515625 C 4.46875 -11.472656 4 -9.992188 4 -8.078125 C 4 -6.140625 4.46875 -4.640625 5.40625 -3.578125 C 6.34375 -2.523438 7.570312 -2 9.09375 -2 C 10.269531 -2 11.25 -2.269531 12.03125 -2.8125 C 12.820312 -3.363281 13.363281 -4.148438 13.65625 -5.171875 L 16.53125 -5.171875 C 16.101562 -3.523438 15.242188 -2.207031 13.953125 -1.21875 C 12.660156 -0.226562 11.039062 0.265625 9.09375 0.265625 C 7.570312 0.265625 6.21875 -0.078125 5.03125 -0.765625 C 3.851562 -1.453125 2.929688 -2.421875 2.265625 -3.671875 C 1.597656 -4.921875 1.265625 -6.390625 1.265625 -8.078125 Z M 1.265625 -8.078125 "/></g></g></g><g fill="#000000" fill-opacity="1"><g transform="translate(333.748029, 52.359153)"><g><path d="M 4.9375 -21.71875 L 4.9375 0 L 2.265625 0 L 2.265625 -21.71875 Z M 4.9375 -21.71875 "/></g></g></g><g fill="#000000" fill-opacity="1"><g transform="translate(340.968952, 52.359153)"><g><path d="M 16.9375 -8.65625 C 16.9375 -8.144531 16.910156 -7.609375 16.859375 -7.046875 L 4 -7.046875 C 4.09375 -5.460938 4.632812 -4.222656 5.625 -3.328125 C 6.613281 -2.441406 7.8125 -2 9.21875 -2 C 10.375 -2 11.335938 -2.265625 12.109375 -2.796875 C 12.878906 -3.335938 13.421875 -4.0625 13.734375 -4.96875 L 16.625 -4.96875 C 16.1875 -3.414062 15.320312 -2.15625 14.03125 -1.1875 C 12.738281 -0.21875 11.132812 0.265625 9.21875 0.265625 C 7.6875 0.265625 6.316406 -0.078125 5.109375 -0.765625 C 3.910156 -1.453125 2.96875 -2.425781 2.28125 -3.6875 C 1.601562 -4.945312 1.265625 -6.410156 1.265625 -8.078125 C 1.265625 -9.734375 1.597656 -11.1875 2.265625 -12.4375 C 2.929688 -13.695312 3.863281 -14.664062 5.0625 -15.34375 C 6.269531 -16.019531 7.65625 -16.359375 9.21875 -16.359375 C 10.75 -16.359375 12.097656 -16.023438 13.265625 -15.359375 C 14.441406 -14.691406 15.347656 -13.773438 15.984375 -12.609375 C 16.617188 -11.441406 16.9375 -10.125 16.9375 -8.65625 Z M 14.1875 -9.21875 C 14.1875 -10.238281 13.957031 -11.113281 13.5 -11.84375 C 13.050781 -12.582031 12.441406 -13.140625 11.671875 -13.515625 C 10.898438 -13.898438 10.039062 -14.09375 9.09375 -14.09375 C 7.75 -14.09375 6.601562 -13.660156 5.65625 -12.796875 C 4.707031 -11.941406 4.160156 -10.75 4.015625 -9.21875 Z M 14.1875 -9.21875 "/></g></g></g></svg>