<svg xmlns="http://www.w3.org/2000/svg" xmlns:xlink="http://www.w3.org/1999/xlink" width="500" zoomAndPan="magnify" viewBox="0 0 375 82.499998" height="110" preserveAspectRatio="xMidYMid meet" version="1.0"><defs><g/><clipPath id="3b850d391f"><path d="M 1.128906 0 L 373.871094 0 L 373.871094 82.003906 L 1.128906 82.003906 Z M 1.128906 0 " clip-rule="nonzero"/></clipPath><clipPath id="11ba633229"><path d="M 36 19 L 63 19 L 63 77.171875 L 36 77.171875 Z M 36 19 " clip-rule="nonzero"/></clipPath><clipPath id="212db42864"><path d="M 9.328125 19 L 55 19 L 55 76 L 9.328125 76 Z M 9.328125 19 " clip-rule="nonzero"/></clipPath></defs><g clip-path="url(#3b850d391f)"><path fill="#ffffff" d="M 1.128906 0 L 373.871094 0 L 373.871094 82.003906 L 1.128906 82.003906 Z M 1.128906 0 " fill-opacity="1" fill-rule="nonzero"/><path fill="#02a164" d="M 1.128906 0 L 373.871094 0 L 373.871094 82.003906 L 1.128906 82.003906 Z M 1.128906 0 " fill-opacity="1" fill-rule="nonzero"/></g><g clip-path="url(#11ba633229)"><path fill="#c9574a" d="M 36.039062 76.308594 L 36.039062 32.835938 C 36.039062 32.59375 36.128906 32.382812 36.300781 32.214844 L 48.933594 20.03125 C 49.265625 19.710938 49.789062 19.710938 50.121094 20.03125 L 62.738281 32.214844 C 62.914062 32.382812 63 32.59375 63 32.835938 L 63 76.308594 C 63 76.785156 62.617188 77.171875 62.144531 77.171875 L 36.894531 77.171875 C 36.421875 77.171875 36.039062 76.785156 36.039062 76.308594 Z M 36.039062 76.308594 " fill-opacity="1" fill-rule="evenodd"/></g><path fill="#eaa416" d="M 39.613281 73.574219 L 59.425781 73.574219 L 59.425781 34.003906 L 49.527344 24.441406 L 39.613281 34.003906 Z M 59.828125 74.382812 L 39.210938 74.382812 C 38.988281 74.382812 38.808594 74.203125 38.808594 73.976562 L 38.808594 33.832031 C 38.808594 33.726562 38.851562 33.621094 38.933594 33.539062 L 49.25 23.589844 C 49.402344 23.441406 49.648438 23.441406 49.804688 23.589844 L 60.085938 33.519531 C 60.175781 33.59375 60.234375 33.707031 60.234375 33.832031 L 60.234375 73.976562 C 60.234375 74.203125 60.050781 74.382812 59.828125 74.382812 Z M 59.828125 74.382812 " fill-opacity="1" fill-rule="nonzero"/><path fill="#ffffff" d="M 51.761719 63.148438 C 51.585938 63.148438 51.433594 63.1875 51.300781 63.261719 C 51.167969 63.335938 51.035156 63.488281 50.902344 63.71875 C 50.773438 63.949219 50.628906 64.296875 50.472656 64.769531 C 50.332031 65.191406 50.167969 65.601562 49.984375 66 C 49.804688 66.394531 49.589844 66.753906 49.34375 67.070312 C 49.09375 67.390625 48.804688 67.644531 48.46875 67.832031 C 48.132812 68.019531 47.742188 68.113281 47.292969 68.113281 C 46.722656 68.113281 46.230469 67.949219 45.820312 67.617188 C 45.410156 67.285156 45.089844 66.832031 44.867188 66.261719 C 44.640625 65.6875 44.527344 65.035156 44.527344 64.304688 C 44.527344 63.585938 44.648438 62.949219 44.890625 62.394531 C 45.136719 61.84375 45.484375 61.40625 45.9375 61.089844 C 46.390625 60.777344 46.933594 60.617188 47.566406 60.617188 L 47.566406 63.132812 C 47.355469 63.132812 47.171875 63.175781 47.011719 63.261719 C 46.851562 63.347656 46.726562 63.480469 46.636719 63.664062 C 46.546875 63.847656 46.503906 64.078125 46.503906 64.359375 C 46.503906 64.632812 46.542969 64.863281 46.617188 65.046875 C 46.691406 65.234375 46.789062 65.375 46.914062 65.464844 C 47.035156 65.558594 47.171875 65.601562 47.324219 65.601562 C 47.496094 65.601562 47.648438 65.527344 47.777344 65.386719 C 47.90625 65.242188 48.027344 65.042969 48.140625 64.789062 C 48.25 64.535156 48.359375 64.238281 48.472656 63.902344 C 48.695312 63.203125 48.953125 62.609375 49.25 62.128906 C 49.542969 61.640625 49.898438 61.269531 50.300781 61.015625 C 50.710938 60.757812 51.191406 60.632812 51.75 60.632812 C 52.339844 60.632812 52.84375 60.78125 53.25 61.078125 C 53.664062 61.375 53.976562 61.796875 54.191406 62.34375 C 54.40625 62.890625 54.511719 63.53125 54.511719 64.273438 C 54.511719 64.78125 54.445312 65.28125 54.316406 65.773438 C 54.1875 66.261719 53.988281 66.707031 53.714844 67.101562 C 53.445312 67.5 53.097656 67.816406 52.671875 68.050781 C 52.246094 68.285156 51.738281 68.402344 51.148438 68.402344 L 51.148438 65.878906 C 51.414062 65.878906 51.636719 65.84375 51.816406 65.777344 C 51.992188 65.714844 52.136719 65.617188 52.246094 65.480469 C 52.355469 65.347656 52.433594 65.179688 52.476562 64.976562 C 52.527344 64.773438 52.546875 64.542969 52.546875 64.273438 C 52.546875 63.992188 52.511719 63.773438 52.433594 63.609375 C 52.359375 63.449219 52.261719 63.328125 52.144531 63.257812 C 52.023438 63.1875 51.894531 63.148438 51.761719 63.148438 Z M 51.761719 63.148438 " fill-opacity="1" fill-rule="nonzero"/><path fill="#ffffff" d="M 54.378906 57.503906 L 54.378906 60.210938 L 44.660156 56.625 L 44.660156 54.257812 L 54.378906 50.652344 L 54.378906 53.359375 L 52.75 53.867188 L 52.75 56.996094 Z M 50.726562 54.496094 L 47.714844 55.433594 L 50.726562 56.371094 Z M 50.726562 54.496094 " fill-opacity="1" fill-rule="nonzero"/><path fill="#ffffff" d="M 54.378906 43.460938 L 54.378906 50.007812 L 44.660156 50.007812 L 44.660156 47.488281 L 52.363281 47.488281 L 52.363281 43.460938 Z M 54.378906 43.460938 " fill-opacity="1" fill-rule="nonzero"/><path fill="#ffffff" d="M 54.378906 35.726562 L 54.378906 42.523438 L 44.660156 42.523438 L 44.660156 35.710938 L 46.683594 35.710938 L 46.683594 40 L 48.425781 40 L 48.425781 36.390625 L 50.367188 36.390625 L 50.367188 40 L 52.363281 40 L 52.363281 35.726562 Z M 54.378906 35.726562 " fill-opacity="1" fill-rule="nonzero"/><g clip-path="url(#212db42864)"><path fill="#c9574a" d="M 9.566406 61.921875 L 31.164062 24.273438 C 31.285156 24.0625 31.464844 23.925781 31.699219 23.867188 L 48.691406 19.671875 C 49.136719 19.5625 49.589844 19.828125 49.71875 20.269531 L 54.59375 37.171875 C 54.660156 37.40625 54.632812 37.632812 54.511719 37.84375 L 32.917969 75.492188 C 32.683594 75.902344 32.15625 76.042969 31.75 75.804688 L 9.882812 63.097656 C 9.472656 62.859375 9.332031 62.332031 9.566406 61.921875 Z M 9.566406 61.921875 " fill-opacity="1" fill-rule="evenodd"/></g><path fill="#eaa416" d="M 14.023438 61.351562 L 31.183594 71.320312 L 50.839844 37.054688 L 47.011719 23.792969 L 33.679688 27.082031 Z M 31.128906 72.226562 L 13.273438 61.851562 C 13.078125 61.738281 13.011719 61.488281 13.125 61.296875 L 33.066406 26.527344 C 33.121094 26.4375 33.207031 26.367188 33.320312 26.339844 L 47.195312 22.914062 C 47.402344 22.863281 47.617188 22.984375 47.675781 23.195312 L 51.648438 36.964844 C 51.691406 37.074219 51.683594 37.203125 51.621094 37.308594 L 31.679688 72.078125 C 31.566406 72.273438 31.320312 72.339844 31.128906 72.226562 Z M 31.128906 72.226562 " fill-opacity="1" fill-rule="nonzero"/><path fill="#ffffff" d="M 29.722656 58.4375 C 29.570312 58.351562 29.417969 58.304688 29.265625 58.300781 C 29.113281 58.300781 28.925781 58.363281 28.695312 58.5 C 28.46875 58.628906 28.167969 58.863281 27.800781 59.191406 C 27.46875 59.484375 27.125 59.757812 26.769531 60.011719 C 26.414062 60.261719 26.050781 60.46875 25.679688 60.617188 C 25.304688 60.769531 24.929688 60.839844 24.542969 60.835938 C 24.160156 60.828125 23.773438 60.710938 23.386719 60.484375 C 22.890625 60.199219 22.546875 59.808594 22.355469 59.316406 C 22.164062 58.820312 22.113281 58.269531 22.203125 57.660156 C 22.292969 57.050781 22.519531 56.429688 22.882812 55.796875 C 23.242188 55.175781 23.664062 54.683594 24.144531 54.328125 C 24.632812 53.972656 25.148438 53.769531 25.699219 53.722656 C 26.246094 53.679688 26.796875 53.816406 27.34375 54.132812 L 26.097656 56.308594 C 25.914062 56.203125 25.734375 56.148438 25.550781 56.144531 C 25.367188 56.136719 25.195312 56.191406 25.027344 56.304688 C 24.859375 56.417969 24.707031 56.59375 24.566406 56.839844 C 24.429688 57.074219 24.351562 57.292969 24.324219 57.492188 C 24.296875 57.691406 24.3125 57.863281 24.371094 58.003906 C 24.433594 58.144531 24.527344 58.253906 24.660156 58.328125 C 24.808594 58.414062 24.976562 58.429688 25.160156 58.371094 C 25.34375 58.308594 25.546875 58.199219 25.769531 58.035156 C 25.992188 57.871094 26.234375 57.667969 26.5 57.433594 C 27.039062 56.941406 27.558594 56.558594 28.050781 56.289062 C 28.550781 56.015625 29.039062 55.871094 29.519531 55.855469 C 30 55.839844 30.480469 55.972656 30.960938 56.25 C 31.472656 56.546875 31.832031 56.929688 32.042969 57.394531 C 32.25 57.859375 32.3125 58.382812 32.222656 58.964844 C 32.136719 59.542969 31.914062 60.152344 31.542969 60.792969 C 31.292969 61.234375 30.984375 61.632812 30.632812 61.996094 C 30.277344 62.355469 29.882812 62.640625 29.449219 62.84375 C 29.019531 63.050781 28.558594 63.148438 28.074219 63.140625 C 27.589844 63.128906 27.09375 62.976562 26.582031 62.675781 L 27.835938 60.492188 C 28.066406 60.625 28.273438 60.710938 28.460938 60.742188 C 28.648438 60.777344 28.820312 60.761719 28.980469 60.699219 C 29.144531 60.636719 29.292969 60.53125 29.433594 60.378906 C 29.574219 60.230469 29.710938 60.039062 29.84375 59.804688 C 29.984375 59.5625 30.0625 59.355469 30.074219 59.175781 C 30.089844 58.996094 30.066406 58.84375 29.996094 58.722656 C 29.929688 58.601562 29.835938 58.503906 29.722656 58.4375 Z M 29.722656 58.4375 " fill-opacity="1" fill-rule="nonzero"/><path fill="#ffffff" d="M 34.789062 54.863281 L 33.445312 57.207031 L 26.8125 49.210938 L 27.128906 48.660156 L 27.660156 47.734375 L 27.988281 47.164062 L 38.195312 48.933594 L 36.851562 51.273438 L 35.1875 50.894531 L 33.632812 53.605469 Z M 33.121094 50.421875 L 30.050781 49.71875 L 32.191406 52.042969 Z M 33.121094 50.421875 " fill-opacity="1" fill-rule="nonzero"/><path fill="#ffffff" d="M 41.765625 42.703125 L 39.765625 46.191406 L 39.324219 46.957031 L 38.515625 48.371094 L 30.101562 43.484375 L 31.351562 41.300781 L 38.019531 45.179688 L 40.019531 41.6875 Z M 41.765625 42.703125 " fill-opacity="1" fill-rule="nonzero"/><path fill="#ffffff" d="M 45.609375 36.003906 L 43.484375 39.707031 L 43.042969 40.480469 L 42.230469 41.890625 L 33.816406 37.003906 L 34.628906 35.589844 L 35.070312 34.816406 L 37.203125 31.101562 L 38.953125 32.117188 L 36.824219 35.835938 L 38.332031 36.710938 L 40.125 33.585938 L 41.804688 34.5625 L 40.011719 37.6875 L 41.738281 38.691406 L 43.863281 34.992188 Z M 45.609375 36.003906 " fill-opacity="1" fill-rule="nonzero"/><path fill="#422928" d="M 46.683594 27.460938 C 46.582031 27.640625 46.449219 27.792969 46.289062 27.917969 C 46.125 28.042969 45.945312 28.132812 45.746094 28.183594 C 45.550781 28.238281 45.347656 28.25 45.144531 28.226562 C 44.941406 28.199219 44.753906 28.132812 44.574219 28.03125 C 44.398438 27.925781 44.246094 27.792969 44.121094 27.628906 C 43.996094 27.464844 43.90625 27.285156 43.855469 27.085938 C 43.800781 26.886719 43.789062 26.683594 43.816406 26.480469 C 43.84375 26.277344 43.90625 26.085938 44.007812 25.90625 C 44.113281 25.726562 44.246094 25.574219 44.40625 25.449219 C 44.570312 25.324219 44.75 25.234375 44.945312 25.183594 C 45.144531 25.128906 45.34375 25.113281 45.546875 25.140625 C 45.75 25.167969 45.941406 25.234375 46.121094 25.335938 C 46.296875 25.441406 46.449219 25.574219 46.574219 25.738281 C 46.695312 25.902344 46.785156 26.082031 46.839844 26.28125 C 46.890625 26.480469 46.90625 26.683594 46.878906 26.886719 C 46.851562 27.089844 46.785156 27.28125 46.683594 27.460938 Z M 46.683594 27.460938 " fill-opacity="1" fill-rule="nonzero"/><path fill="#422928" d="M 57.207031 6.007812 C 59.183594 7.15625 60.269531 9.394531 60.425781 12.082031 C 60.578125 14.703125 59.847656 17.761719 58.199219 20.640625 C 57.28125 22.238281 56.179688 23.613281 54.980469 24.722656 L 54.300781 24.070312 C 55.449219 23.015625 56.507812 21.699219 57.386719 20.167969 C 58.945312 17.449219 59.636719 14.582031 59.492188 12.136719 C 59.351562 9.765625 58.421875 7.808594 56.738281 6.828125 C 55.050781 5.847656 52.902344 6.015625 50.789062 7.082031 C 48.613281 8.179688 46.492188 10.214844 44.933594 12.933594 C 43.375 15.648438 42.683594 18.519531 42.828125 20.964844 C 42.960938 23.253906 43.832031 25.15625 45.410156 26.167969 C 45.476562 26.210938 45.503906 26.300781 45.464844 26.375 C 45.371094 26.558594 45.320312 26.75 45.300781 26.941406 C 45.296875 26.996094 45.265625 27.042969 45.214844 27.066406 C 45.164062 27.09375 45.109375 27.089844 45.0625 27.0625 C 43.117188 25.90625 42.046875 23.683594 41.890625 21.015625 C 41.738281 18.398438 42.46875 15.339844 44.121094 12.460938 C 45.773438 9.578125 48.039062 7.414062 50.367188 6.238281 C 52.761719 5.03125 55.226562 4.859375 57.207031 6.007812 Z M 57.207031 6.007812 " fill-opacity="1" fill-rule="nonzero"/><path fill="#c45b19" d="M 37.21875 25.472656 L 38.828125 22.929688 C 38.914062 22.796875 38.882812 22.617188 38.753906 22.519531 L 38.203125 22.09375 L 36.882812 24.609375 C 36.835938 24.699219 36.835938 24.800781 36.882812 24.894531 L 37.195312 25.511719 C 37.203125 25.496094 37.210938 25.484375 37.21875 25.472656 Z M 37.21875 25.472656 " fill-opacity="1" fill-rule="evenodd"/><path fill="#c45b19" d="M 36.207031 20.261719 L 36.332031 17.371094 C 36.339844 17.210938 36.222656 17.074219 36.066406 17.050781 L 35.355469 16.957031 L 35.457031 19.617188 C 35.460938 19.722656 35.511719 19.808594 35.597656 19.867188 Z M 36.207031 20.261719 " fill-opacity="1" fill-rule="evenodd"/><path fill="#c45b19" d="M 32.640625 16.191406 L 31.410156 13.8125 C 31.335938 13.671875 31.167969 13.609375 31.019531 13.671875 L 30.433594 13.914062 L 31.742188 16.015625 C 31.796875 16.105469 31.886719 16.15625 31.988281 16.160156 Z M 32.640625 16.191406 " fill-opacity="1" fill-rule="evenodd"/><path fill="#c45b19" d="M 27.457031 14.539062 L 25.378906 13.207031 C 25.246094 13.121094 25.066406 13.152344 24.972656 13.28125 L 24.675781 13.667969 L 26.738281 14.765625 C 26.828125 14.8125 26.929688 14.8125 27.019531 14.765625 Z M 27.457031 14.539062 " fill-opacity="1" fill-rule="evenodd"/><path fill="#eaa416" d="M 30.148438 13.464844 L 31.742188 16.015625 C 31.796875 16.105469 31.886719 16.15625 31.988281 16.160156 L 35.054688 16.3125 C 35.210938 16.320312 35.339844 16.445312 35.34375 16.605469 L 35.457031 19.617188 C 35.460938 19.722656 35.511719 19.808594 35.597656 19.867188 L 38.175781 21.539062 C 38.3125 21.625 38.355469 21.800781 38.28125 21.941406 L 36.882812 24.609375 C 36.835938 24.699219 36.835938 24.800781 36.882812 24.894531 L 38.285156 27.640625 C 38.355469 27.78125 38.308594 27.957031 38.175781 28.042969 L 35.640625 29.648438 C 35.554688 29.703125 35.503906 29.789062 35.496094 29.890625 L 35.347656 32.976562 C 35.339844 33.136719 35.210938 33.265625 35.054688 33.269531 L 32.058594 33.382812 C 31.957031 33.386719 31.871094 33.4375 31.816406 33.523438 L 30.152344 36.121094 C 30.066406 36.257812 29.894531 36.300781 29.75 36.226562 L 27.105469 34.820312 C 27.011719 34.769531 26.914062 34.769531 26.820312 34.816406 L 24.089844 36.230469 C 23.949219 36.304688 23.777344 36.257812 23.691406 36.121094 L 22.097656 33.570312 C 22.042969 33.480469 21.957031 33.429688 21.855469 33.425781 L 18.789062 33.273438 C 18.628906 33.265625 18.503906 33.136719 18.496094 32.976562 L 18.382812 29.964844 C 18.378906 29.863281 18.332031 29.773438 18.246094 29.71875 L 15.664062 28.042969 C 15.53125 27.957031 15.484375 27.785156 15.558594 27.640625 L 16.957031 24.976562 C 17.007812 24.882812 17.007812 24.785156 16.960938 24.691406 L 15.558594 21.945312 C 15.484375 21.800781 15.53125 21.628906 15.667969 21.542969 L 18.203125 19.9375 C 18.289062 19.882812 18.339844 19.796875 18.34375 19.691406 L 18.496094 16.605469 C 18.503906 16.445312 18.628906 16.320312 18.789062 16.3125 L 21.78125 16.199219 C 21.882812 16.195312 21.972656 16.144531 22.027344 16.058594 L 23.691406 13.460938 C 23.777344 13.328125 23.949219 13.28125 24.089844 13.355469 L 26.738281 14.765625 C 26.828125 14.8125 26.929688 14.8125 27.019531 14.765625 L 29.75 13.355469 C 29.890625 13.28125 30.066406 13.328125 30.148438 13.464844 Z M 30.148438 13.464844 " fill-opacity="1" fill-rule="evenodd"/><path fill="#ffffff" d="M 22.558594 24.042969 L 22.765625 23.234375 L 23 23.300781 L 22.777344 24.101562 Z M 23 23.300781 L 23.710938 23.492188 C 23.957031 23.558594 24.140625 23.566406 24.257812 23.519531 C 24.378906 23.46875 24.457031 23.371094 24.5 23.21875 C 24.546875 23.042969 24.527344 22.898438 24.445312 22.796875 C 24.359375 22.695312 24.203125 22.609375 23.972656 22.546875 L 23.472656 22.414062 L 23.21875 23.359375 Z M 22.785156 24.105469 L 22.53125 25.0625 L 23.207031 25.246094 C 23.421875 25.300781 23.578125 25.296875 23.6875 25.230469 C 23.796875 25.164062 23.867188 25.074219 23.898438 24.957031 C 23.925781 24.847656 23.933594 24.75 23.917969 24.664062 C 23.902344 24.582031 23.863281 24.507812 23.796875 24.445312 C 23.730469 24.382812 23.632812 24.332031 23.503906 24.296875 L 22.558594 24.042969 Z M 22.5 26.085938 L 21.765625 25.886719 L 21.3125 25.765625 L 22.546875 21.128906 L 24.234375 21.585938 C 24.8125 21.742188 25.234375 21.972656 25.503906 22.273438 C 25.773438 22.570312 25.851562 22.941406 25.734375 23.375 C 25.683594 23.5625 25.597656 23.730469 25.472656 23.878906 C 25.347656 24.027344 25.175781 24.125 24.957031 24.179688 C 24.925781 24.1875 24.894531 24.191406 24.863281 24.195312 C 24.929688 24.234375 24.984375 24.277344 25.035156 24.324219 C 25.191406 24.472656 25.285156 24.636719 25.320312 24.820312 C 25.355469 25.003906 25.347656 25.183594 25.300781 25.355469 C 25.179688 25.816406 24.941406 26.121094 24.582031 26.273438 C 24.226562 26.425781 23.757812 26.421875 23.179688 26.265625 Z M 22.5 26.085938 " fill-opacity="1" fill-rule="nonzero"/><path fill="#ffffff" d="M 26.765625 27.234375 L 25.582031 26.914062 L 26.816406 22.28125 L 27.996094 22.601562 Z M 26.765625 27.234375 " fill-opacity="1" fill-rule="nonzero"/><path fill="#ffffff" d="M 31.453125 27.886719 C 31.347656 27.953125 31.199219 28.011719 31.011719 28.066406 C 30.820312 28.121094 30.59375 28.148438 30.328125 28.152344 C 30.0625 28.15625 29.765625 28.113281 29.429688 28.023438 C 29.015625 27.910156 28.679688 27.726562 28.421875 27.46875 C 28.160156 27.210938 27.992188 26.890625 27.914062 26.503906 C 27.832031 26.121094 27.859375 25.683594 27.988281 25.199219 L 28.042969 24.988281 C 28.175781 24.496094 28.371094 24.105469 28.628906 23.8125 C 28.890625 23.519531 29.195312 23.324219 29.539062 23.230469 C 29.886719 23.132812 30.253906 23.136719 30.636719 23.242188 C 31.066406 23.359375 31.402344 23.519531 31.632812 23.730469 C 31.867188 23.941406 32.019531 24.183594 32.09375 24.464844 C 32.164062 24.746094 32.171875 25.050781 32.117188 25.375 L 30.976562 25.070312 C 30.996094 24.914062 30.992188 24.78125 30.964844 24.667969 C 30.933594 24.558594 30.878906 24.464844 30.792969 24.386719 C 30.707031 24.3125 30.582031 24.253906 30.421875 24.210938 C 30.253906 24.164062 30.097656 24.171875 29.949219 24.234375 C 29.800781 24.292969 29.667969 24.410156 29.550781 24.585938 C 29.429688 24.761719 29.332031 25.003906 29.25 25.304688 L 29.191406 25.523438 C 29.113281 25.820312 29.078125 26.074219 29.089844 26.285156 C 29.105469 26.496094 29.167969 26.667969 29.277344 26.796875 C 29.390625 26.929688 29.554688 27.023438 29.773438 27.082031 C 29.878906 27.113281 29.972656 27.128906 30.050781 27.132812 C 30.132812 27.136719 30.199219 27.136719 30.253906 27.125 C 30.3125 27.117188 30.359375 27.101562 30.390625 27.085938 L 30.558594 26.457031 L 29.839844 26.261719 L 30.066406 25.417969 L 31.972656 25.929688 Z M 31.453125 27.886719 " fill-opacity="1" fill-rule="nonzero"/><g fill="#000000" fill-opacity="1"><g transform="translate(126.547968, 51.065508)"><g><path d="M 8.625 -20.46875 C 10.863281 -20.46875 12.796875 -20.050781 14.421875 -19.21875 C 16.054688 -18.382812 17.3125 -17.191406 18.1875 -15.640625 C 19.0625 -14.097656 19.5 -12.28125 19.5 -10.1875 C 19.5 -8.09375 19.0625 -6.273438 18.1875 -4.734375 C 17.3125 -3.203125 16.054688 -2.03125 14.421875 -1.21875 C 12.796875 -0.40625 10.863281 0 8.625 0 L 2.265625 0 L 2.265625 -20.46875 Z M 8.625 -2.203125 C 11.269531 -2.203125 13.285156 -2.898438 14.671875 -4.296875 C 16.066406 -5.703125 16.765625 -7.664062 16.765625 -10.1875 C 16.765625 -12.726562 16.0625 -14.710938 14.65625 -16.140625 C 13.257812 -17.578125 11.25 -18.296875 8.625 -18.296875 L 4.9375 -18.296875 L 4.9375 -2.203125 Z M 8.625 -2.203125 "/></g></g></g><g fill="#000000" fill-opacity="1"><g transform="translate(147.300815, 51.065508)"><g><path d="M 3.640625 -18.703125 C 3.128906 -18.703125 2.695312 -18.878906 2.34375 -19.234375 C 1.988281 -19.585938 1.8125 -20.015625 1.8125 -20.515625 C 1.8125 -21.023438 1.988281 -21.457031 2.34375 -21.8125 C 2.695312 -22.164062 3.128906 -22.34375 3.640625 -22.34375 C 4.128906 -22.34375 4.546875 -22.164062 4.890625 -21.8125 C 5.234375 -21.457031 5.40625 -21.023438 5.40625 -20.515625 C 5.40625 -20.015625 5.234375 -19.585938 4.890625 -19.234375 C 4.546875 -18.878906 4.128906 -18.703125 3.640625 -18.703125 Z M 4.9375 -16.09375 L 4.9375 0 L 2.265625 0 L 2.265625 -16.09375 Z M 4.9375 -16.09375 "/></g></g></g><g fill="#000000" fill-opacity="1"><g transform="translate(154.52175, 51.065508)"><g><path d="M 7.953125 0.265625 C 6.722656 0.265625 5.617188 0.0546875 4.640625 -0.359375 C 3.660156 -0.785156 2.882812 -1.375 2.3125 -2.125 C 1.75 -2.882812 1.4375 -3.753906 1.375 -4.734375 L 4.140625 -4.734375 C 4.210938 -3.921875 4.585938 -3.257812 5.265625 -2.75 C 5.941406 -2.25 6.828125 -2 7.921875 -2 C 8.941406 -2 9.742188 -2.222656 10.328125 -2.671875 C 10.921875 -3.117188 11.21875 -3.6875 11.21875 -4.375 C 11.21875 -5.082031 10.90625 -5.601562 10.28125 -5.9375 C 9.65625 -6.28125 8.6875 -6.617188 7.375 -6.953125 C 6.175781 -7.265625 5.195312 -7.582031 4.4375 -7.90625 C 3.6875 -8.226562 3.039062 -8.707031 2.5 -9.34375 C 1.96875 -9.988281 1.703125 -10.828125 1.703125 -11.859375 C 1.703125 -12.679688 1.945312 -13.4375 2.4375 -14.125 C 2.925781 -14.8125 3.617188 -15.351562 4.515625 -15.75 C 5.421875 -16.15625 6.453125 -16.359375 7.609375 -16.359375 C 9.390625 -16.359375 10.828125 -15.90625 11.921875 -15 C 13.015625 -14.101562 13.601562 -12.867188 13.6875 -11.296875 L 11.015625 -11.296875 C 10.953125 -12.140625 10.613281 -12.816406 10 -13.328125 C 9.382812 -13.835938 8.554688 -14.09375 7.515625 -14.09375 C 6.554688 -14.09375 5.789062 -13.882812 5.21875 -13.46875 C 4.65625 -13.0625 4.375 -12.523438 4.375 -11.859375 C 4.375 -11.328125 4.546875 -10.890625 4.890625 -10.546875 C 5.234375 -10.210938 5.660156 -9.941406 6.171875 -9.734375 C 6.691406 -9.523438 7.414062 -9.296875 8.34375 -9.046875 C 9.488281 -8.734375 10.425781 -8.421875 11.15625 -8.109375 C 11.882812 -7.804688 12.503906 -7.351562 13.015625 -6.75 C 13.535156 -6.144531 13.804688 -5.351562 13.828125 -4.375 C 13.828125 -3.488281 13.582031 -2.691406 13.09375 -1.984375 C 12.601562 -1.285156 11.910156 -0.734375 11.015625 -0.328125 C 10.128906 0.0664062 9.109375 0.265625 7.953125 0.265625 Z M 7.953125 0.265625 "/></g></g></g><g fill="#000000" fill-opacity="1"><g transform="translate(169.844225, 51.065508)"><g><path d="M 1.265625 -8.078125 C 1.265625 -9.734375 1.597656 -11.179688 2.265625 -12.421875 C 2.929688 -13.671875 3.851562 -14.640625 5.03125 -15.328125 C 6.21875 -16.015625 7.570312 -16.359375 9.09375 -16.359375 C 11.070312 -16.359375 12.703125 -15.875 13.984375 -14.90625 C 15.265625 -13.945312 16.113281 -12.617188 16.53125 -10.921875 L 13.65625 -10.921875 C 13.375 -11.898438 12.835938 -12.671875 12.046875 -13.234375 C 11.253906 -13.804688 10.269531 -14.09375 9.09375 -14.09375 C 7.570312 -14.09375 6.34375 -13.566406 5.40625 -12.515625 C 4.46875 -11.472656 4 -9.992188 4 -8.078125 C 4 -6.140625 4.46875 -4.640625 5.40625 -3.578125 C 6.34375 -2.523438 7.570312 -2 9.09375 -2 C 10.269531 -2 11.25 -2.269531 12.03125 -2.8125 C 12.820312 -3.363281 13.363281 -4.148438 13.65625 -5.171875 L 16.53125 -5.171875 C 16.101562 -3.523438 15.242188 -2.207031 13.953125 -1.21875 C 12.660156 -0.226562 11.039062 0.265625 9.09375 0.265625 C 7.570312 0.265625 6.21875 -0.078125 5.03125 -0.765625 C 3.851562 -1.453125 2.929688 -2.421875 2.265625 -3.671875 C 1.597656 -4.921875 1.265625 -6.390625 1.265625 -8.078125 Z M 1.265625 -8.078125 "/></g></g></g><g fill="#000000" fill-opacity="1"><g transform="translate(187.661738, 51.065508)"><g><path d="M 9.28125 0.265625 C 7.769531 0.265625 6.398438 -0.078125 5.171875 -0.765625 C 3.953125 -1.453125 2.992188 -2.425781 2.296875 -3.6875 C 1.609375 -4.945312 1.265625 -6.410156 1.265625 -8.078125 C 1.265625 -9.722656 1.617188 -11.175781 2.328125 -12.4375 C 3.046875 -13.695312 4.019531 -14.664062 5.25 -15.34375 C 6.488281 -16.019531 7.867188 -16.359375 9.390625 -16.359375 C 10.921875 -16.359375 12.300781 -16.019531 13.53125 -15.34375 C 14.769531 -14.664062 15.742188 -13.695312 16.453125 -12.4375 C 17.171875 -11.1875 17.53125 -9.734375 17.53125 -8.078125 C 17.53125 -6.410156 17.160156 -4.945312 16.421875 -3.6875 C 15.691406 -2.425781 14.695312 -1.453125 13.4375 -0.765625 C 12.1875 -0.078125 10.800781 0.265625 9.28125 0.265625 Z M 9.28125 -2.078125 C 10.238281 -2.078125 11.132812 -2.300781 11.96875 -2.75 C 12.8125 -3.207031 13.492188 -3.882812 14.015625 -4.78125 C 14.535156 -5.6875 14.796875 -6.785156 14.796875 -8.078125 C 14.796875 -9.367188 14.539062 -10.460938 14.03125 -11.359375 C 13.519531 -12.265625 12.851562 -12.9375 12.03125 -13.375 C 11.207031 -13.8125 10.316406 -14.03125 9.359375 -14.03125 C 8.378906 -14.03125 7.484375 -13.8125 6.671875 -13.375 C 5.859375 -12.9375 5.207031 -12.265625 4.71875 -11.359375 C 4.238281 -10.460938 4 -9.367188 4 -8.078125 C 4 -6.765625 4.238281 -5.65625 4.71875 -4.75 C 5.195312 -3.851562 5.835938 -3.179688 6.640625 -2.734375 C 7.441406 -2.296875 8.320312 -2.078125 9.28125 -2.078125 Z M 9.28125 -2.078125 "/></g></g></g><g fill="#000000" fill-opacity="1"><g transform="translate(206.447913, 51.065508)"><g><path d="M 16.53125 -16.09375 L 16.53125 0 L 13.859375 0 L 13.859375 -2.375 C 13.347656 -1.550781 12.632812 -0.910156 11.71875 -0.453125 C 10.8125 0.00390625 9.8125 0.234375 8.71875 0.234375 C 7.46875 0.234375 6.34375 -0.0234375 5.34375 -0.546875 C 4.34375 -1.066406 3.550781 -1.84375 2.96875 -2.875 C 2.394531 -3.914062 2.109375 -5.179688 2.109375 -6.671875 L 2.109375 -16.09375 L 4.75 -16.09375 L 4.75 -7.015625 C 4.75 -5.429688 5.148438 -4.210938 5.953125 -3.359375 C 6.753906 -2.503906 7.851562 -2.078125 9.25 -2.078125 C 10.675781 -2.078125 11.800781 -2.519531 12.625 -3.40625 C 13.445312 -4.289062 13.859375 -5.570312 13.859375 -7.25 L 13.859375 -16.09375 Z M 16.53125 -16.09375 "/></g></g></g><g fill="#000000" fill-opacity="1"><g transform="translate(225.234089, 51.065508)"><g><path d="M 10.09375 -16.375 C 12.050781 -16.375 13.632812 -15.78125 14.84375 -14.59375 C 16.0625 -13.414062 16.671875 -11.710938 16.671875 -9.484375 L 16.671875 0 L 14.03125 0 L 14.03125 -9.09375 C 14.03125 -10.707031 13.628906 -11.9375 12.828125 -12.78125 C 12.023438 -13.632812 10.929688 -14.0625 9.546875 -14.0625 C 8.128906 -14.0625 7.003906 -13.617188 6.171875 -12.734375 C 5.347656 -11.859375 4.9375 -10.578125 4.9375 -8.890625 L 4.9375 0 L 2.265625 0 L 2.265625 -16.09375 L 4.9375 -16.09375 L 4.9375 -13.796875 C 5.457031 -14.617188 6.171875 -15.253906 7.078125 -15.703125 C 7.992188 -16.148438 9 -16.375 10.09375 -16.375 Z M 10.09375 -16.375 "/></g></g></g><g fill="#000000" fill-opacity="1"><g transform="translate(244.020264, 51.065508)"><g><path d="M 5.515625 -13.890625 L 5.515625 -4.40625 C 5.515625 -3.625 5.679688 -3.070312 6.015625 -2.75 C 6.347656 -2.425781 6.925781 -2.265625 7.75 -2.265625 L 9.71875 -2.265625 L 9.71875 0 L 7.3125 0 C 5.820312 0 4.703125 -0.34375 3.953125 -1.03125 C 3.210938 -1.71875 2.84375 -2.84375 2.84375 -4.40625 L 2.84375 -13.890625 L 0.765625 -13.890625 L 0.765625 -16.09375 L 2.84375 -16.09375 L 2.84375 -20.140625 L 5.515625 -20.140625 L 5.515625 -16.09375 L 9.71875 -16.09375 L 9.71875 -13.890625 Z M 5.515625 -13.890625 "/></g></g></g><g fill="#000000" fill-opacity="1"><g transform="translate(254.704897, 51.065508)"><g/></g></g><g fill="#000000" fill-opacity="1"><g transform="translate(262.542251, 51.065508)"><g><path d="M 8.75 0.203125 C 7.394531 0.203125 6.179688 -0.0351562 5.109375 -0.515625 C 4.046875 -0.992188 3.210938 -1.65625 2.609375 -2.5 C 2.003906 -3.351562 1.691406 -4.335938 1.671875 -5.453125 L 4.515625 -5.453125 C 4.617188 -4.492188 5.015625 -3.6875 5.703125 -3.03125 C 6.398438 -2.382812 7.414062 -2.0625 8.75 -2.0625 C 10.019531 -2.0625 11.019531 -2.378906 11.75 -3.015625 C 12.488281 -3.648438 12.859375 -4.460938 12.859375 -5.453125 C 12.859375 -6.242188 12.640625 -6.882812 12.203125 -7.375 C 11.773438 -7.863281 11.238281 -8.234375 10.59375 -8.484375 C 9.945312 -8.734375 9.078125 -9.007812 7.984375 -9.3125 C 6.628906 -9.65625 5.546875 -10.003906 4.734375 -10.359375 C 3.921875 -10.710938 3.226562 -11.265625 2.65625 -12.015625 C 2.082031 -12.773438 1.796875 -13.789062 1.796875 -15.0625 C 1.796875 -16.175781 2.078125 -17.160156 2.640625 -18.015625 C 3.210938 -18.878906 4.007812 -19.546875 5.03125 -20.015625 C 6.0625 -20.492188 7.242188 -20.734375 8.578125 -20.734375 C 10.492188 -20.734375 12.0625 -20.25 13.28125 -19.28125 C 14.507812 -18.320312 15.203125 -17.050781 15.359375 -15.46875 L 12.421875 -15.46875 C 12.316406 -16.25 11.898438 -16.9375 11.171875 -17.53125 C 10.453125 -18.132812 9.5 -18.4375 8.3125 -18.4375 C 7.195312 -18.4375 6.285156 -18.144531 5.578125 -17.5625 C 4.867188 -16.988281 4.515625 -16.1875 4.515625 -15.15625 C 4.515625 -14.40625 4.722656 -13.796875 5.140625 -13.328125 C 5.566406 -12.859375 6.085938 -12.5 6.703125 -12.25 C 7.328125 -12.007812 8.195312 -11.734375 9.3125 -11.421875 C 10.65625 -11.046875 11.738281 -10.675781 12.5625 -10.3125 C 13.382812 -9.957031 14.085938 -9.398438 14.671875 -8.640625 C 15.265625 -7.890625 15.5625 -6.867188 15.5625 -5.578125 C 15.5625 -4.578125 15.296875 -3.632812 14.765625 -2.75 C 14.234375 -1.875 13.445312 -1.160156 12.40625 -0.609375 C 11.375 -0.0664062 10.15625 0.203125 8.75 0.203125 Z M 8.75 0.203125 "/></g></g></g><g fill="#000000" fill-opacity="1"><g transform="translate(279.772692, 51.065508)"><g><path d="M 1.265625 -8.109375 C 1.265625 -9.742188 1.597656 -11.179688 2.265625 -12.421875 C 2.929688 -13.671875 3.84375 -14.640625 5 -15.328125 C 6.164062 -16.015625 7.460938 -16.359375 8.890625 -16.359375 C 10.304688 -16.359375 11.53125 -16.050781 12.5625 -15.4375 C 13.601562 -14.832031 14.378906 -14.070312 14.890625 -13.15625 L 14.890625 -16.09375 L 17.59375 -16.09375 L 17.59375 0 L 14.890625 0 L 14.890625 -3 C 14.359375 -2.050781 13.566406 -1.269531 12.515625 -0.65625 C 11.472656 -0.0390625 10.253906 0.265625 8.859375 0.265625 C 7.429688 0.265625 6.140625 -0.0820312 4.984375 -0.78125 C 3.835938 -1.488281 2.929688 -2.476562 2.265625 -3.75 C 1.597656 -5.03125 1.265625 -6.484375 1.265625 -8.109375 Z M 14.890625 -8.078125 C 14.890625 -9.285156 14.644531 -10.335938 14.15625 -11.234375 C 13.664062 -12.140625 13.003906 -12.832031 12.171875 -13.3125 C 11.335938 -13.789062 10.421875 -14.03125 9.421875 -14.03125 C 8.421875 -14.03125 7.507812 -13.796875 6.6875 -13.328125 C 5.863281 -12.859375 5.207031 -12.171875 4.71875 -11.265625 C 4.238281 -10.367188 4 -9.316406 4 -8.109375 C 4 -6.867188 4.238281 -5.789062 4.71875 -4.875 C 5.207031 -3.96875 5.863281 -3.273438 6.6875 -2.796875 C 7.507812 -2.316406 8.421875 -2.078125 9.421875 -2.078125 C 10.421875 -2.078125 11.335938 -2.316406 12.171875 -2.796875 C 13.003906 -3.273438 13.664062 -3.96875 14.15625 -4.875 C 14.644531 -5.789062 14.890625 -6.859375 14.890625 -8.078125 Z M 14.890625 -8.078125 "/></g></g></g><g fill="#000000" fill-opacity="1"><g transform="translate(299.615584, 51.065508)"><g><path d="M 4.9375 -21.71875 L 4.9375 0 L 2.265625 0 L 2.265625 -21.71875 Z M 4.9375 -21.71875 "/></g></g></g><g fill="#000000" fill-opacity="1"><g transform="translate(306.836519, 51.065508)"><g><path d="M 16.9375 -8.65625 C 16.9375 -8.144531 16.910156 -7.609375 16.859375 -7.046875 L 4 -7.046875 C 4.09375 -5.460938 4.632812 -4.222656 5.625 -3.328125 C 6.613281 -2.441406 7.8125 -2 9.21875 -2 C 10.375 -2 11.335938 -2.265625 12.109375 -2.796875 C 12.878906 -3.335938 13.421875 -4.0625 13.734375 -4.96875 L 16.625 -4.96875 C 16.1875 -3.414062 15.320312 -2.15625 14.03125 -1.1875 C 12.738281 -0.21875 11.132812 0.265625 9.21875 0.265625 C 7.6875 0.265625 6.316406 -0.078125 5.109375 -0.765625 C 3.910156 -1.453125 2.96875 -2.425781 2.28125 -3.6875 C 1.601562 -4.945312 1.265625 -6.410156 1.265625 -8.078125 C 1.265625 -9.734375 1.597656 -11.1875 2.265625 -12.4375 C 2.929688 -13.695312 3.863281 -14.664062 5.0625 -15.34375 C 6.269531 -16.019531 7.65625 -16.359375 9.21875 -16.359375 C 10.75 -16.359375 12.097656 -16.023438 13.265625 -15.359375 C 14.441406 -14.691406 15.347656 -13.773438 15.984375 -12.609375 C 16.617188 -11.441406 16.9375 -10.125 16.9375 -8.65625 Z M 14.1875 -9.21875 C 14.1875 -10.238281 13.957031 -11.113281 13.5 -11.84375 C 13.050781 -12.582031 12.441406 -13.140625 11.671875 -13.515625 C 10.898438 -13.898438 10.039062 -14.09375 9.09375 -14.09375 C 7.75 -14.09375 6.601562 -13.660156 5.65625 -12.796875 C 4.707031 -11.941406 4.160156 -10.75 4.015625 -9.21875 Z M 14.1875 -9.21875 "/></g></g></g></svg>