<svg xmlns="http://www.w3.org/2000/svg" xmlns:xlink="http://www.w3.org/1999/xlink" width="500" zoomAndPan="magnify" viewBox="0 0 375 82.499998" height="110" preserveAspectRatio="xMidYMid meet" version="1.0"><defs><g/><clipPath id="c130ef98f9"><path d="M 1.128906 0 L 373.871094 0 L 373.871094 82.003906 L 1.128906 82.003906 Z M 1.128906 0 " clip-rule="nonzero"/></clipPath><clipPath id="e71abaa944"><path d="M 26 11 L 101 11 L 101 71.699219 L 26 71.699219 Z M 26 11 " clip-rule="nonzero"/></clipPath><clipPath id="b0db380117"><path d="M 11 68 L 47 68 L 47 71.699219 L 11 71.699219 Z M 11 68 " clip-rule="nonzero"/></clipPath><clipPath id="8cccc525c3"><path d="M 10.769531 67.777344 L 47 67.777344 L 47 71.699219 L 10.769531 71.699219 Z M 10.769531 67.777344 " clip-rule="nonzero"/></clipPath><clipPath id="f8978fe0a6"><path d="M 9.328125 31 L 49 31 L 49 69 L 9.328125 69 Z M 9.328125 31 " clip-rule="nonzero"/></clipPath><clipPath id="63e712ac7b"><path d="M 88.308594 26.914062 L 106.882812 26.914062 L 106.882812 71.285156 L 88.308594 71.285156 Z M 88.308594 26.914062 " clip-rule="nonzero"/></clipPath><clipPath id="f2e990c818"><path d="M 71 41 L 89 41 L 89 71.699219 L 71 71.699219 Z M 71 41 " clip-rule="nonzero"/></clipPath></defs><g clip-path="url(#c130ef98f9)"><path fill="#ffffff" d="M 1.128906 0 L 373.871094 0 L 373.871094 82.003906 L 1.128906 82.003906 Z M 1.128906 0 " fill-opacity="1" fill-rule="nonzero"/><path fill="#ffffff" d="M 1.128906 0 L 373.871094 0 L 373.871094 82.003906 L 1.128906 82.003906 Z M 1.128906 0 " fill-opacity="1" fill-rule="nonzero"/></g><path fill="#fbf88b" d="M 64.941406 66.21875 L 62.683594 66.21875 C 62.042969 66.21875 61.519531 65.695312 61.519531 65.054688 L 61.519531 53.613281 C 61.519531 52.972656 62.042969 52.449219 62.683594 52.449219 L 64.941406 52.449219 C 65.582031 52.449219 66.105469 52.972656 66.105469 53.613281 L 66.105469 65.054688 C 66.105469 65.695312 65.582031 66.21875 64.941406 66.21875 " fill-opacity="1" fill-rule="nonzero"/><path fill="#3a1e16" d="M 64.941406 66.839844 C 63.59375 66.839844 61.394531 67.242188 60.957031 65.484375 C 60.722656 64.550781 60.902344 63.394531 60.902344 62.445312 C 60.902344 59.625 60.851562 56.800781 60.902344 53.980469 C 60.925781 52.730469 61.542969 51.875 62.871094 51.828125 C 64.183594 51.785156 66.253906 51.511719 66.671875 53.183594 C 66.855469 53.917969 66.722656 54.816406 66.722656 55.558594 C 66.722656 57.15625 66.722656 58.753906 66.722656 60.351562 C 66.722656 61.707031 66.722656 63.066406 66.722656 64.421875 C 66.722656 65.65625 66.351562 66.675781 64.941406 66.839844 C 64.148438 66.929688 64.160156 65.691406 64.941406 65.601562 C 65.8125 65.5 65.484375 63.59375 65.484375 63.113281 C 65.484375 61.71875 65.484375 60.320312 65.484375 58.925781 C 65.484375 57.675781 65.484375 56.429688 65.484375 55.179688 C 65.484375 54.554688 65.679688 53.789062 65.214844 53.339844 C 64.761719 52.90625 64.132812 53.066406 63.515625 53.066406 C 62.996094 53.066406 62.351562 52.90625 62.140625 53.625 C 61.988281 54.144531 62.140625 54.945312 62.140625 55.480469 C 62.140625 58.023438 62.140625 60.566406 62.140625 63.113281 C 62.140625 63.671875 61.984375 64.492188 62.140625 65.035156 C 62.40625 65.976562 64.238281 65.601562 64.941406 65.601562 C 65.738281 65.601562 65.738281 66.839844 64.941406 66.839844 " fill-opacity="1" fill-rule="nonzero"/><path fill="#fbf88b" d="M 63.820312 60.398438 L 63.632812 60.398438 C 57.800781 60.398438 52.953125 64.835938 52.300781 70.503906 L 75.152344 70.503906 C 74.5 64.835938 69.652344 60.398438 63.820312 60.398438 Z M 97.875 57.507812 L 30.027344 57.507812 C 28.667969 57.507812 27.554688 56.394531 27.554688 55.03125 L 27.554688 14.175781 C 27.554688 12.816406 28.667969 11.699219 30.027344 11.699219 L 97.875 11.699219 C 99.238281 11.699219 100.351562 12.816406 100.351562 14.175781 L 100.351562 55.03125 C 100.351562 56.394531 99.238281 57.507812 97.875 57.507812 " fill-opacity="1" fill-rule="nonzero"/><path fill="#71cdee" d="M 93.417969 53.082031 L 34.484375 53.082031 C 33.125 53.082031 32.011719 51.96875 32.011719 50.605469 L 32.011719 18.324219 C 32.011719 16.960938 33.125 15.847656 34.484375 15.847656 L 93.417969 15.847656 C 94.78125 15.847656 95.894531 16.960938 95.894531 18.324219 L 95.894531 50.605469 C 95.894531 51.96875 94.78125 53.082031 93.417969 53.082031 " fill-opacity="1" fill-rule="nonzero"/><path fill="#3a1e16" d="M 58.082031 34.699219 C 58.472656 31.347656 61.039062 28.535156 64.429688 28.359375 C 64.097656 28.035156 63.765625 27.710938 63.433594 27.386719 C 62.863281 26.828125 63.738281 25.957031 64.308594 26.511719 C 65.011719 27.195312 65.710938 27.882812 66.414062 28.566406 C 66.632812 28.78125 66.636719 29.042969 66.527344 29.25 C 66.5 29.316406 66.464844 29.382812 66.414062 29.441406 C 65.753906 30.195312 65.097656 30.945312 64.441406 31.699219 C 63.917969 32.300781 63.046875 31.421875 63.566406 30.824219 C 63.925781 30.414062 64.28125 30.003906 64.636719 29.597656 C 61.859375 29.695312 59.644531 31.917969 59.320312 34.699219 C 59.226562 35.484375 57.988281 35.488281 58.082031 34.699219 Z M 67.320312 41.292969 C 64.222656 42.472656 60.710938 41.222656 58.902344 38.515625 C 58.765625 38.972656 58.628906 39.429688 58.492188 39.886719 C 58.265625 40.652344 57.074219 40.324219 57.300781 39.558594 C 57.578125 38.621094 57.859375 37.679688 58.136719 36.738281 C 58.199219 36.535156 58.328125 36.410156 58.480469 36.351562 C 58.597656 36.292969 58.738281 36.269531 58.898438 36.308594 C 59.871094 36.539062 60.839844 36.769531 61.8125 37.003906 C 62.585938 37.1875 62.257812 38.382812 61.480469 38.195312 C 60.964844 38.074219 60.449219 37.949219 59.929688 37.824219 C 61.46875 40.121094 64.367188 41.101562 66.992188 40.101562 C 67.738281 39.816406 68.058594 41.011719 67.320312 41.292969 Z M 72.222656 39.183594 C 71.273438 39.425781 70.324219 39.664062 69.375 39.90625 C 69.042969 39.992188 68.714844 39.796875 68.613281 39.472656 C 68.316406 38.519531 68.019531 37.566406 67.71875 36.613281 C 67.480469 35.851562 68.675781 35.527344 68.914062 36.285156 C 69.074219 36.804688 69.238281 37.328125 69.402344 37.847656 C 70.808594 35.398438 70.332031 32.230469 67.863281 30.605469 C 67.199219 30.167969 67.820312 29.097656 68.488281 29.535156 C 71.445312 31.484375 72.230469 35.320312 70.554688 38.328125 C 71 38.214844 71.449219 38.101562 71.894531 37.988281 C 72.667969 37.792969 72.996094 38.988281 72.222656 39.183594 Z M 95.273438 26.722656 C 95.273438 34.382812 95.273438 42.042969 95.273438 49.699219 C 95.273438 50.984375 95.089844 52.371094 93.417969 52.460938 C 88.925781 52.460938 84.429688 52.460938 79.9375 52.460938 C 71.109375 52.460938 62.277344 52.460938 53.445312 52.460938 C 47.390625 52.460938 41.339844 52.460938 35.28125 52.460938 C 34.5625 52.460938 33.867188 52.519531 33.265625 52.003906 C 32.480469 51.328125 32.628906 50.261719 32.628906 49.339844 C 32.628906 45.90625 32.628906 42.476562 32.628906 39.042969 C 32.628906 35.992188 32.628906 32.9375 32.628906 29.886719 C 34.644531 29.738281 36.65625 29.589844 38.671875 29.441406 C 38.265625 30.695312 37.859375 31.945312 37.449219 33.199219 C 37.328125 33.578125 37.925781 33.742188 38.046875 33.363281 C 38.5 31.96875 38.953125 30.574219 39.40625 29.183594 C 39.464844 29 39.304688 28.777344 39.109375 28.792969 C 37.285156 28.925781 35.460938 29.058594 33.636719 29.191406 C 34.609375 28.558594 35.578125 27.921875 36.550781 27.289062 C 36.949219 27.027344 37.085938 26.964844 37.175781 26.503906 C 37.328125 25.761719 37.367188 24.980469 37.457031 24.230469 C 37.476562 24.09375 37.347656 23.96875 37.230469 23.929688 C 36.828125 23.800781 36.425781 23.667969 36.023438 23.539062 C 36.445312 22.480469 36.867188 21.421875 37.289062 20.363281 C 38.945312 21.542969 40.601562 22.722656 42.257812 23.898438 C 42.402344 25.40625 42.546875 26.910156 42.691406 28.414062 C 42.710938 28.625 42.949219 28.832031 43.15625 28.683594 C 43.972656 28.097656 44.789062 27.511719 45.605469 26.925781 C 45.496094 27.78125 45.335938 28.816406 45.792969 29.394531 C 46.621094 30.453125 47.640625 31.394531 48.550781 32.382812 C 48.824219 32.675781 49.257812 32.234375 48.988281 31.945312 C 48.121094 31.003906 47.253906 30.066406 46.386719 29.125 C 46.265625 28.996094 46.175781 28.824219 46.148438 28.828125 C 46.148438 28.636719 46.191406 28.40625 46.199219 28.238281 C 46.230469 27.582031 46.257812 26.929688 46.289062 26.277344 C 46.300781 26.058594 46.015625 25.875 45.824219 26.011719 C 44.96875 26.625 44.113281 27.238281 43.257812 27.851562 C 43.132812 26.5625 43.007812 25.273438 42.886719 23.984375 C 44.539062 23.707031 46.230469 23.5 47.859375 23.113281 C 48.410156 22.984375 48.429688 22.640625 48.644531 22.117188 C 48.886719 21.519531 49.125 20.921875 49.367188 20.324219 C 49.726562 21.171875 50.085938 22.019531 50.445312 22.863281 C 50.515625 23.023438 50.738281 23.046875 50.871094 22.976562 C 51.773438 22.496094 52.671875 22.015625 53.574219 21.535156 C 53.925781 21.347656 53.613281 20.8125 53.261719 21 C 52.464844 21.425781 51.664062 21.851562 50.863281 22.277344 C 50.453125 21.308594 50.042969 20.335938 49.628906 19.367188 C 49.511719 19.09375 49.148438 19.230469 49.0625 19.441406 C 48.757812 20.195312 48.453125 20.949219 48.148438 21.703125 C 48.042969 21.960938 47.921875 22.222656 47.824219 22.484375 C 47.714844 22.476562 47.503906 22.550781 47.417969 22.566406 C 46.101562 22.796875 44.78125 23.027344 43.460938 23.257812 C 43.753906 22.960938 44.050781 22.664062 44.347656 22.371094 C 44.839844 21.875 45.730469 21.269531 46.066406 20.648438 C 46.324219 20.167969 46.082031 19.316406 46.042969 18.796875 C 45.984375 18.019531 45.925781 17.242188 45.871094 16.464844 C 54.3125 16.464844 62.757812 16.464844 71.199219 16.464844 C 77.976562 16.464844 84.753906 16.464844 91.53125 16.464844 C 93.171875 16.464844 95.226562 16.230469 95.273438 18.566406 C 95.332031 21.28125 95.273438 24.003906 95.273438 26.722656 Z M 32.628906 18.40625 C 32.722656 16.082031 35.140625 16.464844 36.742188 16.464844 C 39.578125 16.464844 42.410156 16.464844 45.246094 16.464844 C 45.246094 16.464844 45.25 16.464844 45.25 16.464844 C 45.304688 17.175781 45.355469 17.882812 45.410156 18.59375 C 45.441406 19.058594 45.445312 19.539062 45.511719 20.003906 C 45.527344 20.097656 45.535156 20.210938 45.539062 20.3125 C 44.671875 21.402344 43.523438 22.351562 42.519531 23.328125 C 40.78125 22.089844 39.042969 20.855469 37.304688 19.617188 C 37.125 19.488281 36.917969 19.636719 36.851562 19.800781 C 36.339844 21.085938 35.828125 22.367188 35.316406 23.648438 C 35.253906 23.808594 35.386719 23.980469 35.53125 24.027344 C 35.957031 24.167969 36.386719 24.304688 36.8125 24.445312 C 36.730469 25.0625 36.628906 25.683594 36.585938 26.300781 C 36.578125 26.375 36.570312 26.453125 36.5625 26.527344 C 36.355469 26.605469 36.097656 26.84375 35.933594 26.953125 C 34.832031 27.671875 33.730469 28.394531 32.628906 29.113281 C 32.628906 28.046875 32.628906 26.976562 32.628906 25.910156 C 32.628906 23.414062 32.53125 20.898438 32.628906 18.40625 Z M 96.511719 34.566406 C 96.511719 30.359375 96.511719 26.152344 96.511719 21.949219 C 96.511719 19.535156 97.121094 15.558594 93.6875 15.242188 C 92.292969 15.113281 90.84375 15.226562 89.445312 15.226562 C 86.039062 15.226562 82.632812 15.226562 79.226562 15.226562 C 70.121094 15.226562 61.015625 15.226562 51.910156 15.226562 C 46.195312 15.226562 40.472656 15.160156 34.753906 15.226562 C 33.234375 15.246094 31.839844 16.054688 31.472656 17.628906 C 31.308594 18.332031 31.390625 19.144531 31.390625 19.859375 C 31.390625 23.535156 31.390625 27.210938 31.390625 30.882812 C 31.390625 35.386719 31.390625 39.890625 31.390625 44.394531 C 31.390625 45.9375 31.390625 47.480469 31.390625 49.019531 C 31.390625 49.75 31.304688 50.578125 31.472656 51.300781 C 32.089844 53.957031 34.714844 53.699219 36.785156 53.699219 C 39.769531 53.699219 42.753906 53.699219 45.738281 53.699219 C 54.722656 53.699219 63.710938 53.699219 72.695312 53.699219 C 79.261719 53.699219 85.828125 53.699219 92.394531 53.699219 C 92.738281 53.699219 93.078125 53.699219 93.417969 53.699219 C 93.46875 53.699219 93.515625 53.695312 93.558594 53.6875 C 95.394531 53.519531 96.496094 52.105469 96.511719 50.296875 C 96.519531 49.238281 96.511719 48.175781 96.511719 47.113281 C 96.511719 42.933594 96.511719 38.75 96.511719 34.566406 " fill-opacity="1" fill-rule="nonzero"/><g clip-path="url(#e71abaa944)"><path fill="#3a1e16" d="M 55.167969 69.886719 C 54.453125 69.886719 53.734375 69.886719 53.019531 69.886719 C 53.976562 64.796875 58.511719 61.015625 63.726562 61.019531 C 68.941406 61.019531 73.476562 64.792969 74.433594 69.886719 C 68.011719 69.886719 61.589844 69.886719 55.167969 69.886719 Z M 67.605469 60.394531 C 63.183594 58.902344 58.109375 60.160156 54.90625 63.554688 C 53.09375 65.476562 52.015625 67.894531 51.683594 70.503906 C 51.640625 70.835938 52 71.125 52.300781 71.125 C 58.960938 71.125 65.625 71.125 72.285156 71.125 C 73.242188 71.125 74.195312 71.125 75.152344 71.125 C 75.257812 71.125 75.347656 71.101562 75.425781 71.0625 C 75.648438 70.996094 75.8125 70.8125 75.773438 70.503906 C 75.179688 65.867188 72.066406 61.898438 67.605469 60.394531 Z M 99.730469 26.839844 C 99.730469 35.859375 99.730469 44.878906 99.730469 53.902344 C 99.730469 55.238281 99.703125 56.789062 97.875 56.886719 C 92.414062 56.886719 86.953125 56.886719 81.492188 56.886719 C 71.03125 56.886719 60.570312 56.886719 50.105469 56.886719 C 43.523438 56.886719 36.933594 56.996094 30.351562 56.886719 C 29.132812 56.871094 28.210938 56.203125 28.171875 54.882812 C 28.140625 53.90625 28.171875 52.925781 28.171875 51.949219 C 28.171875 47.5 28.171875 43.050781 28.171875 38.605469 C 28.171875 33.398438 28.171875 28.191406 28.171875 22.984375 C 28.171875 20.097656 28.078125 17.195312 28.171875 14.3125 C 28.253906 11.820312 31.078125 12.320312 32.789062 12.320312 C 36.230469 12.320312 39.675781 12.320312 43.121094 12.320312 C 53.449219 12.320312 63.78125 12.320312 74.113281 12.320312 C 81.632812 12.320312 89.152344 12.320312 96.675781 12.320312 C 97.070312 12.320312 97.480469 12.292969 97.875 12.320312 C 99.753906 12.453125 99.730469 14.042969 99.730469 15.417969 C 99.730469 19.226562 99.730469 23.03125 99.730469 26.839844 Z M 100.476562 12.511719 C 99.246094 10.578125 96.335938 11.082031 94.371094 11.082031 C 90.609375 11.082031 86.847656 11.082031 83.082031 11.082031 C 72.34375 11.082031 61.609375 11.082031 50.871094 11.082031 C 44.03125 11.082031 37.191406 11.019531 30.351562 11.082031 C 28.515625 11.097656 27.015625 12.238281 26.933594 14.175781 C 26.90625 14.882812 26.933594 15.59375 26.933594 16.296875 C 26.933594 20.597656 26.933594 24.894531 26.933594 29.195312 C 26.933594 37.738281 26.804688 46.292969 26.933594 54.835938 C 26.960938 56.664062 28.207031 58.058594 30.066406 58.125 C 30.652344 58.148438 31.242188 58.125 31.824219 58.125 C 35.046875 58.125 38.269531 58.125 41.492188 58.125 C 52.035156 58.125 62.578125 58.125 73.121094 58.125 C 80.960938 58.125 88.800781 58.125 96.644531 58.125 C 97.054688 58.125 97.464844 58.125 97.875 58.125 C 97.925781 58.125 97.972656 58.121094 98.019531 58.113281 C 99.996094 57.933594 100.96875 56.367188 100.96875 54.5 C 100.96875 53.191406 100.96875 51.878906 100.96875 50.570312 C 100.96875 45.695312 100.96875 40.820312 100.96875 35.945312 C 100.96875 30.804688 100.96875 25.664062 100.96875 20.523438 C 100.96875 18.875 100.96875 17.226562 100.96875 15.578125 C 100.96875 14.523438 101.074219 13.449219 100.476562 12.511719 " fill-opacity="1" fill-rule="nonzero"/></g><path fill="#e77bc3" d="M 45.296875 68.1875 L 12.6875 68.1875 C 11.328125 68.1875 10.214844 67.070312 10.214844 65.710938 L 10.214844 48.390625 C 10.214844 47.03125 11.328125 45.914062 12.6875 45.914062 L 45.296875 45.914062 C 46.65625 45.914062 47.769531 47.03125 47.769531 48.390625 L 47.769531 65.710938 C 47.769531 67.070312 46.65625 68.1875 45.296875 68.1875 " fill-opacity="1" fill-rule="nonzero"/><g clip-path="url(#b0db380117)"><path fill="#71cdee" d="M 46.320312 69.777344 C 46.320312 69.066406 45.738281 68.484375 45.027344 68.484375 L 37.132812 68.484375 C 36.421875 68.484375 35.839844 69.066406 35.839844 69.777344 C 35.839844 70.484375 36.421875 71.066406 37.132812 71.066406 L 45.027344 71.066406 C 45.738281 71.066406 46.320312 70.484375 46.320312 69.777344 Z M 20.753906 71.066406 L 12.855469 71.066406 C 12.144531 71.066406 11.566406 70.484375 11.566406 69.777344 C 11.566406 69.066406 12.144531 68.484375 12.855469 68.484375 L 20.753906 68.484375 C 21.460938 68.484375 22.042969 69.066406 22.042969 69.777344 C 22.042969 70.484375 21.460938 71.066406 20.753906 71.066406 " fill-opacity="1" fill-rule="nonzero"/></g><g clip-path="url(#8cccc525c3)"><path fill="#3a1e16" d="M 45.027344 70.449219 C 43.507812 70.449219 41.988281 70.449219 40.46875 70.449219 C 39.605469 70.449219 38.742188 70.449219 37.875 70.449219 C 37.65625 70.449219 37.40625 70.480469 37.191406 70.449219 C 36.316406 70.3125 36.1875 69.292969 37.132812 69.105469 C 37.582031 69.015625 38.144531 69.105469 38.601562 69.105469 C 39.566406 69.105469 40.527344 69.105469 41.488281 69.105469 C 42.421875 69.105469 43.351562 69.105469 44.285156 69.105469 C 44.503906 69.105469 44.75 69.070312 44.96875 69.105469 C 45.785156 69.234375 46.027344 70.347656 45.027344 70.449219 C 44.242188 70.527344 44.234375 71.765625 45.027344 71.6875 C 47.59375 71.425781 47.410156 67.949219 44.863281 67.867188 C 42.953125 67.804688 41.03125 67.867188 39.117188 67.867188 C 37.648438 67.867188 35.222656 67.589844 35.222656 69.777344 C 35.222656 71.992188 37.726562 71.6875 39.210938 71.6875 C 41.148438 71.6875 43.089844 71.6875 45.027344 71.6875 C 45.824219 71.6875 45.824219 70.449219 45.027344 70.449219 Z M 20.753906 71.6875 C 18.8125 71.6875 16.871094 71.6875 14.933594 71.6875 C 13.449219 71.6875 10.945312 71.992188 10.945312 69.777344 C 10.945312 67.589844 13.371094 67.867188 14.84375 67.867188 C 16.753906 67.867188 18.675781 67.804688 20.585938 67.867188 C 23.132812 67.949219 23.316406 71.425781 20.753906 71.6875 C 19.960938 71.765625 19.96875 70.527344 20.753906 70.449219 C 21.753906 70.347656 21.507812 69.234375 20.691406 69.105469 C 20.476562 69.070312 20.226562 69.105469 20.007812 69.105469 C 19.074219 69.105469 18.144531 69.105469 17.210938 69.105469 C 16.25 69.105469 15.289062 69.105469 14.328125 69.105469 C 13.867188 69.105469 13.304688 69.015625 12.855469 69.105469 C 11.914062 69.292969 12.042969 70.3125 12.917969 70.449219 C 13.132812 70.480469 13.382812 70.449219 13.597656 70.449219 C 14.464844 70.449219 15.328125 70.449219 16.191406 70.449219 C 17.714844 70.449219 19.230469 70.449219 20.753906 70.449219 C 21.550781 70.449219 21.550781 71.6875 20.753906 71.6875 " fill-opacity="1" fill-rule="nonzero"/></g><path fill="#fbf88b" d="M 42.820312 52.449219 L 33.0625 52.449219 C 31.984375 52.449219 31.097656 51.5625 31.097656 50.480469 C 31.097656 49.398438 31.984375 48.515625 33.0625 48.515625 L 42.820312 48.515625 C 43.902344 48.515625 44.789062 49.398438 44.789062 50.480469 C 44.789062 51.5625 43.902344 52.449219 42.820312 52.449219 " fill-opacity="1" fill-rule="nonzero"/><path fill="#71cdee" d="M 42.660156 54.316406 C 41.320312 54.316406 40.234375 55.40625 40.234375 56.742188 C 40.234375 58.082031 41.320312 59.171875 42.660156 59.171875 C 43.996094 59.171875 45.082031 58.082031 45.082031 56.742188 C 45.082031 55.40625 43.996094 54.316406 42.660156 54.316406 Z M 39.1875 60.117188 C 39.1875 61.796875 37.828125 63.160156 36.148438 63.160156 C 34.46875 63.160156 33.109375 61.796875 33.109375 60.117188 C 33.109375 58.4375 34.46875 57.074219 36.148438 57.074219 C 37.828125 57.074219 39.1875 58.4375 39.1875 60.117188 " fill-opacity="1" fill-rule="nonzero"/><path fill="#3a1e16" d="M 44.566406 56.742188 C 44.566406 55.691406 43.710938 54.832031 42.660156 54.832031 C 41.605469 54.832031 40.75 55.691406 40.75 56.742188 C 40.75 57.796875 41.605469 58.652344 42.660156 58.652344 C 43.710938 58.652344 44.566406 57.796875 44.566406 56.742188 Z M 45.597656 56.742188 C 45.597656 58.367188 44.28125 59.6875 42.660156 59.6875 C 41.039062 59.6875 39.71875 58.367188 39.71875 56.742188 C 39.71875 55.121094 41.039062 53.800781 42.660156 53.800781 C 44.28125 53.800781 45.597656 55.121094 45.597656 56.742188 Z M 38.671875 60.117188 C 38.671875 58.722656 37.539062 57.589844 36.148438 57.589844 C 34.757812 57.589844 33.621094 58.722656 33.621094 60.117188 C 33.621094 61.507812 34.757812 62.644531 36.148438 62.644531 C 37.539062 62.644531 38.671875 61.507812 38.671875 60.117188 Z M 39.703125 60.117188 C 39.703125 62.078125 38.109375 63.675781 36.148438 63.675781 C 34.1875 63.675781 32.59375 62.078125 32.59375 60.117188 C 32.59375 58.152344 34.1875 56.558594 36.148438 56.558594 C 38.109375 56.558594 39.703125 58.152344 39.703125 60.117188 Z M 33.0625 51.933594 L 34.628906 51.933594 L 34.628906 50.753906 C 34.628906 50.550781 34.796875 50.386719 35 50.386719 C 35.203125 50.386719 35.367188 50.550781 35.367188 50.753906 L 35.367188 51.933594 L 37.574219 51.933594 L 37.574219 50.253906 C 37.574219 50.050781 37.738281 49.882812 37.941406 49.882812 C 38.144531 49.882812 38.3125 50.050781 38.3125 50.253906 L 38.3125 51.933594 L 40.523438 51.933594 L 40.523438 50.753906 C 40.523438 50.550781 40.6875 50.386719 40.890625 50.386719 C 41.09375 50.386719 41.261719 50.550781 41.261719 50.753906 L 41.261719 51.933594 L 42.820312 51.933594 C 43.621094 51.933594 44.273438 51.28125 44.273438 50.480469 C 44.273438 49.683594 43.621094 49.03125 42.820312 49.03125 L 33.0625 49.03125 C 32.265625 49.03125 31.613281 49.683594 31.613281 50.480469 C 31.613281 51.28125 32.265625 51.933594 33.0625 51.933594 Z M 33.0625 52.964844 C 31.695312 52.964844 30.582031 51.851562 30.582031 50.480469 C 30.582031 49.113281 31.695312 48 33.0625 48 L 42.820312 48 C 44.191406 48 45.304688 49.113281 45.304688 50.480469 C 45.304688 51.851562 44.191406 52.964844 42.820312 52.964844 Z M 29.886719 56.867188 C 29.886719 61.480469 26.152344 65.21875 21.542969 65.21875 C 16.933594 65.21875 13.199219 61.480469 13.199219 56.867188 C 13.199219 52.253906 16.933594 48.515625 21.542969 48.515625 C 26.152344 48.515625 29.886719 52.253906 29.886719 56.867188 " fill-opacity="1" fill-rule="nonzero"/><g clip-path="url(#f8978fe0a6)"><path fill="#3a1e16" d="M 47.152344 65.429688 C 47.128906 66.5625 46.535156 67.5 45.296875 67.566406 C 37.851562 67.566406 30.402344 67.566406 22.957031 67.566406 C 19.644531 67.566406 16.328125 67.617188 13.015625 67.566406 C 12.402344 67.558594 11.851562 67.492188 11.378906 67.019531 C 10.828125 66.464844 10.832031 65.820312 10.832031 65.117188 C 10.832031 63.210938 10.832031 61.300781 10.832031 59.394531 C 10.832031 56.929688 10.832031 54.460938 10.832031 51.996094 C 10.832031 50.804688 10.75 49.582031 10.832031 48.390625 C 10.957031 46.515625 12.558594 46.535156 13.9375 46.535156 C 15.535156 46.535156 17.136719 46.535156 18.738281 46.535156 C 27.292969 46.535156 35.847656 46.535156 44.40625 46.535156 C 45.726562 46.535156 47.085938 46.761719 47.152344 48.472656 C 47.210938 49.9375 47.152344 51.414062 47.152344 52.882812 C 47.152344 57.0625 47.242188 61.25 47.152344 65.429688 Z M 48.390625 57.976562 C 48.390625 55.511719 48.390625 53.042969 48.390625 50.578125 C 48.390625 48.941406 48.652344 47.101562 47.191406 45.957031 C 46.210938 45.183594 45.035156 45.296875 43.871094 45.296875 C 42.078125 45.296875 40.285156 45.296875 38.492188 45.296875 C 33.316406 45.296875 28.136719 45.296875 22.957031 45.296875 C 20.550781 45.296875 18.140625 45.269531 15.730469 45.273438 C 16.808594 41.890625 17.886719 38.503906 18.964844 35.121094 C 19.054688 35.132812 19.148438 35.140625 19.242188 35.140625 C 20.269531 35.140625 21.105469 34.308594 21.105469 33.28125 C 21.105469 32.253906 20.269531 31.417969 19.242188 31.417969 C 18.214844 31.417969 17.382812 32.253906 17.382812 33.28125 C 17.382812 33.996094 17.785156 34.617188 18.375 34.929688 C 17.277344 38.378906 16.179688 41.828125 15.082031 45.277344 C 14.339844 45.277344 13.597656 45.285156 12.855469 45.296875 C 10.90625 45.328125 9.617188 46.722656 9.59375 48.644531 C 9.574219 50.5 9.59375 52.355469 9.59375 54.210938 C 9.59375 56.785156 9.59375 59.359375 9.59375 61.933594 C 9.59375 63.304688 9.4375 64.78125 9.632812 66.144531 C 9.914062 68.113281 11.628906 68.804688 13.375 68.804688 C 14.867188 68.804688 16.363281 68.804688 17.859375 68.804688 C 26.796875 68.804688 35.738281 68.804688 44.675781 68.804688 C 44.882812 68.804688 45.089844 68.804688 45.296875 68.804688 C 46.882812 68.71875 48.222656 67.617188 48.375 65.980469 C 48.414062 65.539062 48.390625 65.089844 48.390625 64.648438 C 48.390625 62.425781 48.390625 60.203125 48.390625 57.976562 " fill-opacity="1" fill-rule="nonzero"/></g><path fill="#e77bc3" d="M 105.632812 38.90625 C 105.632812 39.234375 105.519531 39.535156 105.324219 39.773438 L 105.328125 39.773438 L 105.324219 39.78125 C 105.304688 39.800781 105.289062 39.820312 105.269531 39.839844 L 101.175781 44.476562 L 101.175781 67.328125 C 101.175781 67.90625 100.703125 68.378906 100.125 68.378906 L 95.101562 68.378906 C 94.523438 68.378906 94.050781 67.90625 94.050781 67.328125 L 94.050781 44.464844 L 90.042969 39.925781 C 89.765625 39.671875 89.59375 39.308594 89.59375 38.90625 L 89.59375 28.964844 C 89.59375 28.203125 90.214844 27.578125 90.980469 27.578125 L 104.246094 27.578125 C 105.007812 27.578125 105.632812 28.203125 105.632812 28.964844 L 105.632812 38.90625 " fill-opacity="1" fill-rule="nonzero"/><g clip-path="url(#63e712ac7b)"><path fill="#3a1e16" d="M 101.859375 42.765625 C 101.335938 43.363281 100.726562 43.832031 100.585938 44.574219 L 94.640625 44.574219 C 94.507812 43.8125 93.855469 43.3125 93.328125 42.714844 C 92.667969 41.964844 92.007812 41.21875 91.347656 40.46875 C 90.960938 40.03125 90.324219 39.503906 90.210938 38.894531 C 90.136719 38.472656 90.210938 37.964844 90.210938 37.542969 C 90.210938 36.773438 90.210938 36 90.210938 35.234375 L 105.015625 35.234375 C 105.015625 35.953125 105.015625 36.671875 105.015625 37.390625 C 105.015625 38.027344 105.15625 38.839844 104.816406 39.417969 C 103.832031 40.535156 102.847656 41.652344 101.859375 42.765625 Z M 100.03125 67.761719 C 99.234375 67.886719 98.316406 67.761719 97.511719 67.761719 C 96.808594 67.761719 95.851562 67.933594 95.167969 67.761719 C 94.371094 67.558594 94.667969 66.152344 94.667969 65.5 C 94.667969 63.863281 94.667969 62.230469 94.667969 60.59375 C 94.667969 56.742188 94.667969 52.890625 94.667969 49.039062 L 100.539062 49.039062 C 100.542969 50.8125 100.558594 52.589844 100.558594 54.367188 C 100.558594 58.097656 100.558594 61.828125 100.558594 65.558594 C 100.558594 66.179688 100.851562 67.632812 100.03125 67.761719 Z M 93.433594 44.496094 C 93.414062 44.511719 93.402344 44.550781 93.398438 44.609375 C 93.386719 44.566406 93.394531 44.527344 93.433594 44.496094 Z M 91.082031 28.199219 C 91.539062 28.136719 92.046875 28.199219 92.507812 28.199219 C 96.1875 28.199219 99.867188 28.199219 103.546875 28.199219 C 104.144531 28.199219 104.925781 28.085938 105.015625 28.964844 C 105.015625 29.566406 105.015625 30.167969 105.015625 30.769531 L 90.210938 30.769531 C 90.210938 30.308594 90.210938 29.84375 90.210938 29.382812 C 90.210938 28.777344 90.339844 28.296875 91.082031 28.199219 Z M 106.25 30.882812 C 106.25 30.289062 106.25 29.699219 106.25 29.105469 C 106.257812 29.0625 106.257812 29.015625 106.25 28.964844 C 106.25 28.90625 106.242188 28.855469 106.230469 28.804688 C 105.953125 26.941406 104.304688 26.960938 102.789062 26.960938 C 100.722656 26.960938 98.65625 26.960938 96.589844 26.960938 C 94.851562 26.960938 93.109375 26.9375 91.371094 26.960938 C 89.792969 26.980469 88.972656 27.925781 88.972656 29.476562 C 88.972656 29.945312 88.972656 30.414062 88.972656 30.882812 C 88.601562 31.0625 88.34375 31.441406 88.34375 31.878906 L 88.34375 34.125 C 88.34375 34.5625 88.601562 34.941406 88.972656 35.121094 C 88.972656 35.195312 88.972656 35.273438 88.972656 35.347656 C 88.972656 36.257812 88.972656 37.164062 88.972656 38.074219 C 88.972656 38.644531 88.917969 39.257812 89.179688 39.785156 C 89.476562 40.378906 90.09375 40.917969 90.527344 41.410156 C 91.25 42.226562 91.96875 43.042969 92.691406 43.859375 C 92.921875 44.117188 93.136719 44.421875 93.394531 44.65625 C 93.394531 44.660156 93.394531 44.660156 93.394531 44.664062 C 92.996094 44.832031 92.714844 45.226562 92.714844 45.683594 L 92.714844 47.929688 C 92.714844 48.398438 93.007812 48.796875 93.421875 48.960938 C 93.394531 54.96875 93.316406 60.984375 93.433594 66.992188 C 93.441406 67.460938 93.464844 67.890625 93.757812 68.296875 C 94.113281 68.792969 94.59375 68.941406 95.113281 68.984375 C 95.113281 68.992188 95.113281 69.003906 95.113281 69.011719 L 95.113281 70.539062 C 95.113281 70.886719 95.398438 71.171875 95.742188 71.171875 L 99.480469 71.171875 C 99.828125 71.171875 100.113281 70.886719 100.113281 70.539062 L 100.113281 69.011719 C 100.113281 69.003906 100.109375 68.996094 100.109375 68.988281 C 100.589844 68.949219 101.039062 68.816406 101.386719 68.402344 C 101.988281 67.691406 101.792969 66.484375 101.792969 65.617188 C 101.792969 63.816406 101.792969 62.015625 101.792969 60.21875 C 101.792969 56.464844 101.792969 52.714844 101.792969 48.964844 C 102.210938 48.804688 102.511719 48.402344 102.511719 47.929688 L 102.511719 45.683594 C 102.511719 45.230469 102.234375 44.839844 101.84375 44.667969 C 102.082031 44.445312 102.289062 44.148438 102.496094 43.910156 C 103.234375 43.078125 103.96875 42.246094 104.707031 41.410156 C 105.058594 41.011719 105.410156 40.613281 105.765625 40.210938 C 105.800781 40.167969 105.832031 40.125 105.855469 40.078125 C 105.855469 40.082031 105.859375 40.085938 105.859375 40.085938 C 106.308594 39.386719 106.25 38.675781 106.25 37.886719 C 106.25 36.964844 106.25 36.042969 106.25 35.121094 C 106.621094 34.941406 106.882812 34.5625 106.882812 34.125 L 106.882812 31.878906 C 106.882812 31.441406 106.621094 31.0625 106.25 30.882812 " fill-opacity="1" fill-rule="nonzero"/></g><path fill="#71cdee" d="M 97.800781 55.769531 L 97.425781 55.769531 C 96.914062 55.769531 96.5 55.351562 96.5 54.839844 L 96.5 51.324219 C 96.5 50.8125 96.914062 50.394531 97.425781 50.394531 L 97.800781 50.394531 C 98.308594 50.394531 98.726562 50.8125 98.726562 51.324219 L 98.726562 54.839844 C 98.726562 55.351562 98.308594 55.769531 97.800781 55.769531 " fill-opacity="1" fill-rule="nonzero"/><path fill="#3a1e16" d="M 97.425781 50.910156 C 97.199219 50.910156 97.015625 51.09375 97.015625 51.324219 L 97.015625 54.839844 C 97.015625 55.066406 97.199219 55.253906 97.425781 55.253906 L 97.800781 55.253906 C 98.027344 55.253906 98.210938 55.066406 98.210938 54.839844 L 98.210938 51.324219 C 98.210938 51.09375 98.027344 50.910156 97.800781 50.910156 Z M 97.800781 56.285156 L 97.425781 56.285156 C 96.628906 56.285156 95.984375 55.636719 95.984375 54.839844 L 95.984375 51.324219 C 95.984375 50.527344 96.628906 49.878906 97.425781 49.878906 L 97.800781 49.878906 C 98.59375 49.878906 99.242188 50.527344 99.242188 51.324219 L 99.242188 54.839844 C 99.242188 55.636719 98.59375 56.285156 97.800781 56.285156 " fill-opacity="1" fill-rule="nonzero"/><path fill="#fbf88b" d="M 88.113281 44.152344 L 88.113281 68.285156 C 88.113281 69.644531 87 70.761719 85.640625 70.761719 L 74.742188 70.761719 C 73.378906 70.761719 72.265625 69.644531 72.265625 68.285156 L 72.265625 44.152344 C 72.265625 42.789062 73.378906 41.675781 74.742188 41.675781 L 85.640625 41.675781 C 87 41.675781 88.113281 42.789062 88.113281 44.152344 " fill-opacity="1" fill-rule="nonzero"/><g clip-path="url(#f2e990c818)"><path fill="#3a1e16" d="M 81.664062 68.148438 C 81.917969 68.148438 82.128906 68.355469 82.128906 68.613281 C 82.128906 68.867188 81.917969 69.078125 81.664062 69.078125 L 78.714844 69.078125 C 78.460938 69.078125 78.253906 68.867188 78.253906 68.613281 C 78.253906 68.355469 78.460938 68.148438 78.714844 68.148438 Z M 82.746094 68.613281 C 82.746094 68.015625 82.261719 67.53125 81.664062 67.53125 L 78.714844 67.53125 C 78.121094 67.53125 77.632812 68.015625 77.632812 68.613281 C 77.632812 69.210938 78.121094 69.695312 78.714844 69.695312 L 81.664062 69.695312 C 82.261719 69.695312 82.746094 69.210938 82.746094 68.613281 Z M 84.699219 43.8125 L 75.679688 43.8125 C 74.792969 43.8125 74.070312 44.535156 74.070312 45.425781 L 74.070312 65.515625 C 74.070312 66.40625 74.792969 67.125 75.679688 67.125 L 84.699219 67.125 C 85.585938 67.125 86.308594 66.40625 86.308594 65.515625 L 86.308594 45.425781 C 86.308594 44.535156 85.585938 43.8125 84.699219 43.8125 Z M 85.640625 71.378906 C 85.324219 71.378906 85.007812 71.378906 84.695312 71.378906 C 81.46875 71.378906 78.238281 71.414062 75.011719 71.378906 C 73.183594 71.359375 71.726562 70.183594 71.648438 68.28125 C 71.621094 67.664062 71.648438 67.039062 71.648438 66.417969 C 71.648438 59.617188 71.648438 52.816406 71.648438 46.015625 C 71.648438 45.394531 71.621094 44.769531 71.648438 44.152344 C 71.726562 42.277344 73.160156 41.078125 74.976562 41.054688 C 78.214844 41.011719 81.457031 41.054688 84.695312 41.054688 C 86.167969 41.054688 87.582031 41.246094 88.367188 42.703125 C 88.796875 43.5 88.734375 44.367188 88.734375 45.234375 C 88.734375 48.382812 88.734375 51.53125 88.734375 54.679688 C 88.734375 58.296875 88.734375 61.914062 88.734375 65.53125 C 88.734375 66.402344 88.746094 67.269531 88.734375 68.140625 C 88.699219 69.941406 87.449219 71.28125 85.640625 71.378906 C 84.84375 71.421875 84.847656 70.183594 85.640625 70.140625 C 86.710938 70.082031 87.449219 69.296875 87.496094 68.234375 C 87.582031 66.214844 87.496094 64.171875 87.496094 62.148438 C 87.496094 58.628906 87.496094 55.113281 87.496094 51.59375 C 87.496094 49.214844 87.539062 46.828125 87.496094 44.445312 C 87.472656 43.1875 86.742188 42.328125 85.433594 42.292969 C 84.160156 42.257812 82.878906 42.292969 81.605469 42.292969 C 79.886719 42.292969 78.164062 42.292969 76.445312 42.292969 C 75.238281 42.292969 73.6875 42.042969 73.0625 43.375 C 72.785156 43.976562 72.882812 44.773438 72.882812 45.421875 C 72.882812 46.632812 72.882812 47.84375 72.882812 49.054688 C 72.882812 55.230469 72.882812 61.402344 72.882812 67.578125 C 72.882812 68.824219 73.222656 70.039062 74.742188 70.140625 C 75.664062 70.203125 76.613281 70.140625 77.535156 70.140625 C 80.238281 70.140625 82.9375 70.140625 85.640625 70.140625 C 86.4375 70.140625 86.433594 71.378906 85.640625 71.378906 " fill-opacity="1" fill-rule="nonzero"/></g><g fill="#000000" fill-opacity="1"><g transform="translate(141.448824, 54.554509)"><g><path d="M 4.9375 -18.296875 L 4.9375 -11.453125 L 12.390625 -11.453125 L 12.390625 -9.25 L 4.9375 -9.25 L 4.9375 -2.203125 L 13.265625 -2.203125 L 13.265625 0 L 2.265625 0 L 2.265625 -20.5 L 13.265625 -20.5 L 13.265625 -18.296875 Z M 4.9375 -18.296875 "/></g></g></g><g fill="#000000" fill-opacity="1"><g transform="translate(156.507112, 54.554509)"><g><path d="M 4.9375 -21.71875 L 4.9375 0 L 2.265625 0 L 2.265625 -21.71875 Z M 4.9375 -21.71875 "/></g></g></g><g fill="#000000" fill-opacity="1"><g transform="translate(163.728046, 54.554509)"><g><path d="M 16.9375 -8.65625 C 16.9375 -8.144531 16.910156 -7.609375 16.859375 -7.046875 L 4 -7.046875 C 4.09375 -5.460938 4.632812 -4.222656 5.625 -3.328125 C 6.613281 -2.441406 7.8125 -2 9.21875 -2 C 10.375 -2 11.335938 -2.265625 12.109375 -2.796875 C 12.878906 -3.335938 13.421875 -4.0625 13.734375 -4.96875 L 16.625 -4.96875 C 16.1875 -3.414062 15.320312 -2.15625 14.03125 -1.1875 C 12.738281 -0.21875 11.132812 0.265625 9.21875 0.265625 C 7.6875 0.265625 6.316406 -0.078125 5.109375 -0.765625 C 3.910156 -1.453125 2.96875 -2.425781 2.28125 -3.6875 C 1.601562 -4.945312 1.265625 -6.410156 1.265625 -8.078125 C 1.265625 -9.734375 1.597656 -11.1875 2.265625 -12.4375 C 2.929688 -13.695312 3.863281 -14.664062 5.0625 -15.34375 C 6.269531 -16.019531 7.65625 -16.359375 9.21875 -16.359375 C 10.75 -16.359375 12.097656 -16.023438 13.265625 -15.359375 C 14.441406 -14.691406 15.347656 -13.773438 15.984375 -12.609375 C 16.617188 -11.441406 16.9375 -10.125 16.9375 -8.65625 Z M 14.1875 -9.21875 C 14.1875 -10.238281 13.957031 -11.113281 13.5 -11.84375 C 13.050781 -12.582031 12.441406 -13.140625 11.671875 -13.515625 C 10.898438 -13.898438 10.039062 -14.09375 9.09375 -14.09375 C 7.75 -14.09375 6.601562 -13.660156 5.65625 -12.796875 C 4.707031 -11.941406 4.160156 -10.75 4.015625 -9.21875 Z M 14.1875 -9.21875 "/></g></g></g><g fill="#000000" fill-opacity="1"><g transform="translate(181.92715, 54.554509)"><g><path d="M 1.265625 -8.078125 C 1.265625 -9.734375 1.597656 -11.179688 2.265625 -12.421875 C 2.929688 -13.671875 3.851562 -14.640625 5.03125 -15.328125 C 6.21875 -16.015625 7.570312 -16.359375 9.09375 -16.359375 C 11.070312 -16.359375 12.703125 -15.875 13.984375 -14.90625 C 15.265625 -13.945312 16.113281 -12.617188 16.53125 -10.921875 L 13.65625 -10.921875 C 13.375 -11.898438 12.835938 -12.671875 12.046875 -13.234375 C 11.253906 -13.804688 10.269531 -14.09375 9.09375 -14.09375 C 7.570312 -14.09375 6.34375 -13.566406 5.40625 -12.515625 C 4.46875 -11.472656 4 -9.992188 4 -8.078125 C 4 -6.140625 4.46875 -4.640625 5.40625 -3.578125 C 6.34375 -2.523438 7.570312 -2 9.09375 -2 C 10.269531 -2 11.25 -2.269531 12.03125 -2.8125 C 12.820312 -3.363281 13.363281 -4.148438 13.65625 -5.171875 L 16.53125 -5.171875 C 16.101562 -3.523438 15.242188 -2.207031 13.953125 -1.21875 C 12.660156 -0.226562 11.039062 0.265625 9.09375 0.265625 C 7.570312 0.265625 6.21875 -0.078125 5.03125 -0.765625 C 3.851562 -1.453125 2.929688 -2.421875 2.265625 -3.671875 C 1.597656 -4.921875 1.265625 -6.390625 1.265625 -8.078125 Z M 1.265625 -8.078125 "/></g></g></g><g fill="#000000" fill-opacity="1"><g transform="translate(199.744663, 54.554509)"><g><path d="M 5.515625 -13.890625 L 5.515625 -4.40625 C 5.515625 -3.625 5.679688 -3.070312 6.015625 -2.75 C 6.347656 -2.425781 6.925781 -2.265625 7.75 -2.265625 L 9.71875 -2.265625 L 9.71875 0 L 7.3125 0 C 5.820312 0 4.703125 -0.34375 3.953125 -1.03125 C 3.210938 -1.71875 2.84375 -2.84375 2.84375 -4.40625 L 2.84375 -13.890625 L 0.765625 -13.890625 L 0.765625 -16.09375 L 2.84375 -16.09375 L 2.84375 -20.140625 L 5.515625 -20.140625 L 5.515625 -16.09375 L 9.71875 -16.09375 L 9.71875 -13.890625 Z M 5.515625 -13.890625 "/></g></g></g><g fill="#000000" fill-opacity="1"><g transform="translate(210.429296, 54.554509)"><g><path d="M 4.9375 -13.46875 C 5.40625 -14.394531 6.070312 -15.109375 6.9375 -15.609375 C 7.8125 -16.117188 8.875 -16.375 10.125 -16.375 L 10.125 -13.625 L 9.421875 -13.625 C 6.429688 -13.625 4.9375 -12 4.9375 -8.75 L 4.9375 0 L 2.265625 0 L 2.265625 -16.09375 L 4.9375 -16.09375 Z M 4.9375 -13.46875 "/></g></g></g><g fill="#000000" fill-opacity="1"><g transform="translate(221.378118, 54.554509)"><g><path d="M 9.28125 0.265625 C 7.769531 0.265625 6.398438 -0.078125 5.171875 -0.765625 C 3.953125 -1.453125 2.992188 -2.425781 2.296875 -3.6875 C 1.609375 -4.945312 1.265625 -6.410156 1.265625 -8.078125 C 1.265625 -9.722656 1.617188 -11.175781 2.328125 -12.4375 C 3.046875 -13.695312 4.019531 -14.664062 5.25 -15.34375 C 6.488281 -16.019531 7.867188 -16.359375 9.390625 -16.359375 C 10.921875 -16.359375 12.300781 -16.019531 13.53125 -15.34375 C 14.769531 -14.664062 15.742188 -13.695312 16.453125 -12.4375 C 17.171875 -11.1875 17.53125 -9.734375 17.53125 -8.078125 C 17.53125 -6.410156 17.160156 -4.945312 16.421875 -3.6875 C 15.691406 -2.425781 14.695312 -1.453125 13.4375 -0.765625 C 12.1875 -0.078125 10.800781 0.265625 9.28125 0.265625 Z M 9.28125 -2.078125 C 10.238281 -2.078125 11.132812 -2.300781 11.96875 -2.75 C 12.8125 -3.207031 13.492188 -3.882812 14.015625 -4.78125 C 14.535156 -5.6875 14.796875 -6.785156 14.796875 -8.078125 C 14.796875 -9.367188 14.539062 -10.460938 14.03125 -11.359375 C 13.519531 -12.265625 12.851562 -12.9375 12.03125 -13.375 C 11.207031 -13.8125 10.316406 -14.03125 9.359375 -14.03125 C 8.378906 -14.03125 7.484375 -13.8125 6.671875 -13.375 C 5.859375 -12.9375 5.207031 -12.265625 4.71875 -11.359375 C 4.238281 -10.460938 4 -9.367188 4 -8.078125 C 4 -6.765625 4.238281 -5.65625 4.71875 -4.75 C 5.195312 -3.851562 5.835938 -3.179688 6.640625 -2.734375 C 7.441406 -2.296875 8.320312 -2.078125 9.28125 -2.078125 Z M 9.28125 -2.078125 "/></g></g></g><g fill="#000000" fill-opacity="1"><g transform="translate(240.164293, 54.554509)"><g><path d="M 10.09375 -16.375 C 12.050781 -16.375 13.632812 -15.78125 14.84375 -14.59375 C 16.0625 -13.414062 16.671875 -11.710938 16.671875 -9.484375 L 16.671875 0 L 14.03125 0 L 14.03125 -9.09375 C 14.03125 -10.707031 13.628906 -11.9375 12.828125 -12.78125 C 12.023438 -13.632812 10.929688 -14.0625 9.546875 -14.0625 C 8.128906 -14.0625 7.003906 -13.617188 6.171875 -12.734375 C 5.347656 -11.859375 4.9375 -10.578125 4.9375 -8.890625 L 4.9375 0 L 2.265625 0 L 2.265625 -16.09375 L 4.9375 -16.09375 L 4.9375 -13.796875 C 5.457031 -14.617188 6.171875 -15.253906 7.078125 -15.703125 C 7.992188 -16.148438 9 -16.375 10.09375 -16.375 Z M 10.09375 -16.375 "/></g></g></g><g fill="#000000" fill-opacity="1"><g transform="translate(258.950468, 54.554509)"><g><path d="M 3.640625 -18.703125 C 3.128906 -18.703125 2.695312 -18.878906 2.34375 -19.234375 C 1.988281 -19.585938 1.8125 -20.015625 1.8125 -20.515625 C 1.8125 -21.023438 1.988281 -21.457031 2.34375 -21.8125 C 2.695312 -22.164062 3.128906 -22.34375 3.640625 -22.34375 C 4.128906 -22.34375 4.546875 -22.164062 4.890625 -21.8125 C 5.234375 -21.457031 5.40625 -21.023438 5.40625 -20.515625 C 5.40625 -20.015625 5.234375 -19.585938 4.890625 -19.234375 C 4.546875 -18.878906 4.128906 -18.703125 3.640625 -18.703125 Z M 4.9375 -16.09375 L 4.9375 0 L 2.265625 0 L 2.265625 -16.09375 Z M 4.9375 -16.09375 "/></g></g></g><g fill="#000000" fill-opacity="1"><g transform="translate(266.171402, 54.554509)"><g><path d="M 1.265625 -8.078125 C 1.265625 -9.734375 1.597656 -11.179688 2.265625 -12.421875 C 2.929688 -13.671875 3.851562 -14.640625 5.03125 -15.328125 C 6.21875 -16.015625 7.570312 -16.359375 9.09375 -16.359375 C 11.070312 -16.359375 12.703125 -15.875 13.984375 -14.90625 C 15.265625 -13.945312 16.113281 -12.617188 16.53125 -10.921875 L 13.65625 -10.921875 C 13.375 -11.898438 12.835938 -12.671875 12.046875 -13.234375 C 11.253906 -13.804688 10.269531 -14.09375 9.09375 -14.09375 C 7.570312 -14.09375 6.34375 -13.566406 5.40625 -12.515625 C 4.46875 -11.472656 4 -9.992188 4 -8.078125 C 4 -6.140625 4.46875 -4.640625 5.40625 -3.578125 C 6.34375 -2.523438 7.570312 -2 9.09375 -2 C 10.269531 -2 11.25 -2.269531 12.03125 -2.8125 C 12.820312 -3.363281 13.363281 -4.148438 13.65625 -5.171875 L 16.53125 -5.171875 C 16.101562 -3.523438 15.242188 -2.207031 13.953125 -1.21875 C 12.660156 -0.226562 11.039062 0.265625 9.09375 0.265625 C 7.570312 0.265625 6.21875 -0.078125 5.03125 -0.765625 C 3.851562 -1.453125 2.929688 -2.421875 2.265625 -3.671875 C 1.597656 -4.921875 1.265625 -6.390625 1.265625 -8.078125 Z M 1.265625 -8.078125 "/></g></g></g><g fill="#000000" fill-opacity="1"><g transform="translate(283.988915, 54.554509)"><g><path d="M 7.953125 0.265625 C 6.722656 0.265625 5.617188 0.0546875 4.640625 -0.359375 C 3.660156 -0.785156 2.882812 -1.375 2.3125 -2.125 C 1.75 -2.882812 1.4375 -3.753906 1.375 -4.734375 L 4.140625 -4.734375 C 4.210938 -3.921875 4.585938 -3.257812 5.265625 -2.75 C 5.941406 -2.25 6.828125 -2 7.921875 -2 C 8.941406 -2 9.742188 -2.222656 10.328125 -2.671875 C 10.921875 -3.117188 11.21875 -3.6875 11.21875 -4.375 C 11.21875 -5.082031 10.90625 -5.601562 10.28125 -5.9375 C 9.65625 -6.28125 8.6875 -6.617188 7.375 -6.953125 C 6.175781 -7.265625 5.195312 -7.582031 4.4375 -7.90625 C 3.6875 -8.226562 3.039062 -8.707031 2.5 -9.34375 C 1.96875 -9.988281 1.703125 -10.828125 1.703125 -11.859375 C 1.703125 -12.679688 1.945312 -13.4375 2.4375 -14.125 C 2.925781 -14.8125 3.617188 -15.351562 4.515625 -15.75 C 5.421875 -16.15625 6.453125 -16.359375 7.609375 -16.359375 C 9.390625 -16.359375 10.828125 -15.90625 11.921875 -15 C 13.015625 -14.101562 13.601562 -12.867188 13.6875 -11.296875 L 11.015625 -11.296875 C 10.953125 -12.140625 10.613281 -12.816406 10 -13.328125 C 9.382812 -13.835938 8.554688 -14.09375 7.515625 -14.09375 C 6.554688 -14.09375 5.789062 -13.882812 5.21875 -13.46875 C 4.65625 -13.0625 4.375 -12.523438 4.375 -11.859375 C 4.375 -11.328125 4.546875 -10.890625 4.890625 -10.546875 C 5.234375 -10.210938 5.660156 -9.941406 6.171875 -9.734375 C 6.691406 -9.523438 7.414062 -9.296875 8.34375 -9.046875 C 9.488281 -8.734375 10.425781 -8.421875 11.15625 -8.109375 C 11.882812 -7.804688 12.503906 -7.351562 13.015625 -6.75 C 13.535156 -6.144531 13.804688 -5.351562 13.828125 -4.375 C 13.828125 -3.488281 13.582031 -2.691406 13.09375 -1.984375 C 12.601562 -1.285156 11.910156 -0.734375 11.015625 -0.328125 C 10.128906 0.0664062 9.109375 0.265625 7.953125 0.265625 Z M 7.953125 0.265625 "/></g></g></g></svg>