<svg xmlns="http://www.w3.org/2000/svg" xmlns:xlink="http://www.w3.org/1999/xlink" width="500" zoomAndPan="magnify" viewBox="0 0 375 82.499998" height="110" preserveAspectRatio="xMidYMid meet" version="1.0"><defs><g/><clipPath id="ae76696b69"><path d="M 1.128906 0 L 373.871094 0 L 373.871094 82.003906 L 1.128906 82.003906 Z M 1.128906 0 " clip-rule="nonzero"/></clipPath><clipPath id="2c7c31c2d0"><path d="M 9.328125 31 L 16 31 L 16 39 L 9.328125 39 Z M 9.328125 31 " clip-rule="nonzero"/></clipPath><clipPath id="c43e1d5435"><path d="M 43 4.328125 L 49 4.328125 L 49 14 L 43 14 Z M 43 4.328125 " clip-rule="nonzero"/></clipPath><clipPath id="0ae8e21432"><path d="M 78 31 L 84.625 31 L 84.625 39 L 78 39 Z M 78 31 " clip-rule="nonzero"/></clipPath><clipPath id="c8eb3ff371"><path d="M 33 30 L 62 30 L 62 77.382812 L 33 77.382812 Z M 33 30 " clip-rule="nonzero"/></clipPath></defs><g clip-path="url(#ae76696b69)"><path fill="#ffffff" d="M 1.128906 0 L 373.871094 0 L 373.871094 82.003906 L 1.128906 82.003906 Z M 1.128906 0 " fill-opacity="1" fill-rule="nonzero"/><path fill="#ffffff" d="M 1.128906 0 L 373.871094 0 L 373.871094 82.003906 L 1.128906 82.003906 Z M 1.128906 0 " fill-opacity="1" fill-rule="nonzero"/></g><g clip-path="url(#2c7c31c2d0)"><path fill="#ffdbcf" d="M 14.84375 38.9375 L 12.363281 38.9375 C 10.6875 38.9375 9.328125 37.585938 9.328125 35.917969 L 9.328125 34.996094 C 9.328125 33.328125 10.6875 31.976562 12.363281 31.976562 L 14.84375 31.976562 C 14.988281 31.976562 15.105469 32.09375 15.105469 32.238281 L 15.105469 38.675781 C 15.105469 38.820312 14.988281 38.9375 14.84375 38.9375 " fill-opacity="1" fill-rule="nonzero"/></g><path fill="#ff7171" d="M 57.269531 30.710938 L 33.460938 31.25 C 33.460938 31.25 32.542969 43.839844 34.785156 49.371094 C 51.566406 54.90625 60.699219 43.050781 60.699219 43.050781 C 60.140625 35.554688 57.269531 30.710938 57.269531 30.710938 " fill-opacity="1" fill-rule="nonzero"/><path fill="#2da5a2" d="M 18.871094 44.332031 C 16.285156 44.332031 14.1875 42.246094 14.1875 39.671875 L 14.1875 31.242188 C 14.1875 28.667969 16.285156 26.582031 18.871094 26.582031 C 21.457031 26.582031 23.550781 28.667969 23.550781 31.242188 L 23.550781 39.671875 C 23.550781 42.246094 21.457031 44.332031 18.871094 44.332031 " fill-opacity="1" fill-rule="nonzero"/><path fill="#ffc9bb" d="M 63.496094 41.285156 L 30.355469 41.285156 L 30.355469 29.644531 L 63.496094 29.644531 L 63.496094 41.285156 " fill-opacity="1" fill-rule="nonzero"/><g clip-path="url(#c43e1d5435)"><path fill="#ffb95c" d="M 46.644531 13.550781 L 46.085938 13.550781 C 45.253906 13.550781 44.550781 12.941406 44.433594 12.125 L 43.769531 6.324219 C 43.628906 5.324219 44.410156 4.433594 45.421875 4.433594 L 47.308594 4.433594 C 48.320312 4.433594 49.101562 5.324219 48.957031 6.324219 L 48.296875 12.125 C 48.179688 12.941406 47.476562 13.550781 46.644531 13.550781 " fill-opacity="1" fill-rule="nonzero"/></g><path fill="#ffb95c" d="M 34.550781 17.921875 L 34.082031 18.21875 C 33.378906 18.660156 32.453125 18.519531 31.917969 17.890625 L 28.242188 13.34375 C 27.585938 12.574219 27.761719 11.40625 28.621094 10.867188 L 30.214844 9.863281 C 31.070312 9.324219 32.207031 9.664062 32.625 10.585938 L 35.179688 15.832031 C 35.523438 16.589844 35.253906 17.476562 34.550781 17.921875 " fill-opacity="1" fill-rule="nonzero"/><path fill="#ffb95c" d="M 58.175781 17.921875 L 58.648438 18.21875 C 59.351562 18.660156 60.273438 18.519531 60.8125 17.890625 L 64.488281 13.34375 C 65.140625 12.574219 64.964844 11.40625 64.105469 10.867188 L 62.515625 9.863281 C 61.660156 9.324219 60.519531 9.664062 60.105469 10.585938 L 57.546875 15.832031 C 57.207031 16.589844 57.472656 17.476562 58.175781 17.921875 " fill-opacity="1" fill-rule="nonzero"/><path fill="#44bcbc" d="M 25.273438 49.292969 C 21.785156 49.292969 18.957031 46.476562 18.957031 43.003906 L 18.957031 27.910156 C 18.957031 24.4375 21.785156 21.621094 25.273438 21.621094 C 28.765625 21.621094 31.589844 24.4375 31.589844 27.910156 L 31.589844 43.003906 C 31.589844 46.476562 28.765625 49.292969 25.273438 49.292969 " fill-opacity="1" fill-rule="nonzero"/><g clip-path="url(#0ae8e21432)"><path fill="#ffdbcf" d="M 79.109375 38.9375 L 81.585938 38.9375 C 83.261719 38.9375 84.625 37.585938 84.625 35.917969 L 84.625 34.996094 C 84.625 33.328125 83.261719 31.976562 81.585938 31.976562 L 79.109375 31.976562 C 78.964844 31.976562 78.847656 32.09375 78.847656 32.238281 L 78.847656 38.675781 C 78.847656 38.820312 78.964844 38.9375 79.109375 38.9375 " fill-opacity="1" fill-rule="nonzero"/></g><path fill="#2da5a2" d="M 75.082031 44.332031 C 77.671875 44.332031 79.765625 42.246094 79.765625 39.671875 L 79.765625 31.242188 C 79.765625 28.667969 77.671875 26.582031 75.082031 26.582031 C 72.496094 26.582031 70.402344 28.667969 70.402344 31.242188 L 70.402344 39.671875 C 70.402344 42.246094 72.496094 44.332031 75.082031 44.332031 " fill-opacity="1" fill-rule="nonzero"/><path fill="#44bcbc" d="M 68.679688 49.292969 C 72.167969 49.292969 74.996094 46.476562 74.996094 43.003906 L 74.996094 27.910156 C 74.996094 24.4375 72.167969 21.621094 68.679688 21.621094 C 65.1875 21.621094 62.363281 24.4375 62.363281 27.910156 L 62.363281 43.003906 C 62.363281 46.476562 65.1875 49.292969 68.679688 49.292969 " fill-opacity="1" fill-rule="nonzero"/><path fill="#ff7171" d="M 38.6875 39.613281 C 37.167969 39.613281 35.9375 38.390625 35.9375 36.882812 L 35.9375 30.332031 C 35.9375 28.820312 37.167969 27.597656 38.6875 27.597656 C 40.203125 27.597656 41.433594 28.820312 41.433594 30.332031 L 41.433594 36.882812 C 41.433594 38.390625 40.203125 39.613281 38.6875 39.613281 " fill-opacity="1" fill-rule="nonzero"/><path fill="#ff7171" d="M 44.179688 39.285156 C 42.664062 39.285156 41.433594 38.0625 41.433594 36.550781 L 41.433594 28.152344 C 41.433594 26.644531 42.664062 25.421875 44.179688 25.421875 C 45.695312 25.421875 46.925781 26.644531 46.925781 28.152344 L 46.925781 36.550781 C 46.925781 38.0625 45.695312 39.285156 44.179688 39.285156 " fill-opacity="1" fill-rule="nonzero"/><path fill="#ff7171" d="M 49.675781 38.691406 C 48.15625 38.691406 46.925781 37.464844 46.925781 35.957031 L 46.925781 27.230469 C 46.925781 25.71875 48.15625 24.496094 49.675781 24.496094 C 51.191406 24.496094 52.417969 25.71875 52.417969 27.230469 L 52.417969 35.957031 C 52.417969 37.464844 51.191406 38.691406 49.675781 38.691406 " fill-opacity="1" fill-rule="nonzero"/><path fill="#ff7171" d="M 55.167969 38.691406 C 53.648438 38.691406 52.417969 37.464844 52.417969 35.957031 L 52.417969 27.558594 C 52.417969 26.046875 53.648438 24.824219 55.167969 24.824219 C 56.683594 24.824219 57.910156 26.046875 57.910156 27.558594 L 57.910156 35.957031 C 57.910156 37.464844 56.683594 38.691406 55.167969 38.691406 " fill-opacity="1" fill-rule="nonzero"/><g clip-path="url(#c8eb3ff371)"><path fill="#ff8c83" d="M 33.164062 41.285156 C 33.164062 48.511719 36.96875 55.769531 36.96875 62.109375 L 36.96875 75.4375 C 36.96875 76.476562 37.816406 77.316406 38.859375 77.316406 L 53.589844 77.316406 C 54.628906 77.316406 55.476562 76.476562 55.476562 75.4375 L 55.476562 61.226562 C 55.476562 58.890625 56.238281 56.617188 57.671875 54.769531 C 59.132812 52.878906 60.664062 50.3125 61.382812 47.242188 C 62.023438 44.503906 61.371094 41.621094 59.742188 39.324219 C 59.742188 39.324219 55.710938 33.289062 54.144531 31.445312 C 53.019531 30.117188 50.90625 30.214844 49.671875 31.445312 C 48.433594 32.675781 48.636719 34.496094 49.671875 35.898438 C 50.578125 37.128906 51.554688 38.996094 52.292969 40.519531 C 52.773438 41.519531 52.109375 42.710938 51 42.789062 C 48.851562 42.941406 47.261719 44.171875 46.175781 45.554688 C 45.308594 46.65625 43.609375 46.65625 42.78125 45.523438 C 40.816406 42.824219 37.808594 41.207031 33.164062 41.285156 " fill-opacity="1" fill-rule="nonzero"/></g><g fill="#000000" fill-opacity="1"><g transform="translate(95.179109, 52.359123)"><g><path d="M 4.9375 -18.296875 L 4.9375 -11.453125 L 12.390625 -11.453125 L 12.390625 -9.25 L 4.9375 -9.25 L 4.9375 -2.203125 L 13.265625 -2.203125 L 13.265625 0 L 2.265625 0 L 2.265625 -20.5 L 13.265625 -20.5 L 13.265625 -18.296875 Z M 4.9375 -18.296875 "/></g></g></g><g fill="#000000" fill-opacity="1"><g transform="translate(110.237397, 52.359123)"><g><path d="M 10.65625 0 L 6.84375 -5.984375 L 3.171875 0 L 0.375 0 L 5.578125 -7.984375 L 0.375 -16.09375 L 3.40625 -16.09375 L 7.21875 -10.125 L 10.859375 -16.09375 L 13.65625 -16.09375 L 8.484375 -8.125 L 13.6875 0 Z M 10.65625 0 "/></g></g></g><g fill="#000000" fill-opacity="1"><g transform="translate(124.297675, 52.359123)"><g><path d="M 16.9375 -8.65625 C 16.9375 -8.144531 16.910156 -7.609375 16.859375 -7.046875 L 4 -7.046875 C 4.09375 -5.460938 4.632812 -4.222656 5.625 -3.328125 C 6.613281 -2.441406 7.8125 -2 9.21875 -2 C 10.375 -2 11.335938 -2.265625 12.109375 -2.796875 C 12.878906 -3.335938 13.421875 -4.0625 13.734375 -4.96875 L 16.625 -4.96875 C 16.1875 -3.414062 15.320312 -2.15625 14.03125 -1.1875 C 12.738281 -0.21875 11.132812 0.265625 9.21875 0.265625 C 7.6875 0.265625 6.316406 -0.078125 5.109375 -0.765625 C 3.910156 -1.453125 2.96875 -2.425781 2.28125 -3.6875 C 1.601562 -4.945312 1.265625 -6.410156 1.265625 -8.078125 C 1.265625 -9.734375 1.597656 -11.1875 2.265625 -12.4375 C 2.929688 -13.695312 3.863281 -14.664062 5.0625 -15.34375 C 6.269531 -16.019531 7.65625 -16.359375 9.21875 -16.359375 C 10.75 -16.359375 12.097656 -16.023438 13.265625 -15.359375 C 14.441406 -14.691406 15.347656 -13.773438 15.984375 -12.609375 C 16.617188 -11.441406 16.9375 -10.125 16.9375 -8.65625 Z M 14.1875 -9.21875 C 14.1875 -10.238281 13.957031 -11.113281 13.5 -11.84375 C 13.050781 -12.582031 12.441406 -13.140625 11.671875 -13.515625 C 10.898438 -13.898438 10.039062 -14.09375 9.09375 -14.09375 C 7.75 -14.09375 6.601562 -13.660156 5.65625 -12.796875 C 4.707031 -11.941406 4.160156 -10.75 4.015625 -9.21875 Z M 14.1875 -9.21875 "/></g></g></g><g fill="#000000" fill-opacity="1"><g transform="translate(142.496779, 52.359123)"><g><path d="M 4.9375 -13.46875 C 5.40625 -14.394531 6.070312 -15.109375 6.9375 -15.609375 C 7.8125 -16.117188 8.875 -16.375 10.125 -16.375 L 10.125 -13.625 L 9.421875 -13.625 C 6.429688 -13.625 4.9375 -12 4.9375 -8.75 L 4.9375 0 L 2.265625 0 L 2.265625 -16.09375 L 4.9375 -16.09375 Z M 4.9375 -13.46875 "/></g></g></g><g fill="#000000" fill-opacity="1"><g transform="translate(153.4456, 52.359123)"><g><path d="M 1.265625 -8.078125 C 1.265625 -9.734375 1.597656 -11.179688 2.265625 -12.421875 C 2.929688 -13.671875 3.851562 -14.640625 5.03125 -15.328125 C 6.21875 -16.015625 7.570312 -16.359375 9.09375 -16.359375 C 11.070312 -16.359375 12.703125 -15.875 13.984375 -14.90625 C 15.265625 -13.945312 16.113281 -12.617188 16.53125 -10.921875 L 13.65625 -10.921875 C 13.375 -11.898438 12.835938 -12.671875 12.046875 -13.234375 C 11.253906 -13.804688 10.269531 -14.09375 9.09375 -14.09375 C 7.570312 -14.09375 6.34375 -13.566406 5.40625 -12.515625 C 4.46875 -11.472656 4 -9.992188 4 -8.078125 C 4 -6.140625 4.46875 -4.640625 5.40625 -3.578125 C 6.34375 -2.523438 7.570312 -2 9.09375 -2 C 10.269531 -2 11.25 -2.269531 12.03125 -2.8125 C 12.820312 -3.363281 13.363281 -4.148438 13.65625 -5.171875 L 16.53125 -5.171875 C 16.101562 -3.523438 15.242188 -2.207031 13.953125 -1.21875 C 12.660156 -0.226562 11.039062 0.265625 9.09375 0.265625 C 7.570312 0.265625 6.21875 -0.078125 5.03125 -0.765625 C 3.851562 -1.453125 2.929688 -2.421875 2.265625 -3.671875 C 1.597656 -4.921875 1.265625 -6.390625 1.265625 -8.078125 Z M 1.265625 -8.078125 "/></g></g></g><g fill="#000000" fill-opacity="1"><g transform="translate(171.263113, 52.359123)"><g><path d="M 3.640625 -18.703125 C 3.128906 -18.703125 2.695312 -18.878906 2.34375 -19.234375 C 1.988281 -19.585938 1.8125 -20.015625 1.8125 -20.515625 C 1.8125 -21.023438 1.988281 -21.457031 2.34375 -21.8125 C 2.695312 -22.164062 3.128906 -22.34375 3.640625 -22.34375 C 4.128906 -22.34375 4.546875 -22.164062 4.890625 -21.8125 C 5.234375 -21.457031 5.40625 -21.023438 5.40625 -20.515625 C 5.40625 -20.015625 5.234375 -19.585938 4.890625 -19.234375 C 4.546875 -18.878906 4.128906 -18.703125 3.640625 -18.703125 Z M 4.9375 -16.09375 L 4.9375 0 L 2.265625 0 L 2.265625 -16.09375 Z M 4.9375 -16.09375 "/></g></g></g><g fill="#000000" fill-opacity="1"><g transform="translate(178.484047, 52.359123)"><g><path d="M 7.953125 0.265625 C 6.722656 0.265625 5.617188 0.0546875 4.640625 -0.359375 C 3.660156 -0.785156 2.882812 -1.375 2.3125 -2.125 C 1.75 -2.882812 1.4375 -3.753906 1.375 -4.734375 L 4.140625 -4.734375 C 4.210938 -3.921875 4.585938 -3.257812 5.265625 -2.75 C 5.941406 -2.25 6.828125 -2 7.921875 -2 C 8.941406 -2 9.742188 -2.222656 10.328125 -2.671875 C 10.921875 -3.117188 11.21875 -3.6875 11.21875 -4.375 C 11.21875 -5.082031 10.90625 -5.601562 10.28125 -5.9375 C 9.65625 -6.28125 8.6875 -6.617188 7.375 -6.953125 C 6.175781 -7.265625 5.195312 -7.582031 4.4375 -7.90625 C 3.6875 -8.226562 3.039062 -8.707031 2.5 -9.34375 C 1.96875 -9.988281 1.703125 -10.828125 1.703125 -11.859375 C 1.703125 -12.679688 1.945312 -13.4375 2.4375 -14.125 C 2.925781 -14.8125 3.617188 -15.351562 4.515625 -15.75 C 5.421875 -16.15625 6.453125 -16.359375 7.609375 -16.359375 C 9.390625 -16.359375 10.828125 -15.90625 11.921875 -15 C 13.015625 -14.101562 13.601562 -12.867188 13.6875 -11.296875 L 11.015625 -11.296875 C 10.953125 -12.140625 10.613281 -12.816406 10 -13.328125 C 9.382812 -13.835938 8.554688 -14.09375 7.515625 -14.09375 C 6.554688 -14.09375 5.789062 -13.882812 5.21875 -13.46875 C 4.65625 -13.0625 4.375 -12.523438 4.375 -11.859375 C 4.375 -11.328125 4.546875 -10.890625 4.890625 -10.546875 C 5.234375 -10.210938 5.660156 -9.941406 6.171875 -9.734375 C 6.691406 -9.523438 7.414062 -9.296875 8.34375 -9.046875 C 9.488281 -8.734375 10.425781 -8.421875 11.15625 -8.109375 C 11.882812 -7.804688 12.503906 -7.351562 13.015625 -6.75 C 13.535156 -6.144531 13.804688 -5.351562 13.828125 -4.375 C 13.828125 -3.488281 13.582031 -2.691406 13.09375 -1.984375 C 12.601562 -1.285156 11.910156 -0.734375 11.015625 -0.328125 C 10.128906 0.0664062 9.109375 0.265625 7.953125 0.265625 Z M 7.953125 0.265625 "/></g></g></g><g fill="#000000" fill-opacity="1"><g transform="translate(193.806523, 52.359123)"><g><path d="M 16.9375 -8.65625 C 16.9375 -8.144531 16.910156 -7.609375 16.859375 -7.046875 L 4 -7.046875 C 4.09375 -5.460938 4.632812 -4.222656 5.625 -3.328125 C 6.613281 -2.441406 7.8125 -2 9.21875 -2 C 10.375 -2 11.335938 -2.265625 12.109375 -2.796875 C 12.878906 -3.335938 13.421875 -4.0625 13.734375 -4.96875 L 16.625 -4.96875 C 16.1875 -3.414062 15.320312 -2.15625 14.03125 -1.1875 C 12.738281 -0.21875 11.132812 0.265625 9.21875 0.265625 C 7.6875 0.265625 6.316406 -0.078125 5.109375 -0.765625 C 3.910156 -1.453125 2.96875 -2.425781 2.28125 -3.6875 C 1.601562 -4.945312 1.265625 -6.410156 1.265625 -8.078125 C 1.265625 -9.734375 1.597656 -11.1875 2.265625 -12.4375 C 2.929688 -13.695312 3.863281 -14.664062 5.0625 -15.34375 C 6.269531 -16.019531 7.65625 -16.359375 9.21875 -16.359375 C 10.75 -16.359375 12.097656 -16.023438 13.265625 -15.359375 C 14.441406 -14.691406 15.347656 -13.773438 15.984375 -12.609375 C 16.617188 -11.441406 16.9375 -10.125 16.9375 -8.65625 Z M 14.1875 -9.21875 C 14.1875 -10.238281 13.957031 -11.113281 13.5 -11.84375 C 13.050781 -12.582031 12.441406 -13.140625 11.671875 -13.515625 C 10.898438 -13.898438 10.039062 -14.09375 9.09375 -14.09375 C 7.75 -14.09375 6.601562 -13.660156 5.65625 -12.796875 C 4.707031 -11.941406 4.160156 -10.75 4.015625 -9.21875 Z M 14.1875 -9.21875 "/></g></g></g><g fill="#000000" fill-opacity="1"><g transform="translate(212.005627, 52.359123)"><g/></g></g><g fill="#000000" fill-opacity="1"><g transform="translate(219.84298, 52.359123)"><g><path d="M 17.96875 0 L 15.296875 -2.703125 C 14.296875 -1.660156 13.226562 -0.890625 12.09375 -0.390625 C 10.957031 0.109375 9.675781 0.359375 8.25 0.359375 C 6.84375 0.359375 5.59375 0.101562 4.5 -0.40625 C 3.414062 -0.914062 2.578125 -1.640625 1.984375 -2.578125 C 1.390625 -3.523438 1.09375 -4.625 1.09375 -5.875 C 1.09375 -7.300781 1.492188 -8.554688 2.296875 -9.640625 C 3.109375 -10.734375 4.3125 -11.59375 5.90625 -12.21875 C 5.28125 -12.957031 4.828125 -13.640625 4.546875 -14.265625 C 4.273438 -14.890625 4.140625 -15.578125 4.140625 -16.328125 C 4.140625 -17.179688 4.359375 -17.957031 4.796875 -18.65625 C 5.234375 -19.351562 5.863281 -19.894531 6.6875 -20.28125 C 7.507812 -20.675781 8.460938 -20.875 9.546875 -20.875 C 10.597656 -20.875 11.515625 -20.664062 12.296875 -20.25 C 13.078125 -19.84375 13.664062 -19.269531 14.0625 -18.53125 C 14.457031 -17.800781 14.632812 -16.988281 14.59375 -16.09375 L 11.921875 -16.09375 C 11.941406 -16.894531 11.71875 -17.523438 11.25 -17.984375 C 10.78125 -18.441406 10.171875 -18.671875 9.421875 -18.671875 C 8.640625 -18.671875 8.007812 -18.445312 7.53125 -18 C 7.050781 -17.5625 6.8125 -17.003906 6.8125 -16.328125 C 6.8125 -15.734375 6.972656 -15.160156 7.296875 -14.609375 C 7.617188 -14.066406 8.160156 -13.394531 8.921875 -12.59375 L 15.03125 -6.453125 L 15.5625 -7.28125 L 17.5625 -10.625 L 20.4375 -10.625 L 18.03125 -6.453125 C 17.695312 -5.867188 17.304688 -5.253906 16.859375 -4.609375 L 21.46875 0 Z M 8.25 -1.9375 C 9.300781 -1.9375 10.253906 -2.140625 11.109375 -2.546875 C 11.960938 -2.960938 12.769531 -3.601562 13.53125 -4.46875 L 7.515625 -10.515625 C 5.015625 -9.554688 3.765625 -8.035156 3.765625 -5.953125 C 3.765625 -4.804688 4.175781 -3.847656 5 -3.078125 C 5.832031 -2.316406 6.914062 -1.9375 8.25 -1.9375 Z M 8.25 -1.9375 "/></g></g></g><g fill="#000000" fill-opacity="1"><g transform="translate(241.535142, 52.359123)"><g/></g></g><g fill="#000000" fill-opacity="1"><g transform="translate(249.372496, 52.359123)"><g><path d="M 11.53125 0.203125 C 9.632812 0.203125 7.90625 -0.238281 6.34375 -1.125 C 4.78125 -2.019531 3.539062 -3.265625 2.625 -4.859375 C 1.71875 -6.453125 1.265625 -8.25 1.265625 -10.25 C 1.265625 -12.238281 1.71875 -14.03125 2.625 -15.625 C 3.539062 -17.226562 4.78125 -18.472656 6.34375 -19.359375 C 7.90625 -20.253906 9.632812 -20.703125 11.53125 -20.703125 C 13.457031 -20.703125 15.203125 -20.253906 16.765625 -19.359375 C 18.328125 -18.472656 19.554688 -17.234375 20.453125 -15.640625 C 21.359375 -14.054688 21.8125 -12.257812 21.8125 -10.25 C 21.8125 -8.226562 21.359375 -6.425781 20.453125 -4.84375 C 19.554688 -3.257812 18.328125 -2.019531 16.765625 -1.125 C 15.203125 -0.238281 13.457031 0.203125 11.53125 0.203125 Z M 11.53125 -2.109375 C 12.96875 -2.109375 14.253906 -2.441406 15.390625 -3.109375 C 16.535156 -3.773438 17.4375 -4.722656 18.09375 -5.953125 C 18.75 -7.191406 19.078125 -8.625 19.078125 -10.25 C 19.078125 -11.894531 18.75 -13.328125 18.09375 -14.546875 C 17.4375 -15.765625 16.539062 -16.707031 15.40625 -17.375 C 14.269531 -18.039062 12.976562 -18.375 11.53125 -18.375 C 10.082031 -18.375 8.789062 -18.039062 7.65625 -17.375 C 6.519531 -16.707031 5.625 -15.765625 4.96875 -14.546875 C 4.320312 -13.328125 4 -11.894531 4 -10.25 C 4 -8.625 4.320312 -7.191406 4.96875 -5.953125 C 5.625 -4.722656 6.523438 -3.773438 7.671875 -3.109375 C 8.816406 -2.441406 10.101562 -2.109375 11.53125 -2.109375 Z M 11.53125 -2.109375 "/></g></g></g><g fill="#000000" fill-opacity="1"><g transform="translate(272.444271, 52.359123)"><g><path d="M 16.53125 -16.09375 L 16.53125 0 L 13.859375 0 L 13.859375 -2.375 C 13.347656 -1.550781 12.632812 -0.910156 11.71875 -0.453125 C 10.8125 0.00390625 9.8125 0.234375 8.71875 0.234375 C 7.46875 0.234375 6.34375 -0.0234375 5.34375 -0.546875 C 4.34375 -1.066406 3.550781 -1.84375 2.96875 -2.875 C 2.394531 -3.914062 2.109375 -5.179688 2.109375 -6.671875 L 2.109375 -16.09375 L 4.75 -16.09375 L 4.75 -7.015625 C 4.75 -5.429688 5.148438 -4.210938 5.953125 -3.359375 C 6.753906 -2.503906 7.851562 -2.078125 9.25 -2.078125 C 10.675781 -2.078125 11.800781 -2.519531 12.625 -3.40625 C 13.445312 -4.289062 13.859375 -5.570312 13.859375 -7.25 L 13.859375 -16.09375 Z M 16.53125 -16.09375 "/></g></g></g><g fill="#000000" fill-opacity="1"><g transform="translate(291.230446, 52.359123)"><g><path d="M 5.515625 -13.890625 L 5.515625 -4.40625 C 5.515625 -3.625 5.679688 -3.070312 6.015625 -2.75 C 6.347656 -2.425781 6.925781 -2.265625 7.75 -2.265625 L 9.71875 -2.265625 L 9.71875 0 L 7.3125 0 C 5.820312 0 4.703125 -0.34375 3.953125 -1.03125 C 3.210938 -1.71875 2.84375 -2.84375 2.84375 -4.40625 L 2.84375 -13.890625 L 0.765625 -13.890625 L 0.765625 -16.09375 L 2.84375 -16.09375 L 2.84375 -20.140625 L 5.515625 -20.140625 L 5.515625 -16.09375 L 9.71875 -16.09375 L 9.71875 -13.890625 Z M 5.515625 -13.890625 "/></g></g></g><g fill="#000000" fill-opacity="1"><g transform="translate(301.915079, 52.359123)"><g><path d="M 1.265625 -8.109375 C 1.265625 -9.742188 1.597656 -11.179688 2.265625 -12.421875 C 2.929688 -13.671875 3.84375 -14.640625 5 -15.328125 C 6.164062 -16.015625 7.472656 -16.359375 8.921875 -16.359375 C 10.171875 -16.359375 11.332031 -16.066406 12.40625 -15.484375 C 13.488281 -14.910156 14.316406 -14.15625 14.890625 -13.21875 L 14.890625 -21.71875 L 17.59375 -21.71875 L 17.59375 0 L 14.890625 0 L 14.890625 -3.03125 C 14.359375 -2.0625 13.570312 -1.269531 12.53125 -0.65625 C 11.5 -0.0390625 10.285156 0.265625 8.890625 0.265625 C 7.460938 0.265625 6.164062 -0.0820312 5 -0.78125 C 3.84375 -1.488281 2.929688 -2.476562 2.265625 -3.75 C 1.597656 -5.03125 1.265625 -6.484375 1.265625 -8.109375 Z M 14.890625 -8.078125 C 14.890625 -9.285156 14.644531 -10.335938 14.15625 -11.234375 C 13.664062 -12.140625 13.003906 -12.832031 12.171875 -13.3125 C 11.335938 -13.789062 10.421875 -14.03125 9.421875 -14.03125 C 8.421875 -14.03125 7.507812 -13.796875 6.6875 -13.328125 C 5.863281 -12.859375 5.207031 -12.171875 4.71875 -11.265625 C 4.238281 -10.367188 4 -9.316406 4 -8.109375 C 4 -6.867188 4.238281 -5.789062 4.71875 -4.875 C 5.207031 -3.96875 5.863281 -3.273438 6.6875 -2.796875 C 7.507812 -2.316406 8.421875 -2.078125 9.421875 -2.078125 C 10.421875 -2.078125 11.335938 -2.316406 12.171875 -2.796875 C 13.003906 -3.273438 13.664062 -3.96875 14.15625 -4.875 C 14.644531 -5.789062 14.890625 -6.859375 14.890625 -8.078125 Z M 14.890625 -8.078125 "/></g></g></g><g fill="#000000" fill-opacity="1"><g transform="translate(321.75796, 52.359123)"><g><path d="M 9.28125 0.265625 C 7.769531 0.265625 6.398438 -0.078125 5.171875 -0.765625 C 3.953125 -1.453125 2.992188 -2.425781 2.296875 -3.6875 C 1.609375 -4.945312 1.265625 -6.410156 1.265625 -8.078125 C 1.265625 -9.722656 1.617188 -11.175781 2.328125 -12.4375 C 3.046875 -13.695312 4.019531 -14.664062 5.25 -15.34375 C 6.488281 -16.019531 7.867188 -16.359375 9.390625 -16.359375 C 10.921875 -16.359375 12.300781 -16.019531 13.53125 -15.34375 C 14.769531 -14.664062 15.742188 -13.695312 16.453125 -12.4375 C 17.171875 -11.1875 17.53125 -9.734375 17.53125 -8.078125 C 17.53125 -6.410156 17.160156 -4.945312 16.421875 -3.6875 C 15.691406 -2.425781 14.695312 -1.453125 13.4375 -0.765625 C 12.1875 -0.078125 10.800781 0.265625 9.28125 0.265625 Z M 9.28125 -2.078125 C 10.238281 -2.078125 11.132812 -2.300781 11.96875 -2.75 C 12.8125 -3.207031 13.492188 -3.882812 14.015625 -4.78125 C 14.535156 -5.6875 14.796875 -6.785156 14.796875 -8.078125 C 14.796875 -9.367188 14.539062 -10.460938 14.03125 -11.359375 C 13.519531 -12.265625 12.851562 -12.9375 12.03125 -13.375 C 11.207031 -13.8125 10.316406 -14.03125 9.359375 -14.03125 C 8.378906 -14.03125 7.484375 -13.8125 6.671875 -13.375 C 5.859375 -12.9375 5.207031 -12.265625 4.71875 -11.359375 C 4.238281 -10.460938 4 -9.367188 4 -8.078125 C 4 -6.765625 4.238281 -5.65625 4.71875 -4.75 C 5.195312 -3.851562 5.835938 -3.179688 6.640625 -2.734375 C 7.441406 -2.296875 8.320312 -2.078125 9.28125 -2.078125 Z M 9.28125 -2.078125 "/></g></g></g><g fill="#000000" fill-opacity="1"><g transform="translate(340.544136, 52.359123)"><g><path d="M 9.28125 0.265625 C 7.769531 0.265625 6.398438 -0.078125 5.171875 -0.765625 C 3.953125 -1.453125 2.992188 -2.425781 2.296875 -3.6875 C 1.609375 -4.945312 1.265625 -6.410156 1.265625 -8.078125 C 1.265625 -9.722656 1.617188 -11.175781 2.328125 -12.4375 C 3.046875 -13.695312 4.019531 -14.664062 5.25 -15.34375 C 6.488281 -16.019531 7.867188 -16.359375 9.390625 -16.359375 C 10.921875 -16.359375 12.300781 -16.019531 13.53125 -15.34375 C 14.769531 -14.664062 15.742188 -13.695312 16.453125 -12.4375 C 17.171875 -11.1875 17.53125 -9.734375 17.53125 -8.078125 C 17.53125 -6.410156 17.160156 -4.945312 16.421875 -3.6875 C 15.691406 -2.425781 14.695312 -1.453125 13.4375 -0.765625 C 12.1875 -0.078125 10.800781 0.265625 9.28125 0.265625 Z M 9.28125 -2.078125 C 10.238281 -2.078125 11.132812 -2.300781 11.96875 -2.75 C 12.8125 -3.207031 13.492188 -3.882812 14.015625 -4.78125 C 14.535156 -5.6875 14.796875 -6.785156 14.796875 -8.078125 C 14.796875 -9.367188 14.539062 -10.460938 14.03125 -11.359375 C 13.519531 -12.265625 12.851562 -12.9375 12.03125 -13.375 C 11.207031 -13.8125 10.316406 -14.03125 9.359375 -14.03125 C 8.378906 -14.03125 7.484375 -13.8125 6.671875 -13.375 C 5.859375 -12.9375 5.207031 -12.265625 4.71875 -11.359375 C 4.238281 -10.460938 4 -9.367188 4 -8.078125 C 4 -6.765625 4.238281 -5.65625 4.71875 -4.75 C 5.195312 -3.851562 5.835938 -3.179688 6.640625 -2.734375 C 7.441406 -2.296875 8.320312 -2.078125 9.28125 -2.078125 Z M 9.28125 -2.078125 "/></g></g></g><g fill="#000000" fill-opacity="1"><g transform="translate(359.330311, 52.359123)"><g><path d="M 4.9375 -13.46875 C 5.40625 -14.394531 6.070312 -15.109375 6.9375 -15.609375 C 7.8125 -16.117188 8.875 -16.375 10.125 -16.375 L 10.125 -13.625 L 9.421875 -13.625 C 6.429688 -13.625 4.9375 -12 4.9375 -8.75 L 4.9375 0 L 2.265625 0 L 2.265625 -16.09375 L 4.9375 -16.09375 Z M 4.9375 -13.46875 "/></g></g></g></svg>