<svg xmlns="http://www.w3.org/2000/svg" xmlns:xlink="http://www.w3.org/1999/xlink" width="500" zoomAndPan="magnify" viewBox="0 0 375 82.499998" height="110" preserveAspectRatio="xMidYMid meet" version="1.0"><defs><g/><clipPath id="44442812df"><path d="M 1.128906 0 L 373.871094 0 L 373.871094 82.003906 L 1.128906 82.003906 Z M 1.128906 0 " clip-rule="nonzero"/></clipPath><clipPath id="9f4113d03a"><path d="M 44 61 L 83.847656 61 L 83.847656 73.800781 L 44 73.800781 Z M 44 61 " clip-rule="nonzero"/></clipPath><clipPath id="96a19048cf"><path d="M 43 61 L 83.847656 61 L 83.847656 73.800781 L 43 73.800781 Z M 43 61 " clip-rule="nonzero"/></clipPath><clipPath id="b643f5b1db"><path d="M 44 8.199219 L 83.847656 8.199219 L 83.847656 50 L 44 50 Z M 44 8.199219 " clip-rule="nonzero"/></clipPath><clipPath id="7dbe8ba0aa"><path d="M 43 8.199219 L 83.847656 8.199219 L 83.847656 51 L 43 51 Z M 43 8.199219 " clip-rule="nonzero"/></clipPath><clipPath id="409b4d4179"><path d="M 44 8.199219 L 83.847656 8.199219 L 83.847656 16 L 44 16 Z M 44 8.199219 " clip-rule="nonzero"/></clipPath><clipPath id="fe3f9eba8b"><path d="M 43 8.199219 L 83.847656 8.199219 L 83.847656 17 L 43 17 Z M 43 8.199219 " clip-rule="nonzero"/></clipPath><clipPath id="3297cc3c34"><path d="M 44 49 L 83.847656 49 L 83.847656 62 L 44 62 Z M 44 49 " clip-rule="nonzero"/></clipPath><clipPath id="04804437ac"><path d="M 43 48 L 83.847656 48 L 83.847656 63 L 43 63 Z M 43 48 " clip-rule="nonzero"/></clipPath><clipPath id="168cbb5778"><path d="M 27 72 L 35 72 L 35 73.800781 L 27 73.800781 Z M 27 72 " clip-rule="nonzero"/></clipPath><clipPath id="e136c8f415"><path d="M 50 67 L 58 67 L 58 73.800781 L 50 73.800781 Z M 50 67 " clip-rule="nonzero"/></clipPath><clipPath id="c723b42ef2"><path d="M 20 67 L 27 67 L 27 73.800781 L 20 73.800781 Z M 20 67 " clip-rule="nonzero"/></clipPath><clipPath id="8da8092b99"><path d="M 17.5 59 L 60 59 L 60 69 L 17.5 69 Z M 17.5 59 " clip-rule="nonzero"/></clipPath><clipPath id="18298aa408"><path d="M 17.5 50 L 60 50 L 60 61 L 17.5 61 Z M 17.5 50 " clip-rule="nonzero"/></clipPath></defs><g clip-path="url(#44442812df)"><path fill="#ffffff" d="M 1.128906 0 L 373.871094 0 L 373.871094 439.835938 L 1.128906 439.835938 Z M 1.128906 0 " fill-opacity="1" fill-rule="nonzero"/><path fill="#ffffff" d="M 1.128906 0 L 373.871094 0 L 373.871094 82.003906 L 1.128906 82.003906 Z M 1.128906 0 " fill-opacity="1" fill-rule="nonzero"/><path fill="#ffffff" d="M 1.128906 0 L 373.871094 0 L 373.871094 82.003906 L 1.128906 82.003906 Z M 1.128906 0 " fill-opacity="1" fill-rule="nonzero"/></g><g clip-path="url(#9f4113d03a)"><path fill="#a87140" d="M 44.292969 61.804688 L 83.085938 61.804688 L 83.085938 73.035156 L 44.292969 73.035156 Z M 44.292969 61.804688 " fill-opacity="1" fill-rule="nonzero"/></g><g clip-path="url(#96a19048cf)"><path fill="#000000" d="M 83.085938 73.796875 L 44.292969 73.796875 C 43.875 73.796875 43.53125 73.453125 43.53125 73.035156 L 43.53125 61.804688 C 43.53125 61.386719 43.875 61.046875 44.292969 61.046875 L 83.085938 61.046875 C 83.503906 61.046875 83.847656 61.386719 83.847656 61.804688 L 83.847656 73.035156 C 83.847656 73.453125 83.503906 73.796875 83.085938 73.796875 Z M 45.050781 72.277344 L 82.328125 72.277344 L 82.328125 62.566406 L 45.050781 62.566406 Z M 45.050781 72.277344 " fill-opacity="1" fill-rule="nonzero"/></g><g clip-path="url(#b643f5b1db)"><path fill="#bb844c" d="M 44.292969 8.96875 L 83.085938 8.96875 L 83.085938 49.6875 L 44.292969 49.6875 Z M 44.292969 8.96875 " fill-opacity="1" fill-rule="nonzero"/></g><g clip-path="url(#7dbe8ba0aa)"><path fill="#000000" d="M 83.085938 50.445312 L 44.292969 50.445312 C 43.875 50.445312 43.53125 50.105469 43.53125 49.6875 L 43.53125 8.96875 C 43.53125 8.550781 43.875 8.207031 44.292969 8.207031 L 83.085938 8.207031 C 83.503906 8.207031 83.847656 8.550781 83.847656 8.96875 L 83.847656 49.6875 C 83.847656 50.105469 83.503906 50.445312 83.085938 50.445312 Z M 45.050781 48.929688 L 82.328125 48.929688 L 82.328125 9.726562 L 45.050781 9.726562 Z M 45.050781 48.929688 " fill-opacity="1" fill-rule="nonzero"/></g><g clip-path="url(#409b4d4179)"><path fill="#a87140" d="M 44.292969 8.96875 L 83.085938 8.96875 L 83.085938 15.363281 L 44.292969 15.363281 Z M 44.292969 8.96875 " fill-opacity="1" fill-rule="nonzero"/></g><g clip-path="url(#fe3f9eba8b)"><path fill="#000000" d="M 83.085938 16.121094 L 44.292969 16.121094 C 43.875 16.121094 43.53125 15.777344 43.53125 15.363281 L 43.53125 8.96875 C 43.53125 8.550781 43.875 8.207031 44.292969 8.207031 L 83.085938 8.207031 C 83.503906 8.207031 83.847656 8.550781 83.847656 8.96875 L 83.847656 15.363281 C 83.847656 15.777344 83.503906 16.121094 83.085938 16.121094 Z M 45.050781 14.601562 L 82.328125 14.601562 L 82.328125 9.726562 L 45.050781 9.726562 Z M 45.050781 14.601562 " fill-opacity="1" fill-rule="nonzero"/></g><g clip-path="url(#3297cc3c34)"><path fill="#a87140" d="M 44.292969 49.6875 L 83.085938 49.6875 L 83.085938 61.804688 L 44.292969 61.804688 Z M 44.292969 49.6875 " fill-opacity="1" fill-rule="nonzero"/></g><g clip-path="url(#04804437ac)"><path fill="#000000" d="M 83.085938 62.566406 L 44.292969 62.566406 C 43.875 62.566406 43.53125 62.222656 43.53125 61.804688 L 43.53125 49.6875 C 43.53125 49.269531 43.875 48.929688 44.292969 48.929688 L 83.085938 48.929688 C 83.503906 48.929688 83.847656 49.269531 83.847656 49.6875 L 83.847656 61.804688 C 83.847656 62.222656 83.503906 62.566406 83.085938 62.566406 Z M 45.050781 61.046875 L 82.328125 61.046875 L 82.328125 50.445312 L 45.050781 50.445312 Z M 45.050781 61.046875 " fill-opacity="1" fill-rule="nonzero"/></g><path fill="#000000" d="M 62.929688 15.363281 L 64.449219 15.363281 L 64.449219 49.6875 L 62.929688 49.6875 Z M 62.929688 15.363281 " fill-opacity="1" fill-rule="nonzero"/><path fill="#000000" d="M 68.019531 28.035156 L 69.539062 28.035156 L 69.539062 33.554688 L 68.019531 33.554688 Z M 68.019531 28.035156 " fill-opacity="1" fill-rule="nonzero"/><path fill="#000000" d="M 58.207031 28.035156 L 59.726562 28.035156 L 59.726562 33.554688 L 58.207031 33.554688 Z M 58.207031 28.035156 " fill-opacity="1" fill-rule="nonzero"/><path fill="#000000" d="M 58.964844 52.839844 L 67.691406 52.839844 L 67.691406 54.359375 L 58.964844 54.359375 Z M 58.964844 52.839844 " fill-opacity="1" fill-rule="nonzero"/><path fill="#000000" d="M 58.964844 65.820312 L 67.691406 65.820312 L 67.691406 67.339844 L 58.964844 67.339844 Z M 58.964844 65.820312 " fill-opacity="1" fill-rule="nonzero"/><path fill="#b8bcba" d="M 37.492188 24.589844 L 23.867188 24.589844 L 25.386719 14.121094 L 35.972656 14.121094 Z M 37.492188 24.589844 " fill-opacity="1" fill-rule="nonzero"/><path fill="#000000" d="M 37.492188 25.351562 L 23.867188 25.351562 C 23.449219 25.351562 23.109375 25.023438 23.09375 24.605469 C 23.09375 24.566406 23.09375 24.527344 23.109375 24.476562 L 24.628906 14.007812 C 24.691406 13.640625 25.007812 13.359375 25.386719 13.359375 L 35.972656 13.359375 C 36.351562 13.359375 36.667969 13.640625 36.730469 14.007812 L 38.25 24.476562 C 38.316406 24.894531 38.023438 25.277344 37.617188 25.339844 C 37.566406 25.351562 37.53125 25.351562 37.492188 25.351562 Z M 24.742188 23.832031 L 36.617188 23.832031 L 35.3125 14.878906 L 26.046875 14.878906 Z M 24.742188 23.832031 " fill-opacity="1" fill-rule="nonzero"/><path fill="#000000" d="M 29.921875 24.589844 L 31.441406 24.589844 L 31.441406 72.871094 L 29.921875 72.871094 Z M 29.921875 24.589844 " fill-opacity="1" fill-rule="nonzero"/><g clip-path="url(#168cbb5778)"><path fill="#000000" d="M 27.515625 72.113281 L 34.136719 72.113281 L 34.136719 73.632812 L 27.515625 73.632812 Z M 27.515625 72.113281 " fill-opacity="1" fill-rule="nonzero"/></g><path fill="#a87140" d="M 56.496094 72.871094 L 53.207031 72.871094 L 51.75 68.238281 L 56.496094 68.238281 Z M 56.496094 72.871094 " fill-opacity="1" fill-rule="nonzero"/><g clip-path="url(#e136c8f415)"><path fill="#000000" d="M 56.496094 73.632812 L 53.207031 73.632812 C 52.875 73.632812 52.570312 73.414062 52.472656 73.097656 L 51.027344 68.464844 C 50.953125 68.238281 50.988281 67.984375 51.128906 67.792969 C 51.269531 67.589844 51.507812 67.476562 51.75 67.476562 L 56.496094 67.476562 C 56.914062 67.476562 57.257812 67.820312 57.257812 68.238281 L 57.257812 72.871094 C 57.257812 73.289062 56.914062 73.632812 56.496094 73.632812 Z M 53.761719 72.113281 L 55.738281 72.113281 L 55.738281 68.996094 L 52.789062 68.996094 Z M 53.761719 72.113281 " fill-opacity="1" fill-rule="nonzero"/></g><path fill="#a87140" d="M 21.234375 72.871094 L 24.539062 72.871094 L 25.996094 68.238281 L 21.234375 68.238281 Z M 21.234375 72.871094 " fill-opacity="1" fill-rule="nonzero"/><g clip-path="url(#c723b42ef2)"><path fill="#000000" d="M 24.539062 73.632812 L 21.234375 73.632812 C 20.816406 73.632812 20.472656 73.289062 20.472656 72.871094 L 20.472656 68.238281 C 20.472656 67.820312 20.816406 67.476562 21.234375 67.476562 L 25.996094 67.476562 C 26.234375 67.476562 26.464844 67.589844 26.601562 67.792969 C 26.753906 67.984375 26.792969 68.238281 26.714844 68.464844 L 25.273438 73.097656 C 25.171875 73.414062 24.867188 73.632812 24.539062 73.632812 Z M 21.992188 72.113281 L 23.980469 72.113281 L 24.957031 68.996094 L 21.992188 68.996094 Z M 21.992188 72.113281 " fill-opacity="1" fill-rule="nonzero"/></g><path fill="#bb844c" d="M 19.890625 59.816406 L 57.332031 59.816406 C 58.230469 59.816406 58.964844 60.550781 58.964844 61.449219 L 58.964844 66.617188 C 58.964844 67.515625 58.230469 68.25 57.332031 68.25 L 19.890625 68.25 C 18.992188 68.25 18.257812 67.515625 18.257812 66.617188 L 18.257812 61.449219 C 18.257812 60.550781 18.992188 59.816406 19.890625 59.816406 Z M 19.890625 59.816406 " fill-opacity="1" fill-rule="nonzero"/><g clip-path="url(#8da8092b99)"><path fill="#000000" d="M 57.320312 68.996094 L 19.890625 68.996094 C 18.574219 68.996094 17.5 67.921875 17.5 66.605469 L 17.5 61.449219 C 17.5 60.132812 18.574219 59.058594 19.890625 59.058594 L 57.320312 59.058594 C 58.648438 59.058594 59.714844 60.121094 59.726562 61.449219 L 59.726562 66.605469 C 59.714844 67.933594 58.648438 68.996094 57.320312 68.996094 Z M 19.890625 60.578125 C 19.410156 60.578125 19.019531 60.96875 19.019531 61.449219 L 19.019531 66.605469 C 19.019531 67.085938 19.410156 67.476562 19.890625 67.476562 L 57.320312 67.476562 C 57.800781 67.488281 58.195312 67.097656 58.207031 66.617188 C 58.207031 66.617188 58.207031 66.605469 58.207031 66.605469 L 58.207031 61.449219 C 58.207031 60.96875 57.8125 60.578125 57.332031 60.578125 C 57.332031 60.578125 57.320312 60.578125 57.320312 60.578125 Z M 19.890625 60.578125 " fill-opacity="1" fill-rule="nonzero"/></g><path fill="#c6cdc9" d="M 23.222656 51.382812 L 53.992188 51.382812 C 56.726562 51.382812 58.953125 53.613281 58.953125 56.347656 L 58.953125 58.171875 C 58.953125 59.070312 58.21875 59.804688 57.320312 59.804688 L 19.890625 59.804688 C 18.992188 59.804688 18.269531 59.082031 18.257812 58.183594 L 18.257812 56.347656 C 18.257812 53.613281 20.488281 51.382812 23.222656 51.382812 Z M 23.222656 51.382812 " fill-opacity="1" fill-rule="nonzero"/><g clip-path="url(#18298aa408)"><path fill="#000000" d="M 57.320312 60.578125 L 19.890625 60.578125 C 18.574219 60.578125 17.5 59.5 17.5 58.183594 L 17.5 56.347656 C 17.511719 53.195312 20.070312 50.636719 23.222656 50.625 L 54.003906 50.625 C 57.15625 50.636719 59.714844 53.195312 59.726562 56.347656 L 59.726562 58.183594 C 59.714844 59.511719 58.648438 60.578125 57.320312 60.578125 Z M 23.222656 52.144531 C 20.90625 52.144531 19.019531 54.03125 19.019531 56.347656 L 19.019531 58.183594 C 19.019531 58.664062 19.410156 59.058594 19.890625 59.058594 L 57.320312 59.058594 C 57.800781 59.070312 58.195312 58.675781 58.207031 58.195312 C 58.207031 58.195312 58.207031 58.183594 58.207031 58.183594 L 58.207031 56.347656 C 58.207031 54.03125 56.320312 52.144531 54.003906 52.144531 Z M 23.222656 52.144531 " fill-opacity="1" fill-rule="nonzero"/></g><path fill="#b8bcba" d="M 24.84375 38.316406 L 52.167969 38.316406 C 54.394531 38.316406 56.128906 39.949219 55.925781 41.835938 L 54.863281 51.382812 L 22.144531 51.382812 L 21.082031 41.835938 C 20.878906 39.949219 22.613281 38.316406 24.84375 38.316406 Z M 24.84375 38.316406 " fill-opacity="1" fill-rule="nonzero"/><path fill="#000000" d="M 54.863281 52.144531 L 22.144531 52.144531 C 21.753906 52.144531 21.4375 51.851562 21.386719 51.472656 L 20.335938 41.925781 C 20.222656 40.886719 20.5625 39.847656 21.273438 39.078125 C 22.132812 38.113281 23.4375 37.558594 24.84375 37.558594 L 52.167969 37.558594 C 53.574219 37.558594 54.875 38.113281 55.738281 39.078125 C 56.445312 39.847656 56.789062 40.886719 56.675781 41.925781 L 55.625 51.472656 C 55.574219 51.851562 55.257812 52.144531 54.863281 52.144531 Z M 22.828125 50.625 L 54.179688 50.625 L 55.167969 41.761719 C 55.230469 41.152344 55.015625 40.546875 54.597656 40.089844 C 54.027344 39.445312 53.140625 39.078125 52.167969 39.078125 L 24.84375 39.078125 C 23.867188 39.078125 22.980469 39.445312 22.410156 40.089844 C 21.992188 40.546875 21.777344 41.152344 21.84375 41.761719 Z M 22.828125 50.625 " fill-opacity="1" fill-rule="nonzero"/><g fill="#000000" fill-opacity="1"><g transform="translate(113.14531, 52.359138)"><g><path d="M 18.03125 -20.46875 L 18.03125 0 L 15.359375 0 L 15.359375 -9.28125 L 4.9375 -9.28125 L 4.9375 0 L 2.265625 0 L 2.265625 -20.46875 L 4.9375 -20.46875 L 4.9375 -11.484375 L 15.359375 -11.484375 L 15.359375 -20.46875 Z M 18.03125 -20.46875 "/></g></g></g><g fill="#000000" fill-opacity="1"><g transform="translate(133.45786, 52.359138)"><g><path d="M 9.28125 0.265625 C 7.769531 0.265625 6.398438 -0.078125 5.171875 -0.765625 C 3.953125 -1.453125 2.992188 -2.425781 2.296875 -3.6875 C 1.609375 -4.945312 1.265625 -6.410156 1.265625 -8.078125 C 1.265625 -9.722656 1.617188 -11.175781 2.328125 -12.4375 C 3.046875 -13.695312 4.019531 -14.664062 5.25 -15.34375 C 6.488281 -16.019531 7.867188 -16.359375 9.390625 -16.359375 C 10.921875 -16.359375 12.300781 -16.019531 13.53125 -15.34375 C 14.769531 -14.664062 15.742188 -13.695312 16.453125 -12.4375 C 17.171875 -11.1875 17.53125 -9.734375 17.53125 -8.078125 C 17.53125 -6.410156 17.160156 -4.945312 16.421875 -3.6875 C 15.691406 -2.425781 14.695312 -1.453125 13.4375 -0.765625 C 12.1875 -0.078125 10.800781 0.265625 9.28125 0.265625 Z M 9.28125 -2.078125 C 10.238281 -2.078125 11.132812 -2.300781 11.96875 -2.75 C 12.8125 -3.207031 13.492188 -3.882812 14.015625 -4.78125 C 14.535156 -5.6875 14.796875 -6.785156 14.796875 -8.078125 C 14.796875 -9.367188 14.539062 -10.460938 14.03125 -11.359375 C 13.519531 -12.265625 12.851562 -12.9375 12.03125 -13.375 C 11.207031 -13.8125 10.316406 -14.03125 9.359375 -14.03125 C 8.378906 -14.03125 7.484375 -13.8125 6.671875 -13.375 C 5.859375 -12.9375 5.207031 -12.265625 4.71875 -11.359375 C 4.238281 -10.460938 4 -9.367188 4 -8.078125 C 4 -6.765625 4.238281 -5.65625 4.71875 -4.75 C 5.195312 -3.851562 5.835938 -3.179688 6.640625 -2.734375 C 7.441406 -2.296875 8.320312 -2.078125 9.28125 -2.078125 Z M 9.28125 -2.078125 "/></g></g></g><g fill="#000000" fill-opacity="1"><g transform="translate(152.244035, 52.359138)"><g><path d="M 21.609375 -16.375 C 22.859375 -16.375 23.972656 -16.113281 24.953125 -15.59375 C 25.929688 -15.082031 26.703125 -14.304688 27.265625 -13.265625 C 27.835938 -12.234375 28.125 -10.972656 28.125 -9.484375 L 28.125 0 L 25.484375 0 L 25.484375 -9.09375 C 25.484375 -10.707031 25.085938 -11.9375 24.296875 -12.78125 C 23.503906 -13.632812 22.429688 -14.0625 21.078125 -14.0625 C 19.691406 -14.0625 18.585938 -13.613281 17.765625 -12.71875 C 16.941406 -11.832031 16.53125 -10.546875 16.53125 -8.859375 L 16.53125 0 L 13.890625 0 L 13.890625 -9.09375 C 13.890625 -10.707031 13.492188 -11.9375 12.703125 -12.78125 C 11.910156 -13.632812 10.835938 -14.0625 9.484375 -14.0625 C 8.097656 -14.0625 6.992188 -13.613281 6.171875 -12.71875 C 5.347656 -11.832031 4.9375 -10.546875 4.9375 -8.859375 L 4.9375 0 L 2.265625 0 L 2.265625 -16.09375 L 4.9375 -16.09375 L 4.9375 -13.765625 C 5.457031 -14.609375 6.160156 -15.253906 7.046875 -15.703125 C 7.941406 -16.148438 8.929688 -16.375 10.015625 -16.375 C 11.359375 -16.375 12.550781 -16.070312 13.59375 -15.46875 C 14.632812 -14.863281 15.40625 -13.972656 15.90625 -12.796875 C 16.363281 -13.929688 17.109375 -14.8125 18.140625 -15.4375 C 19.179688 -16.0625 20.335938 -16.375 21.609375 -16.375 Z M 21.609375 -16.375 "/></g></g></g><g fill="#000000" fill-opacity="1"><g transform="translate(182.478037, 52.359138)"><g><path d="M 16.9375 -8.65625 C 16.9375 -8.144531 16.910156 -7.609375 16.859375 -7.046875 L 4 -7.046875 C 4.09375 -5.460938 4.632812 -4.222656 5.625 -3.328125 C 6.613281 -2.441406 7.8125 -2 9.21875 -2 C 10.375 -2 11.335938 -2.265625 12.109375 -2.796875 C 12.878906 -3.335938 13.421875 -4.0625 13.734375 -4.96875 L 16.625 -4.96875 C 16.1875 -3.414062 15.320312 -2.15625 14.03125 -1.1875 C 12.738281 -0.21875 11.132812 0.265625 9.21875 0.265625 C 7.6875 0.265625 6.316406 -0.078125 5.109375 -0.765625 C 3.910156 -1.453125 2.96875 -2.425781 2.28125 -3.6875 C 1.601562 -4.945312 1.265625 -6.410156 1.265625 -8.078125 C 1.265625 -9.734375 1.597656 -11.1875 2.265625 -12.4375 C 2.929688 -13.695312 3.863281 -14.664062 5.0625 -15.34375 C 6.269531 -16.019531 7.65625 -16.359375 9.21875 -16.359375 C 10.75 -16.359375 12.097656 -16.023438 13.265625 -15.359375 C 14.441406 -14.691406 15.347656 -13.773438 15.984375 -12.609375 C 16.617188 -11.441406 16.9375 -10.125 16.9375 -8.65625 Z M 14.1875 -9.21875 C 14.1875 -10.238281 13.957031 -11.113281 13.5 -11.84375 C 13.050781 -12.582031 12.441406 -13.140625 11.671875 -13.515625 C 10.898438 -13.898438 10.039062 -14.09375 9.09375 -14.09375 C 7.75 -14.09375 6.601562 -13.660156 5.65625 -12.796875 C 4.707031 -11.941406 4.160156 -10.75 4.015625 -9.21875 Z M 14.1875 -9.21875 "/></g></g></g><g fill="#000000" fill-opacity="1"><g transform="translate(200.67714, 52.359138)"><g/></g></g><g fill="#000000" fill-opacity="1"><g transform="translate(208.514494, 52.359138)"><g><path d="M 17.96875 0 L 15.296875 -2.703125 C 14.296875 -1.660156 13.226562 -0.890625 12.09375 -0.390625 C 10.957031 0.109375 9.675781 0.359375 8.25 0.359375 C 6.84375 0.359375 5.59375 0.101562 4.5 -0.40625 C 3.414062 -0.914062 2.578125 -1.640625 1.984375 -2.578125 C 1.390625 -3.523438 1.09375 -4.625 1.09375 -5.875 C 1.09375 -7.300781 1.492188 -8.554688 2.296875 -9.640625 C 3.109375 -10.734375 4.3125 -11.59375 5.90625 -12.21875 C 5.28125 -12.957031 4.828125 -13.640625 4.546875 -14.265625 C 4.273438 -14.890625 4.140625 -15.578125 4.140625 -16.328125 C 4.140625 -17.179688 4.359375 -17.957031 4.796875 -18.65625 C 5.234375 -19.351562 5.863281 -19.894531 6.6875 -20.28125 C 7.507812 -20.675781 8.460938 -20.875 9.546875 -20.875 C 10.597656 -20.875 11.515625 -20.664062 12.296875 -20.25 C 13.078125 -19.84375 13.664062 -19.269531 14.0625 -18.53125 C 14.457031 -17.800781 14.632812 -16.988281 14.59375 -16.09375 L 11.921875 -16.09375 C 11.941406 -16.894531 11.71875 -17.523438 11.25 -17.984375 C 10.78125 -18.441406 10.171875 -18.671875 9.421875 -18.671875 C 8.640625 -18.671875 8.007812 -18.445312 7.53125 -18 C 7.050781 -17.5625 6.8125 -17.003906 6.8125 -16.328125 C 6.8125 -15.734375 6.972656 -15.160156 7.296875 -14.609375 C 7.617188 -14.066406 8.160156 -13.394531 8.921875 -12.59375 L 15.03125 -6.453125 L 15.5625 -7.28125 L 17.5625 -10.625 L 20.4375 -10.625 L 18.03125 -6.453125 C 17.695312 -5.867188 17.304688 -5.253906 16.859375 -4.609375 L 21.46875 0 Z M 8.25 -1.9375 C 9.300781 -1.9375 10.253906 -2.140625 11.109375 -2.546875 C 11.960938 -2.960938 12.769531 -3.601562 13.53125 -4.46875 L 7.515625 -10.515625 C 5.015625 -9.554688 3.765625 -8.035156 3.765625 -5.953125 C 3.765625 -4.804688 4.175781 -3.847656 5 -3.078125 C 5.832031 -2.316406 6.914062 -1.9375 8.25 -1.9375 Z M 8.25 -1.9375 "/></g></g></g><g fill="#000000" fill-opacity="1"><g transform="translate(230.206656, 52.359138)"><g/></g></g><g fill="#000000" fill-opacity="1"><g transform="translate(238.04401, 52.359138)"><g><path d="M 17.765625 -14.53125 C 17.191406 -15.726562 16.367188 -16.65625 15.296875 -17.3125 C 14.222656 -17.96875 12.96875 -18.296875 11.53125 -18.296875 C 10.101562 -18.296875 8.816406 -17.96875 7.671875 -17.3125 C 6.523438 -16.65625 5.625 -15.710938 4.96875 -14.484375 C 4.320312 -13.265625 4 -11.851562 4 -10.25 C 4 -8.644531 4.320312 -7.234375 4.96875 -6.015625 C 5.625 -4.804688 6.523438 -3.875 7.671875 -3.21875 C 8.816406 -2.5625 10.101562 -2.234375 11.53125 -2.234375 C 13.53125 -2.234375 15.175781 -2.828125 16.46875 -4.015625 C 17.757812 -5.210938 18.515625 -6.828125 18.734375 -8.859375 L 10.5625 -8.859375 L 10.5625 -11.046875 L 21.578125 -11.046875 L 21.578125 -8.984375 C 21.421875 -7.296875 20.890625 -5.753906 19.984375 -4.359375 C 19.085938 -2.960938 17.90625 -1.859375 16.4375 -1.046875 C 14.96875 -0.234375 13.332031 0.171875 11.53125 0.171875 C 9.632812 0.171875 7.90625 -0.269531 6.34375 -1.15625 C 4.78125 -2.050781 3.539062 -3.289062 2.625 -4.875 C 1.71875 -6.457031 1.265625 -8.25 1.265625 -10.25 C 1.265625 -12.238281 1.71875 -14.03125 2.625 -15.625 C 3.539062 -17.226562 4.78125 -18.472656 6.34375 -19.359375 C 7.90625 -20.253906 9.632812 -20.703125 11.53125 -20.703125 C 13.707031 -20.703125 15.628906 -20.160156 17.296875 -19.078125 C 18.972656 -18.003906 20.195312 -16.488281 20.96875 -14.53125 Z M 17.765625 -14.53125 "/></g></g></g><g fill="#000000" fill-opacity="1"><g transform="translate(260.880956, 52.359138)"><g><path d="M 1.265625 -8.109375 C 1.265625 -9.742188 1.597656 -11.179688 2.265625 -12.421875 C 2.929688 -13.671875 3.84375 -14.640625 5 -15.328125 C 6.164062 -16.015625 7.460938 -16.359375 8.890625 -16.359375 C 10.304688 -16.359375 11.53125 -16.050781 12.5625 -15.4375 C 13.601562 -14.832031 14.378906 -14.070312 14.890625 -13.15625 L 14.890625 -16.09375 L 17.59375 -16.09375 L 17.59375 0 L 14.890625 0 L 14.890625 -3 C 14.359375 -2.050781 13.566406 -1.269531 12.515625 -0.65625 C 11.472656 -0.0390625 10.253906 0.265625 8.859375 0.265625 C 7.429688 0.265625 6.140625 -0.0820312 4.984375 -0.78125 C 3.835938 -1.488281 2.929688 -2.476562 2.265625 -3.75 C 1.597656 -5.03125 1.265625 -6.484375 1.265625 -8.109375 Z M 14.890625 -8.078125 C 14.890625 -9.285156 14.644531 -10.335938 14.15625 -11.234375 C 13.664062 -12.140625 13.003906 -12.832031 12.171875 -13.3125 C 11.335938 -13.789062 10.421875 -14.03125 9.421875 -14.03125 C 8.421875 -14.03125 7.507812 -13.796875 6.6875 -13.328125 C 5.863281 -12.859375 5.207031 -12.171875 4.71875 -11.265625 C 4.238281 -10.367188 4 -9.316406 4 -8.109375 C 4 -6.867188 4.238281 -5.789062 4.71875 -4.875 C 5.207031 -3.96875 5.863281 -3.273438 6.6875 -2.796875 C 7.507812 -2.316406 8.421875 -2.078125 9.421875 -2.078125 C 10.421875 -2.078125 11.335938 -2.316406 12.171875 -2.796875 C 13.003906 -3.273438 13.664062 -3.96875 14.15625 -4.875 C 14.644531 -5.789062 14.890625 -6.859375 14.890625 -8.078125 Z M 14.890625 -8.078125 "/></g></g></g><g fill="#000000" fill-opacity="1"><g transform="translate(280.723848, 52.359138)"><g><path d="M 4.9375 -13.46875 C 5.40625 -14.394531 6.070312 -15.109375 6.9375 -15.609375 C 7.8125 -16.117188 8.875 -16.375 10.125 -16.375 L 10.125 -13.625 L 9.421875 -13.625 C 6.429688 -13.625 4.9375 -12 4.9375 -8.75 L 4.9375 0 L 2.265625 0 L 2.265625 -16.09375 L 4.9375 -16.09375 Z M 4.9375 -13.46875 "/></g></g></g><g fill="#000000" fill-opacity="1"><g transform="translate(291.672669, 52.359138)"><g><path d="M 1.265625 -8.109375 C 1.265625 -9.742188 1.597656 -11.179688 2.265625 -12.421875 C 2.929688 -13.671875 3.84375 -14.640625 5 -15.328125 C 6.164062 -16.015625 7.472656 -16.359375 8.921875 -16.359375 C 10.171875 -16.359375 11.332031 -16.066406 12.40625 -15.484375 C 13.488281 -14.910156 14.316406 -14.15625 14.890625 -13.21875 L 14.890625 -21.71875 L 17.59375 -21.71875 L 17.59375 0 L 14.890625 0 L 14.890625 -3.03125 C 14.359375 -2.0625 13.570312 -1.269531 12.53125 -0.65625 C 11.5 -0.0390625 10.285156 0.265625 8.890625 0.265625 C 7.460938 0.265625 6.164062 -0.0820312 5 -0.78125 C 3.84375 -1.488281 2.929688 -2.476562 2.265625 -3.75 C 1.597656 -5.03125 1.265625 -6.484375 1.265625 -8.109375 Z M 14.890625 -8.078125 C 14.890625 -9.285156 14.644531 -10.335938 14.15625 -11.234375 C 13.664062 -12.140625 13.003906 -12.832031 12.171875 -13.3125 C 11.335938 -13.789062 10.421875 -14.03125 9.421875 -14.03125 C 8.421875 -14.03125 7.507812 -13.796875 6.6875 -13.328125 C 5.863281 -12.859375 5.207031 -12.171875 4.71875 -11.265625 C 4.238281 -10.367188 4 -9.316406 4 -8.109375 C 4 -6.867188 4.238281 -5.789062 4.71875 -4.875 C 5.207031 -3.96875 5.863281 -3.273438 6.6875 -2.796875 C 7.507812 -2.316406 8.421875 -2.078125 9.421875 -2.078125 C 10.421875 -2.078125 11.335938 -2.316406 12.171875 -2.796875 C 13.003906 -3.273438 13.664062 -3.96875 14.15625 -4.875 C 14.644531 -5.789062 14.890625 -6.859375 14.890625 -8.078125 Z M 14.890625 -8.078125 "/></g></g></g><g fill="#000000" fill-opacity="1"><g transform="translate(311.515561, 52.359138)"><g><path d="M 16.9375 -8.65625 C 16.9375 -8.144531 16.910156 -7.609375 16.859375 -7.046875 L 4 -7.046875 C 4.09375 -5.460938 4.632812 -4.222656 5.625 -3.328125 C 6.613281 -2.441406 7.8125 -2 9.21875 -2 C 10.375 -2 11.335938 -2.265625 12.109375 -2.796875 C 12.878906 -3.335938 13.421875 -4.0625 13.734375 -4.96875 L 16.625 -4.96875 C 16.1875 -3.414062 15.320312 -2.15625 14.03125 -1.1875 C 12.738281 -0.21875 11.132812 0.265625 9.21875 0.265625 C 7.6875 0.265625 6.316406 -0.078125 5.109375 -0.765625 C 3.910156 -1.453125 2.96875 -2.425781 2.28125 -3.6875 C 1.601562 -4.945312 1.265625 -6.410156 1.265625 -8.078125 C 1.265625 -9.734375 1.597656 -11.1875 2.265625 -12.4375 C 2.929688 -13.695312 3.863281 -14.664062 5.0625 -15.34375 C 6.269531 -16.019531 7.65625 -16.359375 9.21875 -16.359375 C 10.75 -16.359375 12.097656 -16.023438 13.265625 -15.359375 C 14.441406 -14.691406 15.347656 -13.773438 15.984375 -12.609375 C 16.617188 -11.441406 16.9375 -10.125 16.9375 -8.65625 Z M 14.1875 -9.21875 C 14.1875 -10.238281 13.957031 -11.113281 13.5 -11.84375 C 13.050781 -12.582031 12.441406 -13.140625 11.671875 -13.515625 C 10.898438 -13.898438 10.039062 -14.09375 9.09375 -14.09375 C 7.75 -14.09375 6.601562 -13.660156 5.65625 -12.796875 C 4.707031 -11.941406 4.160156 -10.75 4.015625 -9.21875 Z M 14.1875 -9.21875 "/></g></g></g><g fill="#000000" fill-opacity="1"><g transform="translate(329.714665, 52.359138)"><g><path d="M 10.09375 -16.375 C 12.050781 -16.375 13.632812 -15.78125 14.84375 -14.59375 C 16.0625 -13.414062 16.671875 -11.710938 16.671875 -9.484375 L 16.671875 0 L 14.03125 0 L 14.03125 -9.09375 C 14.03125 -10.707031 13.628906 -11.9375 12.828125 -12.78125 C 12.023438 -13.632812 10.929688 -14.0625 9.546875 -14.0625 C 8.128906 -14.0625 7.003906 -13.617188 6.171875 -12.734375 C 5.347656 -11.859375 4.9375 -10.578125 4.9375 -8.890625 L 4.9375 0 L 2.265625 0 L 2.265625 -16.09375 L 4.9375 -16.09375 L 4.9375 -13.796875 C 5.457031 -14.617188 6.171875 -15.253906 7.078125 -15.703125 C 7.992188 -16.148438 9 -16.375 10.09375 -16.375 Z M 10.09375 -16.375 "/></g></g></g></svg>