<svg xmlns="http://www.w3.org/2000/svg" xmlns:xlink="http://www.w3.org/1999/xlink" width="500" zoomAndPan="magnify" viewBox="0 0 375 82.499998" height="110" preserveAspectRatio="xMidYMid meet" version="1.0"><defs><g/><clipPath id="b6f6009085"><path d="M 1.128906 0 L 373.871094 0 L 373.871094 82.003906 L 1.128906 82.003906 Z M 1.128906 0 " clip-rule="nonzero"/></clipPath><clipPath id="0495c1fd1a"><path d="M 9.328125 36 L 30 36 L 30 62.621094 L 9.328125 62.621094 Z M 9.328125 36 " clip-rule="nonzero"/></clipPath><clipPath id="6c199d03c1"><path d="M 30 32 L 52 32 L 52 62.621094 L 30 62.621094 Z M 30 32 " clip-rule="nonzero"/></clipPath><clipPath id="bce45ec475"><path d="M 52 27 L 72.695312 27 L 72.695312 62.621094 L 52 62.621094 Z M 52 27 " clip-rule="nonzero"/></clipPath><clipPath id="9a3c534bfa"><path d="M 53 8.199219 L 72 8.199219 L 72 26 L 53 26 Z M 53 8.199219 " clip-rule="nonzero"/></clipPath></defs><g clip-path="url(#b6f6009085)"><path fill="#ffffff" d="M 1.128906 0 L 373.871094 0 L 373.871094 439.835938 L 1.128906 439.835938 Z M 1.128906 0 " fill-opacity="1" fill-rule="nonzero"/><path fill="#ffffff" d="M 1.128906 0 L 373.871094 0 L 373.871094 82.003906 L 1.128906 82.003906 Z M 1.128906 0 " fill-opacity="1" fill-rule="nonzero"/><path fill="#db1f26" d="M 1.128906 0 L 373.871094 0 L 373.871094 82.003906 L 1.128906 82.003906 Z M 1.128906 0 " fill-opacity="1" fill-rule="nonzero"/></g><g clip-path="url(#0495c1fd1a)"><path fill="#df5a49" d="M 23.871094 62.621094 L 15.234375 62.621094 C 14.417969 62.621094 13.75 61.953125 13.75 61.136719 L 13.75 51.089844 L 10.894531 51.089844 C 10.339844 51.089844 9.820312 50.792969 9.5625 50.277344 C 9.339844 49.757812 9.375 49.164062 9.710938 48.71875 L 18.382812 37.191406 C 18.644531 36.820312 19.089844 36.597656 19.570312 36.597656 C 20.015625 36.597656 20.460938 36.820312 20.757812 37.191406 L 29.28125 48.609375 C 29.539062 48.867188 29.6875 49.238281 29.6875 49.609375 C 29.6875 50.425781 29.023438 51.089844 28.207031 51.089844 L 25.351562 51.089844 L 25.351562 61.136719 C 25.351562 61.953125 24.683594 62.621094 23.871094 62.621094 Z M 23.871094 62.621094 " fill-opacity="1" fill-rule="evenodd"/></g><g clip-path="url(#6c199d03c1)"><path fill="#5fd3ae" d="M 45.367188 62.621094 L 36.695312 62.621094 C 35.878906 62.621094 35.25 61.953125 35.25 61.136719 L 35.25 46.753906 L 32.394531 46.753906 C 31.839844 46.753906 31.320312 46.421875 31.058594 45.9375 C 30.800781 45.417969 30.875 44.828125 31.207031 44.382812 L 39.84375 32.851562 C 40.140625 32.480469 40.585938 32.257812 41.03125 32.257812 C 41.511719 32.257812 41.957031 32.480469 42.21875 32.851562 L 50.78125 44.269531 C 51.039062 44.53125 51.1875 44.863281 51.1875 45.269531 C 51.1875 46.085938 50.519531 46.753906 49.703125 46.753906 L 46.851562 46.753906 L 46.851562 61.136719 C 46.851562 61.953125 46.183594 62.621094 45.367188 62.621094 Z M 45.367188 62.621094 " fill-opacity="1" fill-rule="evenodd"/></g><g clip-path="url(#bce45ec475)"><path fill="#2e9cf5" d="M 66.867188 62.621094 L 58.191406 62.621094 C 57.378906 62.621094 56.710938 61.953125 56.710938 61.136719 L 56.710938 42.417969 L 53.855469 42.417969 C 53.300781 42.417969 52.78125 42.082031 52.558594 41.601562 C 52.300781 41.082031 52.335938 40.488281 52.671875 40.042969 L 61.34375 28.515625 C 61.601562 28.144531 62.046875 27.921875 62.53125 27.921875 C 62.976562 27.921875 63.417969 28.144531 63.714844 28.515625 L 72.277344 39.933594 C 72.5 40.191406 72.6875 40.527344 72.6875 40.933594 C 72.6875 41.75 72.019531 42.417969 71.203125 42.417969 C 71.167969 42.417969 71.167969 42.417969 71.167969 42.417969 L 68.347656 42.417969 L 68.347656 61.136719 C 68.347656 61.953125 67.683594 62.621094 66.867188 62.621094 Z M 66.867188 62.621094 " fill-opacity="1" fill-rule="evenodd"/></g><path fill="#fcbe37" d="M 15.046875 35.523438 C 14.714844 35.523438 14.417969 35.410156 14.15625 35.226562 C 13.714844 34.890625 13.453125 34.296875 13.566406 33.742188 L 14.378906 29.480469 L 11.230469 26.511719 C 10.820312 26.105469 10.636719 25.511719 10.820312 24.957031 C 11.007812 24.4375 11.488281 24.03125 12.046875 23.957031 L 16.382812 23.398438 L 18.199219 19.46875 C 18.457031 18.949219 18.976562 18.617188 19.570312 18.617188 C 20.125 18.617188 20.644531 18.949219 20.902344 19.46875 L 22.757812 23.398438 L 27.058594 23.957031 C 27.613281 24.03125 28.09375 24.4375 28.28125 24.957031 C 28.464844 25.511719 28.28125 26.105469 27.871094 26.511719 L 24.722656 29.480469 L 25.539062 33.742188 C 25.648438 34.296875 25.390625 34.890625 24.945312 35.226562 C 24.460938 35.558594 23.871094 35.597656 23.351562 35.335938 L 19.570312 33.222656 L 15.753906 35.335938 C 15.53125 35.449219 15.269531 35.523438 15.046875 35.523438 Z M 15.046875 35.523438 " fill-opacity="1" fill-rule="evenodd"/><path fill="#fcbe37" d="M 36.507812 30.664062 C 36.210938 30.664062 35.917969 30.554688 35.65625 30.367188 C 35.175781 30.035156 34.953125 29.441406 35.0625 28.886719 L 35.878906 24.621094 L 32.726562 21.65625 C 32.285156 21.25 32.136719 20.65625 32.320312 20.101562 C 32.507812 19.582031 32.988281 19.171875 33.542969 19.097656 L 37.84375 18.582031 L 39.695312 14.613281 C 39.957031 14.09375 40.476562 13.761719 41.03125 13.761719 C 41.625 13.761719 42.144531 14.09375 42.367188 14.613281 L 44.21875 18.582031 L 48.519531 19.097656 C 49.113281 19.171875 49.59375 19.582031 49.777344 20.101562 C 49.925781 20.65625 49.777344 21.25 49.371094 21.65625 L 46.183594 24.621094 L 47 28.886719 C 47.109375 29.441406 46.886719 30.035156 46.441406 30.367188 C 45.960938 30.703125 45.332031 30.738281 44.847656 30.480469 L 41.03125 28.367188 L 37.25 30.480469 C 37.027344 30.589844 36.769531 30.664062 36.507812 30.664062 Z M 36.507812 30.664062 " fill-opacity="1" fill-rule="evenodd"/><g clip-path="url(#9a3c534bfa)"><path fill="#fcbe37" d="M 67.050781 25.105469 C 66.792969 25.105469 66.570312 25.03125 66.347656 24.917969 L 62.53125 22.804688 L 58.710938 24.917969 C 58.230469 25.179688 57.601562 25.140625 57.117188 24.808594 C 56.671875 24.472656 56.449219 23.882812 56.5625 23.324219 L 57.378906 19.0625 L 54.191406 16.097656 C 53.78125 15.6875 53.632812 15.09375 53.820312 14.539062 C 53.96875 14.019531 54.449219 13.613281 55.042969 13.539062 L 59.34375 12.984375 L 61.195312 9.054688 C 61.417969 8.535156 61.9375 8.199219 62.53125 8.199219 C 63.085938 8.199219 63.605469 8.535156 63.863281 9.054688 L 65.71875 12.984375 L 70.015625 13.539062 C 70.609375 13.613281 71.054688 14.019531 71.242188 14.539062 C 71.425781 15.09375 71.277344 15.6875 70.871094 16.097656 L 67.683594 19.0625 L 68.496094 23.324219 C 68.609375 23.882812 68.386719 24.472656 67.90625 24.808594 C 67.644531 24.992188 67.347656 25.105469 67.050781 25.105469 Z M 67.050781 25.105469 " fill-opacity="1" fill-rule="evenodd"/></g><g fill="#000000" fill-opacity="1"><g transform="translate(138.871715, 51.065508)"><g><path d="M 18.03125 -20.46875 L 18.03125 0 L 15.359375 0 L 15.359375 -9.28125 L 4.9375 -9.28125 L 4.9375 0 L 2.265625 0 L 2.265625 -20.46875 L 4.9375 -20.46875 L 4.9375 -11.484375 L 15.359375 -11.484375 L 15.359375 -20.46875 Z M 18.03125 -20.46875 "/></g></g></g><g fill="#000000" fill-opacity="1"><g transform="translate(159.184265, 51.065508)"><g><path d="M 9.28125 0.265625 C 7.769531 0.265625 6.398438 -0.078125 5.171875 -0.765625 C 3.953125 -1.453125 2.992188 -2.425781 2.296875 -3.6875 C 1.609375 -4.945312 1.265625 -6.410156 1.265625 -8.078125 C 1.265625 -9.722656 1.617188 -11.175781 2.328125 -12.4375 C 3.046875 -13.695312 4.019531 -14.664062 5.25 -15.34375 C 6.488281 -16.019531 7.867188 -16.359375 9.390625 -16.359375 C 10.921875 -16.359375 12.300781 -16.019531 13.53125 -15.34375 C 14.769531 -14.664062 15.742188 -13.695312 16.453125 -12.4375 C 17.171875 -11.1875 17.53125 -9.734375 17.53125 -8.078125 C 17.53125 -6.410156 17.160156 -4.945312 16.421875 -3.6875 C 15.691406 -2.425781 14.695312 -1.453125 13.4375 -0.765625 C 12.1875 -0.078125 10.800781 0.265625 9.28125 0.265625 Z M 9.28125 -2.078125 C 10.238281 -2.078125 11.132812 -2.300781 11.96875 -2.75 C 12.8125 -3.207031 13.492188 -3.882812 14.015625 -4.78125 C 14.535156 -5.6875 14.796875 -6.785156 14.796875 -8.078125 C 14.796875 -9.367188 14.539062 -10.460938 14.03125 -11.359375 C 13.519531 -12.265625 12.851562 -12.9375 12.03125 -13.375 C 11.207031 -13.8125 10.316406 -14.03125 9.359375 -14.03125 C 8.378906 -14.03125 7.484375 -13.8125 6.671875 -13.375 C 5.859375 -12.9375 5.207031 -12.265625 4.71875 -11.359375 C 4.238281 -10.460938 4 -9.367188 4 -8.078125 C 4 -6.765625 4.238281 -5.65625 4.71875 -4.75 C 5.195312 -3.851562 5.835938 -3.179688 6.640625 -2.734375 C 7.441406 -2.296875 8.320312 -2.078125 9.28125 -2.078125 Z M 9.28125 -2.078125 "/></g></g></g><g fill="#000000" fill-opacity="1"><g transform="translate(177.97044, 51.065508)"><g><path d="M 5.515625 -13.890625 L 5.515625 -4.40625 C 5.515625 -3.625 5.679688 -3.070312 6.015625 -2.75 C 6.347656 -2.425781 6.925781 -2.265625 7.75 -2.265625 L 9.71875 -2.265625 L 9.71875 0 L 7.3125 0 C 5.820312 0 4.703125 -0.34375 3.953125 -1.03125 C 3.210938 -1.71875 2.84375 -2.84375 2.84375 -4.40625 L 2.84375 -13.890625 L 0.765625 -13.890625 L 0.765625 -16.09375 L 2.84375 -16.09375 L 2.84375 -20.140625 L 5.515625 -20.140625 L 5.515625 -16.09375 L 9.71875 -16.09375 L 9.71875 -13.890625 Z M 5.515625 -13.890625 "/></g></g></g><g fill="#000000" fill-opacity="1"><g transform="translate(188.655074, 51.065508)"><g><path d="M 13.421875 -11.890625 L 13.421875 -9.625 L 1.703125 -9.625 L 1.703125 -11.890625 Z M 13.421875 -11.890625 "/></g></g></g><g fill="#000000" fill-opacity="1"><g transform="translate(204.828797, 51.065508)"><g><path d="M 14.859375 -20.46875 L 14.859375 -18.296875 L 9.28125 -18.296875 L 9.28125 0 L 6.609375 0 L 6.609375 -18.296875 L 1 -18.296875 L 1 -20.46875 Z M 14.859375 -20.46875 "/></g></g></g><g fill="#000000" fill-opacity="1"><g transform="translate(220.708985, 51.065508)"><g><path d="M 4.9375 -13.46875 C 5.40625 -14.394531 6.070312 -15.109375 6.9375 -15.609375 C 7.8125 -16.117188 8.875 -16.375 10.125 -16.375 L 10.125 -13.625 L 9.421875 -13.625 C 6.429688 -13.625 4.9375 -12 4.9375 -8.75 L 4.9375 0 L 2.265625 0 L 2.265625 -16.09375 L 4.9375 -16.09375 Z M 4.9375 -13.46875 "/></g></g></g><g fill="#000000" fill-opacity="1"><g transform="translate(231.657806, 51.065508)"><g><path d="M 16.9375 -8.65625 C 16.9375 -8.144531 16.910156 -7.609375 16.859375 -7.046875 L 4 -7.046875 C 4.09375 -5.460938 4.632812 -4.222656 5.625 -3.328125 C 6.613281 -2.441406 7.8125 -2 9.21875 -2 C 10.375 -2 11.335938 -2.265625 12.109375 -2.796875 C 12.878906 -3.335938 13.421875 -4.0625 13.734375 -4.96875 L 16.625 -4.96875 C 16.1875 -3.414062 15.320312 -2.15625 14.03125 -1.1875 C 12.738281 -0.21875 11.132812 0.265625 9.21875 0.265625 C 7.6875 0.265625 6.316406 -0.078125 5.109375 -0.765625 C 3.910156 -1.453125 2.96875 -2.425781 2.28125 -3.6875 C 1.601562 -4.945312 1.265625 -6.410156 1.265625 -8.078125 C 1.265625 -9.734375 1.597656 -11.1875 2.265625 -12.4375 C 2.929688 -13.695312 3.863281 -14.664062 5.0625 -15.34375 C 6.269531 -16.019531 7.65625 -16.359375 9.21875 -16.359375 C 10.75 -16.359375 12.097656 -16.023438 13.265625 -15.359375 C 14.441406 -14.691406 15.347656 -13.773438 15.984375 -12.609375 C 16.617188 -11.441406 16.9375 -10.125 16.9375 -8.65625 Z M 14.1875 -9.21875 C 14.1875 -10.238281 13.957031 -11.113281 13.5 -11.84375 C 13.050781 -12.582031 12.441406 -13.140625 11.671875 -13.515625 C 10.898438 -13.898438 10.039062 -14.09375 9.09375 -14.09375 C 7.75 -14.09375 6.601562 -13.660156 5.65625 -12.796875 C 4.707031 -11.941406 4.160156 -10.75 4.015625 -9.21875 Z M 14.1875 -9.21875 "/></g></g></g><g fill="#000000" fill-opacity="1"><g transform="translate(249.85691, 51.065508)"><g><path d="M 10.09375 -16.375 C 12.050781 -16.375 13.632812 -15.78125 14.84375 -14.59375 C 16.0625 -13.414062 16.671875 -11.710938 16.671875 -9.484375 L 16.671875 0 L 14.03125 0 L 14.03125 -9.09375 C 14.03125 -10.707031 13.628906 -11.9375 12.828125 -12.78125 C 12.023438 -13.632812 10.929688 -14.0625 9.546875 -14.0625 C 8.128906 -14.0625 7.003906 -13.617188 6.171875 -12.734375 C 5.347656 -11.859375 4.9375 -10.578125 4.9375 -8.890625 L 4.9375 0 L 2.265625 0 L 2.265625 -16.09375 L 4.9375 -16.09375 L 4.9375 -13.796875 C 5.457031 -14.617188 6.171875 -15.253906 7.078125 -15.703125 C 7.992188 -16.148438 9 -16.375 10.09375 -16.375 Z M 10.09375 -16.375 "/></g></g></g><g fill="#000000" fill-opacity="1"><g transform="translate(268.643085, 51.065508)"><g><path d="M 1.265625 -8.109375 C 1.265625 -9.742188 1.597656 -11.179688 2.265625 -12.421875 C 2.929688 -13.671875 3.84375 -14.640625 5 -15.328125 C 6.164062 -16.015625 7.472656 -16.359375 8.921875 -16.359375 C 10.171875 -16.359375 11.332031 -16.066406 12.40625 -15.484375 C 13.488281 -14.910156 14.316406 -14.15625 14.890625 -13.21875 L 14.890625 -21.71875 L 17.59375 -21.71875 L 17.59375 0 L 14.890625 0 L 14.890625 -3.03125 C 14.359375 -2.0625 13.570312 -1.269531 12.53125 -0.65625 C 11.5 -0.0390625 10.285156 0.265625 8.890625 0.265625 C 7.460938 0.265625 6.164062 -0.0820312 5 -0.78125 C 3.84375 -1.488281 2.929688 -2.476562 2.265625 -3.75 C 1.597656 -5.03125 1.265625 -6.484375 1.265625 -8.109375 Z M 14.890625 -8.078125 C 14.890625 -9.285156 14.644531 -10.335938 14.15625 -11.234375 C 13.664062 -12.140625 13.003906 -12.832031 12.171875 -13.3125 C 11.335938 -13.789062 10.421875 -14.03125 9.421875 -14.03125 C 8.421875 -14.03125 7.507812 -13.796875 6.6875 -13.328125 C 5.863281 -12.859375 5.207031 -12.171875 4.71875 -11.265625 C 4.238281 -10.367188 4 -9.316406 4 -8.109375 C 4 -6.867188 4.238281 -5.789062 4.71875 -4.875 C 5.207031 -3.96875 5.863281 -3.273438 6.6875 -2.796875 C 7.507812 -2.316406 8.421875 -2.078125 9.421875 -2.078125 C 10.421875 -2.078125 11.335938 -2.316406 12.171875 -2.796875 C 13.003906 -3.273438 13.664062 -3.96875 14.15625 -4.875 C 14.644531 -5.789062 14.890625 -6.859375 14.890625 -8.078125 Z M 14.890625 -8.078125 "/></g></g></g><g fill="#000000" fill-opacity="1"><g transform="translate(288.480613, 51.065508)"><g/></g></g></svg>