<svg xmlns="http://www.w3.org/2000/svg" xmlns:xlink="http://www.w3.org/1999/xlink" width="500" zoomAndPan="magnify" viewBox="0 0 375 82.499998" height="110" preserveAspectRatio="xMidYMid meet" version="1.0"><defs><g/><clipPath id="058cdd982e"><path d="M 1.128906 0 L 373.871094 0 L 373.871094 82.003906 L 1.128906 82.003906 Z M 1.128906 0 " clip-rule="nonzero"/></clipPath><clipPath id="53bfb5a5db"><path d="M 18 10.195312 L 81 10.195312 L 81 79 L 18 79 Z M 18 10.195312 " clip-rule="nonzero"/></clipPath></defs><g clip-path="url(#058cdd982e)"><path fill="#ffffff" d="M 1.128906 0 L 373.871094 0 L 373.871094 82.003906 L 1.128906 82.003906 Z M 1.128906 0 " fill-opacity="1" fill-rule="nonzero"/><path fill="#ffffff" d="M 1.128906 0 L 373.871094 0 L 373.871094 82.003906 L 1.128906 82.003906 Z M 1.128906 0 " fill-opacity="1" fill-rule="nonzero"/></g><g clip-path="url(#53bfb5a5db)"><path fill="#ffe0e2" d="M 41.378906 48.089844 C 40.210938 48.355469 39.207031 48.796875 38.347656 49.34375 C 38.488281 48.441406 38.511719 47.46875 38.363281 46.429688 C 38.003906 43.847656 36.40625 42.285156 34.515625 41.703125 L 34.394531 40.375 C 35.898438 39.976562 37.011719 38.605469 37.011719 36.976562 C 37.011719 35.8125 36.4375 34.777344 35.5625 34.136719 C 35.636719 33.921875 35.679688 33.695312 35.679688 33.457031 C 35.679688 32.796875 35.367188 32.214844 34.886719 31.832031 L 34.496094 28.46875 L 37.332031 28.46875 L 37.332031 10.257812 L 30.4375 10.257812 L 30.4375 28.46875 L 33.011719 28.46875 L 32.597656 31.640625 C 31.949219 31.988281 31.511719 32.671875 31.511719 33.457031 C 31.511719 33.65625 31.539062 33.847656 31.59375 34.027344 C 30.625 34.65625 29.984375 35.742188 29.984375 36.976562 C 29.984375 38.507812 30.972656 39.816406 32.339844 40.292969 L 32.179688 41.472656 C 29.671875 41.714844 27.296875 43.511719 26.980469 46.789062 C 26.875 47.886719 26.957031 48.898438 27.167969 49.824219 C 26.394531 49.511719 25.535156 49.277344 24.589844 49.160156 C 17.648438 48.308594 15.472656 57.769531 21.996094 60.183594 C 22.367188 60.320312 22.738281 60.433594 23.101562 60.523438 C 23.03125 60.621094 22.957031 60.722656 22.886719 60.828125 C 19.015625 66.621094 26.566406 72.777344 31.652344 68.058594 C 32.570312 67.207031 33.234375 66.277344 33.710938 65.332031 C 34.109375 66.273438 34.683594 67.21875 35.488281 68.113281 C 40.148438 73.296875 48.050781 67.59375 44.738281 61.511719 C 44.308594 60.714844 43.804688 60.042969 43.253906 59.464844 C 43.929688 59.300781 44.617188 59.054688 45.3125 58.710938 C 51.585938 55.632812 48.164062 46.542969 41.378906 48.089844 Z M 31.421875 36.976562 C 31.421875 36.214844 31.832031 35.546875 32.441406 35.183594 C 32.773438 35.402344 33.167969 35.527344 33.59375 35.527344 C 33.980469 35.527344 34.339844 35.425781 34.648438 35.242188 C 35.207031 35.617188 35.574219 36.253906 35.574219 36.976562 C 35.574219 37.855469 35.03125 38.609375 34.261719 38.914062 L 34.21875 38.429688 L 32.605469 38.382812 L 32.542969 38.828125 C 31.878906 38.480469 31.421875 37.78125 31.421875 36.976562 Z M 73.113281 56.496094 C 71.945312 56.765625 70.941406 57.203125 70.082031 57.75 C 70.222656 56.851562 70.246094 55.878906 70.097656 54.835938 C 69.738281 52.257812 68.140625 50.695312 66.25 50.113281 L 66.128906 48.78125 C 67.632812 48.382812 68.742188 47.011719 68.742188 45.386719 C 68.742188 44.21875 68.171875 43.1875 67.296875 42.546875 C 67.371094 42.332031 67.414062 42.105469 67.414062 41.867188 C 67.414062 41.207031 67.101562 40.621094 66.621094 40.242188 L 66.230469 36.875 L 69.066406 36.875 L 69.066406 18.667969 L 62.171875 18.667969 L 62.171875 36.875 L 64.746094 36.875 L 64.328125 40.046875 C 63.683594 40.398438 63.242188 41.082031 63.242188 41.867188 C 63.242188 42.0625 63.273438 42.253906 63.324219 42.4375 C 62.359375 43.066406 61.71875 44.152344 61.71875 45.386719 C 61.71875 46.917969 62.707031 48.222656 64.074219 48.703125 L 63.914062 49.878906 C 61.40625 50.121094 59.027344 51.921875 58.714844 55.199219 C 58.609375 56.296875 58.6875 57.308594 58.902344 58.234375 C 58.125 57.917969 57.269531 57.683594 56.320312 57.570312 C 49.378906 56.714844 47.207031 66.175781 53.726562 68.589844 C 54.101562 68.730469 54.472656 68.839844 54.835938 68.929688 C 54.761719 69.03125 54.691406 69.132812 54.621094 69.238281 C 50.75 75.027344 58.296875 81.183594 63.386719 76.46875 C 64.304688 75.613281 64.96875 74.6875 65.441406 73.742188 C 65.839844 74.683594 66.414062 75.625 67.222656 76.523438 C 71.882812 81.707031 79.785156 76.003906 76.472656 69.917969 C 76.042969 69.125 75.539062 68.449219 74.988281 67.875 C 75.664062 67.707031 76.351562 67.464844 77.046875 67.121094 C 83.316406 64.039062 79.898438 54.953125 73.113281 56.496094 Z M 63.15625 45.386719 C 63.15625 44.621094 63.566406 43.957031 64.175781 43.59375 C 64.507812 43.808594 64.902344 43.9375 65.328125 43.9375 C 65.714844 43.9375 66.074219 43.832031 66.382812 43.652344 C 66.9375 44.023438 67.308594 44.664062 67.308594 45.386719 C 67.308594 46.265625 66.761719 47.015625 65.996094 47.324219 L 65.949219 46.835938 L 64.339844 46.789062 L 64.277344 47.234375 C 63.609375 46.890625 63.15625 46.191406 63.15625 45.386719 Z M 63.15625 45.386719 " fill-opacity="1" fill-rule="nonzero"/></g><path fill="#02a164" d="M 36.820312 21.558594 L 36.871094 26.820312 L 30.898438 21.558594 L 30.859375 21.558594 L 30.859375 26.910156 L 36.886719 26.910156 L 36.886719 21.558594 Z M 68.554688 29.96875 L 68.601562 35.226562 L 62.628906 29.96875 L 62.59375 29.96875 L 62.59375 35.320312 L 68.621094 35.320312 L 68.621094 29.96875 Z M 36.898438 13.792969 L 36.898438 11.367188 L 30.871094 11.367188 L 30.871094 16.71875 L 36.898438 16.71875 L 36.898438 16.652344 L 30.9375 11.402344 L 36.875 11.394531 Z M 68.628906 22.21875 L 68.628906 19.773438 L 62.605469 19.773438 L 62.605469 25.125 L 68.628906 25.125 L 68.628906 25.058594 L 62.667969 19.8125 L 68.609375 19.800781 Z M 32.871094 51.902344 C 30.789062 51.902344 29.101562 53.566406 29.101562 55.613281 C 29.101562 57.660156 30.789062 59.320312 32.871094 59.320312 C 34.953125 59.320312 36.640625 57.660156 36.640625 55.613281 C 36.640625 53.566406 34.953125 51.902344 32.871094 51.902344 Z M 35.042969 57.472656 L 31.453125 53.269531 C 31.453125 53.269531 33.890625 51.71875 35.40625 54.140625 C 36.402344 55.726562 35.042969 57.472656 35.042969 57.472656 Z M 64.605469 60.3125 C 62.523438 60.3125 60.835938 61.972656 60.835938 64.019531 C 60.835938 66.066406 62.523438 67.730469 64.605469 67.730469 C 66.6875 67.730469 68.375 66.066406 68.375 64.019531 C 68.375 61.972656 66.6875 60.3125 64.605469 60.3125 Z M 66.777344 65.878906 L 63.1875 61.675781 C 63.1875 61.675781 65.625 60.128906 67.140625 62.546875 C 68.136719 64.136719 66.777344 65.878906 66.777344 65.878906 Z M 66.777344 65.878906 " fill-opacity="1" fill-rule="nonzero"/><path fill="#ed9835" d="M 37.011719 36.976562 C 37.011719 35.8125 36.4375 34.777344 35.5625 34.136719 C 35.636719 33.921875 35.679688 33.695312 35.679688 33.457031 C 35.679688 32.796875 35.367188 32.214844 34.886719 31.832031 L 34.496094 28.46875 L 34.464844 28.195312 L 33.046875 28.195312 L 33.011719 28.46875 L 32.597656 31.640625 C 31.949219 31.988281 31.511719 32.671875 31.511719 33.457031 C 31.511719 33.65625 31.539062 33.847656 31.59375 34.027344 C 30.625 34.65625 29.984375 35.742188 29.984375 36.976562 C 29.984375 38.507812 30.972656 39.816406 32.339844 40.292969 L 32.179688 41.472656 L 31.957031 43.09375 L 34.644531 43.097656 L 34.515625 41.703125 L 34.394531 40.375 C 35.898438 39.976562 37.011719 38.605469 37.011719 36.976562 Z M 34.261719 38.914062 L 34.21875 38.429688 L 32.605469 38.382812 L 32.542969 38.828125 C 31.878906 38.480469 31.421875 37.78125 31.421875 36.976562 C 31.421875 36.214844 31.832031 35.546875 32.441406 35.183594 C 32.773438 35.402344 33.167969 35.527344 33.59375 35.527344 C 33.980469 35.527344 34.339844 35.425781 34.648438 35.242188 C 35.207031 35.617188 35.574219 36.253906 35.574219 36.976562 C 35.574219 37.855469 35.03125 38.609375 34.261719 38.914062 Z M 68.742188 45.386719 C 68.742188 44.21875 68.171875 43.1875 67.296875 42.546875 C 67.371094 42.332031 67.414062 42.105469 67.414062 41.867188 C 67.414062 41.207031 67.101562 40.621094 66.621094 40.242188 L 66.230469 36.875 L 66.199219 36.601562 L 64.78125 36.601562 L 64.746094 36.875 L 64.328125 40.046875 C 63.683594 40.398438 63.242188 41.082031 63.242188 41.867188 C 63.242188 42.0625 63.273438 42.253906 63.324219 42.4375 C 62.359375 43.066406 61.71875 44.152344 61.71875 45.386719 C 61.71875 46.917969 62.707031 48.222656 64.074219 48.703125 L 63.914062 49.878906 L 63.691406 51.5 L 66.378906 51.507812 L 66.25 50.113281 L 66.128906 48.78125 C 67.632812 48.382812 68.742188 47.011719 68.742188 45.386719 Z M 65.996094 47.324219 L 65.949219 46.835938 L 64.339844 46.789062 L 64.277344 47.234375 C 63.609375 46.890625 63.15625 46.191406 63.15625 45.386719 C 63.15625 44.621094 63.566406 43.957031 64.175781 43.59375 C 64.507812 43.808594 64.902344 43.9375 65.328125 43.9375 C 65.714844 43.9375 66.074219 43.832031 66.382812 43.652344 C 66.9375 44.023438 67.308594 44.664062 67.308594 45.386719 C 67.308594 46.265625 66.761719 47.015625 65.996094 47.324219 Z M 65.996094 47.324219 " fill-opacity="1" fill-rule="nonzero"/><path fill="#13c380" d="M 36.875 11.390625 L 30.9375 11.40625 L 36.898438 16.652344 L 36.921875 16.675781 L 36.898438 13.792969 Z M 36.875 11.390625 " fill-opacity="1" fill-rule="nonzero"/><path fill="#13c380" d="M 68.628906 22.21875 L 68.609375 19.800781 L 62.667969 19.8125 L 68.628906 25.0625 L 68.65625 25.085938 Z M 68.628906 22.21875 " fill-opacity="1" fill-rule="nonzero"/><path fill="#13c380" d="M 36.820312 21.535156 L 30.882812 21.546875 L 30.898438 21.558594 L 36.871094 26.816406 L 36.820312 21.558594 Z M 36.820312 21.535156 " fill-opacity="1" fill-rule="nonzero"/><path fill="#13c380" d="M 68.554688 29.945312 L 62.617188 29.957031 L 62.628906 29.96875 L 68.601562 35.226562 L 68.554688 29.96875 Z M 68.554688 29.945312 " fill-opacity="1" fill-rule="nonzero"/><path fill="#13c380" d="M 31.453125 53.269531 L 35.042969 57.472656 C 35.042969 57.472656 36.402344 55.726562 35.40625 54.140625 C 33.890625 51.71875 31.453125 53.269531 31.453125 53.269531 Z M 31.453125 53.269531 " fill-opacity="1" fill-rule="nonzero"/><path fill="#13c380" d="M 63.1875 61.675781 L 66.777344 65.882812 C 66.777344 65.882812 68.136719 64.136719 67.140625 62.546875 C 65.625 60.128906 63.1875 61.675781 63.1875 61.675781 Z M 63.1875 61.675781 " fill-opacity="1" fill-rule="nonzero"/><g fill="#000000" fill-opacity="1"><g transform="translate(91.527937, 27.628767)"><g><path d="M 12.5625 -20.46875 L 12.5625 -5.34375 C 12.5625 -3.65625 12.039062 -2.304688 11 -1.296875 C 9.96875 -0.296875 8.601562 0.203125 6.90625 0.203125 C 5.175781 0.203125 3.789062 -0.304688 2.75 -1.328125 C 1.71875 -2.359375 1.203125 -3.765625 1.203125 -5.546875 L 3.875 -5.546875 C 3.894531 -4.546875 4.15625 -3.734375 4.65625 -3.109375 C 5.15625 -2.484375 5.90625 -2.171875 6.90625 -2.171875 C 7.894531 -2.171875 8.632812 -2.46875 9.125 -3.0625 C 9.613281 -3.664062 9.859375 -4.425781 9.859375 -5.34375 L 9.859375 -20.46875 Z M 12.5625 -20.46875 "/></g></g></g><g fill="#000000" fill-opacity="1"><g transform="translate(107.085241, 27.628767)"><g><path d="M 16.9375 -8.65625 C 16.9375 -8.144531 16.910156 -7.609375 16.859375 -7.046875 L 4 -7.046875 C 4.09375 -5.460938 4.632812 -4.222656 5.625 -3.328125 C 6.613281 -2.441406 7.8125 -2 9.21875 -2 C 10.375 -2 11.335938 -2.265625 12.109375 -2.796875 C 12.878906 -3.335938 13.421875 -4.0625 13.734375 -4.96875 L 16.625 -4.96875 C 16.1875 -3.414062 15.320312 -2.15625 14.03125 -1.1875 C 12.738281 -0.21875 11.132812 0.265625 9.21875 0.265625 C 7.6875 0.265625 6.316406 -0.078125 5.109375 -0.765625 C 3.910156 -1.453125 2.96875 -2.425781 2.28125 -3.6875 C 1.601562 -4.945312 1.265625 -6.410156 1.265625 -8.078125 C 1.265625 -9.734375 1.597656 -11.1875 2.265625 -12.4375 C 2.929688 -13.695312 3.863281 -14.664062 5.0625 -15.34375 C 6.269531 -16.019531 7.65625 -16.359375 9.21875 -16.359375 C 10.75 -16.359375 12.097656 -16.023438 13.265625 -15.359375 C 14.441406 -14.691406 15.347656 -13.773438 15.984375 -12.609375 C 16.617188 -11.441406 16.9375 -10.125 16.9375 -8.65625 Z M 14.1875 -9.21875 C 14.1875 -10.238281 13.957031 -11.113281 13.5 -11.84375 C 13.050781 -12.582031 12.441406 -13.140625 11.671875 -13.515625 C 10.898438 -13.898438 10.039062 -14.09375 9.09375 -14.09375 C 7.75 -14.09375 6.601562 -13.660156 5.65625 -12.796875 C 4.707031 -11.941406 4.160156 -10.75 4.015625 -9.21875 Z M 14.1875 -9.21875 "/></g></g></g><g fill="#000000" fill-opacity="1"><g transform="translate(125.284345, 27.628767)"><g><path d="M 23.6875 -16.09375 L 18.671875 0 L 15.90625 0 L 12.03125 -12.765625 L 8.15625 0 L 5.40625 0 L 0.359375 -16.09375 L 3.078125 -16.09375 L 6.78125 -2.578125 L 10.78125 -16.09375 L 13.5 -16.09375 L 17.40625 -2.546875 L 21.046875 -16.09375 Z M 23.6875 -16.09375 "/></g></g></g><g fill="#000000" fill-opacity="1"><g transform="translate(149.35413, 27.628767)"><g><path d="M 16.9375 -8.65625 C 16.9375 -8.144531 16.910156 -7.609375 16.859375 -7.046875 L 4 -7.046875 C 4.09375 -5.460938 4.632812 -4.222656 5.625 -3.328125 C 6.613281 -2.441406 7.8125 -2 9.21875 -2 C 10.375 -2 11.335938 -2.265625 12.109375 -2.796875 C 12.878906 -3.335938 13.421875 -4.0625 13.734375 -4.96875 L 16.625 -4.96875 C 16.1875 -3.414062 15.320312 -2.15625 14.03125 -1.1875 C 12.738281 -0.21875 11.132812 0.265625 9.21875 0.265625 C 7.6875 0.265625 6.316406 -0.078125 5.109375 -0.765625 C 3.910156 -1.453125 2.96875 -2.425781 2.28125 -3.6875 C 1.601562 -4.945312 1.265625 -6.410156 1.265625 -8.078125 C 1.265625 -9.734375 1.597656 -11.1875 2.265625 -12.4375 C 2.929688 -13.695312 3.863281 -14.664062 5.0625 -15.34375 C 6.269531 -16.019531 7.65625 -16.359375 9.21875 -16.359375 C 10.75 -16.359375 12.097656 -16.023438 13.265625 -15.359375 C 14.441406 -14.691406 15.347656 -13.773438 15.984375 -12.609375 C 16.617188 -11.441406 16.9375 -10.125 16.9375 -8.65625 Z M 14.1875 -9.21875 C 14.1875 -10.238281 13.957031 -11.113281 13.5 -11.84375 C 13.050781 -12.582031 12.441406 -13.140625 11.671875 -13.515625 C 10.898438 -13.898438 10.039062 -14.09375 9.09375 -14.09375 C 7.75 -14.09375 6.601562 -13.660156 5.65625 -12.796875 C 4.707031 -11.941406 4.160156 -10.75 4.015625 -9.21875 Z M 14.1875 -9.21875 "/></g></g></g><g fill="#000000" fill-opacity="1"><g transform="translate(167.553234, 27.628767)"><g><path d="M 4.9375 -21.71875 L 4.9375 0 L 2.265625 0 L 2.265625 -21.71875 Z M 4.9375 -21.71875 "/></g></g></g><g fill="#000000" fill-opacity="1"><g transform="translate(174.774168, 27.628767)"><g><path d="M 4.9375 -13.46875 C 5.40625 -14.394531 6.070312 -15.109375 6.9375 -15.609375 C 7.8125 -16.117188 8.875 -16.375 10.125 -16.375 L 10.125 -13.625 L 9.421875 -13.625 C 6.429688 -13.625 4.9375 -12 4.9375 -8.75 L 4.9375 0 L 2.265625 0 L 2.265625 -16.09375 L 4.9375 -16.09375 Z M 4.9375 -13.46875 "/></g></g></g><g fill="#000000" fill-opacity="1"><g transform="translate(185.72299, 27.628767)"><g><path d="M 16.125 -16.09375 L 6.4375 7.578125 L 3.671875 7.578125 L 6.84375 -0.171875 L 0.359375 -16.09375 L 3.3125 -16.09375 L 8.375 -3.046875 L 13.359375 -16.09375 Z M 16.125 -16.09375 "/></g></g></g><g fill="#000000" fill-opacity="1"><g transform="translate(202.248956, 27.628767)"><g/></g></g><g fill="#000000" fill-opacity="1"><g transform="translate(210.08631, 27.628767)"><g><path d="M 17.96875 0 L 15.296875 -2.703125 C 14.296875 -1.660156 13.226562 -0.890625 12.09375 -0.390625 C 10.957031 0.109375 9.675781 0.359375 8.25 0.359375 C 6.84375 0.359375 5.59375 0.101562 4.5 -0.40625 C 3.414062 -0.914062 2.578125 -1.640625 1.984375 -2.578125 C 1.390625 -3.523438 1.09375 -4.625 1.09375 -5.875 C 1.09375 -7.300781 1.492188 -8.554688 2.296875 -9.640625 C 3.109375 -10.734375 4.3125 -11.59375 5.90625 -12.21875 C 5.28125 -12.957031 4.828125 -13.640625 4.546875 -14.265625 C 4.273438 -14.890625 4.140625 -15.578125 4.140625 -16.328125 C 4.140625 -17.179688 4.359375 -17.957031 4.796875 -18.65625 C 5.234375 -19.351562 5.863281 -19.894531 6.6875 -20.28125 C 7.507812 -20.675781 8.460938 -20.875 9.546875 -20.875 C 10.597656 -20.875 11.515625 -20.664062 12.296875 -20.25 C 13.078125 -19.84375 13.664062 -19.269531 14.0625 -18.53125 C 14.457031 -17.800781 14.632812 -16.988281 14.59375 -16.09375 L 11.921875 -16.09375 C 11.941406 -16.894531 11.71875 -17.523438 11.25 -17.984375 C 10.78125 -18.441406 10.171875 -18.671875 9.421875 -18.671875 C 8.640625 -18.671875 8.007812 -18.445312 7.53125 -18 C 7.050781 -17.5625 6.8125 -17.003906 6.8125 -16.328125 C 6.8125 -15.734375 6.972656 -15.160156 7.296875 -14.609375 C 7.617188 -14.066406 8.160156 -13.394531 8.921875 -12.59375 L 15.03125 -6.453125 L 15.5625 -7.28125 L 17.5625 -10.625 L 20.4375 -10.625 L 18.03125 -6.453125 C 17.695312 -5.867188 17.304688 -5.253906 16.859375 -4.609375 L 21.46875 0 Z M 8.25 -1.9375 C 9.300781 -1.9375 10.253906 -2.140625 11.109375 -2.546875 C 11.960938 -2.960938 12.769531 -3.601562 13.53125 -4.46875 L 7.515625 -10.515625 C 5.015625 -9.554688 3.765625 -8.035156 3.765625 -5.953125 C 3.765625 -4.804688 4.175781 -3.847656 5 -3.078125 C 5.832031 -2.316406 6.914062 -1.9375 8.25 -1.9375 Z M 8.25 -1.9375 "/></g></g></g><g fill="#000000" fill-opacity="1"><g transform="translate(231.778472, 27.628767)"><g/></g></g><g fill="#000000" fill-opacity="1"><g transform="translate(239.615826, 27.628767)"><g><path d="M 27.984375 -20.46875 L 22.046875 0 L 19.046875 0 L 14.296875 -16.46875 L 9.359375 0 L 6.40625 0.03125 L 0.671875 -20.46875 L 3.515625 -20.46875 L 7.984375 -3.109375 L 12.921875 -20.46875 L 15.90625 -20.46875 L 20.609375 -3.171875 L 25.109375 -20.46875 Z M 27.984375 -20.46875 "/></g></g></g><g fill="#000000" fill-opacity="1"><g transform="translate(268.264746, 27.628767)"><g><path d="M 1.265625 -8.109375 C 1.265625 -9.742188 1.597656 -11.179688 2.265625 -12.421875 C 2.929688 -13.671875 3.84375 -14.640625 5 -15.328125 C 6.164062 -16.015625 7.460938 -16.359375 8.890625 -16.359375 C 10.304688 -16.359375 11.53125 -16.050781 12.5625 -15.4375 C 13.601562 -14.832031 14.378906 -14.070312 14.890625 -13.15625 L 14.890625 -16.09375 L 17.59375 -16.09375 L 17.59375 0 L 14.890625 0 L 14.890625 -3 C 14.359375 -2.050781 13.566406 -1.269531 12.515625 -0.65625 C 11.472656 -0.0390625 10.253906 0.265625 8.859375 0.265625 C 7.429688 0.265625 6.140625 -0.0820312 4.984375 -0.78125 C 3.835938 -1.488281 2.929688 -2.476562 2.265625 -3.75 C 1.597656 -5.03125 1.265625 -6.484375 1.265625 -8.109375 Z M 14.890625 -8.078125 C 14.890625 -9.285156 14.644531 -10.335938 14.15625 -11.234375 C 13.664062 -12.140625 13.003906 -12.832031 12.171875 -13.3125 C 11.335938 -13.789062 10.421875 -14.03125 9.421875 -14.03125 C 8.421875 -14.03125 7.507812 -13.796875 6.6875 -13.328125 C 5.863281 -12.859375 5.207031 -12.171875 4.71875 -11.265625 C 4.238281 -10.367188 4 -9.316406 4 -8.109375 C 4 -6.867188 4.238281 -5.789062 4.71875 -4.875 C 5.207031 -3.96875 5.863281 -3.273438 6.6875 -2.796875 C 7.507812 -2.316406 8.421875 -2.078125 9.421875 -2.078125 C 10.421875 -2.078125 11.335938 -2.316406 12.171875 -2.796875 C 13.003906 -3.273438 13.664062 -3.96875 14.15625 -4.875 C 14.644531 -5.789062 14.890625 -6.859375 14.890625 -8.078125 Z M 14.890625 -8.078125 "/></g></g></g><g fill="#000000" fill-opacity="1"><g transform="translate(288.10765, 27.628767)"><g><path d="M 5.515625 -13.890625 L 5.515625 -4.40625 C 5.515625 -3.625 5.679688 -3.070312 6.015625 -2.75 C 6.347656 -2.425781 6.925781 -2.265625 7.75 -2.265625 L 9.71875 -2.265625 L 9.71875 0 L 7.3125 0 C 5.820312 0 4.703125 -0.34375 3.953125 -1.03125 C 3.210938 -1.71875 2.84375 -2.84375 2.84375 -4.40625 L 2.84375 -13.890625 L 0.765625 -13.890625 L 0.765625 -16.09375 L 2.84375 -16.09375 L 2.84375 -20.140625 L 5.515625 -20.140625 L 5.515625 -16.09375 L 9.71875 -16.09375 L 9.71875 -13.890625 Z M 5.515625 -13.890625 "/></g></g></g><g fill="#000000" fill-opacity="1"><g transform="translate(298.792283, 27.628767)"><g><path d="M 1.265625 -8.078125 C 1.265625 -9.734375 1.597656 -11.179688 2.265625 -12.421875 C 2.929688 -13.671875 3.851562 -14.640625 5.03125 -15.328125 C 6.21875 -16.015625 7.570312 -16.359375 9.09375 -16.359375 C 11.070312 -16.359375 12.703125 -15.875 13.984375 -14.90625 C 15.265625 -13.945312 16.113281 -12.617188 16.53125 -10.921875 L 13.65625 -10.921875 C 13.375 -11.898438 12.835938 -12.671875 12.046875 -13.234375 C 11.253906 -13.804688 10.269531 -14.09375 9.09375 -14.09375 C 7.570312 -14.09375 6.34375 -13.566406 5.40625 -12.515625 C 4.46875 -11.472656 4 -9.992188 4 -8.078125 C 4 -6.140625 4.46875 -4.640625 5.40625 -3.578125 C 6.34375 -2.523438 7.570312 -2 9.09375 -2 C 10.269531 -2 11.25 -2.269531 12.03125 -2.8125 C 12.820312 -3.363281 13.363281 -4.148438 13.65625 -5.171875 L 16.53125 -5.171875 C 16.101562 -3.523438 15.242188 -2.207031 13.953125 -1.21875 C 12.660156 -0.226562 11.039062 0.265625 9.09375 0.265625 C 7.570312 0.265625 6.21875 -0.078125 5.03125 -0.765625 C 3.851562 -1.453125 2.929688 -2.421875 2.265625 -3.671875 C 1.597656 -4.921875 1.265625 -6.390625 1.265625 -8.078125 Z M 1.265625 -8.078125 "/></g></g></g><g fill="#000000" fill-opacity="1"><g transform="translate(316.609796, 27.628767)"><g><path d="M 10.25 -16.375 C 11.457031 -16.375 12.550781 -16.113281 13.53125 -15.59375 C 14.507812 -15.082031 15.273438 -14.304688 15.828125 -13.265625 C 16.390625 -12.234375 16.671875 -10.972656 16.671875 -9.484375 L 16.671875 0 L 14.03125 0 L 14.03125 -9.09375 C 14.03125 -10.707031 13.628906 -11.9375 12.828125 -12.78125 C 12.023438 -13.632812 10.929688 -14.0625 9.546875 -14.0625 C 8.128906 -14.0625 7.003906 -13.617188 6.171875 -12.734375 C 5.347656 -11.859375 4.9375 -10.578125 4.9375 -8.890625 L 4.9375 0 L 2.265625 0 L 2.265625 -21.71875 L 4.9375 -21.71875 L 4.9375 -13.796875 C 5.457031 -14.617188 6.179688 -15.253906 7.109375 -15.703125 C 8.046875 -16.148438 9.09375 -16.375 10.25 -16.375 Z M 10.25 -16.375 "/></g></g></g><g fill="#000000" fill-opacity="1"><g transform="translate(335.395971, 27.628767)"><g><path d="M 16.9375 -8.65625 C 16.9375 -8.144531 16.910156 -7.609375 16.859375 -7.046875 L 4 -7.046875 C 4.09375 -5.460938 4.632812 -4.222656 5.625 -3.328125 C 6.613281 -2.441406 7.8125 -2 9.21875 -2 C 10.375 -2 11.335938 -2.265625 12.109375 -2.796875 C 12.878906 -3.335938 13.421875 -4.0625 13.734375 -4.96875 L 16.625 -4.96875 C 16.1875 -3.414062 15.320312 -2.15625 14.03125 -1.1875 C 12.738281 -0.21875 11.132812 0.265625 9.21875 0.265625 C 7.6875 0.265625 6.316406 -0.078125 5.109375 -0.765625 C 3.910156 -1.453125 2.96875 -2.425781 2.28125 -3.6875 C 1.601562 -4.945312 1.265625 -6.410156 1.265625 -8.078125 C 1.265625 -9.734375 1.597656 -11.1875 2.265625 -12.4375 C 2.929688 -13.695312 3.863281 -14.664062 5.0625 -15.34375 C 6.269531 -16.019531 7.65625 -16.359375 9.21875 -16.359375 C 10.75 -16.359375 12.097656 -16.023438 13.265625 -15.359375 C 14.441406 -14.691406 15.347656 -13.773438 15.984375 -12.609375 C 16.617188 -11.441406 16.9375 -10.125 16.9375 -8.65625 Z M 14.1875 -9.21875 C 14.1875 -10.238281 13.957031 -11.113281 13.5 -11.84375 C 13.050781 -12.582031 12.441406 -13.140625 11.671875 -13.515625 C 10.898438 -13.898438 10.039062 -14.09375 9.09375 -14.09375 C 7.75 -14.09375 6.601562 -13.660156 5.65625 -12.796875 C 4.707031 -11.941406 4.160156 -10.75 4.015625 -9.21875 Z M 14.1875 -9.21875 "/></g></g></g><g fill="#000000" fill-opacity="1"><g transform="translate(353.595075, 27.628767)"><g><path d="M 7.953125 0.265625 C 6.722656 0.265625 5.617188 0.0546875 4.640625 -0.359375 C 3.660156 -0.785156 2.882812 -1.375 2.3125 -2.125 C 1.75 -2.882812 1.4375 -3.753906 1.375 -4.734375 L 4.140625 -4.734375 C 4.210938 -3.921875 4.585938 -3.257812 5.265625 -2.75 C 5.941406 -2.25 6.828125 -2 7.921875 -2 C 8.941406 -2 9.742188 -2.222656 10.328125 -2.671875 C 10.921875 -3.117188 11.21875 -3.6875 11.21875 -4.375 C 11.21875 -5.082031 10.90625 -5.601562 10.28125 -5.9375 C 9.65625 -6.28125 8.6875 -6.617188 7.375 -6.953125 C 6.175781 -7.265625 5.195312 -7.582031 4.4375 -7.90625 C 3.6875 -8.226562 3.039062 -8.707031 2.5 -9.34375 C 1.96875 -9.988281 1.703125 -10.828125 1.703125 -11.859375 C 1.703125 -12.679688 1.945312 -13.4375 2.4375 -14.125 C 2.925781 -14.8125 3.617188 -15.351562 4.515625 -15.75 C 5.421875 -16.15625 6.453125 -16.359375 7.609375 -16.359375 C 9.390625 -16.359375 10.828125 -15.90625 11.921875 -15 C 13.015625 -14.101562 13.601562 -12.867188 13.6875 -11.296875 L 11.015625 -11.296875 C 10.953125 -12.140625 10.613281 -12.816406 10 -13.328125 C 9.382812 -13.835938 8.554688 -14.09375 7.515625 -14.09375 C 6.554688 -14.09375 5.789062 -13.882812 5.21875 -13.46875 C 4.65625 -13.0625 4.375 -12.523438 4.375 -11.859375 C 4.375 -11.328125 4.546875 -10.890625 4.890625 -10.546875 C 5.234375 -10.210938 5.660156 -9.941406 6.171875 -9.734375 C 6.691406 -9.523438 7.414062 -9.296875 8.34375 -9.046875 C 9.488281 -8.734375 10.425781 -8.421875 11.15625 -8.109375 C 11.882812 -7.804688 12.503906 -7.351562 13.015625 -6.75 C 13.535156 -6.144531 13.804688 -5.351562 13.828125 -4.375 C 13.828125 -3.488281 13.582031 -2.691406 13.09375 -1.984375 C 12.601562 -1.285156 11.910156 -0.734375 11.015625 -0.328125 C 10.128906 0.0664062 9.109375 0.265625 7.953125 0.265625 Z M 7.953125 0.265625 "/></g></g></g><g fill="#000000" fill-opacity="1"><g transform="translate(368.917083, 27.628767)"><g/></g></g><g fill="#000000" fill-opacity="1"><g transform="translate(144.002872, 68.63027)"><g><path d="M 1.265625 -8.109375 C 1.265625 -9.742188 1.597656 -11.179688 2.265625 -12.421875 C 2.929688 -13.671875 3.84375 -14.640625 5 -15.328125 C 6.164062 -16.015625 7.460938 -16.359375 8.890625 -16.359375 C 10.304688 -16.359375 11.53125 -16.050781 12.5625 -15.4375 C 13.601562 -14.832031 14.378906 -14.070312 14.890625 -13.15625 L 14.890625 -16.09375 L 17.59375 -16.09375 L 17.59375 0 L 14.890625 0 L 14.890625 -3 C 14.359375 -2.050781 13.566406 -1.269531 12.515625 -0.65625 C 11.472656 -0.0390625 10.253906 0.265625 8.859375 0.265625 C 7.429688 0.265625 6.140625 -0.0820312 4.984375 -0.78125 C 3.835938 -1.488281 2.929688 -2.476562 2.265625 -3.75 C 1.597656 -5.03125 1.265625 -6.484375 1.265625 -8.109375 Z M 14.890625 -8.078125 C 14.890625 -9.285156 14.644531 -10.335938 14.15625 -11.234375 C 13.664062 -12.140625 13.003906 -12.832031 12.171875 -13.3125 C 11.335938 -13.789062 10.421875 -14.03125 9.421875 -14.03125 C 8.421875 -14.03125 7.507812 -13.796875 6.6875 -13.328125 C 5.863281 -12.859375 5.207031 -12.171875 4.71875 -11.265625 C 4.238281 -10.367188 4 -9.316406 4 -8.109375 C 4 -6.867188 4.238281 -5.789062 4.71875 -4.875 C 5.207031 -3.96875 5.863281 -3.273438 6.6875 -2.796875 C 7.507812 -2.316406 8.421875 -2.078125 9.421875 -2.078125 C 10.421875 -2.078125 11.335938 -2.316406 12.171875 -2.796875 C 13.003906 -3.273438 13.664062 -3.96875 14.15625 -4.875 C 14.644531 -5.789062 14.890625 -6.859375 14.890625 -8.078125 Z M 14.890625 -8.078125 "/></g></g></g><g fill="#000000" fill-opacity="1"><g transform="translate(163.845764, 68.63027)"><g><path d="M 10.09375 -16.375 C 12.050781 -16.375 13.632812 -15.78125 14.84375 -14.59375 C 16.0625 -13.414062 16.671875 -11.710938 16.671875 -9.484375 L 16.671875 0 L 14.03125 0 L 14.03125 -9.09375 C 14.03125 -10.707031 13.628906 -11.9375 12.828125 -12.78125 C 12.023438 -13.632812 10.929688 -14.0625 9.546875 -14.0625 C 8.128906 -14.0625 7.003906 -13.617188 6.171875 -12.734375 C 5.347656 -11.859375 4.9375 -10.578125 4.9375 -8.890625 L 4.9375 0 L 2.265625 0 L 2.265625 -16.09375 L 4.9375 -16.09375 L 4.9375 -13.796875 C 5.457031 -14.617188 6.171875 -15.253906 7.078125 -15.703125 C 7.992188 -16.148438 9 -16.375 10.09375 -16.375 Z M 10.09375 -16.375 "/></g></g></g><g fill="#000000" fill-opacity="1"><g transform="translate(182.631939, 68.63027)"><g><path d="M 1.265625 -8.109375 C 1.265625 -9.742188 1.597656 -11.179688 2.265625 -12.421875 C 2.929688 -13.671875 3.84375 -14.640625 5 -15.328125 C 6.164062 -16.015625 7.472656 -16.359375 8.921875 -16.359375 C 10.171875 -16.359375 11.332031 -16.066406 12.40625 -15.484375 C 13.488281 -14.910156 14.316406 -14.15625 14.890625 -13.21875 L 14.890625 -21.71875 L 17.59375 -21.71875 L 17.59375 0 L 14.890625 0 L 14.890625 -3.03125 C 14.359375 -2.0625 13.570312 -1.269531 12.53125 -0.65625 C 11.5 -0.0390625 10.285156 0.265625 8.890625 0.265625 C 7.460938 0.265625 6.164062 -0.0820312 5 -0.78125 C 3.84375 -1.488281 2.929688 -2.476562 2.265625 -3.75 C 1.597656 -5.03125 1.265625 -6.484375 1.265625 -8.109375 Z M 14.890625 -8.078125 C 14.890625 -9.285156 14.644531 -10.335938 14.15625 -11.234375 C 13.664062 -12.140625 13.003906 -12.832031 12.171875 -13.3125 C 11.335938 -13.789062 10.421875 -14.03125 9.421875 -14.03125 C 8.421875 -14.03125 7.507812 -13.796875 6.6875 -13.328125 C 5.863281 -12.859375 5.207031 -12.171875 4.71875 -11.265625 C 4.238281 -10.367188 4 -9.316406 4 -8.109375 C 4 -6.867188 4.238281 -5.789062 4.71875 -4.875 C 5.207031 -3.96875 5.863281 -3.273438 6.6875 -2.796875 C 7.507812 -2.316406 8.421875 -2.078125 9.421875 -2.078125 C 10.421875 -2.078125 11.335938 -2.316406 12.171875 -2.796875 C 13.003906 -3.273438 13.664062 -3.96875 14.15625 -4.875 C 14.644531 -5.789062 14.890625 -6.859375 14.890625 -8.078125 Z M 14.890625 -8.078125 "/></g></g></g><g fill="#000000" fill-opacity="1"><g transform="translate(202.474831, 68.63027)"><g/></g></g><g fill="#000000" fill-opacity="1"><g transform="translate(210.312185, 68.63027)"><g><path d="M 8.890625 -16.359375 C 10.285156 -16.359375 11.503906 -16.050781 12.546875 -15.4375 C 13.597656 -14.832031 14.378906 -14.070312 14.890625 -13.15625 L 14.890625 -16.09375 L 17.59375 -16.09375 L 17.59375 0.359375 C 17.59375 1.816406 17.273438 3.117188 16.640625 4.265625 C 16.015625 5.410156 15.117188 6.304688 13.953125 6.953125 C 12.796875 7.597656 11.441406 7.921875 9.890625 7.921875 C 7.773438 7.921875 6.015625 7.421875 4.609375 6.421875 C 3.203125 5.429688 2.367188 4.070312 2.109375 2.34375 L 4.75 2.34375 C 5.050781 3.320312 5.660156 4.109375 6.578125 4.703125 C 7.492188 5.304688 8.597656 5.609375 9.890625 5.609375 C 11.359375 5.609375 12.554688 5.144531 13.484375 4.21875 C 14.421875 3.300781 14.890625 2.015625 14.890625 0.359375 L 14.890625 -3.03125 C 14.359375 -2.082031 13.570312 -1.296875 12.53125 -0.671875 C 11.5 -0.046875 10.285156 0.265625 8.890625 0.265625 C 7.460938 0.265625 6.164062 -0.0820312 5 -0.78125 C 3.84375 -1.488281 2.929688 -2.476562 2.265625 -3.75 C 1.597656 -5.03125 1.265625 -6.484375 1.265625 -8.109375 C 1.265625 -9.742188 1.597656 -11.179688 2.265625 -12.421875 C 2.929688 -13.671875 3.84375 -14.640625 5 -15.328125 C 6.164062 -16.015625 7.460938 -16.359375 8.890625 -16.359375 Z M 14.890625 -8.078125 C 14.890625 -9.285156 14.644531 -10.335938 14.15625 -11.234375 C 13.664062 -12.140625 13.003906 -12.832031 12.171875 -13.3125 C 11.335938 -13.789062 10.421875 -14.03125 9.421875 -14.03125 C 8.421875 -14.03125 7.507812 -13.796875 6.6875 -13.328125 C 5.863281 -12.859375 5.207031 -12.171875 4.71875 -11.265625 C 4.238281 -10.367188 4 -9.316406 4 -8.109375 C 4 -6.867188 4.238281 -5.789062 4.71875 -4.875 C 5.207031 -3.96875 5.863281 -3.273438 6.6875 -2.796875 C 7.507812 -2.316406 8.421875 -2.078125 9.421875 -2.078125 C 10.421875 -2.078125 11.335938 -2.316406 12.171875 -2.796875 C 13.003906 -3.273438 13.664062 -3.96875 14.15625 -4.875 C 14.644531 -5.789062 14.890625 -6.859375 14.890625 -8.078125 Z M 14.890625 -8.078125 "/></g></g></g><g fill="#000000" fill-opacity="1"><g transform="translate(230.155077, 68.63027)"><g><path d="M 4.9375 -21.71875 L 4.9375 0 L 2.265625 0 L 2.265625 -21.71875 Z M 4.9375 -21.71875 "/></g></g></g><g fill="#000000" fill-opacity="1"><g transform="translate(237.376011, 68.63027)"><g><path d="M 1.265625 -8.109375 C 1.265625 -9.742188 1.597656 -11.179688 2.265625 -12.421875 C 2.929688 -13.671875 3.84375 -14.640625 5 -15.328125 C 6.164062 -16.015625 7.460938 -16.359375 8.890625 -16.359375 C 10.304688 -16.359375 11.53125 -16.050781 12.5625 -15.4375 C 13.601562 -14.832031 14.378906 -14.070312 14.890625 -13.15625 L 14.890625 -16.09375 L 17.59375 -16.09375 L 17.59375 0 L 14.890625 0 L 14.890625 -3 C 14.359375 -2.050781 13.566406 -1.269531 12.515625 -0.65625 C 11.472656 -0.0390625 10.253906 0.265625 8.859375 0.265625 C 7.429688 0.265625 6.140625 -0.0820312 4.984375 -0.78125 C 3.835938 -1.488281 2.929688 -2.476562 2.265625 -3.75 C 1.597656 -5.03125 1.265625 -6.484375 1.265625 -8.109375 Z M 14.890625 -8.078125 C 14.890625 -9.285156 14.644531 -10.335938 14.15625 -11.234375 C 13.664062 -12.140625 13.003906 -12.832031 12.171875 -13.3125 C 11.335938 -13.789062 10.421875 -14.03125 9.421875 -14.03125 C 8.421875 -14.03125 7.507812 -13.796875 6.6875 -13.328125 C 5.863281 -12.859375 5.207031 -12.171875 4.71875 -11.265625 C 4.238281 -10.367188 4 -9.316406 4 -8.109375 C 4 -6.867188 4.238281 -5.789062 4.71875 -4.875 C 5.207031 -3.96875 5.863281 -3.273438 6.6875 -2.796875 C 7.507812 -2.316406 8.421875 -2.078125 9.421875 -2.078125 C 10.421875 -2.078125 11.335938 -2.316406 12.171875 -2.796875 C 13.003906 -3.273438 13.664062 -3.96875 14.15625 -4.875 C 14.644531 -5.789062 14.890625 -6.859375 14.890625 -8.078125 Z M 14.890625 -8.078125 "/></g></g></g><g fill="#000000" fill-opacity="1"><g transform="translate(257.218904, 68.63027)"><g><path d="M 7.953125 0.265625 C 6.722656 0.265625 5.617188 0.0546875 4.640625 -0.359375 C 3.660156 -0.785156 2.882812 -1.375 2.3125 -2.125 C 1.75 -2.882812 1.4375 -3.753906 1.375 -4.734375 L 4.140625 -4.734375 C 4.210938 -3.921875 4.585938 -3.257812 5.265625 -2.75 C 5.941406 -2.25 6.828125 -2 7.921875 -2 C 8.941406 -2 9.742188 -2.222656 10.328125 -2.671875 C 10.921875 -3.117188 11.21875 -3.6875 11.21875 -4.375 C 11.21875 -5.082031 10.90625 -5.601562 10.28125 -5.9375 C 9.65625 -6.28125 8.6875 -6.617188 7.375 -6.953125 C 6.175781 -7.265625 5.195312 -7.582031 4.4375 -7.90625 C 3.6875 -8.226562 3.039062 -8.707031 2.5 -9.34375 C 1.96875 -9.988281 1.703125 -10.828125 1.703125 -11.859375 C 1.703125 -12.679688 1.945312 -13.4375 2.4375 -14.125 C 2.925781 -14.8125 3.617188 -15.351562 4.515625 -15.75 C 5.421875 -16.15625 6.453125 -16.359375 7.609375 -16.359375 C 9.390625 -16.359375 10.828125 -15.90625 11.921875 -15 C 13.015625 -14.101562 13.601562 -12.867188 13.6875 -11.296875 L 11.015625 -11.296875 C 10.953125 -12.140625 10.613281 -12.816406 10 -13.328125 C 9.382812 -13.835938 8.554688 -14.09375 7.515625 -14.09375 C 6.554688 -14.09375 5.789062 -13.882812 5.21875 -13.46875 C 4.65625 -13.0625 4.375 -12.523438 4.375 -11.859375 C 4.375 -11.328125 4.546875 -10.890625 4.890625 -10.546875 C 5.234375 -10.210938 5.660156 -9.941406 6.171875 -9.734375 C 6.691406 -9.523438 7.414062 -9.296875 8.34375 -9.046875 C 9.488281 -8.734375 10.425781 -8.421875 11.15625 -8.109375 C 11.882812 -7.804688 12.503906 -7.351562 13.015625 -6.75 C 13.535156 -6.144531 13.804688 -5.351562 13.828125 -4.375 C 13.828125 -3.488281 13.582031 -2.691406 13.09375 -1.984375 C 12.601562 -1.285156 11.910156 -0.734375 11.015625 -0.328125 C 10.128906 0.0664062 9.109375 0.265625 7.953125 0.265625 Z M 7.953125 0.265625 "/></g></g></g><g fill="#000000" fill-opacity="1"><g transform="translate(272.541379, 68.63027)"><g><path d="M 7.953125 0.265625 C 6.722656 0.265625 5.617188 0.0546875 4.640625 -0.359375 C 3.660156 -0.785156 2.882812 -1.375 2.3125 -2.125 C 1.75 -2.882812 1.4375 -3.753906 1.375 -4.734375 L 4.140625 -4.734375 C 4.210938 -3.921875 4.585938 -3.257812 5.265625 -2.75 C 5.941406 -2.25 6.828125 -2 7.921875 -2 C 8.941406 -2 9.742188 -2.222656 10.328125 -2.671875 C 10.921875 -3.117188 11.21875 -3.6875 11.21875 -4.375 C 11.21875 -5.082031 10.90625 -5.601562 10.28125 -5.9375 C 9.65625 -6.28125 8.6875 -6.617188 7.375 -6.953125 C 6.175781 -7.265625 5.195312 -7.582031 4.4375 -7.90625 C 3.6875 -8.226562 3.039062 -8.707031 2.5 -9.34375 C 1.96875 -9.988281 1.703125 -10.828125 1.703125 -11.859375 C 1.703125 -12.679688 1.945312 -13.4375 2.4375 -14.125 C 2.925781 -14.8125 3.617188 -15.351562 4.515625 -15.75 C 5.421875 -16.15625 6.453125 -16.359375 7.609375 -16.359375 C 9.390625 -16.359375 10.828125 -15.90625 11.921875 -15 C 13.015625 -14.101562 13.601562 -12.867188 13.6875 -11.296875 L 11.015625 -11.296875 C 10.953125 -12.140625 10.613281 -12.816406 10 -13.328125 C 9.382812 -13.835938 8.554688 -14.09375 7.515625 -14.09375 C 6.554688 -14.09375 5.789062 -13.882812 5.21875 -13.46875 C 4.65625 -13.0625 4.375 -12.523438 4.375 -11.859375 C 4.375 -11.328125 4.546875 -10.890625 4.890625 -10.546875 C 5.234375 -10.210938 5.660156 -9.941406 6.171875 -9.734375 C 6.691406 -9.523438 7.414062 -9.296875 8.34375 -9.046875 C 9.488281 -8.734375 10.425781 -8.421875 11.15625 -8.109375 C 11.882812 -7.804688 12.503906 -7.351562 13.015625 -6.75 C 13.535156 -6.144531 13.804688 -5.351562 13.828125 -4.375 C 13.828125 -3.488281 13.582031 -2.691406 13.09375 -1.984375 C 12.601562 -1.285156 11.910156 -0.734375 11.015625 -0.328125 C 10.128906 0.0664062 9.109375 0.265625 7.953125 0.265625 Z M 7.953125 0.265625 "/></g></g></g><g fill="#000000" fill-opacity="1"><g transform="translate(287.863855, 68.63027)"><g><path d="M 16.9375 -8.65625 C 16.9375 -8.144531 16.910156 -7.609375 16.859375 -7.046875 L 4 -7.046875 C 4.09375 -5.460938 4.632812 -4.222656 5.625 -3.328125 C 6.613281 -2.441406 7.8125 -2 9.21875 -2 C 10.375 -2 11.335938 -2.265625 12.109375 -2.796875 C 12.878906 -3.335938 13.421875 -4.0625 13.734375 -4.96875 L 16.625 -4.96875 C 16.1875 -3.414062 15.320312 -2.15625 14.03125 -1.1875 C 12.738281 -0.21875 11.132812 0.265625 9.21875 0.265625 C 7.6875 0.265625 6.316406 -0.078125 5.109375 -0.765625 C 3.910156 -1.453125 2.96875 -2.425781 2.28125 -3.6875 C 1.601562 -4.945312 1.265625 -6.410156 1.265625 -8.078125 C 1.265625 -9.734375 1.597656 -11.1875 2.265625 -12.4375 C 2.929688 -13.695312 3.863281 -14.664062 5.0625 -15.34375 C 6.269531 -16.019531 7.65625 -16.359375 9.21875 -16.359375 C 10.75 -16.359375 12.097656 -16.023438 13.265625 -15.359375 C 14.441406 -14.691406 15.347656 -13.773438 15.984375 -12.609375 C 16.617188 -11.441406 16.9375 -10.125 16.9375 -8.65625 Z M 14.1875 -9.21875 C 14.1875 -10.238281 13.957031 -11.113281 13.5 -11.84375 C 13.050781 -12.582031 12.441406 -13.140625 11.671875 -13.515625 C 10.898438 -13.898438 10.039062 -14.09375 9.09375 -14.09375 C 7.75 -14.09375 6.601562 -13.660156 5.65625 -12.796875 C 4.707031 -11.941406 4.160156 -10.75 4.015625 -9.21875 Z M 14.1875 -9.21875 "/></g></g></g><g fill="#000000" fill-opacity="1"><g transform="translate(306.062959, 68.63027)"><g><path d="M 7.953125 0.265625 C 6.722656 0.265625 5.617188 0.0546875 4.640625 -0.359375 C 3.660156 -0.785156 2.882812 -1.375 2.3125 -2.125 C 1.75 -2.882812 1.4375 -3.753906 1.375 -4.734375 L 4.140625 -4.734375 C 4.210938 -3.921875 4.585938 -3.257812 5.265625 -2.75 C 5.941406 -2.25 6.828125 -2 7.921875 -2 C 8.941406 -2 9.742188 -2.222656 10.328125 -2.671875 C 10.921875 -3.117188 11.21875 -3.6875 11.21875 -4.375 C 11.21875 -5.082031 10.90625 -5.601562 10.28125 -5.9375 C 9.65625 -6.28125 8.6875 -6.617188 7.375 -6.953125 C 6.175781 -7.265625 5.195312 -7.582031 4.4375 -7.90625 C 3.6875 -8.226562 3.039062 -8.707031 2.5 -9.34375 C 1.96875 -9.988281 1.703125 -10.828125 1.703125 -11.859375 C 1.703125 -12.679688 1.945312 -13.4375 2.4375 -14.125 C 2.925781 -14.8125 3.617188 -15.351562 4.515625 -15.75 C 5.421875 -16.15625 6.453125 -16.359375 7.609375 -16.359375 C 9.390625 -16.359375 10.828125 -15.90625 11.921875 -15 C 13.015625 -14.101562 13.601562 -12.867188 13.6875 -11.296875 L 11.015625 -11.296875 C 10.953125 -12.140625 10.613281 -12.816406 10 -13.328125 C 9.382812 -13.835938 8.554688 -14.09375 7.515625 -14.09375 C 6.554688 -14.09375 5.789062 -13.882812 5.21875 -13.46875 C 4.65625 -13.0625 4.375 -12.523438 4.375 -11.859375 C 4.375 -11.328125 4.546875 -10.890625 4.890625 -10.546875 C 5.234375 -10.210938 5.660156 -9.941406 6.171875 -9.734375 C 6.691406 -9.523438 7.414062 -9.296875 8.34375 -9.046875 C 9.488281 -8.734375 10.425781 -8.421875 11.15625 -8.109375 C 11.882812 -7.804688 12.503906 -7.351562 13.015625 -6.75 C 13.535156 -6.144531 13.804688 -5.351562 13.828125 -4.375 C 13.828125 -3.488281 13.582031 -2.691406 13.09375 -1.984375 C 12.601562 -1.285156 11.910156 -0.734375 11.015625 -0.328125 C 10.128906 0.0664062 9.109375 0.265625 7.953125 0.265625 Z M 7.953125 0.265625 "/></g></g></g></svg>