<svg xmlns="http://www.w3.org/2000/svg" xmlns:xlink="http://www.w3.org/1999/xlink" width="500" zoomAndPan="magnify" viewBox="0 0 375 82.499998" height="110" preserveAspectRatio="xMidYMid meet" version="1.0"><defs><g/><clipPath id="c98c497c7d"><path d="M 1.128906 0 L 373.871094 0 L 373.871094 82.003906 L 1.128906 82.003906 Z M 1.128906 0 " clip-rule="nonzero"/></clipPath><clipPath id="7d0c1ac256"><path d="M 18 3.011719 L 73 3.011719 L 73 79 L 18 79 Z M 18 3.011719 " clip-rule="nonzero"/></clipPath><clipPath id="422b92c97a"><path d="M 17.347656 3.011719 L 73.261719 3.011719 L 73.261719 79.050781 L 17.347656 79.050781 Z M 17.347656 3.011719 " clip-rule="nonzero"/></clipPath><clipPath id="ca00437e3b"><path d="M 18 3.011719 L 46 3.011719 L 46 79 L 18 79 Z M 18 3.011719 " clip-rule="nonzero"/></clipPath><clipPath id="97febe6f38"><path d="M 17.347656 3.011719 L 46 3.011719 L 46 79.050781 L 17.347656 79.050781 Z M 17.347656 3.011719 " clip-rule="nonzero"/></clipPath><clipPath id="0bc270ca07"><path d="M 45 3.011719 L 73 3.011719 L 73 79 L 45 79 Z M 45 3.011719 " clip-rule="nonzero"/></clipPath><clipPath id="33ddb296ad"><path d="M 44 3.011719 L 73.261719 3.011719 L 73.261719 79.050781 L 44 79.050781 Z M 44 3.011719 " clip-rule="nonzero"/></clipPath><clipPath id="832250cfe1"><path d="M 71 71 L 73.261719 71 L 73.261719 73 L 71 73 Z M 71 71 " clip-rule="nonzero"/></clipPath></defs><g clip-path="url(#c98c497c7d)"><path fill="#ffffff" d="M 1.128906 0 L 373.871094 0 L 373.871094 82.003906 L 1.128906 82.003906 Z M 1.128906 0 " fill-opacity="1" fill-rule="nonzero"/><path fill="#ffffff" d="M 1.128906 0 L 373.871094 0 L 373.871094 82.003906 L 1.128906 82.003906 Z M 1.128906 0 " fill-opacity="1" fill-rule="nonzero"/></g><g clip-path="url(#7d0c1ac256)"><path fill="#db1f26" d="M 72.28125 34.363281 C 60.800781 31.621094 67.855469 7.339844 67.855469 7.339844 L 57.894531 3.742188 C 54.828125 12.695312 37.609375 12.882812 32.707031 3.742188 L 22.746094 7.339844 C 22.746094 7.339844 29.800781 31.621094 18.320312 34.363281 C 18.320312 34.363281 20.085938 67.175781 18.0625 72.113281 C 18.0625 72.113281 29.585938 75.558594 34.03125 78.359375 C 34.03125 78.359375 41.324219 73.90625 45.300781 72.671875 C 49.277344 73.90625 56.570312 78.359375 56.570312 78.359375 C 61.011719 75.558594 72.539062 72.113281 72.539062 72.113281 C 70.515625 67.175781 72.28125 34.363281 72.28125 34.363281 " fill-opacity="1" fill-rule="nonzero"/></g><g clip-path="url(#422b92c97a)"><path fill="#1b1c2a" d="M 18.894531 71.679688 C 21.332031 72.429688 29.953125 75.171875 34.035156 77.585938 C 35.550781 76.675781 41.546875 73.148438 45.101562 72.042969 C 45.230469 72.003906 45.367188 72.003906 45.496094 72.042969 C 49.054688 73.148438 55.050781 76.675781 56.566406 77.585938 C 60.648438 75.171875 69.265625 72.429688 71.707031 71.679688 C 70.097656 65.390625 71.375 39.082031 71.59375 34.859375 C 69.644531 34.257812 68.109375 33.015625 67.019531 31.152344 C 62.980469 24.246094 66.242188 10.78125 67.054688 7.75 L 58.277344 4.582031 C 56.535156 8.617188 51.769531 11.1875 45.90625 11.1875 C 41.25 11.1875 35.339844 9.429688 32.40625 4.550781 L 23.546875 7.75 C 24.355469 10.78125 27.621094 24.246094 23.578125 31.152344 C 22.492188 33.015625 20.953125 34.257812 19.007812 34.859375 C 19.226562 39.082031 20.503906 65.390625 18.894531 71.679688 Z M 56.566406 79.015625 C 56.449219 79.015625 56.328125 78.984375 56.222656 78.917969 C 56.152344 78.875 49.195312 74.644531 45.300781 73.363281 C 41.40625 74.644531 34.449219 78.875 34.378906 78.917969 C 34.164062 79.050781 33.890625 79.046875 33.679688 78.914062 C 29.359375 76.195312 17.984375 72.777344 17.871094 72.742188 C 17.691406 72.691406 17.546875 72.5625 17.464844 72.398438 C 17.382812 72.230469 17.378906 72.035156 17.449219 71.863281 C 19.003906 68.070312 18.265625 45.699219 17.660156 34.398438 C 17.640625 34.082031 17.855469 33.800781 18.164062 33.722656 C 20.027344 33.28125 21.421875 32.222656 22.433594 30.492188 C 26.625 23.332031 22.15625 7.679688 22.109375 7.523438 C 22.011719 7.191406 22.191406 6.839844 22.519531 6.722656 L 32.480469 3.125 C 32.789062 3.011719 33.132812 3.144531 33.289062 3.433594 C 35.386719 7.34375 40.339844 9.871094 45.90625 9.871094 C 51.492188 9.867188 55.949219 7.382812 57.269531 3.53125 C 57.324219 3.363281 57.449219 3.226562 57.609375 3.148438 C 57.769531 3.074219 57.953125 3.066406 58.121094 3.125 L 68.082031 6.722656 C 68.410156 6.839844 68.585938 7.191406 68.492188 7.523438 C 68.445312 7.679688 63.976562 23.332031 68.167969 30.492188 C 69.175781 32.222656 70.574219 33.28125 72.4375 33.722656 C 72.746094 33.800781 72.957031 34.082031 72.941406 34.398438 C 72.335938 45.699219 71.59375 68.070312 73.152344 71.863281 C 73.222656 72.035156 73.214844 72.230469 73.136719 72.398438 C 73.054688 72.5625 72.90625 72.691406 72.730469 72.742188 C 72.613281 72.777344 61.238281 76.195312 56.921875 78.914062 C 56.816406 78.980469 56.691406 79.015625 56.566406 79.015625 " fill-opacity="1" fill-rule="nonzero"/></g><path fill="#1b1c2a" d="M 34.332031 33.203125 C 34.265625 33.203125 34.199219 33.179688 34.148438 33.128906 C 34.042969 33.027344 34.042969 32.859375 34.144531 32.757812 C 36.359375 30.53125 38.316406 28.546875 40.128906 26.683594 C 40.230469 26.578125 40.398438 26.574219 40.503906 26.675781 C 40.609375 26.777344 40.613281 26.945312 40.511719 27.050781 C 38.695312 28.914062 36.738281 30.898438 34.523438 33.125 C 34.46875 33.179688 34.402344 33.203125 34.332031 33.203125 " fill-opacity="1" fill-rule="nonzero"/><path fill="#1b1c2a" d="M 33.894531 31.972656 C 33.828125 31.972656 33.757812 31.945312 33.707031 31.894531 C 33.605469 31.792969 33.605469 31.625 33.707031 31.523438 C 35.777344 29.457031 37.660156 27.613281 39.472656 25.890625 C 39.578125 25.789062 39.746094 25.792969 39.847656 25.898438 C 39.949219 26.003906 39.945312 26.167969 39.839844 26.269531 C 38.03125 27.992188 36.148438 29.832031 34.082031 31.894531 C 34.03125 31.945312 33.960938 31.972656 33.894531 31.972656 " fill-opacity="1" fill-rule="nonzero"/><path fill="#1b1c2a" d="M 33.632812 31.058594 C 33.566406 31.058594 33.5 31.03125 33.449219 30.984375 C 33.34375 30.882812 33.339844 30.714844 33.441406 30.609375 C 35.253906 28.757812 37.058594 26.902344 38.867188 25.046875 C 38.96875 24.941406 39.136719 24.9375 39.242188 25.039062 C 39.347656 25.140625 39.347656 25.308594 39.246094 25.414062 C 37.441406 27.269531 35.632812 29.125 33.820312 30.976562 C 33.769531 31.03125 33.703125 31.058594 33.632812 31.058594 " fill-opacity="1" fill-rule="nonzero"/><path fill="#1b1c2a" d="M 33.304688 29.761719 C 33.238281 29.761719 33.171875 29.734375 33.121094 29.683594 C 33.015625 29.582031 33.015625 29.417969 33.117188 29.3125 C 35.027344 27.394531 36.757812 25.675781 38.398438 24.066406 C 38.5 23.964844 38.667969 23.964844 38.773438 24.066406 C 38.875 24.171875 38.875 24.335938 38.769531 24.441406 C 37.128906 26.050781 35.402344 27.765625 33.492188 29.683594 C 33.441406 29.734375 33.375 29.761719 33.304688 29.761719 " fill-opacity="1" fill-rule="nonzero"/><path fill="#1b1c2a" d="M 33.058594 28.617188 C 32.992188 28.617188 32.921875 28.589844 32.871094 28.539062 C 32.765625 28.4375 32.765625 28.269531 32.871094 28.167969 L 37.921875 23.089844 C 38.023438 22.988281 38.191406 22.988281 38.296875 23.089844 C 38.398438 23.191406 38.398438 23.359375 38.296875 23.460938 L 33.246094 28.539062 C 33.195312 28.589844 33.125 28.617188 33.058594 28.617188 " fill-opacity="1" fill-rule="nonzero"/><path fill="#1b1c2a" d="M 32.789062 27.476562 C 32.71875 27.476562 32.652344 27.449219 32.601562 27.398438 C 32.496094 27.296875 32.496094 27.132812 32.597656 27.027344 C 34.234375 25.367188 35.871094 23.710938 37.507812 22.054688 C 37.609375 21.949219 37.777344 21.949219 37.882812 22.050781 C 37.988281 22.152344 37.988281 22.320312 37.886719 22.421875 C 36.246094 24.078125 34.613281 25.738281 32.976562 27.394531 C 32.925781 27.449219 32.855469 27.476562 32.789062 27.476562 " fill-opacity="1" fill-rule="nonzero"/><path fill="#1b1c2a" d="M 32.550781 26.199219 C 32.484375 26.199219 32.417969 26.171875 32.363281 26.121094 C 32.261719 26.019531 32.261719 25.855469 32.363281 25.75 C 33.917969 24.191406 35.472656 22.632812 37.035156 21.078125 C 37.136719 20.976562 37.304688 20.972656 37.410156 21.078125 C 37.511719 21.179688 37.511719 21.347656 37.410156 21.449219 C 35.847656 23.003906 34.292969 24.5625 32.738281 26.121094 C 32.6875 26.171875 32.621094 26.199219 32.550781 26.199219 " fill-opacity="1" fill-rule="nonzero"/><path fill="#1b1c2a" d="M 32.261719 24.980469 C 32.195312 24.980469 32.125 24.957031 32.074219 24.90625 C 31.972656 24.800781 31.972656 24.636719 32.074219 24.53125 C 33.632812 22.984375 35.160156 21.472656 36.621094 20.039062 C 36.722656 19.9375 36.890625 19.9375 36.996094 20.042969 C 37.097656 20.144531 37.097656 20.3125 36.992188 20.414062 C 35.535156 21.847656 34.003906 23.359375 32.449219 24.90625 C 32.398438 24.957031 32.328125 24.980469 32.261719 24.980469 " fill-opacity="1" fill-rule="nonzero"/><path fill="#1b1c2a" d="M 32.042969 23.804688 C 31.976562 23.804688 31.90625 23.777344 31.855469 23.730469 C 31.753906 23.625 31.75 23.460938 31.855469 23.355469 C 33.28125 21.925781 34.710938 20.496094 36.140625 19.070312 C 36.246094 18.964844 36.410156 18.964844 36.515625 19.070312 C 36.617188 19.171875 36.617188 19.339844 36.515625 19.441406 C 35.085938 20.867188 33.65625 22.296875 32.230469 23.726562 C 32.179688 23.777344 32.109375 23.804688 32.042969 23.804688 " fill-opacity="1" fill-rule="nonzero"/><path fill="#1b1c2a" d="M 31.894531 22.464844 C 31.828125 22.464844 31.761719 22.441406 31.707031 22.390625 C 31.605469 22.285156 31.605469 22.121094 31.707031 22.015625 C 33.105469 20.617188 34.402344 19.335938 35.664062 18.097656 C 35.765625 17.996094 35.933594 17.996094 36.039062 18.097656 C 36.140625 18.203125 36.140625 18.367188 36.035156 18.472656 C 34.773438 19.710938 33.480469 20.992188 32.082031 22.386719 C 32.03125 22.441406 31.964844 22.464844 31.894531 22.464844 " fill-opacity="1" fill-rule="nonzero"/><path fill="#1b1c2a" d="M 31.640625 21.382812 C 31.574219 21.382812 31.507812 21.359375 31.453125 21.308594 C 31.351562 21.207031 31.347656 21.039062 31.449219 20.9375 C 32.695312 19.671875 33.9375 18.402344 35.179688 17.128906 C 35.28125 17.027344 35.449219 17.023438 35.554688 17.125 C 35.660156 17.226562 35.660156 17.390625 35.558594 17.496094 C 34.316406 18.769531 33.074219 20.039062 31.828125 21.304688 C 31.777344 21.359375 31.707031 21.382812 31.640625 21.382812 " fill-opacity="1" fill-rule="nonzero"/><path fill="#1b1c2a" d="M 31.605469 19.90625 C 31.539062 19.90625 31.472656 19.882812 31.417969 19.832031 C 31.316406 19.730469 31.316406 19.5625 31.417969 19.460938 C 32.535156 18.339844 33.648438 17.222656 34.761719 16.097656 C 34.863281 15.996094 35.03125 15.992188 35.136719 16.09375 C 35.238281 16.199219 35.242188 16.363281 35.136719 16.46875 C 34.027344 17.589844 32.910156 18.710938 31.792969 19.828125 C 31.742188 19.882812 31.675781 19.90625 31.605469 19.90625 " fill-opacity="1" fill-rule="nonzero"/><path fill="#1b1c2a" d="M 31.382812 18.660156 C 31.3125 18.660156 31.246094 18.636719 31.195312 18.585938 C 31.089844 18.480469 31.089844 18.316406 31.191406 18.210938 C 32.222656 17.183594 33.25 16.15625 34.28125 15.128906 C 34.382812 15.027344 34.550781 15.023438 34.65625 15.128906 C 34.757812 15.230469 34.757812 15.398438 34.65625 15.5 C 33.625 16.527344 32.597656 17.554688 31.570312 18.582031 C 31.515625 18.636719 31.449219 18.660156 31.382812 18.660156 " fill-opacity="1" fill-rule="nonzero"/><path fill="#1b1c2a" d="M 31.25 17.386719 C 31.183594 17.386719 31.117188 17.363281 31.066406 17.3125 C 30.960938 17.210938 30.960938 17.042969 31.0625 16.941406 C 32.035156 15.953125 33.003906 14.964844 33.976562 13.980469 C 34.078125 13.875 34.246094 13.875 34.351562 13.976562 C 34.453125 14.078125 34.457031 14.246094 34.355469 14.351562 C 33.382812 15.335938 32.410156 16.320312 31.441406 17.308594 C 31.390625 17.363281 31.320312 17.386719 31.25 17.386719 " fill-opacity="1" fill-rule="nonzero"/><path fill="#1b1c2a" d="M 31.28125 16.050781 C 31.214844 16.050781 31.148438 16.027344 31.097656 15.976562 C 30.992188 15.875 30.988281 15.710938 31.089844 15.605469 C 31.996094 14.660156 32.820312 13.777344 33.601562 12.902344 C 33.699219 12.796875 33.867188 12.785156 33.976562 12.882812 C 34.085938 12.980469 34.09375 13.144531 33.996094 13.253906 C 33.210938 14.132812 32.382812 15.019531 31.472656 15.96875 C 31.417969 16.023438 31.351562 16.050781 31.28125 16.050781 " fill-opacity="1" fill-rule="nonzero"/><path fill="#1b1c2a" d="M 31.242188 14.566406 C 31.175781 14.566406 31.109375 14.542969 31.058594 14.496094 C 30.953125 14.394531 30.949219 14.226562 31.050781 14.121094 C 31.847656 13.292969 32.625 12.476562 33.359375 11.699219 C 33.457031 11.589844 33.625 11.585938 33.730469 11.683594 C 33.839844 11.785156 33.84375 11.949219 33.746094 12.058594 C 33.011719 12.839844 32.234375 13.65625 31.433594 14.488281 C 31.378906 14.542969 31.3125 14.566406 31.242188 14.566406 " fill-opacity="1" fill-rule="nonzero"/><path fill="#1b1c2a" d="M 31.167969 13.070312 C 31.101562 13.070312 31.035156 13.042969 30.980469 12.992188 C 30.878906 12.890625 30.878906 12.722656 30.980469 12.621094 C 31.671875 11.929688 32.359375 11.242188 33.050781 10.554688 C 33.152344 10.449219 33.320312 10.449219 33.425781 10.554688 C 33.527344 10.65625 33.527344 10.820312 33.425781 10.925781 C 32.734375 11.613281 32.046875 12.300781 31.355469 12.992188 C 31.304688 13.042969 31.238281 13.070312 31.167969 13.070312 " fill-opacity="1" fill-rule="nonzero"/><path fill="#1b1c2a" d="M 34.683594 34.484375 C 34.617188 34.484375 34.546875 34.457031 34.496094 34.40625 C 34.394531 34.304688 34.394531 34.136719 34.496094 34.035156 C 36.957031 31.601562 38.96875 29.550781 40.828125 27.585938 C 40.925781 27.480469 41.09375 27.476562 41.203125 27.578125 C 41.308594 27.675781 41.3125 27.84375 41.210938 27.949219 C 39.351562 29.917969 37.335938 31.96875 34.871094 34.40625 C 34.820312 34.460938 34.75 34.484375 34.683594 34.484375 " fill-opacity="1" fill-rule="nonzero"/><path fill="#1b1c2a" d="M 35.214844 35.542969 C 35.148438 35.542969 35.082031 35.515625 35.027344 35.464844 C 34.925781 35.363281 34.921875 35.195312 35.027344 35.09375 C 37.386719 32.707031 39.578125 30.480469 41.71875 28.292969 C 41.820312 28.1875 41.988281 28.1875 42.09375 28.289062 C 42.199219 28.390625 42.203125 28.554688 42.097656 28.660156 C 39.957031 30.851562 37.765625 33.074219 35.402344 35.464844 C 35.351562 35.515625 35.28125 35.542969 35.214844 35.542969 " fill-opacity="1" fill-rule="nonzero"/><path fill="#1b1c2a" d="M 35.625 36.609375 C 35.558594 36.609375 35.492188 36.585938 35.441406 36.535156 C 35.335938 36.433594 35.335938 36.265625 35.4375 36.164062 C 38.164062 33.425781 40.566406 31.027344 42.789062 28.824219 C 42.894531 28.71875 43.0625 28.71875 43.164062 28.824219 C 43.265625 28.925781 43.265625 29.09375 43.164062 29.195312 C 40.941406 31.398438 38.539062 33.796875 35.816406 36.53125 C 35.761719 36.585938 35.695312 36.609375 35.625 36.609375 " fill-opacity="1" fill-rule="nonzero"/><path fill="#1b1c2a" d="M 36.1875 37.785156 C 36.117188 37.785156 36.050781 37.757812 36 37.707031 C 35.894531 37.605469 35.894531 37.4375 36 37.335938 C 39.125 34.234375 41.664062 31.660156 43.984375 29.234375 C 44.085938 29.128906 44.25 29.125 44.355469 29.226562 C 44.464844 29.324219 44.46875 29.492188 44.367188 29.597656 C 42.042969 32.027344 39.503906 34.605469 36.375 37.707031 C 36.320312 37.761719 36.253906 37.785156 36.1875 37.785156 " fill-opacity="1" fill-rule="nonzero"/><path fill="#1b1c2a" d="M 36.789062 38.679688 C 36.722656 38.679688 36.65625 38.65625 36.601562 38.605469 C 36.5 38.503906 36.496094 38.335938 36.601562 38.234375 C 40.113281 34.683594 42.96875 31.820312 45.589844 29.230469 C 45.691406 29.128906 45.859375 29.128906 45.964844 29.230469 C 46.066406 29.335938 46.066406 29.5 45.960938 29.605469 C 43.34375 32.191406 40.488281 35.050781 36.976562 38.601562 C 36.925781 38.652344 36.855469 38.679688 36.789062 38.679688 " fill-opacity="1" fill-rule="nonzero"/><path fill="#1b1c2a" d="M 37.441406 39.507812 C 37.375 39.507812 37.308594 39.484375 37.257812 39.433594 C 37.152344 39.332031 37.148438 39.164062 37.253906 39.0625 C 41.441406 34.832031 44.925781 31.378906 48.222656 28.195312 C 48.324219 28.09375 48.492188 28.09375 48.59375 28.199219 C 48.699219 28.304688 48.695312 28.46875 48.589844 28.570312 C 45.296875 31.753906 41.816406 35.207031 37.628906 39.429688 C 37.578125 39.484375 37.511719 39.507812 37.441406 39.507812 " fill-opacity="1" fill-rule="nonzero"/><path fill="#1b1c2a" d="M 51.300781 25.742188 C 51.238281 25.742188 51.171875 25.71875 51.121094 25.671875 C 51.015625 25.570312 51.007812 25.40625 51.109375 25.296875 C 52.03125 24.3125 53.015625 23.292969 54.109375 22.179688 C 54.210938 22.078125 54.378906 22.074219 54.484375 22.175781 C 54.589844 22.277344 54.589844 22.445312 54.488281 22.550781 C 53.394531 23.65625 52.417969 24.675781 51.496094 25.65625 C 51.445312 25.710938 51.371094 25.742188 51.300781 25.742188 " fill-opacity="1" fill-rule="nonzero"/><path fill="#1b1c2a" d="M 38 40.691406 C 37.929688 40.691406 37.863281 40.664062 37.808594 40.609375 C 37.707031 40.507812 37.710938 40.339844 37.816406 40.238281 C 42.703125 35.5625 47.507812 30.644531 52.15625 25.890625 C 52.917969 25.113281 53.675781 24.335938 54.4375 23.558594 C 54.539062 23.453125 54.707031 23.453125 54.8125 23.554688 C 54.914062 23.65625 54.917969 23.820312 54.816406 23.925781 C 54.054688 24.703125 53.296875 25.480469 52.535156 26.257812 C 47.886719 31.015625 43.078125 35.9375 38.183594 40.617188 C 38.132812 40.667969 38.066406 40.691406 38 40.691406 " fill-opacity="1" fill-rule="nonzero"/><path fill="#1b1c2a" d="M 38.746094 41.546875 C 38.679688 41.546875 38.609375 41.523438 38.558594 41.472656 C 38.457031 41.367188 38.457031 41.203125 38.558594 41.097656 C 43.6875 36.03125 48.597656 31.089844 54.484375 25.15625 C 54.589844 25.050781 54.753906 25.050781 54.859375 25.152344 C 54.964844 25.253906 54.964844 25.421875 54.863281 25.527344 C 48.976562 31.460938 44.0625 36.402344 38.933594 41.472656 C 38.882812 41.523438 38.8125 41.546875 38.746094 41.546875 " fill-opacity="1" fill-rule="nonzero"/><path fill="#1b1c2a" d="M 39.699219 42.410156 C 39.628906 42.410156 39.5625 42.386719 39.511719 42.335938 C 39.40625 42.234375 39.40625 42.066406 39.507812 41.964844 C 42.628906 38.808594 45.746094 35.648438 48.859375 32.488281 C 50.855469 30.464844 52.851562 28.4375 54.851562 26.414062 C 54.953125 26.308594 55.121094 26.308594 55.226562 26.410156 C 55.328125 26.511719 55.332031 26.679688 55.226562 26.785156 C 53.230469 28.808594 51.234375 30.832031 49.238281 32.859375 C 46.125 36.019531 43.007812 39.179688 39.886719 42.332031 C 39.835938 42.382812 39.765625 42.410156 39.699219 42.410156 " fill-opacity="1" fill-rule="nonzero"/><path fill="#1b1c2a" d="M 40.367188 43.183594 C 40.300781 43.183594 40.234375 43.160156 40.179688 43.109375 C 40.078125 43.003906 40.078125 42.839844 40.179688 42.734375 C 44.824219 38.105469 49.519531 33.371094 54.0625 28.792969 L 54.902344 27.945312 C 55.003906 27.839844 55.171875 27.839844 55.273438 27.941406 C 55.378906 28.042969 55.378906 28.210938 55.277344 28.3125 L 54.4375 29.160156 C 49.894531 33.742188 45.199219 38.476562 40.554688 43.109375 C 40.503906 43.160156 40.4375 43.183594 40.367188 43.183594 " fill-opacity="1" fill-rule="nonzero"/><g clip-path="url(#ca00437e3b)"><path fill="#313959" d="M 45.300781 38.234375 C 45.300781 38.234375 36.441406 38.230469 32.707031 3.742188 L 22.746094 7.339844 C 22.746094 7.339844 29.800781 31.621094 18.320312 34.363281 C 18.320312 34.363281 20.085938 67.175781 18.0625 72.113281 C 18.0625 72.113281 29.585938 75.558594 34.03125 78.359375 C 34.03125 78.359375 41.324219 73.90625 45.300781 72.671875 L 45.300781 38.234375 " fill-opacity="1" fill-rule="nonzero"/></g><g clip-path="url(#97febe6f38)"><path fill="#1b1c2a" d="M 18.894531 71.679688 C 21.332031 72.429688 29.953125 75.171875 34.035156 77.585938 C 35.488281 76.714844 41.046875 73.441406 44.636719 72.195312 L 44.636719 38.777344 C 43.691406 38.496094 41.871094 37.53125 39.839844 34.269531 C 36.300781 28.574219 33.710938 18.613281 32.140625 4.648438 L 23.546875 7.75 C 24.355469 10.78125 27.621094 24.246094 23.578125 31.15625 C 22.492188 33.015625 20.953125 34.257812 19.007812 34.859375 C 19.226562 39.085938 20.503906 65.390625 18.894531 71.679688 Z M 34.03125 79.015625 C 33.910156 79.015625 33.785156 78.980469 33.679688 78.914062 C 29.359375 76.195312 17.984375 72.777344 17.871094 72.742188 C 17.691406 72.691406 17.546875 72.5625 17.464844 72.398438 C 17.382812 72.230469 17.378906 72.035156 17.449219 71.863281 C 19.003906 68.070312 18.265625 45.699219 17.660156 34.398438 C 17.640625 34.082031 17.855469 33.800781 18.164062 33.722656 C 20.027344 33.28125 21.421875 32.222656 22.433594 30.492188 C 26.625 23.332031 22.15625 7.679688 22.109375 7.523438 C 22.011719 7.191406 22.191406 6.839844 22.519531 6.722656 L 32.480469 3.125 C 32.671875 3.054688 32.882812 3.078125 33.054688 3.183594 C 33.226562 3.292969 33.339844 3.472656 33.363281 3.671875 C 36.933594 36.652344 45.21875 37.578125 45.300781 37.578125 C 45.664062 37.578125 45.960938 37.871094 45.960938 38.234375 L 45.960938 72.671875 C 45.960938 72.960938 45.773438 73.214844 45.496094 73.300781 C 41.644531 74.496094 34.449219 78.875 34.378906 78.917969 C 34.273438 78.984375 34.152344 79.015625 34.03125 79.015625 " fill-opacity="1" fill-rule="nonzero"/></g><path fill="#1b1c2a" d="M 50.410156 17.023438 L 40.191406 17.023438 L 40.191406 14.011719 L 50.410156 14.011719 L 50.410156 17.023438 " fill-opacity="1" fill-rule="nonzero"/><path fill="#db1f26" d="M 36.789062 61.433594 L 26.570312 61.433594 L 26.570312 58.421875 L 36.789062 58.421875 L 36.789062 61.433594 " fill-opacity="1" fill-rule="nonzero"/><path fill="#1b1c2a" d="M 27.234375 60.777344 L 36.128906 60.777344 L 36.128906 59.082031 L 27.234375 59.082031 Z M 36.789062 62.089844 L 26.570312 62.089844 C 26.207031 62.089844 25.910156 61.796875 25.910156 61.433594 L 25.910156 58.421875 C 25.910156 58.058594 26.207031 57.765625 26.570312 57.765625 L 36.789062 57.765625 C 37.15625 57.765625 37.453125 58.058594 37.453125 58.421875 L 37.453125 61.433594 C 37.453125 61.796875 37.15625 62.089844 36.789062 62.089844 " fill-opacity="1" fill-rule="nonzero"/><g clip-path="url(#0bc270ca07)"><path fill="#313959" d="M 45.300781 38.234375 C 45.300781 38.234375 54.160156 38.230469 57.894531 3.742188 L 67.855469 7.339844 C 67.855469 7.339844 60.800781 31.621094 72.28125 34.363281 C 72.28125 34.363281 70.515625 67.175781 72.539062 72.113281 C 72.539062 72.113281 61.011719 75.558594 56.570312 78.359375 C 56.570312 78.359375 49.277344 73.90625 45.300781 72.671875 L 45.300781 38.234375 " fill-opacity="1" fill-rule="nonzero"/></g><g clip-path="url(#33ddb296ad)"><path fill="#1b1c2a" d="M 45.960938 72.195312 C 49.554688 73.441406 55.113281 76.714844 56.566406 77.585938 C 60.648438 75.171875 69.265625 72.429688 71.707031 71.679688 C 70.097656 65.390625 71.375 39.085938 71.59375 34.859375 C 69.644531 34.257812 68.109375 33.015625 67.019531 31.15625 C 62.980469 24.246094 66.242188 10.78125 67.054688 7.75 L 58.460938 4.648438 C 56.890625 18.613281 54.300781 28.574219 50.761719 34.269531 C 48.730469 37.53125 46.90625 38.496094 45.960938 38.777344 Z M 56.566406 79.015625 C 56.449219 79.015625 56.328125 78.984375 56.222656 78.917969 C 56.148438 78.875 48.957031 74.496094 45.101562 73.300781 C 44.828125 73.214844 44.636719 72.960938 44.636719 72.671875 L 44.636719 38.234375 C 44.636719 37.871094 44.933594 37.578125 45.300781 37.578125 C 45.367188 37.574219 53.652344 36.765625 57.238281 3.671875 C 57.257812 3.472656 57.371094 3.292969 57.542969 3.183594 C 57.71875 3.078125 57.929688 3.054688 58.121094 3.125 L 68.082031 6.722656 C 68.410156 6.839844 68.585938 7.191406 68.492188 7.523438 C 68.445312 7.679688 63.972656 23.332031 68.167969 30.492188 C 69.175781 32.222656 70.574219 33.28125 72.4375 33.722656 C 72.746094 33.800781 72.957031 34.082031 72.941406 34.398438 C 72.335938 45.699219 71.59375 68.070312 73.152344 71.863281 C 73.222656 72.035156 73.214844 72.230469 73.136719 72.398438 C 73.054688 72.5625 72.90625 72.691406 72.730469 72.742188 C 72.613281 72.777344 61.238281 76.195312 56.921875 78.914062 C 56.816406 78.980469 56.691406 79.015625 56.566406 79.015625 " fill-opacity="1" fill-rule="nonzero"/></g><path fill="#1b1c2a" d="M 18.804688 71.230469 C 18.738281 71.230469 18.667969 71.203125 18.617188 71.152344 C 18.515625 71.046875 18.515625 70.882812 18.621094 70.78125 C 19.207031 70.207031 19.703125 69.679688 20.132812 69.175781 C 20.226562 69.066406 20.394531 69.050781 20.503906 69.148438 C 20.617188 69.242188 20.628906 69.40625 20.535156 69.519531 C 20.09375 70.035156 19.589844 70.570312 18.992188 71.15625 C 18.941406 71.207031 18.875 71.230469 18.804688 71.230469 " fill-opacity="1" fill-rule="nonzero"/><path fill="#1b1c2a" d="M 18.855469 72.703125 C 18.789062 72.703125 18.71875 72.675781 18.667969 72.625 C 18.566406 72.523438 18.566406 72.355469 18.667969 72.253906 C 19.597656 71.320312 20.53125 70.386719 21.457031 69.449219 C 21.558594 69.34375 21.726562 69.34375 21.832031 69.445312 C 21.933594 69.546875 21.9375 69.710938 21.835938 69.816406 C 20.90625 70.753906 19.976562 71.691406 19.042969 72.625 C 18.992188 72.675781 18.921875 72.703125 18.855469 72.703125 " fill-opacity="1" fill-rule="nonzero"/><path fill="#1b1c2a" d="M 20.023438 73.0625 C 19.953125 73.0625 19.882812 73.035156 19.832031 72.980469 C 19.730469 72.878906 19.734375 72.710938 19.835938 72.609375 C 20.753906 71.71875 21.796875 70.710938 22.789062 69.710938 C 22.894531 69.609375 23.058594 69.605469 23.164062 69.710938 C 23.269531 69.8125 23.269531 69.976562 23.167969 70.082031 C 22.167969 71.085938 21.125 72.09375 20.207031 72.988281 C 20.15625 73.035156 20.089844 73.0625 20.023438 73.0625 " fill-opacity="1" fill-rule="nonzero"/><path fill="#1b1c2a" d="M 21.246094 73.492188 C 21.175781 73.492188 21.109375 73.464844 21.054688 73.410156 C 20.953125 73.304688 20.957031 73.140625 21.0625 73.039062 C 21.96875 72.179688 23.152344 71.039062 24.261719 69.839844 C 24.363281 69.730469 24.527344 69.726562 24.636719 69.824219 C 24.746094 69.921875 24.75 70.089844 24.652344 70.195312 C 23.53125 71.40625 22.34375 72.554688 21.429688 73.421875 C 21.378906 73.46875 21.3125 73.492188 21.246094 73.492188 " fill-opacity="1" fill-rule="nonzero"/><path fill="#1b1c2a" d="M 22.574219 73.867188 C 22.503906 73.867188 22.4375 73.839844 22.386719 73.789062 C 22.28125 73.6875 22.28125 73.519531 22.382812 73.417969 C 23.582031 72.214844 24.636719 71.128906 25.597656 70.101562 C 25.699219 69.996094 25.867188 69.988281 25.972656 70.089844 C 26.078125 70.1875 26.085938 70.351562 25.984375 70.460938 C 25.019531 71.492188 23.964844 72.578125 22.761719 73.789062 C 22.710938 73.839844 22.640625 73.867188 22.574219 73.867188 " fill-opacity="1" fill-rule="nonzero"/><path fill="#1b1c2a" d="M 23.558594 74.285156 C 23.492188 74.285156 23.425781 74.257812 23.375 74.207031 C 23.269531 74.105469 23.269531 73.941406 23.371094 73.835938 C 24.800781 72.394531 26.011719 71.210938 27.191406 70.109375 C 27.296875 70.007812 27.464844 70.011719 27.5625 70.117188 C 27.664062 70.226562 27.660156 70.390625 27.554688 70.492188 C 26.378906 71.589844 25.171875 72.769531 23.75 74.207031 C 23.695312 74.257812 23.628906 74.285156 23.558594 74.285156 " fill-opacity="1" fill-rule="nonzero"/><path fill="#1b1c2a" d="M 24.8125 74.804688 C 24.746094 74.804688 24.679688 74.78125 24.625 74.730469 C 24.523438 74.625 24.523438 74.460938 24.625 74.355469 C 26.179688 72.800781 27.550781 71.40625 28.808594 70.089844 C 28.910156 69.984375 29.078125 69.980469 29.183594 70.078125 C 29.289062 70.179688 29.292969 70.34375 29.195312 70.449219 C 27.929688 71.773438 26.558594 73.171875 25 74.726562 C 24.949219 74.78125 24.882812 74.804688 24.8125 74.804688 " fill-opacity="1" fill-rule="nonzero"/><path fill="#1b1c2a" d="M 25.90625 75.1875 C 25.835938 75.1875 25.769531 75.160156 25.71875 75.109375 C 25.613281 75.007812 25.613281 74.839844 25.71875 74.738281 C 27.285156 73.1875 28.851562 71.644531 30.425781 70.105469 C 30.527344 70.003906 30.695312 70.003906 30.800781 70.109375 C 30.902344 70.210938 30.898438 70.378906 30.796875 70.480469 C 29.222656 72.019531 27.65625 73.5625 26.09375 75.109375 C 26.039062 75.160156 25.972656 75.1875 25.90625 75.1875 " fill-opacity="1" fill-rule="nonzero"/><path fill="#1b1c2a" d="M 27.1875 75.625 C 27.117188 75.625 27.050781 75.597656 27 75.546875 C 26.894531 75.445312 26.894531 75.277344 27 75.175781 C 29 73.183594 30.640625 71.53125 32.160156 69.96875 C 32.261719 69.863281 32.429688 69.859375 32.535156 69.960938 C 32.640625 70.0625 32.644531 70.230469 32.542969 70.332031 C 31.019531 71.898438 29.378906 73.554688 27.375 75.546875 C 27.320312 75.597656 27.253906 75.625 27.1875 75.625 " fill-opacity="1" fill-rule="nonzero"/><path fill="#1b1c2a" d="M 28.300781 75.984375 C 28.230469 75.984375 28.164062 75.960938 28.113281 75.910156 C 28.007812 75.804688 28.007812 75.640625 28.113281 75.535156 C 30.039062 73.628906 31.96875 71.726562 33.902344 69.828125 C 34.003906 69.726562 34.171875 69.726562 34.277344 69.828125 C 34.378906 69.933594 34.378906 70.101562 34.273438 70.203125 C 32.339844 72.101562 30.410156 74.003906 28.484375 75.910156 C 28.433594 75.960938 28.367188 75.984375 28.300781 75.984375 " fill-opacity="1" fill-rule="nonzero"/><path fill="#1b1c2a" d="M 29.417969 76.574219 C 29.351562 76.574219 29.28125 76.546875 29.230469 76.496094 C 29.128906 76.390625 29.128906 76.226562 29.230469 76.125 C 31.871094 73.503906 33.878906 71.488281 35.75 69.582031 C 35.851562 69.480469 36.019531 69.476562 36.125 69.578125 C 36.226562 69.679688 36.230469 69.847656 36.128906 69.953125 C 34.257812 71.859375 32.246094 73.875 29.605469 76.496094 C 29.554688 76.546875 29.484375 76.574219 29.417969 76.574219 " fill-opacity="1" fill-rule="nonzero"/><path fill="#1b1c2a" d="M 30.65625 76.925781 C 30.589844 76.925781 30.519531 76.898438 30.46875 76.847656 C 30.367188 76.746094 30.367188 76.578125 30.46875 76.476562 C 33.351562 73.617188 35.546875 71.417969 37.589844 69.339844 C 37.695312 69.238281 37.863281 69.234375 37.964844 69.335938 C 38.070312 69.4375 38.070312 69.605469 37.96875 69.710938 C 35.925781 71.785156 33.726562 73.988281 30.84375 76.847656 C 30.792969 76.898438 30.722656 76.925781 30.65625 76.925781 " fill-opacity="1" fill-rule="nonzero"/><path fill="#1b1c2a" d="M 71.761719 35.855469 C 71.691406 35.855469 71.625 35.832031 71.574219 35.78125 C 71.46875 35.675781 71.46875 35.511719 71.574219 35.40625 L 72.464844 34.515625 C 72.570312 34.414062 72.738281 34.414062 72.839844 34.515625 C 72.945312 34.617188 72.945312 34.785156 72.839844 34.886719 L 71.949219 35.78125 C 71.898438 35.832031 71.828125 35.855469 71.761719 35.855469 " fill-opacity="1" fill-rule="nonzero"/><path fill="#1b1c2a" d="M 31.800781 77.316406 C 31.730469 77.316406 31.660156 77.292969 31.609375 77.238281 C 31.507812 77.136719 31.507812 76.96875 31.613281 76.867188 C 34.042969 74.480469 36.910156 71.65625 39.71875 68.816406 C 39.820312 68.710938 39.988281 68.710938 40.09375 68.8125 C 40.195312 68.914062 40.199219 69.082031 40.09375 69.183594 C 37.285156 72.027344 34.417969 74.855469 31.984375 77.242188 C 31.933594 77.292969 31.867188 77.316406 31.800781 77.316406 " fill-opacity="1" fill-rule="nonzero"/><path fill="#1b1c2a" d="M 71.082031 38.132812 C 71.015625 38.132812 70.949219 38.105469 70.898438 38.054688 C 70.792969 37.953125 70.792969 37.785156 70.898438 37.683594 L 72.148438 36.433594 C 72.25 36.332031 72.417969 36.332031 72.519531 36.433594 C 72.625 36.535156 72.625 36.703125 72.523438 36.804688 L 71.273438 38.054688 C 71.21875 38.105469 71.152344 38.132812 71.082031 38.132812 " fill-opacity="1" fill-rule="nonzero"/><path fill="#1b1c2a" d="M 32.894531 77.75 C 32.824219 77.75 32.757812 77.722656 32.707031 77.671875 C 32.601562 77.566406 32.601562 77.402344 32.707031 77.300781 C 35.640625 74.390625 38.632812 71.4375 41.855469 68.28125 C 41.960938 68.179688 42.125 68.179688 42.230469 68.28125 C 42.332031 68.386719 42.332031 68.554688 42.226562 68.65625 C 39.007812 71.8125 36.015625 74.761719 33.078125 77.671875 C 33.027344 77.722656 32.960938 77.75 32.894531 77.75 " fill-opacity="1" fill-rule="nonzero"/><path fill="#1b1c2a" d="M 70.160156 40.652344 C 70.089844 40.652344 70.023438 40.628906 69.972656 40.578125 C 69.867188 40.472656 69.867188 40.308594 69.972656 40.203125 C 70.644531 39.527344 71.324219 38.851562 72 38.179688 C 72.101562 38.074219 72.269531 38.074219 72.375 38.175781 C 72.476562 38.28125 72.476562 38.445312 72.375 38.550781 C 71.699219 39.222656 71.023438 39.898438 70.347656 40.574219 C 70.296875 40.628906 70.226562 40.652344 70.160156 40.652344 " fill-opacity="1" fill-rule="nonzero"/><path fill="#1b1c2a" d="M 34.035156 78.140625 C 33.96875 78.140625 33.898438 78.113281 33.847656 78.0625 C 33.746094 77.960938 33.746094 77.792969 33.847656 77.691406 C 37.804688 73.730469 41.113281 70.484375 44.261719 67.476562 C 44.363281 67.375 44.53125 67.378906 44.632812 67.484375 C 44.734375 67.589844 44.730469 67.757812 44.625 67.855469 C 41.480469 70.863281 38.175781 74.105469 34.222656 78.0625 C 34.171875 78.113281 34.101562 78.140625 34.035156 78.140625 " fill-opacity="1" fill-rule="nonzero"/><path fill="#1b1c2a" d="M 68.828125 43.582031 C 68.761719 43.582031 68.695312 43.554688 68.644531 43.507812 C 68.539062 43.402344 68.539062 43.238281 68.640625 43.132812 C 69.683594 42.074219 70.761719 40.996094 71.929688 39.832031 C 72.03125 39.730469 72.199219 39.730469 72.300781 39.832031 C 72.40625 39.933594 72.40625 40.101562 72.300781 40.203125 C 71.136719 41.367188 70.0625 42.445312 69.019531 43.503906 C 68.964844 43.554688 68.898438 43.582031 68.828125 43.582031 " fill-opacity="1" fill-rule="nonzero"/><path fill="#1b1c2a" d="M 36.765625 77.179688 C 36.699219 77.179688 36.632812 77.152344 36.578125 77.101562 C 36.476562 77 36.476562 76.832031 36.582031 76.730469 C 39.714844 73.621094 43.414062 69.945312 47.070312 66.269531 C 47.171875 66.164062 47.339844 66.164062 47.445312 66.265625 C 47.546875 66.371094 47.546875 66.535156 47.445312 66.640625 C 43.789062 70.316406 40.089844 73.992188 36.953125 77.101562 C 36.902344 77.152344 36.835938 77.179688 36.765625 77.179688 " fill-opacity="1" fill-rule="nonzero"/><path fill="#1b1c2a" d="M 66.871094 47.132812 C 66.804688 47.132812 66.738281 47.109375 66.6875 47.058594 C 66.582031 46.957031 66.578125 46.789062 66.679688 46.6875 C 68.214844 45.121094 69.863281 43.464844 71.71875 41.625 C 71.824219 41.523438 71.992188 41.523438 72.09375 41.628906 C 72.199219 41.730469 72.195312 41.898438 72.09375 42 C 70.238281 43.835938 68.59375 45.488281 67.058594 47.054688 C 67.007812 47.105469 66.9375 47.132812 66.871094 47.132812 " fill-opacity="1" fill-rule="nonzero"/><path fill="#1b1c2a" d="M 40.113281 75.316406 C 40.046875 75.316406 39.980469 75.289062 39.925781 75.238281 C 39.824219 75.136719 39.824219 74.96875 39.929688 74.867188 C 43.339844 71.488281 46.945312 67.933594 50.644531 64.296875 C 50.75 64.195312 50.917969 64.195312 51.019531 64.300781 C 51.121094 64.402344 51.121094 64.570312 51.019531 64.671875 C 47.316406 68.308594 43.710938 71.863281 40.300781 75.238281 C 40.25 75.292969 40.183594 75.316406 40.113281 75.316406 " fill-opacity="1" fill-rule="nonzero"/><path fill="#1b1c2a" d="M 63.304688 52.292969 C 63.234375 52.292969 63.164062 52.265625 63.113281 52.210938 C 63.011719 52.109375 63.015625 51.941406 63.121094 51.839844 C 66.125 48.988281 68.996094 46.15625 71.65625 43.417969 C 71.757812 43.3125 71.925781 43.3125 72.03125 43.414062 C 72.132812 43.515625 72.136719 43.679688 72.035156 43.785156 C 69.371094 46.527344 66.492188 49.367188 63.484375 52.222656 C 63.433594 52.269531 63.371094 52.292969 63.304688 52.292969 " fill-opacity="1" fill-rule="nonzero"/><path fill="#1b1c2a" d="M 43.890625 73.398438 C 43.824219 73.398438 43.757812 73.371094 43.707031 73.324219 C 43.601562 73.222656 43.597656 73.054688 43.699219 72.949219 C 48.738281 67.765625 53.992188 62.546875 59.070312 57.5 C 63.183594 53.410156 67.4375 49.183594 71.558594 44.996094 C 71.660156 44.890625 71.828125 44.886719 71.929688 44.988281 C 72.035156 45.089844 72.039062 45.257812 71.933594 45.363281 C 67.8125 49.550781 63.558594 53.78125 59.441406 57.871094 C 54.367188 62.917969 49.117188 68.136719 44.082031 73.316406 C 44.03125 73.371094 43.960938 73.398438 43.890625 73.398438 " fill-opacity="1" fill-rule="nonzero"/><path fill="#1b1c2a" d="M 45.761719 72.890625 C 45.695312 72.890625 45.628906 72.867188 45.578125 72.816406 C 45.472656 72.714844 45.46875 72.550781 45.570312 72.445312 C 52.082031 65.703125 58.804688 59.105469 65.308594 52.726562 C 67.40625 50.664062 69.507812 48.601562 71.609375 46.527344 C 71.714844 46.425781 71.882812 46.425781 71.984375 46.53125 C 72.089844 46.632812 72.085938 46.800781 71.984375 46.902344 C 69.882812 48.976562 67.777344 51.039062 65.679688 53.101562 C 59.179688 59.476562 52.457031 66.074219 45.953125 72.808594 C 45.902344 72.863281 45.832031 72.890625 45.761719 72.890625 " fill-opacity="1" fill-rule="nonzero"/><path fill="#1b1c2a" d="M 46.871094 73.375 C 46.808594 73.375 46.746094 73.351562 46.695312 73.304688 C 46.585938 73.207031 46.578125 73.042969 46.675781 72.933594 L 47.027344 72.550781 C 51.5 67.683594 56.363281 63.054688 61.066406 58.578125 C 64.550781 55.261719 68.15625 51.828125 71.570312 48.328125 C 71.675781 48.226562 71.84375 48.222656 71.945312 48.324219 C 72.050781 48.425781 72.054688 48.589844 71.953125 48.695312 C 68.53125 52.203125 64.921875 55.636719 61.433594 58.960938 C 56.734375 63.429688 51.878906 68.054688 47.417969 72.90625 L 47.070312 73.289062 C 47.015625 73.34375 46.945312 73.375 46.871094 73.375 " fill-opacity="1" fill-rule="nonzero"/><path fill="#1b1c2a" d="M 47.945312 73.917969 C 47.878906 73.917969 47.8125 73.890625 47.761719 73.84375 C 47.65625 73.742188 47.652344 73.578125 47.753906 73.472656 C 52.027344 69.023438 56.523438 64.65625 60.871094 60.429688 C 64.410156 56.988281 68.070312 53.429688 71.589844 49.847656 C 71.695312 49.746094 71.859375 49.742188 71.964844 49.84375 C 72.070312 49.945312 72.074219 50.113281 71.96875 50.21875 C 68.445312 53.800781 64.78125 57.363281 61.238281 60.804688 C 56.894531 65.027344 52.402344 69.394531 48.136719 73.835938 C 48.082031 73.890625 48.011719 73.917969 47.945312 73.917969 " fill-opacity="1" fill-rule="nonzero"/><path fill="#1b1c2a" d="M 49.015625 74.449219 C 48.949219 74.449219 48.882812 74.425781 48.832031 74.378906 C 48.726562 74.277344 48.722656 74.113281 48.824219 74.007812 C 52.984375 69.664062 57.367188 65.402344 61.609375 61.285156 C 64.90625 58.082031 68.316406 54.769531 71.59375 51.441406 C 71.695312 51.335938 71.863281 51.335938 71.96875 51.4375 C 72.074219 51.539062 72.074219 51.707031 71.972656 51.808594 C 68.6875 55.140625 65.277344 58.457031 61.980469 61.660156 C 57.742188 65.777344 53.359375 70.03125 49.207031 74.367188 C 49.152344 74.425781 49.085938 74.449219 49.015625 74.449219 " fill-opacity="1" fill-rule="nonzero"/><path fill="#1b1c2a" d="M 50.070312 74.996094 C 50.003906 74.996094 49.933594 74.972656 49.882812 74.921875 C 49.78125 74.816406 49.78125 74.648438 49.886719 74.546875 C 53.613281 70.886719 57.363281 67.125 60.992188 63.488281 C 64.464844 60.003906 68.058594 56.402344 71.625 52.890625 C 71.726562 52.789062 71.894531 52.789062 72 52.894531 C 72.101562 52.996094 72.101562 53.164062 71.996094 53.265625 C 68.429688 56.773438 64.839844 60.375 61.367188 63.859375 C 57.738281 67.496094 53.984375 71.257812 50.257812 74.921875 C 50.207031 74.972656 50.140625 74.996094 50.070312 74.996094 " fill-opacity="1" fill-rule="nonzero"/><path fill="#1b1c2a" d="M 51.160156 75.515625 C 51.09375 75.515625 51.027344 75.488281 50.976562 75.4375 C 50.871094 75.335938 50.867188 75.171875 50.972656 75.066406 C 55.277344 70.679688 59.730469 66.292969 64.035156 62.050781 C 66.535156 59.585938 69.113281 57.042969 71.640625 54.527344 C 71.742188 54.421875 71.910156 54.421875 72.015625 54.523438 C 72.117188 54.628906 72.117188 54.792969 72.015625 54.898438 C 69.488281 57.414062 66.90625 59.960938 64.40625 62.421875 C 60.105469 66.664062 55.65625 71.050781 51.347656 75.433594 C 51.296875 75.488281 51.230469 75.515625 51.160156 75.515625 " fill-opacity="1" fill-rule="nonzero"/><path fill="#1b1c2a" d="M 52.230469 76.046875 C 52.160156 76.046875 52.089844 76.019531 52.039062 75.964844 C 51.9375 75.863281 51.941406 75.695312 52.046875 75.59375 C 56.054688 71.785156 60.003906 67.785156 63.820312 63.914062 C 66.363281 61.34375 68.988281 58.679688 71.609375 56.101562 C 71.714844 55.996094 71.878906 56 71.984375 56.101562 C 72.085938 56.203125 72.085938 56.371094 71.980469 56.472656 C 69.363281 59.054688 66.738281 61.710938 64.199219 64.285156 C 60.378906 68.15625 56.425781 72.160156 52.414062 75.976562 C 52.363281 76.023438 52.296875 76.046875 52.230469 76.046875 " fill-opacity="1" fill-rule="nonzero"/><path fill="#1b1c2a" d="M 53.320312 76.5625 C 53.25 76.5625 53.183594 76.539062 53.132812 76.484375 C 53.027344 76.382812 53.027344 76.214844 53.132812 76.113281 C 59.25 70.070312 65.484375 63.871094 71.671875 57.6875 C 71.773438 57.585938 71.941406 57.585938 72.046875 57.6875 C 72.148438 57.789062 72.148438 57.957031 72.046875 58.058594 C 65.859375 64.242188 59.621094 70.441406 53.507812 76.488281 C 53.453125 76.539062 53.386719 76.5625 53.320312 76.5625 " fill-opacity="1" fill-rule="nonzero"/><path fill="#1b1c2a" d="M 54.542969 76.945312 C 54.472656 76.945312 54.40625 76.917969 54.355469 76.867188 C 54.25 76.765625 54.25 76.597656 54.355469 76.496094 C 60.0625 70.839844 65.882812 65.054688 71.65625 59.296875 C 71.761719 59.195312 71.929688 59.191406 72.03125 59.296875 C 72.136719 59.398438 72.136719 59.566406 72.03125 59.667969 C 66.257812 65.425781 60.4375 71.210938 54.730469 76.867188 C 54.675781 76.921875 54.609375 76.945312 54.542969 76.945312 " fill-opacity="1" fill-rule="nonzero"/><path fill="#1b1c2a" d="M 55.601562 77.488281 C 55.535156 77.488281 55.46875 77.464844 55.417969 77.410156 C 55.3125 77.308594 55.3125 77.140625 55.417969 77.039062 C 60.824219 71.664062 66.234375 66.285156 71.640625 60.90625 C 71.742188 60.804688 71.910156 60.804688 72.015625 60.90625 C 72.117188 61.011719 72.117188 61.175781 72.015625 61.28125 C 66.609375 66.65625 61.199219 72.035156 55.789062 77.410156 C 55.738281 77.464844 55.671875 77.488281 55.601562 77.488281 " fill-opacity="1" fill-rule="nonzero"/><path fill="#1b1c2a" d="M 56.796875 77.898438 C 56.730469 77.898438 56.660156 77.875 56.609375 77.824219 C 56.507812 77.722656 56.507812 77.554688 56.609375 77.453125 C 61.570312 72.503906 66.664062 67.4375 71.746094 62.390625 C 71.851562 62.289062 72.019531 62.289062 72.121094 62.390625 C 72.226562 62.496094 72.226562 62.660156 72.121094 62.765625 C 67.039062 67.808594 61.945312 72.875 56.984375 77.824219 C 56.933594 77.875 56.863281 77.898438 56.796875 77.898438 " fill-opacity="1" fill-rule="nonzero"/><path fill="#1b1c2a" d="M 59.03125 77.273438 C 58.960938 77.273438 58.894531 77.25 58.84375 77.199219 C 58.738281 77.09375 58.738281 76.929688 58.84375 76.824219 C 60.523438 75.15625 62.242188 73.472656 63.902344 71.839844 C 66.46875 69.324219 69.125 66.722656 71.691406 64.125 C 71.792969 64.019531 71.960938 64.019531 72.066406 64.121094 C 72.167969 64.222656 72.171875 64.386719 72.066406 64.492188 C 69.5 67.09375 66.84375 69.699219 64.273438 72.214844 C 62.613281 73.84375 60.894531 75.53125 59.214844 77.199219 C 59.164062 77.25 59.097656 77.273438 59.03125 77.273438 " fill-opacity="1" fill-rule="nonzero"/><path fill="#1b1c2a" d="M 62.042969 75.878906 C 61.96875 75.878906 61.898438 75.851562 61.84375 75.792969 C 61.746094 75.683594 61.757812 75.515625 61.867188 75.421875 C 64.136719 73.417969 66.265625 71.191406 68.324219 69.039062 C 69.46875 67.839844 70.65625 66.597656 71.855469 65.40625 C 71.960938 65.304688 72.128906 65.304688 72.230469 65.40625 C 72.335938 65.511719 72.335938 65.675781 72.230469 65.78125 C 71.035156 66.964844 69.851562 68.203125 68.707031 69.402344 C 66.640625 71.5625 64.503906 73.796875 62.21875 75.8125 C 62.167969 75.859375 62.105469 75.878906 62.042969 75.878906 " fill-opacity="1" fill-rule="nonzero"/><path fill="#1b1c2a" d="M 64.816406 74.71875 C 64.75 74.71875 64.679688 74.695312 64.628906 74.644531 C 64.527344 74.539062 64.527344 74.375 64.628906 74.269531 L 71.960938 66.976562 C 72.066406 66.875 72.234375 66.875 72.335938 66.976562 C 72.441406 67.082031 72.441406 67.246094 72.335938 67.351562 L 65.003906 74.644531 C 64.953125 74.695312 64.882812 74.71875 64.816406 74.71875 " fill-opacity="1" fill-rule="nonzero"/><path fill="#1b1c2a" d="M 67.257812 73.890625 C 67.1875 73.890625 67.121094 73.867188 67.070312 73.8125 C 66.964844 73.710938 66.964844 73.546875 67.070312 73.441406 L 72.105469 68.433594 C 72.210938 68.332031 72.375 68.332031 72.480469 68.433594 C 72.582031 68.535156 72.582031 68.703125 72.480469 68.804688 L 67.445312 73.8125 C 67.390625 73.867188 67.324219 73.890625 67.257812 73.890625 " fill-opacity="1" fill-rule="nonzero"/><path fill="#1b1c2a" d="M 69.5 73.257812 C 69.433594 73.257812 69.367188 73.230469 69.316406 73.179688 C 69.210938 73.078125 69.210938 72.910156 69.316406 72.808594 L 72.308594 69.832031 C 72.410156 69.730469 72.578125 69.730469 72.679688 69.832031 C 72.785156 69.933594 72.785156 70.101562 72.679688 70.203125 L 69.6875 73.179688 C 69.636719 73.230469 69.570312 73.257812 69.5 73.257812 " fill-opacity="1" fill-rule="nonzero"/><g clip-path="url(#832250cfe1)"><path fill="#1b1c2a" d="M 71.75 72.621094 C 71.683594 72.621094 71.613281 72.59375 71.5625 72.542969 C 71.460938 72.441406 71.460938 72.273438 71.5625 72.171875 L 72.578125 71.160156 C 72.679688 71.058594 72.847656 71.058594 72.953125 71.160156 C 73.054688 71.265625 73.054688 71.429688 72.953125 71.535156 L 71.9375 72.542969 C 71.886719 72.59375 71.816406 72.621094 71.75 72.621094 " fill-opacity="1" fill-rule="nonzero"/></g><path fill="#db1f26" d="M 64.859375 61.433594 L 54.640625 61.433594 L 54.640625 58.421875 L 64.859375 58.421875 L 64.859375 61.433594 " fill-opacity="1" fill-rule="nonzero"/><path fill="#1b1c2a" d="M 55.300781 60.777344 L 64.195312 60.777344 L 64.195312 59.082031 L 55.300781 59.082031 Z M 64.859375 62.089844 L 54.640625 62.089844 C 54.273438 62.089844 53.976562 61.796875 53.976562 61.433594 L 53.976562 58.421875 C 53.976562 58.058594 54.273438 57.765625 54.640625 57.765625 L 64.859375 57.765625 C 65.222656 57.765625 65.519531 58.058594 65.519531 58.421875 L 65.519531 61.433594 C 65.519531 61.796875 65.222656 62.089844 64.859375 62.089844 " fill-opacity="1" fill-rule="nonzero"/><path fill="#1b1c2a" d="M 50.949219 43.957031 C 50.949219 44.695312 50.347656 45.296875 49.601562 45.296875 C 48.859375 45.296875 48.253906 44.695312 48.253906 43.957031 C 48.253906 43.214844 48.859375 42.617188 49.601562 42.617188 C 50.347656 42.617188 50.949219 43.214844 50.949219 43.957031 " fill-opacity="1" fill-rule="nonzero"/><path fill="#1b1c2a" d="M 50.949219 50.238281 C 50.949219 50.976562 50.347656 51.578125 49.601562 51.578125 C 48.859375 51.578125 48.253906 50.976562 48.253906 50.238281 C 48.253906 49.496094 48.859375 48.894531 49.601562 48.894531 C 50.347656 48.894531 50.949219 49.496094 50.949219 50.238281 " fill-opacity="1" fill-rule="nonzero"/><path fill="#1b1c2a" d="M 50.949219 56.515625 C 50.949219 57.257812 50.347656 57.859375 49.601562 57.859375 C 48.859375 57.859375 48.253906 57.257812 48.253906 56.515625 C 48.253906 55.777344 48.859375 55.175781 49.601562 55.175781 C 50.347656 55.175781 50.949219 55.777344 50.949219 56.515625 " fill-opacity="1" fill-rule="nonzero"/><path fill="#1b1c2a" d="M 50.949219 62.796875 C 50.949219 63.539062 50.347656 64.140625 49.601562 64.140625 C 48.859375 64.140625 48.253906 63.539062 48.253906 62.796875 C 48.253906 62.058594 48.859375 61.457031 49.601562 61.457031 C 50.347656 61.457031 50.949219 62.058594 50.949219 62.796875 " fill-opacity="1" fill-rule="nonzero"/><path fill="#1b1c2a" d="M 50.949219 69.078125 C 50.949219 69.820312 50.347656 70.417969 49.601562 70.417969 C 48.859375 70.417969 48.253906 69.820312 48.253906 69.078125 C 48.253906 68.339844 48.859375 67.738281 49.601562 67.738281 C 50.347656 67.738281 50.949219 68.339844 50.949219 69.078125 " fill-opacity="1" fill-rule="nonzero"/><g fill="#000000" fill-opacity="1"><g transform="translate(107.791243, 58.05312)"><g><path d="M 23.015625 -20.3125 L 23.015625 0 L 20.34375 0 L 20.34375 -15.15625 L 13.59375 0 L 11.71875 0 L 4.9375 -15.171875 L 4.9375 0 L 2.265625 0 L 2.265625 -20.3125 L 5.140625 -20.3125 L 12.65625 -3.515625 L 20.171875 -20.3125 Z M 23.015625 -20.3125 "/></g></g></g><g fill="#000000" fill-opacity="1"><g transform="translate(133.064519, 58.05312)"><g><path d="M 16.9375 -8.65625 C 16.9375 -8.144531 16.910156 -7.609375 16.859375 -7.046875 L 4 -7.046875 C 4.09375 -5.460938 4.632812 -4.222656 5.625 -3.328125 C 6.613281 -2.441406 7.8125 -2 9.21875 -2 C 10.375 -2 11.335938 -2.265625 12.109375 -2.796875 C 12.878906 -3.335938 13.421875 -4.0625 13.734375 -4.96875 L 16.625 -4.96875 C 16.1875 -3.414062 15.320312 -2.15625 14.03125 -1.1875 C 12.738281 -0.21875 11.132812 0.265625 9.21875 0.265625 C 7.6875 0.265625 6.316406 -0.078125 5.109375 -0.765625 C 3.910156 -1.453125 2.96875 -2.425781 2.28125 -3.6875 C 1.601562 -4.945312 1.265625 -6.410156 1.265625 -8.078125 C 1.265625 -9.734375 1.597656 -11.1875 2.265625 -12.4375 C 2.929688 -13.695312 3.863281 -14.664062 5.0625 -15.34375 C 6.269531 -16.019531 7.65625 -16.359375 9.21875 -16.359375 C 10.75 -16.359375 12.097656 -16.023438 13.265625 -15.359375 C 14.441406 -14.691406 15.347656 -13.773438 15.984375 -12.609375 C 16.617188 -11.441406 16.9375 -10.125 16.9375 -8.65625 Z M 14.1875 -9.21875 C 14.1875 -10.238281 13.957031 -11.113281 13.5 -11.84375 C 13.050781 -12.582031 12.441406 -13.140625 11.671875 -13.515625 C 10.898438 -13.898438 10.039062 -14.09375 9.09375 -14.09375 C 7.75 -14.09375 6.601562 -13.660156 5.65625 -12.796875 C 4.707031 -11.941406 4.160156 -10.75 4.015625 -9.21875 Z M 14.1875 -9.21875 "/></g></g></g><g fill="#000000" fill-opacity="1"><g transform="translate(151.263623, 58.05312)"><g><path d="M 10.09375 -16.375 C 12.050781 -16.375 13.632812 -15.78125 14.84375 -14.59375 C 16.0625 -13.414062 16.671875 -11.710938 16.671875 -9.484375 L 16.671875 0 L 14.03125 0 L 14.03125 -9.09375 C 14.03125 -10.707031 13.628906 -11.9375 12.828125 -12.78125 C 12.023438 -13.632812 10.929688 -14.0625 9.546875 -14.0625 C 8.128906 -14.0625 7.003906 -13.617188 6.171875 -12.734375 C 5.347656 -11.859375 4.9375 -10.578125 4.9375 -8.890625 L 4.9375 0 L 2.265625 0 L 2.265625 -16.09375 L 4.9375 -16.09375 L 4.9375 -13.796875 C 5.457031 -14.617188 6.171875 -15.253906 7.078125 -15.703125 C 7.992188 -16.148438 9 -16.375 10.09375 -16.375 Z M 10.09375 -16.375 "/></g></g></g><g fill="#000000" fill-opacity="1"><g transform="translate(170.049798, 58.05312)"><g><path d="M 3.609375 -23.375 L 3.265625 -17.53125 L 1.40625 -17.53125 L 1.03125 -23.375 Z M 3.609375 -23.375 "/></g></g></g><g fill="#000000" fill-opacity="1"><g transform="translate(174.716988, 58.05312)"><g><path d="M 7.953125 0.265625 C 6.722656 0.265625 5.617188 0.0546875 4.640625 -0.359375 C 3.660156 -0.785156 2.882812 -1.375 2.3125 -2.125 C 1.75 -2.882812 1.4375 -3.753906 1.375 -4.734375 L 4.140625 -4.734375 C 4.210938 -3.921875 4.585938 -3.257812 5.265625 -2.75 C 5.941406 -2.25 6.828125 -2 7.921875 -2 C 8.941406 -2 9.742188 -2.222656 10.328125 -2.671875 C 10.921875 -3.117188 11.21875 -3.6875 11.21875 -4.375 C 11.21875 -5.082031 10.90625 -5.601562 10.28125 -5.9375 C 9.65625 -6.28125 8.6875 -6.617188 7.375 -6.953125 C 6.175781 -7.265625 5.195312 -7.582031 4.4375 -7.90625 C 3.6875 -8.226562 3.039062 -8.707031 2.5 -9.34375 C 1.96875 -9.988281 1.703125 -10.828125 1.703125 -11.859375 C 1.703125 -12.679688 1.945312 -13.4375 2.4375 -14.125 C 2.925781 -14.8125 3.617188 -15.351562 4.515625 -15.75 C 5.421875 -16.15625 6.453125 -16.359375 7.609375 -16.359375 C 9.390625 -16.359375 10.828125 -15.90625 11.921875 -15 C 13.015625 -14.101562 13.601562 -12.867188 13.6875 -11.296875 L 11.015625 -11.296875 C 10.953125 -12.140625 10.613281 -12.816406 10 -13.328125 C 9.382812 -13.835938 8.554688 -14.09375 7.515625 -14.09375 C 6.554688 -14.09375 5.789062 -13.882812 5.21875 -13.46875 C 4.65625 -13.0625 4.375 -12.523438 4.375 -11.859375 C 4.375 -11.328125 4.546875 -10.890625 4.890625 -10.546875 C 5.234375 -10.210938 5.660156 -9.941406 6.171875 -9.734375 C 6.691406 -9.523438 7.414062 -9.296875 8.34375 -9.046875 C 9.488281 -8.734375 10.425781 -8.421875 11.15625 -8.109375 C 11.882812 -7.804688 12.503906 -7.351562 13.015625 -6.75 C 13.535156 -6.144531 13.804688 -5.351562 13.828125 -4.375 C 13.828125 -3.488281 13.582031 -2.691406 13.09375 -1.984375 C 12.601562 -1.285156 11.910156 -0.734375 11.015625 -0.328125 C 10.128906 0.0664062 9.109375 0.265625 7.953125 0.265625 Z M 7.953125 0.265625 "/></g></g></g><g fill="#000000" fill-opacity="1"><g transform="translate(190.039464, 58.05312)"><g/></g></g><g fill="#000000" fill-opacity="1"><g transform="translate(197.876817, 58.05312)"><g><path d="M 1.265625 -8.078125 C 1.265625 -9.734375 1.597656 -11.179688 2.265625 -12.421875 C 2.929688 -13.671875 3.851562 -14.640625 5.03125 -15.328125 C 6.21875 -16.015625 7.570312 -16.359375 9.09375 -16.359375 C 11.070312 -16.359375 12.703125 -15.875 13.984375 -14.90625 C 15.265625 -13.945312 16.113281 -12.617188 16.53125 -10.921875 L 13.65625 -10.921875 C 13.375 -11.898438 12.835938 -12.671875 12.046875 -13.234375 C 11.253906 -13.804688 10.269531 -14.09375 9.09375 -14.09375 C 7.570312 -14.09375 6.34375 -13.566406 5.40625 -12.515625 C 4.46875 -11.472656 4 -9.992188 4 -8.078125 C 4 -6.140625 4.46875 -4.640625 5.40625 -3.578125 C 6.34375 -2.523438 7.570312 -2 9.09375 -2 C 10.269531 -2 11.25 -2.269531 12.03125 -2.8125 C 12.820312 -3.363281 13.363281 -4.148438 13.65625 -5.171875 L 16.53125 -5.171875 C 16.101562 -3.523438 15.242188 -2.207031 13.953125 -1.21875 C 12.660156 -0.226562 11.039062 0.265625 9.09375 0.265625 C 7.570312 0.265625 6.21875 -0.078125 5.03125 -0.765625 C 3.851562 -1.453125 2.929688 -2.421875 2.265625 -3.671875 C 1.597656 -4.921875 1.265625 -6.390625 1.265625 -8.078125 Z M 1.265625 -8.078125 "/></g></g></g><g fill="#000000" fill-opacity="1"><g transform="translate(215.69433, 58.05312)"><g><path d="M 4.9375 -21.71875 L 4.9375 0 L 2.265625 0 L 2.265625 -21.71875 Z M 4.9375 -21.71875 "/></g></g></g><g fill="#000000" fill-opacity="1"><g transform="translate(222.915264, 58.05312)"><g><path d="M 9.28125 0.265625 C 7.769531 0.265625 6.398438 -0.078125 5.171875 -0.765625 C 3.953125 -1.453125 2.992188 -2.425781 2.296875 -3.6875 C 1.609375 -4.945312 1.265625 -6.410156 1.265625 -8.078125 C 1.265625 -9.722656 1.617188 -11.175781 2.328125 -12.4375 C 3.046875 -13.695312 4.019531 -14.664062 5.25 -15.34375 C 6.488281 -16.019531 7.867188 -16.359375 9.390625 -16.359375 C 10.921875 -16.359375 12.300781 -16.019531 13.53125 -15.34375 C 14.769531 -14.664062 15.742188 -13.695312 16.453125 -12.4375 C 17.171875 -11.1875 17.53125 -9.734375 17.53125 -8.078125 C 17.53125 -6.410156 17.160156 -4.945312 16.421875 -3.6875 C 15.691406 -2.425781 14.695312 -1.453125 13.4375 -0.765625 C 12.1875 -0.078125 10.800781 0.265625 9.28125 0.265625 Z M 9.28125 -2.078125 C 10.238281 -2.078125 11.132812 -2.300781 11.96875 -2.75 C 12.8125 -3.207031 13.492188 -3.882812 14.015625 -4.78125 C 14.535156 -5.6875 14.796875 -6.785156 14.796875 -8.078125 C 14.796875 -9.367188 14.539062 -10.460938 14.03125 -11.359375 C 13.519531 -12.265625 12.851562 -12.9375 12.03125 -13.375 C 11.207031 -13.8125 10.316406 -14.03125 9.359375 -14.03125 C 8.378906 -14.03125 7.484375 -13.8125 6.671875 -13.375 C 5.859375 -12.9375 5.207031 -12.265625 4.71875 -11.359375 C 4.238281 -10.460938 4 -9.367188 4 -8.078125 C 4 -6.765625 4.238281 -5.65625 4.71875 -4.75 C 5.195312 -3.851562 5.835938 -3.179688 6.640625 -2.734375 C 7.441406 -2.296875 8.320312 -2.078125 9.28125 -2.078125 Z M 9.28125 -2.078125 "/></g></g></g><g fill="#000000" fill-opacity="1"><g transform="translate(241.70144, 58.05312)"><g><path d="M 5.515625 -13.890625 L 5.515625 -4.40625 C 5.515625 -3.625 5.679688 -3.070312 6.015625 -2.75 C 6.347656 -2.425781 6.925781 -2.265625 7.75 -2.265625 L 9.71875 -2.265625 L 9.71875 0 L 7.3125 0 C 5.820312 0 4.703125 -0.34375 3.953125 -1.03125 C 3.210938 -1.71875 2.84375 -2.84375 2.84375 -4.40625 L 2.84375 -13.890625 L 0.765625 -13.890625 L 0.765625 -16.09375 L 2.84375 -16.09375 L 2.84375 -20.140625 L 5.515625 -20.140625 L 5.515625 -16.09375 L 9.71875 -16.09375 L 9.71875 -13.890625 Z M 5.515625 -13.890625 "/></g></g></g><g fill="#000000" fill-opacity="1"><g transform="translate(252.386073, 58.05312)"><g><path d="M 10.25 -16.375 C 11.457031 -16.375 12.550781 -16.113281 13.53125 -15.59375 C 14.507812 -15.082031 15.273438 -14.304688 15.828125 -13.265625 C 16.390625 -12.234375 16.671875 -10.972656 16.671875 -9.484375 L 16.671875 0 L 14.03125 0 L 14.03125 -9.09375 C 14.03125 -10.707031 13.628906 -11.9375 12.828125 -12.78125 C 12.023438 -13.632812 10.929688 -14.0625 9.546875 -14.0625 C 8.128906 -14.0625 7.003906 -13.617188 6.171875 -12.734375 C 5.347656 -11.859375 4.9375 -10.578125 4.9375 -8.890625 L 4.9375 0 L 2.265625 0 L 2.265625 -21.71875 L 4.9375 -21.71875 L 4.9375 -13.796875 C 5.457031 -14.617188 6.179688 -15.253906 7.109375 -15.703125 C 8.046875 -16.148438 9.09375 -16.375 10.25 -16.375 Z M 10.25 -16.375 "/></g></g></g><g fill="#000000" fill-opacity="1"><g transform="translate(271.172248, 58.05312)"><g><path d="M 3.640625 -18.703125 C 3.128906 -18.703125 2.695312 -18.878906 2.34375 -19.234375 C 1.988281 -19.585938 1.8125 -20.015625 1.8125 -20.515625 C 1.8125 -21.023438 1.988281 -21.457031 2.34375 -21.8125 C 2.695312 -22.164062 3.128906 -22.34375 3.640625 -22.34375 C 4.128906 -22.34375 4.546875 -22.164062 4.890625 -21.8125 C 5.234375 -21.457031 5.40625 -21.023438 5.40625 -20.515625 C 5.40625 -20.015625 5.234375 -19.585938 4.890625 -19.234375 C 4.546875 -18.878906 4.128906 -18.703125 3.640625 -18.703125 Z M 4.9375 -16.09375 L 4.9375 0 L 2.265625 0 L 2.265625 -16.09375 Z M 4.9375 -16.09375 "/></g></g></g><g fill="#000000" fill-opacity="1"><g transform="translate(278.393183, 58.05312)"><g><path d="M 10.09375 -16.375 C 12.050781 -16.375 13.632812 -15.78125 14.84375 -14.59375 C 16.0625 -13.414062 16.671875 -11.710938 16.671875 -9.484375 L 16.671875 0 L 14.03125 0 L 14.03125 -9.09375 C 14.03125 -10.707031 13.628906 -11.9375 12.828125 -12.78125 C 12.023438 -13.632812 10.929688 -14.0625 9.546875 -14.0625 C 8.128906 -14.0625 7.003906 -13.617188 6.171875 -12.734375 C 5.347656 -11.859375 4.9375 -10.578125 4.9375 -8.890625 L 4.9375 0 L 2.265625 0 L 2.265625 -16.09375 L 4.9375 -16.09375 L 4.9375 -13.796875 C 5.457031 -14.617188 6.171875 -15.253906 7.078125 -15.703125 C 7.992188 -16.148438 9 -16.375 10.09375 -16.375 Z M 10.09375 -16.375 "/></g></g></g><g fill="#000000" fill-opacity="1"><g transform="translate(297.179358, 58.05312)"><g><path d="M 8.890625 -16.359375 C 10.285156 -16.359375 11.503906 -16.050781 12.546875 -15.4375 C 13.597656 -14.832031 14.378906 -14.070312 14.890625 -13.15625 L 14.890625 -16.09375 L 17.59375 -16.09375 L 17.59375 0.359375 C 17.59375 1.816406 17.273438 3.117188 16.640625 4.265625 C 16.015625 5.410156 15.117188 6.304688 13.953125 6.953125 C 12.796875 7.597656 11.441406 7.921875 9.890625 7.921875 C 7.773438 7.921875 6.015625 7.421875 4.609375 6.421875 C 3.203125 5.429688 2.367188 4.070312 2.109375 2.34375 L 4.75 2.34375 C 5.050781 3.320312 5.660156 4.109375 6.578125 4.703125 C 7.492188 5.304688 8.597656 5.609375 9.890625 5.609375 C 11.359375 5.609375 12.554688 5.144531 13.484375 4.21875 C 14.421875 3.300781 14.890625 2.015625 14.890625 0.359375 L 14.890625 -3.03125 C 14.359375 -2.082031 13.570312 -1.296875 12.53125 -0.671875 C 11.5 -0.046875 10.285156 0.265625 8.890625 0.265625 C 7.460938 0.265625 6.164062 -0.0820312 5 -0.78125 C 3.84375 -1.488281 2.929688 -2.476562 2.265625 -3.75 C 1.597656 -5.03125 1.265625 -6.484375 1.265625 -8.109375 C 1.265625 -9.742188 1.597656 -11.179688 2.265625 -12.421875 C 2.929688 -13.671875 3.84375 -14.640625 5 -15.328125 C 6.164062 -16.015625 7.460938 -16.359375 8.890625 -16.359375 Z M 14.890625 -8.078125 C 14.890625 -9.285156 14.644531 -10.335938 14.15625 -11.234375 C 13.664062 -12.140625 13.003906 -12.832031 12.171875 -13.3125 C 11.335938 -13.789062 10.421875 -14.03125 9.421875 -14.03125 C 8.421875 -14.03125 7.507812 -13.796875 6.6875 -13.328125 C 5.863281 -12.859375 5.207031 -12.171875 4.71875 -11.265625 C 4.238281 -10.367188 4 -9.316406 4 -8.109375 C 4 -6.867188 4.238281 -5.789062 4.71875 -4.875 C 5.207031 -3.96875 5.863281 -3.273438 6.6875 -2.796875 C 7.507812 -2.316406 8.421875 -2.078125 9.421875 -2.078125 C 10.421875 -2.078125 11.335938 -2.316406 12.171875 -2.796875 C 13.003906 -3.273438 13.664062 -3.96875 14.15625 -4.875 C 14.644531 -5.789062 14.890625 -6.859375 14.890625 -8.078125 Z M 14.890625 -8.078125 "/></g></g></g></svg>