<svg xmlns="http://www.w3.org/2000/svg" xmlns:xlink="http://www.w3.org/1999/xlink" width="500" zoomAndPan="magnify" viewBox="0 0 375 82.499998" height="110" preserveAspectRatio="xMidYMid meet" version="1.0"><defs><g/><clipPath id="b42d33163d"><path d="M 1.128906 0 L 373.871094 0 L 373.871094 82.003906 L 1.128906 82.003906 Z M 1.128906 0 " clip-rule="nonzero"/></clipPath><clipPath id="3e76d2af33"><path d="M 29 8.199219 L 43 8.199219 L 43 32 L 29 32 Z M 29 8.199219 " clip-rule="nonzero"/></clipPath><clipPath id="96b55ae552"><path d="M 36 8.199219 L 60 8.199219 L 60 32 L 36 32 Z M 36 8.199219 " clip-rule="nonzero"/></clipPath><clipPath id="c950f0e78e"><path d="M 40 8.199219 L 56 8.199219 L 56 32 L 40 32 Z M 40 8.199219 " clip-rule="nonzero"/></clipPath><clipPath id="0aaffdc358"><path d="M 54 8.199219 L 68 8.199219 L 68 31 L 54 31 Z M 54 8.199219 " clip-rule="nonzero"/></clipPath></defs><g clip-path="url(#b42d33163d)"><path fill="#ffffff" d="M 1.128906 0 L 373.871094 0 L 373.871094 82.003906 L 1.128906 82.003906 Z M 1.128906 0 " fill-opacity="1" fill-rule="nonzero"/><path fill="#ffffff" d="M 1.128906 0 L 373.871094 0 L 373.871094 82.003906 L 1.128906 82.003906 Z M 1.128906 0 " fill-opacity="1" fill-rule="nonzero"/></g><path fill="#ffffff" d="M 43.28125 42.730469 C 43.28125 45.339844 42.402344 51.132812 43.28125 53.511719 C 45 58.183594 44.726562 59.949219 43.117188 63.703125 C 43.117188 63.703125 41.253906 63.320312 40.234375 65.113281 C 39.863281 65.765625 38.929688 68.0625 40.636719 68.0625 C 42.316406 68.0625 45.667969 67.847656 46.652344 67.847656 C 48.128906 67.847656 48.664062 66.503906 48.664062 64.359375 C 48.664062 62.480469 52.300781 58.222656 51.449219 56.714844 C 50.175781 54.46875 49.941406 54.214844 50.292969 52.890625 C 51.035156 50.082031 52.433594 47.101562 52.554688 43.132812 C 52.65625 39.863281 50.558594 33.878906 45.929688 33.878906 C 42.613281 33.878906 43.28125 35.269531 43.28125 42.730469 " fill-opacity="1" fill-rule="nonzero"/><path fill="#ffffff" d="M 49.105469 61.636719 C 48.308594 60.511719 47.507812 59.15625 46.125 58.675781 C 45.582031 58.488281 45.023438 58.414062 44.449219 58.382812 C 44.34375 60.050781 43.898438 61.476562 43.019531 63.527344 C 43.019531 63.527344 41.152344 63.320312 40.097656 65.171875 C 39.71875 65.84375 38.75 68.214844 40.515625 68.214844 C 42.25 68.214844 45.535156 68.222656 46.554688 68.222656 C 48.074219 68.222656 48.796875 66.605469 48.796875 64.390625 C 48.796875 63.828125 49.082031 62.875 49.511719 62.027344 C 49.359375 61.84375 49.246094 61.832031 49.105469 61.636719 " fill-opacity="1" fill-rule="nonzero"/><path fill="#231f20" d="M 40.253906 68.089844 C 40.199219 67.777344 40.257812 67.464844 40.367188 67.175781 C 40.476562 66.882812 40.652344 66.609375 40.886719 66.386719 C 41.121094 66.164062 41.417969 65.996094 41.730469 65.921875 C 42.046875 65.847656 42.375 65.867188 42.660156 65.992188 C 42.375 66.117188 42.125 66.230469 41.902344 66.367188 C 41.679688 66.5 41.484375 66.652344 41.300781 66.824219 C 41.117188 67 40.949219 67.191406 40.777344 67.40625 C 40.609375 67.617188 40.441406 67.84375 40.253906 68.089844 " fill-opacity="1" fill-rule="nonzero"/><path fill="#231f20" d="M 39.871094 66.402344 C 39.816406 66.132812 39.855469 65.851562 39.960938 65.59375 C 40.074219 65.335938 40.269531 65.101562 40.515625 64.945312 C 40.761719 64.78125 41.050781 64.703125 41.324219 64.695312 C 41.597656 64.6875 41.863281 64.742188 42.109375 64.871094 C 41.859375 64.996094 41.625 65.074219 41.414062 65.164062 C 41.203125 65.25 41.015625 65.339844 40.84375 65.449219 C 40.671875 65.558594 40.515625 65.6875 40.363281 65.847656 C 40.203125 66.011719 40.058594 66.195312 39.871094 66.402344 " fill-opacity="1" fill-rule="nonzero"/><path fill="#231f20" d="M 42.183594 68.1875 C 42.128906 67.917969 42.167969 67.640625 42.277344 67.382812 C 42.386719 67.125 42.582031 66.886719 42.828125 66.730469 C 43.074219 66.566406 43.363281 66.488281 43.636719 66.484375 C 43.910156 66.476562 44.171875 66.53125 44.421875 66.65625 C 44.171875 66.78125 43.9375 66.859375 43.726562 66.949219 C 43.515625 67.035156 43.328125 67.125 43.15625 67.234375 C 42.984375 67.347656 42.828125 67.476562 42.675781 67.636719 C 42.519531 67.796875 42.371094 67.980469 42.183594 68.1875 " fill-opacity="1" fill-rule="nonzero"/><path fill="#ffffff" d="M 75.0625 51.195312 C 70.828125 50.28125 60.710938 49.304688 55.5625 57.777344 C 55.515625 57.859375 55.464844 57.9375 55.417969 58.011719 L 55.410156 57.992188 C 55.390625 58.035156 55.367188 58.074219 55.347656 58.117188 C 55.308594 58.171875 55.269531 58.234375 55.230469 58.289062 L 55.234375 58.335938 C 52.457031 63.371094 44.367188 62.898438 44.367188 62.898438 C 43.34375 59.367188 37.757812 58.847656 38.785156 62.394531 C 39.164062 63.695312 39.730469 65.648438 39.730469 65.648438 C 40.667969 68.261719 42.253906 68.011719 43.867188 67.757812 C 44.542969 67.652344 45.222656 67.546875 45.863281 67.652344 C 48.59375 68.101562 52.097656 68.335938 54.105469 68.089844 C 54.453125 68.046875 55.921875 67.644531 56.152344 67.445312 C 56.152344 67.445312 56.398438 67.34375 56.707031 67.238281 C 57.105469 67.105469 57.609375 66.972656 57.847656 67.058594 C 70.027344 71.535156 80.253906 69.003906 81.5 60.742188 C 82.097656 56.78125 78.921875 52.023438 75.0625 51.195312 " fill-opacity="1" fill-rule="nonzero"/><path fill="#ffffff" d="M 49.746094 62.902344 C 49.648438 62.898438 49.597656 62.898438 49.597656 62.898438 C 49.5625 62.78125 49.527344 62.667969 49.480469 62.554688 C 49.570312 62.671875 49.65625 62.789062 49.746094 62.902344 " fill-opacity="1" fill-rule="nonzero"/><path fill="#ffffff" d="M 49.453125 63.886719 C 49.363281 63.457031 49.242188 62.824219 49.128906 62.398438 C 46.683594 62.664062 44.371094 62.664062 44.371094 62.664062 C 43.324219 59.0625 37.53125 58.765625 38.582031 62.382812 C 38.96875 63.710938 39.546875 65.707031 39.546875 65.707031 C 40.511719 68.390625 42.179688 68.160156 43.859375 67.929688 C 44.546875 67.835938 45.234375 67.742188 45.878906 67.847656 C 46.882812 68.011719 48.203125 68.113281 49.515625 68.066406 C 49.742188 66.679688 49.753906 65.320312 49.453125 63.886719 " fill-opacity="1" fill-rule="nonzero"/><path fill="#231f20" d="M 38.570312 60.902344 C 38.855469 60.769531 39.171875 60.734375 39.480469 60.757812 C 39.789062 60.785156 40.101562 60.875 40.382812 61.039062 C 40.660156 61.199219 40.902344 61.4375 41.0625 61.71875 C 41.222656 62 41.296875 62.320312 41.257812 62.632812 C 41.054688 62.390625 40.878906 62.183594 40.683594 62.007812 C 40.496094 61.832031 40.292969 61.6875 40.078125 61.558594 C 39.859375 61.429688 39.625 61.320312 39.375 61.21875 C 39.125 61.113281 38.863281 61.019531 38.570312 60.902344 " fill-opacity="1" fill-rule="nonzero"/><path fill="#231f20" d="M 40.082031 60.066406 C 40.324219 59.9375 40.605469 59.894531 40.882812 59.929688 C 41.164062 59.964844 41.445312 60.085938 41.664062 60.28125 C 41.886719 60.472656 42.042969 60.722656 42.125 60.984375 C 42.207031 61.246094 42.230469 61.515625 42.179688 61.789062 C 41.988281 61.585938 41.847656 61.382812 41.703125 61.203125 C 41.5625 61.023438 41.421875 60.867188 41.265625 60.734375 C 41.117188 60.601562 40.949219 60.488281 40.75 60.382812 C 40.550781 60.277344 40.335938 60.1875 40.082031 60.066406 " fill-opacity="1" fill-rule="nonzero"/><path fill="#231f20" d="M 38.769531 62.753906 C 39.011719 62.625 39.292969 62.582031 39.570312 62.617188 C 39.847656 62.648438 40.128906 62.773438 40.351562 62.964844 C 40.574219 63.160156 40.726562 63.410156 40.8125 63.671875 C 40.894531 63.933594 40.917969 64.203125 40.867188 64.472656 C 40.675781 64.269531 40.535156 64.066406 40.390625 63.890625 C 40.246094 63.710938 40.105469 63.554688 39.953125 63.421875 C 39.800781 63.289062 39.632812 63.175781 39.4375 63.070312 C 39.238281 62.964844 39.019531 62.875 38.769531 62.753906 " fill-opacity="1" fill-rule="nonzero"/><path fill="#f3aa46" d="M 82.371094 67.210938 C 88.929688 58.472656 85.339844 42.875 71.773438 36.929688 C 58 30.894531 59.375 23.25 59.375 23.25 L 43.210938 30.160156 C 43.210938 30.160156 43.210938 37.589844 43.210938 47.492188 C 43.210938 53.726562 50.132812 65.8125 54.773438 67.210938 L 82.371094 67.210938 " fill-opacity="1" fill-rule="nonzero"/><path fill="#ef773b" d="M 71.851562 36.898438 C 58.078125 30.859375 59.453125 23.214844 59.453125 23.214844 L 55.109375 25.074219 C 55.300781 26.464844 56.5 32.792969 62.792969 36.59375 C 69.894531 40.886719 76.015625 44.644531 76.015625 52.691406 C 76.015625 58 78.097656 63.898438 80.988281 67.175781 L 82.453125 67.175781 C 89.007812 58.441406 85.417969 42.839844 71.851562 36.898438 " fill-opacity="1" fill-rule="nonzero"/><path fill="#f3aa46" d="M 86.707031 51.632812 C 86.707031 51.632812 89.410156 46.207031 87.523438 40.382812 C 85.636719 34.558594 91.691406 31.003906 92.789062 30.085938 C 92.789062 30.085938 90.148438 35.984375 91.386719 39.074219 C 93.621094 44.640625 95.414062 55.152344 84.703125 60.832031 C 84.703125 60.832031 83.210938 54.398438 86.707031 51.632812 " fill-opacity="1" fill-rule="nonzero"/><path fill="#ffffff" d="M 87.523438 40.382812 C 87.542969 40.429688 89.011719 40.640625 89.617188 40.445312 C 91.035156 39.980469 91.457031 39.335938 91.386719 39.074219 C 90.460938 35.519531 93.109375 29.550781 93.109375 29.550781 C 92.011719 30.472656 84.710938 33.566406 87.523438 40.382812 " fill-opacity="1" fill-rule="nonzero"/><g clip-path="url(#3e76d2af33)"><path fill="#f3aa46" d="M 42.921875 8.386719 C 42.921875 8.386719 40.78125 8.699219 38.492188 9.683594 C 35.90625 10.792969 33.042969 12.183594 31.425781 13.503906 C 29.988281 14.675781 29.492188 15.578125 29.980469 17.167969 C 30.835938 19.945312 32.859375 26.703125 33.941406 30.328125 C 34.371094 31.769531 35.304688 32.34375 36.167969 31.664062 C 37.832031 30.359375 40.289062 27.929688 40.394531 24.894531 C 40.558594 20.277344 42.921875 8.386719 42.921875 8.386719 " fill-opacity="1" fill-rule="nonzero"/></g><g clip-path="url(#96b55ae552)"><path fill="#f3aa46" d="M 58.519531 19.902344 L 56.972656 10.949219 L 54.5 8.488281 C 54.5 8.488281 52.761719 8.207031 52.28125 8.257812 C 51.125 8.378906 49.136719 8.804688 47.96875 8.800781 L 47.96875 8.8125 L 47.96875 8.800781 C 46.800781 8.808594 44.8125 8.394531 43.652344 8.28125 C 43.175781 8.234375 40.253906 8.894531 38.976562 11 C 37.792969 12.9375 37.480469 19.960938 37.480469 19.960938 C 36.761719 21.300781 35.734375 25.546875 38.210938 27.195312 C 42.207031 29.855469 43.101562 31.894531 46.605469 31.886719 L 48.03125 31.882812 L 48.03125 31.871094 L 48.035156 31.882812 L 49.460938 31.878906 C 52.964844 31.867188 53.84375 29.824219 57.828125 27.140625 C 60.296875 25.476562 59.246094 21.238281 58.519531 19.902344 " fill-opacity="1" fill-rule="nonzero"/></g><g clip-path="url(#c950f0e78e)"><path fill="#ffffff" d="M 50.152344 21.671875 L 49.101562 8.710938 C 48.824219 8.742188 48.265625 8.773438 47.984375 8.785156 C 47.710938 8.792969 47.386719 8.804688 46.890625 8.738281 L 45.855469 21.742188 C 43.210938 22.335938 40.828125 23.964844 40.832031 26.132812 C 40.835938 27.429688 42.585938 30.285156 43.570312 31.164062 C 44.417969 31.621094 45.335938 31.882812 46.589844 31.878906 L 48.015625 31.875 L 48.019531 31.863281 L 48.019531 31.875 L 49.445312 31.871094 C 50.699219 31.867188 51.617188 31.601562 52.460938 31.140625 C 53.445312 30.253906 55.203125 26.859375 55.199219 25.5625 C 55.191406 23.402344 52.796875 22.117188 50.152344 21.671875 " fill-opacity="1" fill-rule="nonzero"/></g><path fill="#231f20" d="M 55.199219 18.820312 C 55.203125 19.578125 54.8125 20.195312 54.332031 20.195312 C 53.851562 20.199219 53.457031 19.582031 53.457031 18.824219 C 53.453125 18.066406 53.84375 17.449219 54.324219 17.449219 C 54.804688 17.449219 55.195312 18.0625 55.199219 18.820312 " fill-opacity="1" fill-rule="nonzero"/><path fill="#231f20" d="M 42.535156 18.855469 C 42.539062 19.613281 42.152344 20.230469 41.667969 20.230469 C 41.1875 20.230469 40.796875 19.617188 40.792969 18.859375 C 40.792969 18.101562 41.179688 17.484375 41.660156 17.484375 C 42.140625 17.484375 42.535156 18.097656 42.535156 18.855469 " fill-opacity="1" fill-rule="nonzero"/><g clip-path="url(#0aaffdc358)"><path fill="#f3aa46" d="M 54.398438 8.472656 C 54.398438 8.472656 54.519531 8.480469 58.078125 9.171875 C 60.402344 9.617188 63.121094 10.371094 65.761719 11.632812 C 67.359375 12.398438 67.171875 14.683594 66.71875 16.304688 C 65.851562 19.410156 64.136719 26.464844 63.378906 29.605469 C 63.148438 30.566406 61.984375 30.863281 60.757812 30.21875 C 58.890625 29.242188 56.535156 27.457031 56.527344 24.671875 C 56.511719 17.8125 56.488281 15.578125 56.480469 11.835938 C 56.472656 10.242188 54.398438 8.472656 54.398438 8.472656 " fill-opacity="1" fill-rule="nonzero"/></g><path fill="#231f20" d="M 44.148438 21.378906 C 44.382812 20.410156 45.960938 20.175781 47.941406 20.171875 C 50.335938 20.164062 51.488281 20.394531 51.6875 21.359375 C 51.921875 22.488281 49.667969 24.441406 47.808594 24.449219 C 46.296875 24.453125 43.867188 22.550781 44.148438 21.378906 " fill-opacity="1" fill-rule="nonzero"/><path fill="#231f20" d="M 56.019531 25.605469 L 55.964844 25.609375 C 55.398438 26.214844 54.773438 26.78125 54.105469 27.277344 C 53.769531 27.519531 53.421875 27.746094 53.054688 27.933594 C 52.691406 28.117188 52.304688 28.265625 51.917969 28.308594 C 51.824219 28.320312 51.730469 28.324219 51.632812 28.320312 C 51.535156 28.316406 51.4375 28.304688 51.339844 28.292969 C 51.144531 28.261719 50.953125 28.214844 50.769531 28.148438 C 50.398438 28.015625 50.050781 27.8125 49.730469 27.578125 C 49.414062 27.339844 49.121094 27.0625 48.851562 26.765625 C 48.71875 26.613281 48.589844 26.460938 48.472656 26.300781 C 48.410156 26.222656 48.351562 26.140625 48.296875 26.058594 C 48.242188 25.980469 48.183594 25.890625 48.140625 25.820312 C 48.109375 25.773438 48.070312 25.726562 48.019531 25.699219 C 47.988281 25.679688 48.136719 24.148438 48.136719 24.148438 L 47.515625 24.148438 C 47.515625 24.148438 47.582031 25.738281 47.539062 25.8125 L 47.535156 25.820312 C 47.488281 25.894531 47.433594 25.980469 47.378906 26.0625 C 47.320312 26.144531 47.261719 26.222656 47.203125 26.304688 C 47.082031 26.464844 46.957031 26.617188 46.824219 26.769531 C 46.558594 27.066406 46.265625 27.34375 45.949219 27.585938 C 45.632812 27.824219 45.285156 28.023438 44.914062 28.160156 C 44.730469 28.226562 44.539062 28.277344 44.347656 28.304688 C 44.25 28.320312 44.152344 28.328125 44.054688 28.332031 L 44.019531 28.335938 L 43.910156 28.335938 C 43.863281 28.332031 43.816406 28.328125 43.769531 28.324219 C 43.382812 28.28125 42.996094 28.136719 42.632812 27.953125 C 42.265625 27.769531 41.917969 27.542969 41.582031 27.300781 C 40.910156 26.808594 40.289062 26.25 39.71875 25.644531 L 39.71875 25.640625 C 39.699219 25.621094 39.664062 25.621094 39.644531 25.636719 C 39.621094 25.65625 39.617188 25.6875 39.636719 25.710938 C 40.175781 26.355469 40.765625 26.957031 41.421875 27.496094 C 41.75 27.769531 42.09375 28.019531 42.472656 28.238281 C 42.847656 28.453125 43.253906 28.640625 43.710938 28.71875 C 43.765625 28.726562 43.824219 28.734375 43.882812 28.742188 C 43.914062 28.742188 43.941406 28.746094 43.972656 28.746094 L 44.015625 28.75 L 44.058594 28.75 C 44.171875 28.75 44.289062 28.746094 44.402344 28.734375 C 44.628906 28.714844 44.851562 28.667969 45.070312 28.605469 C 45.503906 28.476562 45.910156 28.269531 46.277344 28.023438 C 46.648438 27.78125 46.980469 27.496094 47.292969 27.1875 C 47.445312 27.03125 47.59375 26.871094 47.734375 26.707031 C 47.769531 26.664062 47.804688 26.621094 47.839844 26.578125 C 47.875 26.621094 47.910156 26.664062 47.945312 26.703125 C 48.085938 26.871094 48.234375 27.027344 48.390625 27.183594 C 48.703125 27.488281 49.039062 27.769531 49.410156 28.011719 C 49.78125 28.253906 50.183594 28.457031 50.621094 28.585938 C 50.835938 28.648438 51.0625 28.691406 51.289062 28.710938 C 51.402344 28.722656 51.515625 28.722656 51.628906 28.722656 C 51.746094 28.71875 51.863281 28.707031 51.976562 28.6875 C 52.433594 28.605469 52.839844 28.417969 53.210938 28.199219 C 53.585938 27.980469 53.929688 27.726562 54.253906 27.453125 C 54.90625 26.90625 55.492188 26.304688 56.027344 25.65625 L 56.019531 25.605469 " fill-opacity="1" fill-rule="nonzero"/><path fill="#f3aa46" d="M 80.292969 51.195312 C 76.054688 50.28125 65.941406 49.304688 60.792969 57.777344 C 60.746094 57.859375 60.695312 57.9375 60.644531 58.011719 L 60.640625 57.992188 C 60.621094 58.035156 60.597656 58.074219 60.578125 58.117188 C 60.539062 58.171875 60.5 58.234375 60.460938 58.289062 L 60.460938 58.335938 C 57.683594 63.371094 49.597656 62.898438 49.597656 62.898438 C 48.574219 59.367188 42.984375 58.847656 44.015625 62.394531 C 44.394531 63.695312 44.960938 65.648438 44.960938 65.648438 C 45.898438 68.261719 47.480469 68.011719 49.09375 67.757812 C 49.769531 67.652344 50.453125 67.546875 51.09375 67.652344 C 53.824219 68.101562 57.324219 68.335938 59.335938 68.089844 C 59.683594 68.046875 61.152344 67.644531 61.378906 67.445312 C 61.378906 67.445312 61.625 67.34375 61.9375 67.238281 C 62.332031 67.105469 62.835938 66.972656 63.078125 67.058594 C 75.257812 71.535156 85.480469 69.003906 86.730469 60.742188 C 87.328125 56.78125 84.152344 52.023438 80.292969 51.195312 " fill-opacity="1" fill-rule="nonzero"/><path fill="#ffffff" d="M 86.800781 59.75 C 86.800781 59.683594 86.800781 59.621094 86.796875 59.554688 C 86.800781 59.554688 86.796875 59.554688 86.800781 59.554688 C 86.800781 59.621094 86.800781 59.683594 86.800781 59.75 " fill-opacity="1" fill-rule="nonzero"/><path fill="#f7bc61" d="M 54.277344 62.4375 C 56.605469 61.703125 59.183594 60.644531 60.460938 58.328125 L 60.460938 58.335938 C 59.128906 60.75 56.574219 61.898438 54.277344 62.4375 M 60.460938 58.289062 L 60.460938 58.28125 C 60.5 58.222656 60.539062 58.164062 60.578125 58.109375 C 60.597656 58.066406 60.621094 58.027344 60.640625 57.984375 L 60.644531 58.003906 C 60.695312 57.929688 60.746094 57.851562 60.792969 57.769531 C 64.3125 51.976562 70.148438 50.601562 74.847656 50.601562 C 75.195312 50.601562 75.539062 50.609375 75.871094 50.621094 C 75.871094 50.625 75.871094 50.628906 75.875 50.632812 C 75.539062 50.617188 75.195312 50.609375 74.847656 50.609375 C 70.152344 50.609375 64.3125 51.984375 60.792969 57.777344 C 60.746094 57.859375 60.695312 57.9375 60.644531 58.011719 L 60.640625 57.992188 C 60.621094 58.035156 60.597656 58.074219 60.578125 58.117188 C 60.539062 58.171875 60.5 58.234375 60.460938 58.289062 " fill-opacity="1" fill-rule="nonzero"/><path fill="#f39051" d="M 84.875 54.363281 C 83.691406 52.78125 82.066406 51.574219 80.292969 51.195312 C 79.167969 50.953125 77.625 50.703125 75.875 50.632812 C 75.871094 50.628906 75.871094 50.625 75.871094 50.621094 C 77.625 50.695312 79.167969 50.945312 80.292969 51.183594 C 82.066406 51.566406 83.691406 52.777344 84.878906 54.355469 C 84.875 54.359375 84.875 54.359375 84.875 54.363281 " fill-opacity="1" fill-rule="nonzero"/><path fill="#f7bc61" d="M 86.796875 59.554688 C 86.746094 57.753906 86.019531 55.882812 84.875 54.363281 C 84.875 54.359375 84.875 54.359375 84.878906 54.355469 C 86.019531 55.878906 86.75 57.75 86.800781 59.554688 C 86.796875 59.554688 86.800781 59.554688 86.796875 59.554688 " fill-opacity="1" fill-rule="nonzero"/><path fill="#f7bc61" d="M 50.382812 65.21875 C 49.886719 65.21875 49.597656 65.203125 49.597656 65.203125 C 49.167969 63.71875 51.550781 63.300781 54.277344 62.4375 C 56.574219 61.898438 59.128906 60.75 60.460938 58.335938 L 60.460938 58.289062 C 60.5 58.234375 60.539062 58.171875 60.578125 58.117188 C 60.597656 58.074219 60.621094 58.035156 60.640625 57.992188 L 60.644531 58.011719 C 60.695312 57.9375 60.746094 57.859375 60.792969 57.777344 C 64.3125 51.984375 70.152344 50.609375 74.847656 50.609375 C 75.195312 50.609375 75.539062 50.617188 75.875 50.632812 C 77.625 50.703125 79.167969 50.953125 80.292969 51.195312 C 82.066406 51.574219 83.691406 52.78125 84.875 54.363281 C 86.019531 55.882812 86.746094 57.753906 86.796875 59.554688 C 86.800781 59.621094 86.800781 59.683594 86.800781 59.75 C 86.800781 60.082031 86.777344 60.410156 86.730469 60.734375 C 86.722656 60.78125 86.710938 60.832031 86.703125 60.878906 C 86.171875 57.515625 82.703125 54.25 79.53125 53.570312 C 78.191406 53.28125 76.441406 52.988281 74.515625 52.988281 C 70.351562 52.988281 65.351562 54.363281 61.835938 60.160156 C 61.785156 60.238281 61.734375 60.316406 61.6875 60.394531 L 61.679688 60.371094 C 61.660156 60.414062 61.640625 60.453125 61.617188 60.496094 C 61.578125 60.554688 61.539062 60.613281 61.5 60.667969 L 61.503906 60.714844 C 59.222656 64.851562 52.652344 65.21875 50.382812 65.21875 " fill-opacity="1" fill-rule="nonzero"/><path fill="#ffffff" d="M 54.683594 63.886719 C 54.589844 63.457031 54.472656 62.824219 54.359375 62.398438 C 51.914062 62.664062 49.597656 62.664062 49.597656 62.664062 C 48.554688 59.0625 42.761719 58.765625 43.8125 62.382812 C 44.199219 63.710938 44.777344 65.707031 44.777344 65.707031 C 46.136719 69.492188 48.894531 67.484375 51.105469 67.847656 C 52.113281 68.011719 53.433594 68.113281 54.742188 68.066406 C 54.972656 66.679688 54.984375 65.320312 54.683594 63.886719 " fill-opacity="1" fill-rule="nonzero"/><path fill="#231f20" d="M 43.800781 60.902344 C 44.085938 60.769531 44.402344 60.734375 44.710938 60.757812 C 45.019531 60.785156 45.332031 60.875 45.609375 61.039062 C 45.890625 61.199219 46.132812 61.4375 46.292969 61.71875 C 46.449219 62 46.523438 62.320312 46.484375 62.632812 C 46.285156 62.390625 46.109375 62.183594 45.914062 62.007812 C 45.726562 61.832031 45.523438 61.6875 45.304688 61.558594 C 45.089844 61.429688 44.855469 61.320312 44.605469 61.21875 C 44.351562 61.113281 44.089844 61.019531 43.800781 60.902344 " fill-opacity="1" fill-rule="nonzero"/><path fill="#231f20" d="M 45.3125 60.066406 C 45.554688 59.9375 45.835938 59.894531 46.113281 59.929688 C 46.390625 59.964844 46.671875 60.085938 46.894531 60.28125 C 47.117188 60.472656 47.269531 60.722656 47.355469 60.984375 C 47.4375 61.246094 47.460938 61.515625 47.410156 61.789062 C 47.21875 61.585938 47.078125 61.382812 46.933594 61.203125 C 46.792969 61.023438 46.652344 60.867188 46.496094 60.734375 C 46.34375 60.601562 46.175781 60.488281 45.980469 60.382812 C 45.78125 60.277344 45.5625 60.1875 45.3125 60.066406 " fill-opacity="1" fill-rule="nonzero"/><path fill="#231f20" d="M 43.996094 62.753906 C 44.242188 62.625 44.519531 62.582031 44.800781 62.617188 C 45.078125 62.648438 45.359375 62.773438 45.578125 62.964844 C 45.804688 63.160156 45.957031 63.410156 46.039062 63.671875 C 46.125 63.933594 46.144531 64.203125 46.09375 64.472656 C 45.90625 64.269531 45.765625 64.066406 45.621094 63.890625 C 45.476562 63.710938 45.335938 63.554688 45.183594 63.421875 C 45.03125 63.289062 44.863281 63.175781 44.667969 63.070312 C 44.46875 62.964844 44.25 62.875 43.996094 62.753906 " fill-opacity="1" fill-rule="nonzero"/><path fill="#f3aa46" d="M 46.824219 44.289062 C 46.824219 46.898438 48.414062 48.96875 50.695312 53.394531 C 52.972656 57.820312 52.570312 59.949219 50.960938 63.703125 C 50.960938 63.703125 49.097656 63.320312 48.078125 65.113281 C 47.707031 65.765625 46.773438 68.0625 48.480469 68.0625 C 50.164062 68.0625 53.507812 67.847656 54.496094 67.847656 C 55.972656 67.847656 56.507812 66.503906 56.507812 64.359375 C 56.507812 62.480469 60.144531 58.222656 59.289062 56.714844 C 58.019531 54.46875 57.78125 54.214844 58.132812 52.890625 C 58.882812 50.082031 60.273438 47.101562 60.398438 43.132812 C 60.5 39.863281 57.582031 34.347656 52.953125 34.347656 C 49.636719 34.347656 46.824219 36.828125 46.824219 44.289062 " fill-opacity="1" fill-rule="nonzero"/><path fill="#ffffff" d="M 56.949219 61.636719 C 56.152344 60.511719 55.351562 59.15625 53.96875 58.675781 C 53.425781 58.488281 52.867188 58.414062 52.289062 58.382812 C 52.191406 60.050781 51.738281 61.476562 50.859375 63.527344 C 50.859375 63.527344 48.996094 63.320312 47.945312 65.171875 C 47.5625 65.84375 46.59375 68.214844 48.359375 68.214844 C 50.09375 68.214844 53.378906 68.222656 54.398438 68.222656 C 55.917969 68.222656 56.640625 66.605469 56.640625 64.390625 C 56.640625 63.828125 56.925781 62.875 57.355469 62.027344 C 57.203125 61.84375 57.089844 61.832031 56.949219 61.636719 " fill-opacity="1" fill-rule="nonzero"/><path fill="#231f20" d="M 48.097656 68.089844 C 48.046875 67.777344 48.101562 67.464844 48.210938 67.175781 C 48.320312 66.882812 48.496094 66.609375 48.730469 66.386719 C 48.964844 66.164062 49.261719 65.996094 49.574219 65.921875 C 49.886719 65.847656 50.21875 65.867188 50.503906 65.992188 C 50.21875 66.117188 49.96875 66.230469 49.746094 66.367188 C 49.523438 66.5 49.328125 66.652344 49.144531 66.824219 C 48.960938 67 48.792969 67.191406 48.621094 67.40625 C 48.453125 67.617188 48.285156 67.84375 48.097656 68.089844 " fill-opacity="1" fill-rule="nonzero"/><path fill="#231f20" d="M 47.714844 66.402344 C 47.660156 66.132812 47.699219 65.851562 47.804688 65.59375 C 47.917969 65.335938 48.113281 65.101562 48.359375 64.945312 C 48.605469 64.78125 48.894531 64.703125 49.167969 64.695312 C 49.441406 64.6875 49.707031 64.742188 49.953125 64.871094 C 49.703125 64.996094 49.46875 65.074219 49.257812 65.164062 C 49.046875 65.25 48.859375 65.339844 48.6875 65.449219 C 48.515625 65.558594 48.359375 65.6875 48.203125 65.847656 C 48.046875 66.011719 47.902344 66.195312 47.714844 66.402344 " fill-opacity="1" fill-rule="nonzero"/><path fill="#231f20" d="M 50.027344 68.1875 C 49.972656 67.917969 50.011719 67.640625 50.121094 67.382812 C 50.230469 67.125 50.425781 66.886719 50.671875 66.730469 C 50.917969 66.566406 51.207031 66.488281 51.480469 66.484375 C 51.753906 66.476562 52.019531 66.53125 52.265625 66.65625 C 52.015625 66.78125 51.78125 66.859375 51.570312 66.949219 C 51.359375 67.035156 51.167969 67.125 51 67.234375 C 50.828125 67.347656 50.671875 67.476562 50.519531 67.636719 C 50.359375 67.796875 50.214844 67.980469 50.027344 68.1875 " fill-opacity="1" fill-rule="nonzero"/><path fill="#bdbcbc" d="M 47.300781 68.863281 C 46.429688 68.863281 45.121094 68.863281 45.121094 68.863281 C 42.59375 68.707031 43.394531 66.710938 42.785156 65.433594 C 38.867188 57.238281 42.367188 50.496094 44.976562 50.980469 C 46.496094 51.261719 47.457031 52.960938 47.175781 54.617188 C 46.777344 56.949219 46.117188 65.46875 46.117188 65.46875 C 48.476562 65.46875 49.675781 68.863281 47.300781 68.863281 " fill-opacity="1" fill-rule="nonzero"/><path fill="#231f20" d="M 48.480469 68.203125 C 48.515625 68.042969 48.480469 67.890625 48.421875 67.75 C 48.355469 67.609375 48.261719 67.484375 48.136719 67.382812 C 47.894531 67.183594 47.535156 67.105469 47.253906 67.257812 C 47.386719 67.34375 47.5 67.410156 47.605469 67.480469 C 47.707031 67.546875 47.800781 67.617188 47.890625 67.6875 C 47.984375 67.761719 48.074219 67.839844 48.167969 67.925781 C 48.261719 68.011719 48.359375 68.101562 48.480469 68.203125 " fill-opacity="1" fill-rule="nonzero"/><path fill="#231f20" d="M 47.632812 68.796875 C 47.691406 68.648438 47.6875 68.492188 47.648438 68.34375 C 47.609375 68.195312 47.53125 68.050781 47.417969 67.9375 C 47.191406 67.707031 46.839844 67.609375 46.550781 67.738281 C 46.675781 67.835938 46.785156 67.90625 46.882812 67.984375 C 46.976562 68.058594 47.058594 68.132812 47.140625 68.210938 C 47.21875 68.292969 47.292969 68.378906 47.371094 68.476562 L 47.632812 68.796875 " fill-opacity="1" fill-rule="nonzero"/><path fill="#ffffff" d="M 44.429688 44.328125 C 44.609375 45.117188 44.671875 45.9375 44.679688 46.734375 C 44.691406 48.488281 45.085938 57.851562 32.546875 62.773438 C 29.835938 63.839844 27.269531 65.339844 24.464844 66.054688 C 24.339844 66.085938 24.214844 66.117188 24.085938 66.152344 C 24.257812 66.453125 24.445312 66.742188 24.652344 67.019531 L 40.636719 67.019531 C 43.320312 66.210938 47.328125 59.214844 47.328125 55.605469 C 47.328125 49.867188 47.328125 45.566406 47.328125 45.566406 L 44.429688 44.328125 " fill-opacity="1" fill-rule="nonzero"/><path fill="#bdbcbc" d="M 37.96875 41.566406 C 37.96875 41.566406 38.765625 45.992188 30.789062 49.488281 C 26.554688 51.34375 24 54.828125 23.140625 58.4375 C 22.480469 57.941406 21.707031 57.125 22.0625 56.171875 C 22.175781 55.867188 22.332031 55.492188 22.511719 55.0625 C 23.199219 53.417969 24.136719 51.167969 24.390625 48.914062 C 24.804688 45.191406 23.0625 43.332031 21.527344 42.429688 C 20.9375 42.078125 20.171875 42.277344 19.820312 42.871094 C 19.472656 43.464844 19.667969 44.230469 20.261719 44.578125 C 23.167969 46.292969 21.761719 50.390625 20.210938 54.097656 C 20.019531 54.554688 19.855469 54.945312 19.726562 55.292969 C 18.628906 58.222656 21.242188 60.402344 22.816406 61.164062 C 22.8125 63.316406 23.421875 65.378906 24.652344 67.019531 L 40.636719 67.019531 C 43.320312 66.210938 47.328125 59.214844 47.328125 55.605469 C 47.328125 49.867188 47.328125 45.566406 47.328125 45.566406 L 37.96875 41.566406 " fill-opacity="1" fill-rule="nonzero"/><path fill="#bdbcbc" d="M 44.269531 68.863281 C 43.398438 68.863281 42.089844 68.863281 42.089844 68.863281 C 39.5625 68.707031 40.363281 66.710938 39.753906 65.433594 C 35.835938 57.238281 39.335938 50.496094 41.945312 50.980469 C 43.460938 51.261719 44.425781 52.960938 44.144531 54.617188 C 43.742188 56.949219 43.082031 65.46875 43.082031 65.46875 C 45.441406 65.46875 46.640625 68.863281 44.269531 68.863281 " fill-opacity="1" fill-rule="nonzero"/><path fill="#231f20" d="M 45.449219 68.203125 C 45.480469 68.042969 45.445312 67.890625 45.386719 67.75 C 45.324219 67.609375 45.226562 67.484375 45.105469 67.382812 C 44.859375 67.183594 44.503906 67.105469 44.21875 67.257812 C 44.355469 67.34375 44.46875 67.410156 44.570312 67.480469 C 44.675781 67.546875 44.765625 67.617188 44.859375 67.6875 C 44.949219 67.761719 45.039062 67.839844 45.136719 67.925781 C 45.230469 68.011719 45.328125 68.101562 45.449219 68.203125 " fill-opacity="1" fill-rule="nonzero"/><path fill="#231f20" d="M 44.597656 68.796875 C 44.660156 68.648438 44.652344 68.492188 44.617188 68.34375 C 44.578125 68.195312 44.496094 68.050781 44.386719 67.9375 C 44.160156 67.707031 43.804688 67.609375 43.519531 67.738281 C 43.644531 67.835938 43.753906 67.90625 43.847656 67.984375 C 43.945312 68.058594 44.027344 68.132812 44.105469 68.210938 C 44.183594 68.292969 44.261719 68.378906 44.339844 68.476562 L 44.597656 68.796875 " fill-opacity="1" fill-rule="nonzero"/><path fill="#bdbcbc" d="M 37.359375 35.8125 C 37.359375 35.8125 36.261719 30.953125 38.496094 29.433594 C 38.496094 29.433594 42.035156 30.085938 43.015625 32.804688 C 43.015625 32.804688 40.960938 35.507812 37.359375 35.8125 " fill-opacity="1" fill-rule="nonzero"/><path fill="#ffffff" d="M 38.640625 35.277344 C 38.640625 35.277344 37.945312 32.195312 39.363281 31.230469 C 39.363281 31.230469 41.613281 31.644531 42.234375 33.367188 C 42.234375 33.367188 40.929688 35.085938 38.640625 35.277344 " fill-opacity="1" fill-rule="nonzero"/><path fill="#bdbcbc" d="M 51.765625 38.933594 C 51.765625 38.933594 54.773438 34.96875 53.371094 32.664062 C 53.371094 32.664062 49.878906 31.789062 47.863281 33.855469 C 47.863281 33.855469 48.613281 37.167969 51.765625 38.933594 " fill-opacity="1" fill-rule="nonzero"/><path fill="#ffffff" d="M 50.816406 37.921875 C 50.816406 37.921875 52.730469 35.402344 51.839844 33.9375 C 51.839844 33.9375 49.621094 33.382812 48.339844 34.695312 C 48.339844 34.695312 48.816406 36.796875 50.816406 37.921875 " fill-opacity="1" fill-rule="nonzero"/><path fill="#bdbcbc" d="M 35.585938 38.460938 C 33.929688 42.328125 38.101562 44.890625 42.707031 45.890625 C 47.316406 46.890625 52.390625 46.277344 52.269531 42.078125 C 52.125 37.292969 49.074219 33.574219 45.542969 32.808594 C 42.015625 32.042969 37.539062 33.902344 35.585938 38.460938 " fill-opacity="1" fill-rule="nonzero"/><path fill="#ffffff" d="M 44.210938 39.050781 C 48.109375 39.898438 50.839844 42.550781 50.3125 44.976562 C 50.265625 45.203125 50.1875 45.414062 50.089844 45.617188 C 48.210938 46.507812 45.378906 46.46875 42.707031 45.890625 C 40.007812 45.304688 37.460938 44.179688 36.144531 42.574219 C 36.140625 42.355469 36.160156 42.136719 36.210938 41.917969 C 36.734375 39.492188 40.320312 38.207031 44.210938 39.050781 " fill-opacity="1" fill-rule="nonzero"/><path fill="#231f20" d="M 39.628906 37.003906 C 39.484375 37.550781 39.648438 38.070312 40 38.164062 C 40.347656 38.253906 40.746094 37.882812 40.886719 37.332031 C 41.03125 36.785156 40.867188 36.265625 40.515625 36.175781 C 40.167969 36.085938 39.769531 36.457031 39.628906 37.003906 " fill-opacity="1" fill-rule="nonzero"/><path fill="#231f20" d="M 48.792969 39.398438 C 48.648438 39.945312 48.8125 40.464844 49.164062 40.554688 C 49.511719 40.648438 49.910156 40.277344 50.050781 39.726562 C 50.195312 39.179688 50.027344 38.660156 49.679688 38.570312 C 49.332031 38.476562 48.933594 38.847656 48.792969 39.398438 " fill-opacity="1" fill-rule="nonzero"/><path fill="#f8a3d6" d="M 43.871094 44.464844 L 43.792969 44.792969 C 43.707031 45.167969 43.335938 45.398438 42.964844 45.3125 C 42.589844 45.226562 42.359375 44.855469 42.445312 44.480469 L 42.519531 44.171875 C 42.519531 44.171875 42.855469 44.136719 43.085938 43.886719 C 43.328125 43.625 43.414062 43.558594 43.507812 43.921875 C 43.613281 44.332031 43.871094 44.464844 43.871094 44.464844 " fill-opacity="1" fill-rule="nonzero"/><path fill="#231f20" d="M 45.03125 43.183594 L 44.972656 43.175781 C 44.847656 43.175781 44.738281 43.261719 44.707031 43.386719 L 44.597656 43.859375 C 44.574219 43.957031 44.519531 44.042969 44.449219 44.09375 C 44.34375 44.164062 44.207031 44.179688 44.023438 44.136719 C 43.863281 44.097656 43.773438 44.007812 43.722656 43.84375 C 43.675781 43.679688 43.695312 43.511719 43.707031 43.4375 C 43.714844 43.410156 43.722656 43.382812 43.726562 43.367188 L 44.160156 41.5 L 44.183594 41.355469 L 43.660156 41.238281 L 43.195312 43.242188 L 43.183594 43.296875 C 43.152344 43.402344 43.09375 43.550781 42.988281 43.671875 C 42.871094 43.800781 42.746094 43.839844 42.585938 43.800781 C 42.417969 43.761719 42.296875 43.691406 42.234375 43.589844 C 42.167969 43.480469 42.179688 43.363281 42.195312 43.300781 L 42.304688 42.828125 C 42.320312 42.757812 42.308594 42.6875 42.269531 42.625 C 42.234375 42.5625 42.171875 42.519531 42.101562 42.503906 C 41.957031 42.472656 41.8125 42.5625 41.777344 42.707031 L 41.667969 43.179688 C 41.566406 43.621094 41.773438 44.167969 42.464844 44.328125 C 42.753906 44.394531 43.035156 44.335938 43.265625 44.152344 C 43.386719 44.414062 43.609375 44.59375 43.902344 44.664062 C 44.007812 44.6875 44.113281 44.699219 44.207031 44.699219 C 44.46875 44.699219 44.648438 44.613281 44.753906 44.539062 C 45.003906 44.363281 45.09375 44.117188 45.125 43.980469 L 45.234375 43.507812 C 45.269531 43.363281 45.175781 43.21875 45.03125 43.183594 " fill-opacity="1" fill-rule="nonzero"/><path fill="#231f20" d="M 41.902344 40.605469 C 41.734375 41.332031 42.515625 42.132812 43.644531 42.394531 C 44.777344 42.65625 45.832031 42.28125 46 41.554688 C 46.167969 40.832031 45.386719 40.03125 44.253906 39.769531 C 43.121094 39.503906 42.070312 39.878906 41.902344 40.605469 " fill-opacity="1" fill-rule="nonzero"/><path fill="#231f20" d="M 41.53125 39.824219 C 41.574219 39.824219 41.617188 39.808594 41.648438 39.769531 C 41.699219 39.703125 41.6875 39.613281 41.625 39.5625 C 41.582031 39.53125 37.558594 36.386719 33.542969 36.433594 C 33.460938 36.433594 33.394531 36.5 33.394531 36.582031 C 33.398438 36.664062 33.464844 36.726562 33.542969 36.726562 L 33.546875 36.726562 C 33.578125 36.726562 33.609375 36.726562 33.636719 36.726562 C 37.515625 36.726562 41.402344 39.761719 41.441406 39.792969 C 41.46875 39.816406 41.5 39.824219 41.53125 39.824219 " fill-opacity="1" fill-rule="nonzero"/><path fill="#231f20" d="M 41.203125 40.210938 C 41.253906 40.210938 41.304688 40.183594 41.328125 40.136719 C 41.371094 40.066406 41.347656 39.976562 41.277344 39.9375 C 41.226562 39.910156 36.492188 37.222656 32.382812 37.429688 C 32.304688 37.433594 32.242188 37.503906 32.246094 37.585938 C 32.25 37.667969 32.320312 37.730469 32.398438 37.726562 C 36.421875 37.519531 41.082031 40.167969 41.128906 40.191406 C 41.152344 40.207031 41.179688 40.210938 41.203125 40.210938 " fill-opacity="1" fill-rule="nonzero"/><path fill="#231f20" d="M 41.0625 40.710938 C 41.117188 40.710938 41.171875 40.683594 41.195312 40.628906 C 41.234375 40.558594 41.203125 40.46875 41.132812 40.433594 C 41.09375 40.414062 37.269531 38.5 32.800781 38.769531 C 32.71875 38.773438 32.65625 38.84375 32.660156 38.925781 C 32.667969 39.007812 32.738281 39.070312 32.816406 39.066406 C 37.203125 38.804688 40.960938 40.675781 40.996094 40.695312 C 41.019531 40.707031 41.042969 40.710938 41.0625 40.710938 " fill-opacity="1" fill-rule="nonzero"/><path fill="#231f20" d="M 40.988281 41.207031 C 41.050781 41.207031 41.109375 41.164062 41.128906 41.101562 C 41.152344 41.023438 41.109375 40.941406 41.03125 40.917969 C 40.996094 40.90625 37.335938 39.785156 34.160156 40.109375 C 34.078125 40.117188 34.019531 40.1875 34.027344 40.269531 C 34.035156 40.351562 34.105469 40.410156 34.1875 40.402344 C 37.308594 40.085938 40.90625 41.1875 40.945312 41.199219 L 40.988281 41.207031 " fill-opacity="1" fill-rule="nonzero"/><path fill="#231f20" d="M 54.917969 43.199219 C 54.964844 43.199219 55.011719 43.175781 55.039062 43.136719 C 55.085938 43.070312 55.070312 42.976562 55.003906 42.929688 C 51.695312 40.65625 46.597656 41.03125 46.546875 41.035156 C 46.464844 41.039062 46.40625 41.113281 46.410156 41.191406 C 46.417969 41.273438 46.484375 41.335938 46.570312 41.328125 C 46.617188 41.324219 51.617188 40.957031 54.835938 43.171875 C 54.859375 43.191406 54.890625 43.199219 54.917969 43.199219 " fill-opacity="1" fill-rule="nonzero"/><path fill="#231f20" d="M 55.289062 44.664062 C 55.332031 44.664062 55.375 44.644531 55.40625 44.605469 C 55.453125 44.539062 55.441406 44.445312 55.375 44.398438 C 52.078125 41.9375 46.648438 41.535156 46.59375 41.53125 C 46.511719 41.527344 46.441406 41.585938 46.4375 41.667969 C 46.429688 41.75 46.492188 41.820312 46.574219 41.828125 C 46.625 41.832031 51.972656 42.226562 55.199219 44.636719 C 55.226562 44.652344 55.257812 44.664062 55.289062 44.664062 " fill-opacity="1" fill-rule="nonzero"/><path fill="#231f20" d="M 54.207031 45.566406 C 54.253906 45.566406 54.296875 45.546875 54.324219 45.507812 C 54.375 45.445312 54.363281 45.351562 54.296875 45.300781 C 50.734375 42.597656 46.492188 42.054688 46.449219 42.046875 C 46.367188 42.039062 46.292969 42.097656 46.285156 42.175781 C 46.273438 42.257812 46.332031 42.332031 46.414062 42.339844 C 46.453125 42.347656 50.621094 42.882812 54.117188 45.535156 C 54.144531 45.558594 54.175781 45.566406 54.207031 45.566406 " fill-opacity="1" fill-rule="nonzero"/><path fill="#231f20" d="M 52.28125 45.898438 C 52.324219 45.898438 52.367188 45.882812 52.394531 45.847656 C 52.445312 45.785156 52.4375 45.691406 52.375 45.636719 C 49.914062 43.601562 46.25 42.496094 46.214844 42.484375 C 46.132812 42.460938 46.054688 42.507812 46.03125 42.585938 C 46.007812 42.664062 46.050781 42.746094 46.128906 42.769531 C 46.164062 42.78125 49.773438 43.867188 52.1875 45.867188 C 52.214844 45.886719 52.246094 45.898438 52.28125 45.898438 " fill-opacity="1" fill-rule="nonzero"/><path fill="#bdbcbc" d="M 25.8125 59.597656 C 27.863281 59.109375 32.753906 58.585938 35.242188 63.117188 C 35.265625 63.160156 35.289062 63.203125 35.3125 63.242188 L 35.316406 63.230469 C 35.328125 63.253906 35.335938 63.277344 35.347656 63.296875 C 35.367188 63.328125 35.382812 63.359375 35.402344 63.390625 L 35.402344 63.414062 C 36.746094 66.105469 40.65625 65.851562 40.65625 65.851562 C 41.152344 63.96875 43.851562 63.691406 43.355469 65.585938 C 43.171875 66.28125 42.898438 67.324219 42.898438 67.324219 C 42.445312 68.722656 41.679688 68.585938 40.898438 68.453125 C 40.570312 68.394531 40.242188 68.339844 39.933594 68.394531 C 38.613281 68.636719 36.917969 68.757812 35.945312 68.628906 C 35.777344 68.605469 35.070312 68.390625 34.957031 68.285156 C 34.957031 68.285156 34.839844 68.230469 34.6875 68.175781 C 34.496094 68.101562 34.253906 68.03125 34.140625 68.078125 C 28.25 70.46875 23.304688 69.117188 22.703125 64.703125 C 22.414062 62.585938 23.949219 60.042969 25.8125 59.597656 " fill-opacity="1" fill-rule="nonzero"/><path fill="#ffffff" d="M 22.667969 64.171875 C 22.667969 63.675781 22.757812 63.167969 22.914062 62.675781 C 22.914062 62.679688 22.917969 62.679688 22.917969 62.679688 C 22.757812 63.167969 22.667969 63.675781 22.667969 64.171875 " fill-opacity="1" fill-rule="nonzero"/><path fill="#cdcccc" d="M 39.867188 65.839844 C 39.683594 65.828125 39.476562 65.808594 39.25 65.777344 C 39.460938 65.808594 39.667969 65.828125 39.867188 65.839844 M 37.632812 65.359375 C 36.757812 65.007812 35.902344 64.414062 35.402344 63.414062 L 35.402344 63.390625 C 35.382812 63.359375 35.367188 63.328125 35.347656 63.296875 C 35.335938 63.277344 35.328125 63.253906 35.316406 63.230469 L 35.3125 63.242188 C 35.289062 63.203125 35.265625 63.160156 35.242188 63.117188 C 33.542969 60.019531 30.71875 59.285156 28.449219 59.285156 C 27.394531 59.285156 26.460938 59.445312 25.8125 59.597656 C 24.527344 59.902344 23.398438 61.207031 22.917969 62.679688 C 22.917969 62.679688 22.914062 62.679688 22.914062 62.675781 C 23.398438 61.203125 24.527344 59.898438 25.8125 59.59375 C 26.460938 59.4375 27.394531 59.28125 28.449219 59.28125 C 30.71875 59.28125 33.542969 60.015625 35.242188 63.113281 C 35.265625 63.15625 35.289062 63.199219 35.3125 63.238281 L 35.316406 63.226562 C 35.328125 63.25 35.335938 63.269531 35.347656 63.292969 C 35.367188 63.324219 35.382812 63.355469 35.402344 63.386719 L 35.402344 63.410156 C 35.824219 64.25 36.496094 64.816406 37.257812 65.191406 C 37.382812 65.253906 37.507812 65.308594 37.632812 65.359375 " fill-opacity="1" fill-rule="nonzero"/><path fill="#cdcccc" d="M 38.148438 66.542969 C 37.015625 66.542969 35.746094 66.136719 34.898438 64.6875 L 34.898438 64.660156 C 34.882812 64.632812 34.863281 64.601562 34.84375 64.570312 C 34.835938 64.546875 34.824219 64.527344 34.8125 64.503906 L 34.8125 64.515625 C 34.789062 64.472656 34.761719 64.433594 34.738281 64.390625 C 33.039062 61.292969 30.621094 60.554688 28.605469 60.554688 C 27.675781 60.554688 26.828125 60.714844 26.179688 60.867188 C 24.648438 61.230469 22.972656 62.976562 22.714844 64.773438 C 22.710938 64.75 22.707031 64.722656 22.703125 64.699219 C 22.679688 64.523438 22.667969 64.347656 22.667969 64.171875 C 22.667969 63.675781 22.757812 63.167969 22.917969 62.679688 C 23.398438 61.207031 24.527344 59.902344 25.8125 59.597656 C 26.460938 59.445312 27.394531 59.285156 28.449219 59.285156 C 30.71875 59.285156 33.542969 60.019531 35.242188 63.117188 C 35.265625 63.160156 35.289062 63.203125 35.3125 63.242188 L 35.316406 63.230469 C 35.328125 63.253906 35.335938 63.277344 35.347656 63.296875 C 35.367188 63.328125 35.382812 63.359375 35.402344 63.390625 L 35.402344 63.414062 C 35.902344 64.414062 36.757812 65.007812 37.632812 65.359375 C 38.183594 65.585938 38.730469 65.707031 39.25 65.777344 C 39.476562 65.808594 39.683594 65.828125 39.867188 65.839844 C 40.140625 65.863281 40.402344 65.871094 40.644531 65.878906 C 40.800781 65.886719 39.585938 66.542969 38.148438 66.542969 " fill-opacity="1" fill-rule="nonzero"/><path fill="#231f20" d="M 43.457031 64.789062 C 43.320312 64.714844 43.167969 64.699219 43.019531 64.710938 C 42.867188 64.722656 42.71875 64.773438 42.585938 64.859375 C 42.449219 64.945312 42.332031 65.074219 42.253906 65.222656 C 42.175781 65.375 42.140625 65.546875 42.160156 65.710938 C 42.257812 65.582031 42.34375 65.472656 42.4375 65.378906 C 42.527344 65.285156 42.625 65.207031 42.730469 65.136719 C 42.835938 65.070312 42.949219 65.011719 43.070312 64.957031 C 43.191406 64.898438 43.320312 64.847656 43.457031 64.789062 " fill-opacity="1" fill-rule="nonzero"/><path fill="#231f20" d="M 42.726562 64.339844 C 42.609375 64.273438 42.476562 64.25 42.339844 64.265625 C 42.207031 64.285156 42.070312 64.351562 41.960938 64.453125 C 41.855469 64.554688 41.78125 64.691406 41.738281 64.832031 C 41.699219 64.972656 41.6875 65.117188 41.714844 65.261719 C 41.804688 65.152344 41.875 65.042969 41.941406 64.949219 C 42.011719 64.851562 42.078125 64.769531 42.15625 64.699219 C 42.230469 64.625 42.308594 64.566406 42.40625 64.511719 C 42.5 64.453125 42.605469 64.40625 42.726562 64.339844 " fill-opacity="1" fill-rule="nonzero"/><path fill="#231f20" d="M 43.363281 65.777344 C 43.246094 65.707031 43.109375 65.6875 42.976562 65.703125 C 42.839844 65.722656 42.707031 65.785156 42.597656 65.890625 C 42.488281 65.992188 42.417969 66.128906 42.375 66.265625 C 42.335938 66.40625 42.324219 66.550781 42.347656 66.695312 C 42.441406 66.589844 42.507812 66.480469 42.578125 66.382812 C 42.648438 66.289062 42.714844 66.203125 42.789062 66.132812 C 42.863281 66.0625 42.945312 66 43.039062 65.945312 C 43.136719 65.890625 43.242188 65.839844 43.363281 65.777344 " fill-opacity="1" fill-rule="nonzero"/><g fill="#000000" fill-opacity="1"><g transform="translate(122.518739, 52.274245)"><g><path d="M 15.9375 -14.46875 C 15.9375 -12.769531 15.351562 -11.359375 14.1875 -10.234375 C 13.03125 -9.109375 11.253906 -8.546875 8.859375 -8.546875 L 4.9375 -8.546875 L 4.9375 0 L 2.265625 0 L 2.265625 -20.46875 L 8.859375 -20.46875 C 11.171875 -20.46875 12.925781 -19.90625 14.125 -18.78125 C 15.332031 -17.664062 15.9375 -16.226562 15.9375 -14.46875 Z M 8.859375 -10.75 C 10.347656 -10.75 11.445312 -11.070312 12.15625 -11.71875 C 12.863281 -12.363281 13.21875 -13.28125 13.21875 -14.46875 C 13.21875 -17 11.765625 -18.265625 8.859375 -18.265625 L 4.9375 -18.265625 L 4.9375 -10.75 Z M 8.859375 -10.75 "/></g></g></g><g fill="#000000" fill-opacity="1"><g transform="translate(139.514352, 52.274245)"><g><path d="M 16.9375 -8.65625 C 16.9375 -8.144531 16.910156 -7.609375 16.859375 -7.046875 L 4 -7.046875 C 4.09375 -5.460938 4.632812 -4.222656 5.625 -3.328125 C 6.613281 -2.441406 7.8125 -2 9.21875 -2 C 10.375 -2 11.335938 -2.265625 12.109375 -2.796875 C 12.878906 -3.335938 13.421875 -4.0625 13.734375 -4.96875 L 16.625 -4.96875 C 16.1875 -3.414062 15.320312 -2.15625 14.03125 -1.1875 C 12.738281 -0.21875 11.132812 0.265625 9.21875 0.265625 C 7.6875 0.265625 6.316406 -0.078125 5.109375 -0.765625 C 3.910156 -1.453125 2.96875 -2.425781 2.28125 -3.6875 C 1.601562 -4.945312 1.265625 -6.410156 1.265625 -8.078125 C 1.265625 -9.734375 1.597656 -11.1875 2.265625 -12.4375 C 2.929688 -13.695312 3.863281 -14.664062 5.0625 -15.34375 C 6.269531 -16.019531 7.65625 -16.359375 9.21875 -16.359375 C 10.75 -16.359375 12.097656 -16.023438 13.265625 -15.359375 C 14.441406 -14.691406 15.347656 -13.773438 15.984375 -12.609375 C 16.617188 -11.441406 16.9375 -10.125 16.9375 -8.65625 Z M 14.1875 -9.21875 C 14.1875 -10.238281 13.957031 -11.113281 13.5 -11.84375 C 13.050781 -12.582031 12.441406 -13.140625 11.671875 -13.515625 C 10.898438 -13.898438 10.039062 -14.09375 9.09375 -14.09375 C 7.75 -14.09375 6.601562 -13.660156 5.65625 -12.796875 C 4.707031 -11.941406 4.160156 -10.75 4.015625 -9.21875 Z M 14.1875 -9.21875 "/></g></g></g><g fill="#000000" fill-opacity="1"><g transform="translate(157.713456, 52.274245)"><g><path d="M 5.515625 -13.890625 L 5.515625 -4.40625 C 5.515625 -3.625 5.679688 -3.070312 6.015625 -2.75 C 6.347656 -2.425781 6.925781 -2.265625 7.75 -2.265625 L 9.71875 -2.265625 L 9.71875 0 L 7.3125 0 C 5.820312 0 4.703125 -0.34375 3.953125 -1.03125 C 3.210938 -1.71875 2.84375 -2.84375 2.84375 -4.40625 L 2.84375 -13.890625 L 0.765625 -13.890625 L 0.765625 -16.09375 L 2.84375 -16.09375 L 2.84375 -20.140625 L 5.515625 -20.140625 L 5.515625 -16.09375 L 9.71875 -16.09375 L 9.71875 -13.890625 Z M 5.515625 -13.890625 "/></g></g></g><g fill="#000000" fill-opacity="1"><g transform="translate(168.398089, 52.274245)"><g/></g></g><g fill="#000000" fill-opacity="1"><g transform="translate(176.235443, 52.274245)"><g><path d="M 17.96875 0 L 15.296875 -2.703125 C 14.296875 -1.660156 13.226562 -0.890625 12.09375 -0.390625 C 10.957031 0.109375 9.675781 0.359375 8.25 0.359375 C 6.84375 0.359375 5.59375 0.101562 4.5 -0.40625 C 3.414062 -0.914062 2.578125 -1.640625 1.984375 -2.578125 C 1.390625 -3.523438 1.09375 -4.625 1.09375 -5.875 C 1.09375 -7.300781 1.492188 -8.554688 2.296875 -9.640625 C 3.109375 -10.734375 4.3125 -11.59375 5.90625 -12.21875 C 5.28125 -12.957031 4.828125 -13.640625 4.546875 -14.265625 C 4.273438 -14.890625 4.140625 -15.578125 4.140625 -16.328125 C 4.140625 -17.179688 4.359375 -17.957031 4.796875 -18.65625 C 5.234375 -19.351562 5.863281 -19.894531 6.6875 -20.28125 C 7.507812 -20.675781 8.460938 -20.875 9.546875 -20.875 C 10.597656 -20.875 11.515625 -20.664062 12.296875 -20.25 C 13.078125 -19.84375 13.664062 -19.269531 14.0625 -18.53125 C 14.457031 -17.800781 14.632812 -16.988281 14.59375 -16.09375 L 11.921875 -16.09375 C 11.941406 -16.894531 11.71875 -17.523438 11.25 -17.984375 C 10.78125 -18.441406 10.171875 -18.671875 9.421875 -18.671875 C 8.640625 -18.671875 8.007812 -18.445312 7.53125 -18 C 7.050781 -17.5625 6.8125 -17.003906 6.8125 -16.328125 C 6.8125 -15.734375 6.972656 -15.160156 7.296875 -14.609375 C 7.617188 -14.066406 8.160156 -13.394531 8.921875 -12.59375 L 15.03125 -6.453125 L 15.5625 -7.28125 L 17.5625 -10.625 L 20.4375 -10.625 L 18.03125 -6.453125 C 17.695312 -5.867188 17.304688 -5.253906 16.859375 -4.609375 L 21.46875 0 Z M 8.25 -1.9375 C 9.300781 -1.9375 10.253906 -2.140625 11.109375 -2.546875 C 11.960938 -2.960938 12.769531 -3.601562 13.53125 -4.46875 L 7.515625 -10.515625 C 5.015625 -9.554688 3.765625 -8.035156 3.765625 -5.953125 C 3.765625 -4.804688 4.175781 -3.847656 5 -3.078125 C 5.832031 -2.316406 6.914062 -1.9375 8.25 -1.9375 Z M 8.25 -1.9375 "/></g></g></g><g fill="#000000" fill-opacity="1"><g transform="translate(197.927605, 52.274245)"><g/></g></g><g fill="#000000" fill-opacity="1"><g transform="translate(205.764959, 52.274245)"><g><path d="M 14.359375 -4.546875 L 5.4375 -4.546875 L 3.78125 0 L 0.96875 0 L 8.375 -20.34375 L 11.453125 -20.34375 L 18.8125 0 L 16 0 Z M 13.59375 -6.71875 L 9.890625 -17.0625 L 6.1875 -6.71875 Z M 13.59375 -6.71875 "/></g></g></g><g fill="#000000" fill-opacity="1"><g transform="translate(225.549144, 52.274245)"><g><path d="M 21.609375 -16.375 C 22.859375 -16.375 23.972656 -16.113281 24.953125 -15.59375 C 25.929688 -15.082031 26.703125 -14.304688 27.265625 -13.265625 C 27.835938 -12.234375 28.125 -10.972656 28.125 -9.484375 L 28.125 0 L 25.484375 0 L 25.484375 -9.09375 C 25.484375 -10.707031 25.085938 -11.9375 24.296875 -12.78125 C 23.503906 -13.632812 22.429688 -14.0625 21.078125 -14.0625 C 19.691406 -14.0625 18.585938 -13.613281 17.765625 -12.71875 C 16.941406 -11.832031 16.53125 -10.546875 16.53125 -8.859375 L 16.53125 0 L 13.890625 0 L 13.890625 -9.09375 C 13.890625 -10.707031 13.492188 -11.9375 12.703125 -12.78125 C 11.910156 -13.632812 10.835938 -14.0625 9.484375 -14.0625 C 8.097656 -14.0625 6.992188 -13.613281 6.171875 -12.71875 C 5.347656 -11.832031 4.9375 -10.546875 4.9375 -8.859375 L 4.9375 0 L 2.265625 0 L 2.265625 -16.09375 L 4.9375 -16.09375 L 4.9375 -13.765625 C 5.457031 -14.609375 6.160156 -15.253906 7.046875 -15.703125 C 7.941406 -16.148438 8.929688 -16.375 10.015625 -16.375 C 11.359375 -16.375 12.550781 -16.070312 13.59375 -15.46875 C 14.632812 -14.863281 15.40625 -13.972656 15.90625 -12.796875 C 16.363281 -13.929688 17.109375 -14.8125 18.140625 -15.4375 C 19.179688 -16.0625 20.335938 -16.375 21.609375 -16.375 Z M 21.609375 -16.375 "/></g></g></g><g fill="#000000" fill-opacity="1"><g transform="translate(255.783146, 52.274245)"><g><path d="M 3.640625 -18.703125 C 3.128906 -18.703125 2.695312 -18.878906 2.34375 -19.234375 C 1.988281 -19.585938 1.8125 -20.015625 1.8125 -20.515625 C 1.8125 -21.023438 1.988281 -21.457031 2.34375 -21.8125 C 2.695312 -22.164062 3.128906 -22.34375 3.640625 -22.34375 C 4.128906 -22.34375 4.546875 -22.164062 4.890625 -21.8125 C 5.234375 -21.457031 5.40625 -21.023438 5.40625 -20.515625 C 5.40625 -20.015625 5.234375 -19.585938 4.890625 -19.234375 C 4.546875 -18.878906 4.128906 -18.703125 3.640625 -18.703125 Z M 4.9375 -16.09375 L 4.9375 0 L 2.265625 0 L 2.265625 -16.09375 Z M 4.9375 -16.09375 "/></g></g></g><g fill="#000000" fill-opacity="1"><g transform="translate(263.00408, 52.274245)"><g><path d="M 10.09375 -16.375 C 12.050781 -16.375 13.632812 -15.78125 14.84375 -14.59375 C 16.0625 -13.414062 16.671875 -11.710938 16.671875 -9.484375 L 16.671875 0 L 14.03125 0 L 14.03125 -9.09375 C 14.03125 -10.707031 13.628906 -11.9375 12.828125 -12.78125 C 12.023438 -13.632812 10.929688 -14.0625 9.546875 -14.0625 C 8.128906 -14.0625 7.003906 -13.617188 6.171875 -12.734375 C 5.347656 -11.859375 4.9375 -10.578125 4.9375 -8.890625 L 4.9375 0 L 2.265625 0 L 2.265625 -16.09375 L 4.9375 -16.09375 L 4.9375 -13.796875 C 5.457031 -14.617188 6.171875 -15.253906 7.078125 -15.703125 C 7.992188 -16.148438 9 -16.375 10.09375 -16.375 Z M 10.09375 -16.375 "/></g></g></g><g fill="#000000" fill-opacity="1"><g transform="translate(281.790255, 52.274245)"><g><path d="M 1.265625 -8.109375 C 1.265625 -9.742188 1.597656 -11.179688 2.265625 -12.421875 C 2.929688 -13.671875 3.84375 -14.640625 5 -15.328125 C 6.164062 -16.015625 7.460938 -16.359375 8.890625 -16.359375 C 10.304688 -16.359375 11.53125 -16.050781 12.5625 -15.4375 C 13.601562 -14.832031 14.378906 -14.070312 14.890625 -13.15625 L 14.890625 -16.09375 L 17.59375 -16.09375 L 17.59375 0 L 14.890625 0 L 14.890625 -3 C 14.359375 -2.050781 13.566406 -1.269531 12.515625 -0.65625 C 11.472656 -0.0390625 10.253906 0.265625 8.859375 0.265625 C 7.429688 0.265625 6.140625 -0.0820312 4.984375 -0.78125 C 3.835938 -1.488281 2.929688 -2.476562 2.265625 -3.75 C 1.597656 -5.03125 1.265625 -6.484375 1.265625 -8.109375 Z M 14.890625 -8.078125 C 14.890625 -9.285156 14.644531 -10.335938 14.15625 -11.234375 C 13.664062 -12.140625 13.003906 -12.832031 12.171875 -13.3125 C 11.335938 -13.789062 10.421875 -14.03125 9.421875 -14.03125 C 8.421875 -14.03125 7.507812 -13.796875 6.6875 -13.328125 C 5.863281 -12.859375 5.207031 -12.171875 4.71875 -11.265625 C 4.238281 -10.367188 4 -9.316406 4 -8.109375 C 4 -6.867188 4.238281 -5.789062 4.71875 -4.875 C 5.207031 -3.96875 5.863281 -3.273438 6.6875 -2.796875 C 7.507812 -2.316406 8.421875 -2.078125 9.421875 -2.078125 C 10.421875 -2.078125 11.335938 -2.316406 12.171875 -2.796875 C 13.003906 -3.273438 13.664062 -3.96875 14.15625 -4.875 C 14.644531 -5.789062 14.890625 -6.859375 14.890625 -8.078125 Z M 14.890625 -8.078125 "/></g></g></g><g fill="#000000" fill-opacity="1"><g transform="translate(301.633147, 52.274245)"><g><path d="M 4.9375 -21.71875 L 4.9375 0 L 2.265625 0 L 2.265625 -21.71875 Z M 4.9375 -21.71875 "/></g></g></g><g fill="#000000" fill-opacity="1"><g transform="translate(308.854081, 52.274245)"><g><path d="M 7.953125 0.265625 C 6.722656 0.265625 5.617188 0.0546875 4.640625 -0.359375 C 3.660156 -0.785156 2.882812 -1.375 2.3125 -2.125 C 1.75 -2.882812 1.4375 -3.753906 1.375 -4.734375 L 4.140625 -4.734375 C 4.210938 -3.921875 4.585938 -3.257812 5.265625 -2.75 C 5.941406 -2.25 6.828125 -2 7.921875 -2 C 8.941406 -2 9.742188 -2.222656 10.328125 -2.671875 C 10.921875 -3.117188 11.21875 -3.6875 11.21875 -4.375 C 11.21875 -5.082031 10.90625 -5.601562 10.28125 -5.9375 C 9.65625 -6.28125 8.6875 -6.617188 7.375 -6.953125 C 6.175781 -7.265625 5.195312 -7.582031 4.4375 -7.90625 C 3.6875 -8.226562 3.039062 -8.707031 2.5 -9.34375 C 1.96875 -9.988281 1.703125 -10.828125 1.703125 -11.859375 C 1.703125 -12.679688 1.945312 -13.4375 2.4375 -14.125 C 2.925781 -14.8125 3.617188 -15.351562 4.515625 -15.75 C 5.421875 -16.15625 6.453125 -16.359375 7.609375 -16.359375 C 9.390625 -16.359375 10.828125 -15.90625 11.921875 -15 C 13.015625 -14.101562 13.601562 -12.867188 13.6875 -11.296875 L 11.015625 -11.296875 C 10.953125 -12.140625 10.613281 -12.816406 10 -13.328125 C 9.382812 -13.835938 8.554688 -14.09375 7.515625 -14.09375 C 6.554688 -14.09375 5.789062 -13.882812 5.21875 -13.46875 C 4.65625 -13.0625 4.375 -12.523438 4.375 -11.859375 C 4.375 -11.328125 4.546875 -10.890625 4.890625 -10.546875 C 5.234375 -10.210938 5.660156 -9.941406 6.171875 -9.734375 C 6.691406 -9.523438 7.414062 -9.296875 8.34375 -9.046875 C 9.488281 -8.734375 10.425781 -8.421875 11.15625 -8.109375 C 11.882812 -7.804688 12.503906 -7.351562 13.015625 -6.75 C 13.535156 -6.144531 13.804688 -5.351562 13.828125 -4.375 C 13.828125 -3.488281 13.582031 -2.691406 13.09375 -1.984375 C 12.601562 -1.285156 11.910156 -0.734375 11.015625 -0.328125 C 10.128906 0.0664062 9.109375 0.265625 7.953125 0.265625 Z M 7.953125 0.265625 "/></g></g></g></svg>