<svg xmlns="http://www.w3.org/2000/svg" xmlns:xlink="http://www.w3.org/1999/xlink" width="500" zoomAndPan="magnify" viewBox="0 0 375 82.499998" height="110" preserveAspectRatio="xMidYMid meet" version="1.0"><defs><g/><clipPath id="04f1ee0c0f"><path d="M 1.128906 0 L 373.871094 0 L 373.871094 82.003906 L 1.128906 82.003906 Z M 1.128906 0 " clip-rule="nonzero"/></clipPath><clipPath id="de574db7d4"><path d="M 17.054688 13 L 67 13 L 67 70 L 17.054688 70 Z M 17.054688 13 " clip-rule="nonzero"/></clipPath><clipPath id="2824cba734"><path d="M 17.054688 11.75 L 71 11.75 L 71 73 L 17.054688 73 Z M 17.054688 11.75 " clip-rule="nonzero"/></clipPath><clipPath id="110ff262b7"><path d="M 38 11.75 L 65 11.75 L 65 17 L 38 17 Z M 38 11.75 " clip-rule="nonzero"/></clipPath><clipPath id="01845ea971"><path d="M 35 11.75 L 69 11.75 L 69 20 L 35 20 Z M 35 11.75 " clip-rule="nonzero"/></clipPath><clipPath id="b66547d47e"><path d="M 17.054688 57 L 67 57 L 67 70 L 17.054688 70 Z M 17.054688 57 " clip-rule="nonzero"/></clipPath><clipPath id="636d5e9663"><path d="M 17.054688 53 L 71 53 L 71 73 L 17.054688 73 Z M 17.054688 53 " clip-rule="nonzero"/></clipPath><clipPath id="58e5796f33"><path d="M 38 15 L 89 15 L 89 73.625 L 38 73.625 Z M 38 15 " clip-rule="nonzero"/></clipPath><clipPath id="4db1c0e9d1"><path d="M 34 11.75 L 89.367188 11.75 L 89.367188 73.625 L 34 73.625 Z M 34 11.75 " clip-rule="nonzero"/></clipPath><clipPath id="92e6fdac9d"><path d="M 56 11.75 L 89.367188 11.75 L 89.367188 22 L 56 22 Z M 56 11.75 " clip-rule="nonzero"/></clipPath><clipPath id="a64cefbc80"><path d="M 38 60 L 89 60 L 89 73.625 L 38 73.625 Z M 38 60 " clip-rule="nonzero"/></clipPath><clipPath id="4b0f9b103c"><path d="M 34 56 L 89.367188 56 L 89.367188 73.625 L 34 73.625 Z M 34 56 " clip-rule="nonzero"/></clipPath></defs><g clip-path="url(#04f1ee0c0f)"><path fill="#ffffff" d="M 1.128906 0 L 373.871094 0 L 373.871094 82.003906 L 1.128906 82.003906 Z M 1.128906 0 " fill-opacity="1" fill-rule="nonzero"/><path fill="#ffffff" d="M 1.128906 0 L 373.871094 0 L 373.871094 82.003906 L 1.128906 82.003906 Z M 1.128906 0 " fill-opacity="1" fill-rule="nonzero"/></g><g clip-path="url(#de574db7d4)"><path fill="#a5623c" d="M 64.375 13.941406 L 64.375 23.824219 C 64.375 25.089844 64.277344 26.351562 64.085938 27.601562 C 63.5 31.375 62.410156 40.699219 64.375 48.203125 C 66.902344 57.855469 66.632812 61.609375 66.632812 61.609375 C 66.632812 61.609375 63.230469 65.28125 57.539062 65.996094 C 57.539062 65.996094 57.105469 63.832031 56.109375 63.347656 C 56.109375 63.347656 56.0625 63.085938 55.527344 65.714844 C 55.503906 65.828125 55.488281 65.945312 55.46875 66.058594 C 55.4375 66.25 55.144531 66.839844 52.773438 67.128906 C 52.554688 67.15625 52.335938 67.191406 52.117188 67.234375 C 50.101562 67.640625 39.609375 69.648438 32.78125 69.074219 C 25.199219 68.4375 19.636719 67.242188 19.636719 67.242188 C 19.636719 67.242188 18.582031 66.960938 17.800781 66.5625 C 17.449219 66.382812 17.226562 66.019531 17.21875 65.621094 C 17.1875 63.695312 18.425781 57.351562 20.25 54.753906 C 20.34375 54.621094 20.433594 54.488281 20.523438 54.351562 C 20.957031 53.675781 23.039062 51.144531 30.125 50.59375 C 38.320312 49.960938 38.472656 48.789062 38.472656 48.789062 C 38.472656 48.789062 40.847656 46.34375 41 40.183594 C 41.152344 34.027344 40.132812 27.078125 40.132812 27.078125 L 39.144531 18.25 C 39.070312 17.605469 38.96875 16.964844 38.832031 16.332031 C 38.628906 15.394531 38.410156 13.839844 39.097656 13.613281 " fill-opacity="1" fill-rule="nonzero"/></g><g clip-path="url(#2824cba734)"><path stroke-linecap="butt" transform="matrix(0.0446016, 0, 0, 0.044476, 11.461507, 6.924634)" fill="none" stroke-linejoin="miter" d="M 1186.359107 157.765387 L 1186.359107 379.970952 C 1186.359107 408.427317 1184.169583 436.795853 1179.878115 464.900905 C 1166.740969 549.743029 1142.305877 759.389149 1186.359107 928.107287 C 1243.023998 1145.130982 1236.98091 1229.533966 1236.98091 1229.533966 C 1236.98091 1229.533966 1160.697881 1312.092555 1033.092402 1328.165131 C 1033.092402 1328.165131 1023.370913 1279.50826 1001.037765 1268.617553 C 1001.037765 1268.617553 999.986793 1262.733058 987.9882 1321.841494 C 987.462714 1324.388515 987.11239 1327.023363 986.674485 1329.570384 C 985.973837 1333.87397 979.405264 1347.136041 926.243613 1353.635334 C 921.339078 1354.250132 916.434544 1355.040587 911.530009 1356.006698 C 866.338226 1365.14084 631.095729 1410.284579 478.004185 1397.373821 C 308.009514 1383.05781 183.294206 1356.182354 183.294206 1356.182354 C 183.294206 1356.182354 159.647343 1349.858718 142.131148 1340.900233 C 134.24886 1336.860131 129.256745 1328.692101 129.081583 1319.733616 C 128.380935 1276.43427 156.144104 1133.801133 197.044419 1075.395323 C 199.146362 1072.409161 201.160725 1069.423 203.175087 1066.34901 C 212.896575 1051.154716 259.577235 994.241986 418.449122 981.858198 C 602.194007 967.630016 605.609665 941.28153 605.609665 941.28153 C 605.609665 941.28153 658.858897 886.301023 662.274555 747.795815 C 665.690213 609.378436 642.831579 453.131914 642.831579 453.131914 L 620.673593 254.639987 C 619.009554 240.14832 616.732449 225.744481 613.667115 211.516299 C 609.112904 190.43751 604.208369 155.481852 619.622621 150.387811 " stroke="#1d1d1b" stroke-width="5.819" stroke-opacity="1" stroke-miterlimit="10"/></g><g clip-path="url(#110ff262b7)"><path fill="#673410" d="M 64.375 13.949219 C 64.375 14.085938 64.292969 14.21875 64.132812 14.351562 C 63.96875 14.484375 63.726562 14.613281 63.40625 14.742188 C 63.085938 14.867188 62.695312 14.984375 62.230469 15.097656 C 61.765625 15.210938 61.238281 15.316406 60.648438 15.410156 C 60.058594 15.507812 59.417969 15.59375 58.722656 15.667969 C 58.027344 15.742188 57.292969 15.808594 56.523438 15.859375 C 55.75 15.910156 54.953125 15.949219 54.136719 15.976562 C 53.316406 16.003906 52.488281 16.015625 51.652344 16.015625 C 50.820312 16.015625 49.992188 16.003906 49.171875 15.976562 C 48.351562 15.949219 47.558594 15.910156 46.785156 15.859375 C 46.011719 15.808594 45.28125 15.742188 44.585938 15.667969 C 43.890625 15.59375 43.25 15.507812 42.65625 15.410156 C 42.066406 15.316406 41.539062 15.210938 41.074219 15.097656 C 40.613281 14.984375 40.21875 14.867188 39.902344 14.742188 C 39.582031 14.613281 39.339844 14.484375 39.175781 14.351562 C 39.011719 14.21875 38.933594 14.085938 38.933594 13.949219 C 38.933594 13.8125 39.011719 13.679688 39.175781 13.546875 C 39.339844 13.414062 39.582031 13.28125 39.902344 13.15625 C 40.21875 13.03125 40.613281 12.914062 41.074219 12.800781 C 41.539062 12.6875 42.066406 12.582031 42.65625 12.488281 C 43.25 12.390625 43.890625 12.304688 44.585938 12.230469 C 45.28125 12.152344 46.011719 12.089844 46.785156 12.039062 C 47.558594 11.988281 48.351562 11.949219 49.171875 11.921875 C 49.992188 11.894531 50.820312 11.882812 51.652344 11.882812 C 52.488281 11.882812 53.316406 11.894531 54.136719 11.921875 C 54.953125 11.949219 55.75 11.988281 56.523438 12.039062 C 57.292969 12.089844 58.027344 12.152344 58.722656 12.230469 C 59.417969 12.304688 60.058594 12.390625 60.648438 12.488281 C 61.238281 12.582031 61.765625 12.6875 62.230469 12.800781 C 62.695312 12.914062 63.085938 13.03125 63.40625 13.15625 C 63.726562 13.28125 63.96875 13.414062 64.132812 13.546875 C 64.292969 13.679688 64.375 13.8125 64.375 13.949219 Z M 64.375 13.949219 " fill-opacity="1" fill-rule="nonzero"/></g><g clip-path="url(#01845ea971)"><path stroke-linecap="butt" transform="matrix(0.0446016, 0, 0, 0.044476, 11.461507, 6.924634)" fill="none" stroke-linejoin="miter" d="M 1186.359107 157.941044 C 1186.359107 161.015034 1184.519907 164.001196 1180.929087 166.987358 C 1177.250686 169.973519 1171.820665 172.871853 1164.639025 175.770186 C 1157.457385 178.580691 1148.699288 181.21554 1138.277152 183.76256 C 1127.855016 186.309581 1116.031584 188.680944 1102.806857 190.788823 C 1089.58213 192.98453 1075.21885 194.916753 1059.629437 196.58549 C 1044.040023 198.254227 1027.5748 199.747308 1010.321348 200.889076 C 992.980315 202.030844 975.113796 202.909127 956.809373 203.523925 C 938.417368 204.138723 919.850202 204.402208 901.107873 204.402208 C 882.453125 204.402208 863.885959 204.138723 845.493954 203.523925 C 827.10195 202.909127 809.323012 202.030844 791.981979 200.889076 C 774.640946 199.747308 758.263304 198.254227 742.67389 196.58549 C 727.084477 194.916753 712.721197 192.98453 699.408889 190.788823 C 686.184162 188.680944 674.36073 186.309581 663.938594 183.76256 C 653.604039 181.21554 644.758361 178.580691 637.664302 175.770186 C 630.482662 172.871853 625.052641 169.973519 621.37424 166.987358 C 617.695839 164.001196 615.94422 161.015034 615.94422 157.941044 C 615.94422 154.867054 617.695839 151.880892 621.37424 148.894731 C 625.052641 145.908569 630.482662 142.922407 637.664302 140.111902 C 644.758361 137.301397 653.604039 134.666548 663.938594 132.119528 C 674.36073 129.572508 686.184162 127.201144 699.408889 125.093265 C 712.721197 122.897558 727.084477 120.965336 742.67389 119.296598 C 758.263304 117.540032 774.640946 116.13478 791.981979 114.993012 C 809.323012 113.851244 827.10195 112.972961 845.493954 112.358163 C 863.885959 111.743365 882.453125 111.479881 901.107873 111.479881 C 919.850202 111.479881 938.417368 111.743365 956.809373 112.358163 C 975.113796 112.972961 992.980315 113.851244 1010.321348 114.993012 C 1027.5748 116.13478 1044.040023 117.540032 1059.629437 119.296598 C 1075.21885 120.965336 1089.58213 122.897558 1102.806857 125.093265 C 1116.031584 127.201144 1127.855016 129.572508 1138.277152 132.119528 C 1148.699288 134.666548 1157.457385 137.301397 1164.639025 140.111902 C 1171.820665 142.922407 1177.250686 145.908569 1180.929087 148.894731 C 1184.519907 151.880892 1186.359107 154.867054 1186.359107 157.941044 Z M 1186.359107 157.941044 " stroke="#1d1d1b" stroke-width="5.819" stroke-opacity="1" stroke-miterlimit="10"/></g><path stroke-linecap="butt" transform="matrix(0.0446016, 0, 0, 0.044476, 11.461507, 6.924634)" fill-opacity="1" fill="#d9ac8d" fill-rule="nonzero" stroke-linejoin="miter" d="M 628.468299 324.463475 C 628.468299 324.463475 693.453382 364.249689 789.529711 348.352769 C 789.529711 348.352769 807.133487 377.336103 786.639539 411.940448 C 786.639539 411.940448 698.883403 441.275096 638.102206 411.149994 Z M 628.468299 324.463475 " stroke="#1d1d1b" stroke-width="5.819" stroke-opacity="1" stroke-miterlimit="10"/><path stroke-linecap="butt" transform="matrix(0.0446016, 0, 0, 0.044476, 11.461507, 6.924634)" fill-opacity="1" fill="#d9ac8d" fill-rule="nonzero" stroke-linejoin="miter" d="M 651.414515 524.536311 C 651.414515 524.536311 703.525194 562.390303 803.542667 530.859948 C 803.542667 530.859948 823.073225 552.817019 808.534783 605.338335 C 808.534783 605.338335 738.820327 655.049145 658.596155 607.0949 Z M 651.414515 524.536311 " stroke="#1d1d1b" stroke-width="5.819" stroke-opacity="1" stroke-miterlimit="10"/><path stroke-linecap="butt" transform="matrix(0.0446016, 0, 0, 0.044476, 11.461507, 6.924634)" fill-opacity="1" fill="#d9ac8d" fill-rule="nonzero" stroke-linejoin="miter" d="M 662.362136 741.91132 C 662.362136 741.91132 690.738372 780.204453 801.440724 759.301321 C 801.440724 759.301321 819.832729 788.723796 795.747961 829.56395 C 795.747961 829.56395 711.845387 865.39789 655.005335 821.395919 C 657.019697 809.978242 658.771316 797.594453 660.085031 784.42021 C 661.573908 769.313745 662.274555 755.085563 662.362136 741.91132 Z M 662.362136 741.91132 " stroke="#1d1d1b" stroke-width="5.819" stroke-opacity="1" stroke-miterlimit="10"/><path stroke-linecap="butt" transform="matrix(0.0446016, 0, 0, 0.044476, 11.461507, 6.924634)" fill="none" stroke-linejoin="miter" d="M 743.024214 1164.453205 C 743.024214 1164.453205 698.708241 989.060118 442.095986 979.925976 " stroke="#1d1d1b" stroke-width="5.819" stroke-opacity="1" stroke-miterlimit="10"/><g clip-path="url(#b66547d47e)"><path fill="#673410" d="M 66.292969 57.296875 C 65.59375 58.019531 64.503906 58.984375 62.96875 59.785156 C 60.910156 60.855469 59.007812 61.128906 57.863281 61.203125 C 57.605469 60.550781 57.007812 60.109375 56.394531 60.121094 C 55.710938 60.132812 54.820312 61.886719 54.820312 61.886719 C 54.820312 61.886719 50.699219 63.902344 46.382812 64.4375 C 43.921875 64.742188 40.355469 64.828125 37.742188 64.84375 C 34.425781 64.867188 25.914062 64.625 23.335938 64.074219 C 21.011719 63.578125 18.929688 62.859375 17.777344 61.570312 C 17.652344 62.535156 17.4375 63.289062 17.371094 63.820312 C 17.292969 64.457031 17.246094 65.0625 17.222656 65.621094 C 17.230469 66.019531 17.453125 66.382812 17.804688 66.5625 C 18.585938 66.960938 19.640625 67.242188 19.640625 67.242188 C 19.640625 67.242188 25.203125 68.4375 32.785156 69.074219 C 39.617188 69.648438 50.117188 67.636719 52.125 67.234375 C 52.34375 67.191406 52.5625 67.15625 52.785156 67.128906 C 55.148438 66.835938 55.441406 66.25 55.472656 66.058594 C 55.492188 65.945312 55.507812 65.828125 55.53125 65.714844 C 56.066406 63.085938 56.113281 63.347656 56.113281 63.347656 C 57.109375 63.832031 57.542969 65.992188 57.542969 65.992188 C 63.234375 65.28125 66.636719 61.609375 66.636719 61.609375 C 66.636719 60.941406 66.609375 60.222656 66.546875 59.460938 C 66.488281 58.6875 66.398438 57.964844 66.292969 57.296875 Z M 66.292969 57.296875 " fill-opacity="1" fill-rule="nonzero"/></g><g clip-path="url(#636d5e9663)"><path stroke-linecap="butt" transform="matrix(0.0446016, 0, 0, 0.044476, 11.461507, 6.924634)" fill="none" stroke-linejoin="miter" d="M 1229.361365 1132.571537 C 1213.684371 1148.81977 1189.249279 1170.513357 1154.829956 1188.518156 C 1108.674783 1212.583106 1066.022848 1218.731086 1040.361622 1220.399824 C 1034.581278 1205.7325 1021.181389 1195.807904 1007.431176 1196.071388 C 992.104506 1196.334873 972.136043 1235.769774 972.136043 1235.769774 C 972.136043 1235.769774 879.738115 1281.08917 782.961138 1293.121645 C 727.785124 1299.972251 647.823695 1301.904473 589.232023 1302.255787 C 514.875775 1302.782756 324.036832 1297.337403 266.233389 1284.953614 C 214.122709 1273.799422 167.442049 1257.639017 141.605662 1228.655683 C 138.803071 1250.349269 133.986117 1267.300129 132.497241 1279.244776 C 130.745621 1293.560786 129.694649 1307.174171 129.169164 1319.733616 C 129.344325 1328.692101 134.336441 1336.860131 142.218729 1340.900233 C 159.734924 1349.858718 183.381787 1356.182354 183.381787 1356.182354 C 183.381787 1356.182354 308.097094 1383.05781 478.091766 1397.373821 C 631.27089 1410.284579 866.68855 1365.053011 911.705171 1356.006698 C 916.609705 1355.040587 921.51424 1354.250132 926.506356 1353.635334 C 979.492845 1347.048213 986.061418 1333.87397 986.762066 1329.570384 C 987.199971 1327.023363 987.550295 1324.388515 988.075781 1321.841494 C 1000.074374 1262.733058 1001.125346 1268.617553 1001.125346 1268.617553 C 1023.458494 1279.50826 1033.179983 1328.077303 1033.179983 1328.077303 C 1160.785462 1312.092555 1237.068491 1229.533966 1237.068491 1229.533966 C 1237.068491 1214.515329 1236.455424 1198.354924 1235.054129 1181.228408 C 1233.740414 1163.838407 1231.726052 1147.590174 1229.361365 1132.571537 Z M 1229.361365 1132.571537 " stroke="#1d1d1b" stroke-width="5.819" stroke-opacity="1" stroke-miterlimit="10"/></g><g clip-path="url(#58e5796f33)"><path fill="#a5623c" d="M 86.628906 16.050781 L 86.628906 26.246094 C 86.628906 27.546875 86.527344 28.851562 86.328125 30.136719 C 85.730469 34.027344 84.601562 43.640625 86.628906 51.382812 C 89.234375 61.335938 88.957031 65.203125 88.957031 65.203125 C 88.957031 65.203125 85.449219 68.988281 79.582031 69.726562 C 79.582031 69.726562 79.132812 67.492188 78.105469 66.996094 C 78.105469 66.996094 78.058594 66.726562 77.507812 69.4375 C 77.484375 69.554688 77.464844 69.671875 77.449219 69.789062 C 77.414062 69.992188 77.113281 70.59375 74.667969 70.894531 C 74.441406 70.921875 74.214844 70.957031 73.992188 71.003906 C 71.910156 71.421875 61.09375 73.492188 54.050781 72.898438 C 46.234375 72.246094 40.5 71.011719 40.5 71.011719 C 40.5 71.011719 39.410156 70.722656 38.605469 70.3125 C 38.242188 70.125 38.011719 69.75 38.007812 69.339844 C 37.972656 67.351562 39.25 60.8125 41.128906 58.136719 C 41.226562 58 41.320312 57.859375 41.410156 57.71875 C 41.859375 57.023438 44.007812 54.414062 51.316406 53.847656 C 59.761719 53.191406 59.921875 51.984375 59.921875 51.984375 C 59.921875 51.984375 62.367188 49.464844 62.527344 43.113281 C 62.683594 36.761719 61.632812 29.597656 61.632812 29.597656 L 60.613281 20.492188 C 60.539062 19.832031 60.429688 19.171875 60.292969 18.515625 C 60.085938 17.550781 59.859375 15.949219 60.566406 15.714844 " fill-opacity="1" fill-rule="nonzero"/></g><g clip-path="url(#4db1c0e9d1)"><path stroke-linecap="butt" transform="matrix(0.0446016, 0, 0, 0.044476, 11.461507, 6.924634)" fill="none" stroke-linejoin="miter" d="M 1685.307919 205.192662 L 1685.307919 434.424489 C 1685.307919 463.671309 1683.030814 493.005956 1678.564184 521.901463 C 1665.164295 609.378436 1639.853393 825.523848 1685.307919 999.599512 C 1743.724429 1223.385985 1737.50618 1310.335989 1737.50618 1310.335989 C 1737.50618 1310.335989 1658.858465 1395.441598 1527.311841 1412.041145 C 1527.311841 1412.041145 1517.240029 1361.803365 1494.206232 1350.649172 C 1494.206232 1350.649172 1493.155261 1344.589021 1480.806343 1405.541851 C 1480.280858 1408.1767 1479.842953 1410.811548 1479.492629 1413.446397 C 1478.7044 1418.013468 1471.960665 1431.539024 1417.134975 1438.301802 C 1412.055278 1438.9166 1406.975582 1439.707055 1401.983466 1440.760994 C 1355.302807 1450.158621 1112.791088 1496.707613 954.882591 1483.357713 C 779.633061 1468.690389 651.064191 1440.936651 651.064191 1440.936651 C 651.064191 1440.936651 626.629099 1434.437358 608.587418 1425.215387 C 600.442387 1420.99963 595.27511 1412.568114 595.187529 1403.346144 C 594.3993 1358.641546 623.038279 1211.616995 665.164728 1151.454619 C 667.354252 1148.380629 669.456195 1145.218811 671.470558 1142.056992 C 681.54237 1126.423557 729.711906 1067.754262 893.575909 1055.019161 C 1082.925976 1040.264008 1086.516796 1013.125068 1086.516796 1013.125068 C 1086.516796 1013.125068 1141.342486 956.475823 1144.933306 813.66703 C 1148.436545 670.858236 1124.877263 509.781159 1124.877263 509.781159 L 1102.018629 305.053424 C 1100.35459 290.210443 1097.902323 275.367463 1094.836989 260.612311 C 1090.195197 238.918724 1085.1155 202.909127 1100.967657 197.639429 " stroke="#1d1d1b" stroke-width="6" stroke-opacity="1" stroke-miterlimit="10"/></g><path fill="#673410" d="M 86.628906 16.0625 C 86.628906 16.199219 86.546875 16.339844 86.378906 16.476562 C 86.210938 16.613281 85.960938 16.746094 85.632812 16.875 C 85.300781 17.007812 84.898438 17.128906 84.417969 17.246094 C 83.941406 17.363281 83.398438 17.46875 82.789062 17.570312 C 82.179688 17.667969 81.515625 17.757812 80.800781 17.832031 C 80.082031 17.910156 79.328125 17.976562 78.53125 18.03125 C 77.734375 18.085938 76.914062 18.125 76.070312 18.152344 C 75.226562 18.179688 74.375 18.191406 73.511719 18.191406 C 72.652344 18.191406 71.796875 18.179688 70.953125 18.152344 C 70.109375 18.125 69.289062 18.085938 68.492188 18.03125 C 67.695312 17.976562 66.941406 17.910156 66.222656 17.832031 C 65.507812 17.757812 64.847656 17.667969 64.238281 17.570312 C 63.628906 17.46875 63.082031 17.363281 62.605469 17.246094 C 62.125 17.128906 61.722656 17.007812 61.394531 16.875 C 61.0625 16.746094 60.816406 16.613281 60.648438 16.476562 C 60.480469 16.339844 60.394531 16.199219 60.394531 16.0625 C 60.394531 15.921875 60.480469 15.78125 60.648438 15.644531 C 60.816406 15.507812 61.0625 15.375 61.394531 15.246094 C 61.722656 15.117188 62.125 14.992188 62.605469 14.875 C 63.082031 14.761719 63.628906 14.652344 64.238281 14.554688 C 64.847656 14.453125 65.507812 14.367188 66.222656 14.289062 C 66.941406 14.210938 67.695312 14.144531 68.492188 14.089844 C 69.289062 14.039062 70.109375 13.996094 70.953125 13.96875 C 71.796875 13.941406 72.652344 13.929688 73.511719 13.929688 C 74.375 13.929688 75.226562 13.941406 76.070312 13.96875 C 76.914062 13.996094 77.734375 14.039062 78.53125 14.089844 C 79.328125 14.144531 80.082031 14.210938 80.800781 14.289062 C 81.515625 14.367188 82.179688 14.453125 82.789062 14.554688 C 83.398438 14.652344 83.941406 14.761719 84.417969 14.875 C 84.898438 14.992188 85.300781 15.117188 85.632812 15.246094 C 85.960938 15.375 86.210938 15.507812 86.378906 15.644531 C 86.546875 15.78125 86.628906 15.921875 86.628906 16.0625 Z M 86.628906 16.0625 " fill-opacity="1" fill-rule="nonzero"/><g clip-path="url(#92e6fdac9d)"><path stroke-linecap="butt" transform="matrix(0.0446016, 0, 0, 0.044476, 11.461507, 6.924634)" fill="none" stroke-linejoin="miter" d="M 1685.307919 205.456147 C 1685.307919 208.530137 1683.468718 211.691955 1679.702736 214.765945 C 1675.936755 217.839935 1670.331572 220.826097 1662.97477 223.724431 C 1655.530388 226.710592 1646.509547 229.433269 1635.737087 232.068118 C 1625.052208 234.702966 1612.878453 237.07433 1599.215821 239.357865 C 1585.553189 241.553573 1570.664423 243.573623 1554.637105 245.242361 C 1538.522206 246.998926 1521.619077 248.492007 1503.752559 249.721603 C 1485.88604 250.951199 1467.494035 251.829482 1448.576545 252.44428 C 1429.659054 253.059078 1410.566402 253.322563 1391.211006 253.322563 C 1371.943192 253.322563 1352.762959 253.059078 1333.845468 252.44428 C 1314.927978 251.829482 1296.535973 250.951199 1278.669454 249.721603 C 1260.802935 248.492007 1243.899807 246.998926 1227.784908 245.242361 C 1211.75759 243.573623 1196.956405 241.553573 1183.293773 239.357865 C 1169.631141 237.07433 1157.369804 234.702966 1146.684926 232.068118 C 1135.912466 229.433269 1126.891625 226.710592 1119.534823 223.724431 C 1112.090441 220.826097 1106.572839 217.839935 1102.806857 214.765945 C 1099.040875 211.691955 1097.114094 208.530137 1097.114094 205.456147 C 1097.114094 202.294329 1099.040875 199.13251 1102.806857 196.05852 C 1106.572839 192.98453 1112.090441 189.998369 1119.534823 187.100035 C 1126.891625 184.201702 1135.912466 181.391197 1146.684926 178.756348 C 1157.369804 176.209328 1169.631141 173.750136 1183.293773 171.554428 C 1196.956405 169.270893 1211.75759 167.338671 1227.784908 165.582105 C 1243.899807 163.825539 1260.802935 162.332458 1278.669454 161.102862 C 1296.535973 159.961095 1314.927978 158.994983 1333.845468 158.380185 C 1352.762959 157.765387 1371.943192 157.501903 1391.211006 157.501903 C 1410.566402 157.501903 1429.659054 157.765387 1448.576545 158.380185 C 1467.494035 158.994983 1485.88604 159.961095 1503.752559 161.102862 C 1521.619077 162.332458 1538.522206 163.825539 1554.637105 165.582105 C 1570.664423 167.338671 1585.553189 169.270893 1599.215821 171.554428 C 1612.878453 173.750136 1625.052208 176.209328 1635.737087 178.756348 C 1646.509547 181.391197 1655.530388 184.201702 1662.97477 187.100035 C 1670.331572 189.998369 1675.936755 192.98453 1679.702736 196.05852 C 1683.468718 199.13251 1685.307919 202.294329 1685.307919 205.456147 Z M 1685.307919 205.456147 " stroke="#1d1d1b" stroke-width="6" stroke-opacity="1" stroke-miterlimit="10"/></g><path stroke-linecap="butt" transform="matrix(0.0446016, 0, 0, 0.044476, 11.461507, 6.924634)" fill-opacity="1" fill="#d9ac8d" fill-rule="nonzero" stroke-linejoin="miter" d="M 1110.076078 377.072618 C 1110.076078 377.072618 1177.075524 418.088428 1276.129606 401.752367 C 1276.129606 401.752367 1294.258868 431.613984 1273.151853 467.360097 C 1273.151853 467.360097 1182.680706 497.485199 1120.060309 466.481814 Z M 1110.076078 377.072618 " stroke="#1d1d1b" stroke-width="6" stroke-opacity="1" stroke-miterlimit="10"/><path stroke-linecap="butt" transform="matrix(0.0446016, 0, 0, 0.044476, 11.461507, 6.924634)" fill-opacity="1" fill="#d9ac8d" fill-rule="nonzero" stroke-linejoin="miter" d="M 1133.722941 583.381263 C 1133.722941 583.381263 1187.410079 622.46485 1290.580467 589.968384 C 1290.580467 589.968384 1310.724091 612.628082 1295.747744 666.730307 C 1295.747744 666.730307 1223.843764 718.022026 1141.079743 668.574701 Z M 1133.722941 583.381263 " stroke="#1d1d1b" stroke-width="6" stroke-opacity="1" stroke-miterlimit="10"/><path stroke-linecap="butt" transform="matrix(0.0446016, 0, 0, 0.044476, 11.461507, 6.924634)" fill-opacity="1" fill="#d9ac8d" fill-rule="nonzero" stroke-linejoin="miter" d="M 1145.020887 807.51905 C 1145.020887 807.51905 1174.272933 847.041779 1288.390942 825.523848 C 1288.390942 825.523848 1307.396014 855.824607 1282.523017 897.894356 C 1282.523017 897.894356 1196.080595 934.870065 1137.401342 889.550669 C 1139.503286 877.69385 1141.342486 864.958749 1142.656201 851.433193 C 1144.232658 835.799758 1144.933306 821.132434 1145.020887 807.51905 Z M 1145.020887 807.51905 " stroke="#1d1d1b" stroke-width="6" stroke-opacity="1" stroke-miterlimit="10"/><path stroke-linecap="butt" transform="matrix(0.0446016, 0, 0, 0.044476, 11.461507, 6.924634)" fill="none" stroke-linejoin="miter" d="M 1228.135232 1243.323006 C 1228.135232 1243.323006 1182.505544 1062.396737 917.92342 1052.911282 " stroke="#1d1d1b" stroke-width="6" stroke-opacity="1" stroke-miterlimit="10"/><g clip-path="url(#a64cefbc80)"><path fill="#673410" d="M 88.605469 60.753906 C 87.886719 61.503906 86.761719 62.5 85.179688 63.320312 C 83.054688 64.425781 81.09375 64.707031 79.917969 64.78125 C 79.648438 64.109375 79.035156 63.65625 78.398438 63.667969 C 77.695312 63.683594 76.777344 65.488281 76.777344 65.488281 C 76.777344 65.488281 72.527344 67.566406 68.078125 68.121094 C 65.542969 68.433594 61.863281 68.523438 59.167969 68.539062 C 55.75 68.5625 46.96875 68.3125 44.3125 67.746094 C 41.917969 67.234375 39.769531 66.496094 38.582031 65.164062 C 38.453125 66.160156 38.234375 66.933594 38.164062 67.484375 C 38.082031 68.140625 38.035156 68.761719 38.011719 69.339844 C 38.015625 69.75 38.246094 70.125 38.609375 70.3125 C 39.414062 70.722656 40.503906 71.011719 40.503906 71.011719 C 40.503906 71.011719 46.238281 72.246094 54.054688 72.898438 C 61.101562 73.492188 71.929688 71.417969 74 71.003906 C 74.222656 70.957031 74.449219 70.921875 74.675781 70.894531 C 77.117188 70.59375 77.417969 69.988281 77.453125 69.789062 C 77.46875 69.671875 77.488281 69.554688 77.511719 69.4375 C 78.0625 66.726562 78.109375 66.996094 78.109375 66.996094 C 79.136719 67.492188 79.585938 69.726562 79.585938 69.726562 C 85.453125 68.988281 88.960938 65.203125 88.960938 65.203125 C 88.960938 64.515625 88.933594 63.773438 88.871094 62.988281 C 88.808594 62.191406 88.714844 61.445312 88.605469 60.753906 Z M 88.605469 60.753906 " fill-opacity="1" fill-rule="nonzero"/></g><g clip-path="url(#4b0f9b103c)"><path stroke-linecap="butt" transform="matrix(0.0446016, 0, 0, 0.044476, 11.461507, 6.924634)" fill="none" stroke-linejoin="miter" d="M 1729.623892 1210.299571 C 1713.508993 1227.162602 1688.285672 1249.558815 1652.815377 1268.002755 C 1605.171327 1292.85816 1561.205678 1299.181797 1534.843805 1300.850534 C 1528.800717 1285.744069 1515.050504 1275.555988 1500.774806 1275.819472 C 1485.01023 1276.170786 1464.428701 1316.747454 1464.428701 1316.747454 C 1464.428701 1316.747454 1369.140601 1363.472102 1269.385871 1375.943719 C 1212.545818 1382.969982 1130.04454 1384.990032 1069.613668 1385.341345 C 992.980315 1385.868315 796.098285 1380.247305 736.543222 1367.512203 C 682.856084 1356.006698 634.686548 1339.407152 608.061932 1309.457706 C 605.17176 1331.853919 600.267226 1349.24392 598.690768 1361.627708 C 596.851567 1376.38286 595.800596 1390.347558 595.27511 1403.346144 C 595.362691 1412.568114 600.529968 1420.99963 608.674999 1425.215387 C 626.71668 1434.437358 651.151772 1440.936651 651.151772 1440.936651 C 651.151772 1440.936651 779.720642 1468.690389 954.970172 1483.357713 C 1112.96625 1496.707613 1355.740712 1450.070792 1402.158628 1440.760994 C 1407.150744 1439.707055 1412.23044 1438.9166 1417.310137 1438.301802 C 1472.048246 1431.539024 1478.791981 1417.92564 1479.58021 1413.446397 C 1479.930534 1410.811548 1480.368438 1408.1767 1480.893924 1405.541851 C 1493.242842 1344.589021 1494.293813 1350.649172 1494.293813 1350.649172 C 1517.32761 1361.803365 1527.399422 1412.041145 1527.399422 1412.041145 C 1658.946046 1395.441598 1737.593761 1310.335989 1737.593761 1310.335989 C 1737.593761 1294.878211 1736.980694 1278.190836 1735.579398 1260.537351 C 1734.178103 1242.62038 1732.076159 1225.845177 1729.623892 1210.299571 Z M 1729.623892 1210.299571 " stroke="#1d1d1b" stroke-width="6" stroke-opacity="1" stroke-miterlimit="10"/></g><g fill="#000000" fill-opacity="1"><g transform="translate(180.053677, 52.613402)"><g><path d="M 8.75 0.203125 C 7.394531 0.203125 6.179688 -0.0351562 5.109375 -0.515625 C 4.046875 -0.992188 3.210938 -1.65625 2.609375 -2.5 C 2.003906 -3.351562 1.691406 -4.335938 1.671875 -5.453125 L 4.515625 -5.453125 C 4.617188 -4.492188 5.015625 -3.6875 5.703125 -3.03125 C 6.398438 -2.382812 7.414062 -2.0625 8.75 -2.0625 C 10.019531 -2.0625 11.019531 -2.378906 11.75 -3.015625 C 12.488281 -3.648438 12.859375 -4.460938 12.859375 -5.453125 C 12.859375 -6.242188 12.640625 -6.882812 12.203125 -7.375 C 11.773438 -7.863281 11.238281 -8.234375 10.59375 -8.484375 C 9.945312 -8.734375 9.078125 -9.007812 7.984375 -9.3125 C 6.628906 -9.65625 5.546875 -10.003906 4.734375 -10.359375 C 3.921875 -10.710938 3.226562 -11.265625 2.65625 -12.015625 C 2.082031 -12.773438 1.796875 -13.789062 1.796875 -15.0625 C 1.796875 -16.175781 2.078125 -17.160156 2.640625 -18.015625 C 3.210938 -18.878906 4.007812 -19.546875 5.03125 -20.015625 C 6.0625 -20.492188 7.242188 -20.734375 8.578125 -20.734375 C 10.492188 -20.734375 12.0625 -20.25 13.28125 -19.28125 C 14.507812 -18.320312 15.203125 -17.050781 15.359375 -15.46875 L 12.421875 -15.46875 C 12.316406 -16.25 11.898438 -16.9375 11.171875 -17.53125 C 10.453125 -18.132812 9.5 -18.4375 8.3125 -18.4375 C 7.195312 -18.4375 6.285156 -18.144531 5.578125 -17.5625 C 4.867188 -16.988281 4.515625 -16.1875 4.515625 -15.15625 C 4.515625 -14.40625 4.722656 -13.796875 5.140625 -13.328125 C 5.566406 -12.859375 6.085938 -12.5 6.703125 -12.25 C 7.328125 -12.007812 8.195312 -11.734375 9.3125 -11.421875 C 10.65625 -11.046875 11.738281 -10.675781 12.5625 -10.3125 C 13.382812 -9.957031 14.085938 -9.398438 14.671875 -8.640625 C 15.265625 -7.890625 15.5625 -6.867188 15.5625 -5.578125 C 15.5625 -4.578125 15.296875 -3.632812 14.765625 -2.75 C 14.234375 -1.875 13.445312 -1.160156 12.40625 -0.609375 C 11.375 -0.0664062 10.15625 0.203125 8.75 0.203125 Z M 8.75 0.203125 "/></g></g></g><g fill="#000000" fill-opacity="1"><g transform="translate(197.284119, 52.613402)"><g><path d="M 10.25 -16.375 C 11.457031 -16.375 12.550781 -16.113281 13.53125 -15.59375 C 14.507812 -15.082031 15.273438 -14.304688 15.828125 -13.265625 C 16.390625 -12.234375 16.671875 -10.972656 16.671875 -9.484375 L 16.671875 0 L 14.03125 0 L 14.03125 -9.09375 C 14.03125 -10.707031 13.628906 -11.9375 12.828125 -12.78125 C 12.023438 -13.632812 10.929688 -14.0625 9.546875 -14.0625 C 8.128906 -14.0625 7.003906 -13.617188 6.171875 -12.734375 C 5.347656 -11.859375 4.9375 -10.578125 4.9375 -8.890625 L 4.9375 0 L 2.265625 0 L 2.265625 -21.71875 L 4.9375 -21.71875 L 4.9375 -13.796875 C 5.457031 -14.617188 6.179688 -15.253906 7.109375 -15.703125 C 8.046875 -16.148438 9.09375 -16.375 10.25 -16.375 Z M 10.25 -16.375 "/></g></g></g><g fill="#000000" fill-opacity="1"><g transform="translate(216.070294, 52.613402)"><g><path d="M 9.28125 0.265625 C 7.769531 0.265625 6.398438 -0.078125 5.171875 -0.765625 C 3.953125 -1.453125 2.992188 -2.425781 2.296875 -3.6875 C 1.609375 -4.945312 1.265625 -6.410156 1.265625 -8.078125 C 1.265625 -9.722656 1.617188 -11.175781 2.328125 -12.4375 C 3.046875 -13.695312 4.019531 -14.664062 5.25 -15.34375 C 6.488281 -16.019531 7.867188 -16.359375 9.390625 -16.359375 C 10.921875 -16.359375 12.300781 -16.019531 13.53125 -15.34375 C 14.769531 -14.664062 15.742188 -13.695312 16.453125 -12.4375 C 17.171875 -11.1875 17.53125 -9.734375 17.53125 -8.078125 C 17.53125 -6.410156 17.160156 -4.945312 16.421875 -3.6875 C 15.691406 -2.425781 14.695312 -1.453125 13.4375 -0.765625 C 12.1875 -0.078125 10.800781 0.265625 9.28125 0.265625 Z M 9.28125 -2.078125 C 10.238281 -2.078125 11.132812 -2.300781 11.96875 -2.75 C 12.8125 -3.207031 13.492188 -3.882812 14.015625 -4.78125 C 14.535156 -5.6875 14.796875 -6.785156 14.796875 -8.078125 C 14.796875 -9.367188 14.539062 -10.460938 14.03125 -11.359375 C 13.519531 -12.265625 12.851562 -12.9375 12.03125 -13.375 C 11.207031 -13.8125 10.316406 -14.03125 9.359375 -14.03125 C 8.378906 -14.03125 7.484375 -13.8125 6.671875 -13.375 C 5.859375 -12.9375 5.207031 -12.265625 4.71875 -11.359375 C 4.238281 -10.460938 4 -9.367188 4 -8.078125 C 4 -6.765625 4.238281 -5.65625 4.71875 -4.75 C 5.195312 -3.851562 5.835938 -3.179688 6.640625 -2.734375 C 7.441406 -2.296875 8.320312 -2.078125 9.28125 -2.078125 Z M 9.28125 -2.078125 "/></g></g></g><g fill="#000000" fill-opacity="1"><g transform="translate(234.856469, 52.613402)"><g><path d="M 16.9375 -8.65625 C 16.9375 -8.144531 16.910156 -7.609375 16.859375 -7.046875 L 4 -7.046875 C 4.09375 -5.460938 4.632812 -4.222656 5.625 -3.328125 C 6.613281 -2.441406 7.8125 -2 9.21875 -2 C 10.375 -2 11.335938 -2.265625 12.109375 -2.796875 C 12.878906 -3.335938 13.421875 -4.0625 13.734375 -4.96875 L 16.625 -4.96875 C 16.1875 -3.414062 15.320312 -2.15625 14.03125 -1.1875 C 12.738281 -0.21875 11.132812 0.265625 9.21875 0.265625 C 7.6875 0.265625 6.316406 -0.078125 5.109375 -0.765625 C 3.910156 -1.453125 2.96875 -2.425781 2.28125 -3.6875 C 1.601562 -4.945312 1.265625 -6.410156 1.265625 -8.078125 C 1.265625 -9.734375 1.597656 -11.1875 2.265625 -12.4375 C 2.929688 -13.695312 3.863281 -14.664062 5.0625 -15.34375 C 6.269531 -16.019531 7.65625 -16.359375 9.21875 -16.359375 C 10.75 -16.359375 12.097656 -16.023438 13.265625 -15.359375 C 14.441406 -14.691406 15.347656 -13.773438 15.984375 -12.609375 C 16.617188 -11.441406 16.9375 -10.125 16.9375 -8.65625 Z M 14.1875 -9.21875 C 14.1875 -10.238281 13.957031 -11.113281 13.5 -11.84375 C 13.050781 -12.582031 12.441406 -13.140625 11.671875 -13.515625 C 10.898438 -13.898438 10.039062 -14.09375 9.09375 -14.09375 C 7.75 -14.09375 6.601562 -13.660156 5.65625 -12.796875 C 4.707031 -11.941406 4.160156 -10.75 4.015625 -9.21875 Z M 14.1875 -9.21875 "/></g></g></g><g fill="#000000" fill-opacity="1"><g transform="translate(253.055573, 52.613402)"><g><path d="M 7.953125 0.265625 C 6.722656 0.265625 5.617188 0.0546875 4.640625 -0.359375 C 3.660156 -0.785156 2.882812 -1.375 2.3125 -2.125 C 1.75 -2.882812 1.4375 -3.753906 1.375 -4.734375 L 4.140625 -4.734375 C 4.210938 -3.921875 4.585938 -3.257812 5.265625 -2.75 C 5.941406 -2.25 6.828125 -2 7.921875 -2 C 8.941406 -2 9.742188 -2.222656 10.328125 -2.671875 C 10.921875 -3.117188 11.21875 -3.6875 11.21875 -4.375 C 11.21875 -5.082031 10.90625 -5.601562 10.28125 -5.9375 C 9.65625 -6.28125 8.6875 -6.617188 7.375 -6.953125 C 6.175781 -7.265625 5.195312 -7.582031 4.4375 -7.90625 C 3.6875 -8.226562 3.039062 -8.707031 2.5 -9.34375 C 1.96875 -9.988281 1.703125 -10.828125 1.703125 -11.859375 C 1.703125 -12.679688 1.945312 -13.4375 2.4375 -14.125 C 2.925781 -14.8125 3.617188 -15.351562 4.515625 -15.75 C 5.421875 -16.15625 6.453125 -16.359375 7.609375 -16.359375 C 9.390625 -16.359375 10.828125 -15.90625 11.921875 -15 C 13.015625 -14.101562 13.601562 -12.867188 13.6875 -11.296875 L 11.015625 -11.296875 C 10.953125 -12.140625 10.613281 -12.816406 10 -13.328125 C 9.382812 -13.835938 8.554688 -14.09375 7.515625 -14.09375 C 6.554688 -14.09375 5.789062 -13.882812 5.21875 -13.46875 C 4.65625 -13.0625 4.375 -12.523438 4.375 -11.859375 C 4.375 -11.328125 4.546875 -10.890625 4.890625 -10.546875 C 5.234375 -10.210938 5.660156 -9.941406 6.171875 -9.734375 C 6.691406 -9.523438 7.414062 -9.296875 8.34375 -9.046875 C 9.488281 -8.734375 10.425781 -8.421875 11.15625 -8.109375 C 11.882812 -7.804688 12.503906 -7.351562 13.015625 -6.75 C 13.535156 -6.144531 13.804688 -5.351562 13.828125 -4.375 C 13.828125 -3.488281 13.582031 -2.691406 13.09375 -1.984375 C 12.601562 -1.285156 11.910156 -0.734375 11.015625 -0.328125 C 10.128906 0.0664062 9.109375 0.265625 7.953125 0.265625 Z M 7.953125 0.265625 "/></g></g></g></svg>