<svg xmlns="http://www.w3.org/2000/svg" xmlns:xlink="http://www.w3.org/1999/xlink" width="500" zoomAndPan="magnify" viewBox="0 0 375 82.499998" height="110" preserveAspectRatio="xMidYMid meet" version="1.0"><defs><g/><clipPath id="0fdc6cec0e"><path d="M 1.128906 0 L 373.871094 0 L 373.871094 82.003906 L 1.128906 82.003906 Z M 1.128906 0 " clip-rule="nonzero"/></clipPath><clipPath id="c01f60f444"><path d="M 18.554688 6.050781 L 102 6.050781 L 102 73.890625 L 18.554688 73.890625 Z M 18.554688 6.050781 " clip-rule="nonzero"/></clipPath><clipPath id="8d4a0be7bf"><path d="M 25 6.050781 L 89 6.050781 L 89 73.890625 L 25 73.890625 Z M 25 6.050781 " clip-rule="nonzero"/></clipPath><clipPath id="690b0cb8da"><path d="M 18.554688 6.050781 L 102.046875 6.050781 L 102.046875 73.890625 L 18.554688 73.890625 Z M 18.554688 6.050781 " clip-rule="nonzero"/></clipPath></defs><g clip-path="url(#0fdc6cec0e)"><path fill="#ffffff" d="M 1.128906 0 L 373.871094 0 L 373.871094 82.003906 L 1.128906 82.003906 Z M 1.128906 0 " fill-opacity="1" fill-rule="nonzero"/><path fill="#ffffff" d="M 1.128906 0 L 373.871094 0 L 373.871094 82.003906 L 1.128906 82.003906 Z M 1.128906 0 " fill-opacity="1" fill-rule="nonzero"/></g><g clip-path="url(#c01f60f444)"><path fill="#d1a588" d="M 101.929688 37.234375 L 101.789062 65.214844 L 88.640625 73.699219 L 60.554688 70.105469 L 60.589844 40.667969 L 57.710938 40.949219 L 58.167969 71.140625 L 25.792969 73.769531 L 19.183594 65.285156 L 18.65625 36.882812 L 40.414062 35.621094 L 40.554688 6.0625 L 79.363281 6.167969 L 79.714844 35.761719 Z M 101.929688 37.234375 " fill-opacity="1" fill-rule="nonzero"/></g><g clip-path="url(#8d4a0be7bf)"><path fill="#ddbc9b" d="M 60.546875 70.105469 L 60.589844 40.789062 L 57.710938 40.980469 L 58.167969 71.140625 L 25.851562 73.761719 L 26.355469 42.453125 L 48.496094 41.390625 L 48.429688 6.226562 L 79.363281 6.167969 L 79.835938 36.066406 L 79.855469 39.527344 L 73.953125 39.914062 L 88.308594 41.390625 L 88.640625 73.699219 Z M 60.546875 70.105469 " fill-opacity="1" fill-rule="nonzero"/></g><path fill="#92524f" d="M 76.339844 10.359375 L 76.546875 35.621094 L 52.222656 37.445312 L 52.574219 10.726562 Z M 30.082031 45.648438 L 29.800781 69.28125 L 54.96875 67.527344 L 54.300781 44.421875 Z M 64.035156 43.125 L 63.332031 67.597656 L 85.476562 70.191406 L 85.476562 44.667969 Z M 64.035156 43.125 " fill-opacity="1" fill-rule="nonzero"/><path fill="#f9bdbd" d="M 100.488281 51.695312 C 100.804688 53.695312 98.539062 55.0625 98.539062 55.0625 C 98.539062 55.0625 101.199219 56.535156 100.808594 58.324219 C 100.417969 60.109375 98.4375 60.109375 98.4375 60.109375 C 99.304688 62.847656 97.277344 65.503906 95.0625 65.109375 C 92.847656 64.714844 93.796875 59.902344 93.796875 59.902344 C 93.796875 59.902344 90.660156 61.664062 90.050781 58.691406 C 89.445312 55.722656 92.324219 54.640625 92.324219 54.640625 C 92.324219 54.640625 89.640625 54.089844 90.53125 51.117188 C 91.421875 48.144531 94.644531 51.011719 94.644531 51.011719 C 93.640625 48.066406 94.171875 44.625 96.648438 44.699219 C 99.125 44.773438 97.648438 50.222656 97.648438 50.222656 C 97.648438 50.222656 100.171875 49.699219 100.488281 51.695312 Z M 22.714844 44.648438 C 19.316406 54.273438 21.765625 61.953125 21.765625 61.953125 C 26.144531 58.402344 22.714844 44.648438 22.714844 44.648438 Z M 44.542969 15.566406 C 44.542969 15.566406 44.28125 21.480469 42.226562 23.242188 C 42.226562 23.242188 44.175781 30.527344 43.277344 32.867188 C 43.277344 32.867188 44.964844 25.925781 46.972656 25.085938 C 46.972656 25.085938 44.335938 18.167969 44.542969 15.566406 Z M 44.542969 15.566406 " fill-opacity="1" fill-rule="nonzero"/><g clip-path="url(#690b0cb8da)"><path fill="#f5e9db" d="M 63.503906 32.730469 C 63.742188 31.210938 63.867188 29.65625 64.0625 28.164062 C 64.683594 28.175781 65.300781 28.148438 65.917969 28.085938 C 66.152344 29.550781 66.359375 31.042969 66.609375 32.460938 C 68.480469 32.488281 70.34375 32.382812 72.195312 32.148438 C 71.246094 27.167969 68.859375 15.332031 68.394531 14.65625 C 66.523438 14.667969 62.804688 14.875 60.289062 15.179688 C 59.53125 21.101562 58.664062 26.867188 57.996094 32.867188 C 59.835938 32.921875 61.671875 32.875 63.503906 32.730469 Z M 64.382812 20.226562 L 64.742188 20.203125 C 65.074219 21.511719 65.324219 22.835938 65.496094 24.171875 L 63.691406 24.273438 C 63.972656 22.039062 64.140625 21.191406 64.382812 20.226562 Z M 47.789062 50.746094 C 46.234375 47.828125 40.351562 48.367188 36.355469 48.625 C 36.390625 54.242188 36.8125 60.144531 37.160156 65.683594 C 38.367188 65.683594 44.957031 66.589844 46.914062 64.890625 C 48.320312 63.65625 48.605469 60.171875 47.550781 58.683594 C 46.792969 57.625 45.957031 57.417969 45.257812 57.136719 C 47.957031 56.632812 49.074219 53.097656 47.789062 50.746094 Z M 41.3125 52.582031 C 42.367188 52.347656 43.480469 52.757812 43.351562 54.296875 C 43.113281 55.496094 42.285156 55.605469 41.425781 55.46875 C 41.300781 54.507812 41.265625 53.546875 41.3125 52.582031 Z M 41.996094 62.355469 C 41.878906 61.503906 41.835938 60.648438 41.867188 59.789062 C 44.128906 59.414062 44.105469 62.550781 41.996094 62.355469 Z M 75.316406 58.648438 C 75.800781 58.460938 76.101562 57.824219 76.285156 57.421875 C 77.839844 58.085938 79.269531 58.949219 80.585938 60.007812 C 79.847656 63.558594 77.050781 66.1875 72.242188 65.101562 C 69.03125 64.363281 67.492188 60.929688 67.222656 57.421875 C 66.785156 52.097656 69.539062 47.761719 75.085938 47.742188 C 78.738281 47.71875 80.308594 49.957031 80.980469 53.070312 C 79.847656 54.128906 78.296875 54.75 76.863281 55.488281 C 76.726562 54.566406 76.171875 53.992188 75.410156 53.875 C 71.941406 53.386719 72.519531 59.707031 75.316406 58.644531 Z M 97.273438 55.59375 C 97.273438 56.519531 96.753906 57.273438 96.113281 57.273438 C 95.46875 57.273438 94.953125 56.519531 94.953125 55.59375 C 94.953125 54.664062 95.472656 53.910156 96.113281 53.910156 C 96.75 53.910156 97.273438 54.660156 97.273438 55.589844 Z M 22.136719 61.425781 L 22.980469 67.8125 L 20.34375 65.054688 L 21.554688 61.269531 Z M 46.226562 17.484375 C 46.226562 17.035156 46.390625 16.660156 46.59375 16.660156 C 46.800781 16.660156 46.964844 17.027344 46.964844 17.484375 C 46.964844 17.945312 46.800781 18.300781 46.59375 18.300781 C 46.390625 18.300781 46.226562 17.933594 46.226562 17.484375 Z M 42.964844 14.304688 C 42.964844 14.128906 43.023438 13.988281 43.09375 13.988281 C 43.167969 13.988281 43.226562 14.128906 43.226562 14.304688 C 43.226562 14.476562 43.167969 14.617188 43.09375 14.617188 C 43.023438 14.617188 42.964844 14.476562 42.964844 14.304688 Z M 45.917969 31.195312 C 45.917969 30.730469 46.046875 30.351562 46.207031 30.351562 C 46.363281 30.351562 46.496094 30.730469 46.496094 31.195312 C 46.496094 31.660156 46.367188 32.035156 46.207031 32.035156 C 46.042969 32.035156 45.917969 31.648438 45.917969 31.195312 Z M 42.015625 33.507812 C 42.015625 33.1875 42.121094 32.929688 42.253906 32.929688 C 42.382812 32.929688 42.488281 33.1875 42.488281 33.507812 C 42.488281 33.828125 42.382812 34.085938 42.253906 34.085938 C 42.121094 34.085938 42.015625 33.820312 42.015625 33.5 Z M 101.960938 37.332031 L 88.414062 41.464844 L 88.746094 73.695312 C 88.746094 73.765625 88.714844 73.800781 88.644531 73.800781 C 88.578125 73.800781 88.542969 73.765625 88.539062 73.699219 L 88.207031 41.480469 L 73.582031 40.039062 L 48.480469 41.6875 L 48.449219 41.664062 L 48.15625 41.449219 C 48.136719 41.464844 48.117188 41.472656 48.09375 41.472656 L 26.457031 42.539062 L 25.953125 73.765625 C 25.953125 73.832031 25.917969 73.867188 25.851562 73.867188 C 25.785156 73.863281 25.75 73.828125 25.75 73.761719 L 26.25 42.492188 L 18.597656 36.960938 C 18.539062 36.921875 18.53125 36.875 18.570312 36.816406 C 18.613281 36.765625 18.660156 36.757812 18.714844 36.796875 L 26.386719 42.332031 L 47.910156 41.269531 L 40.351562 35.699219 C 40.300781 35.65625 40.292969 35.609375 40.332031 35.554688 C 40.375 35.5 40.421875 35.492188 40.476562 35.535156 L 48.394531 41.371094 L 48.328125 6.226562 C 48.328125 6.15625 48.363281 6.121094 48.429688 6.121094 C 48.5 6.121094 48.535156 6.15625 48.535156 6.226562 L 48.601562 41.472656 L 79.847656 39.433594 C 79.917969 39.429688 79.953125 39.460938 79.957031 39.53125 C 79.960938 39.597656 79.929688 39.636719 79.859375 39.640625 L 74.828125 39.96875 L 88.300781 41.289062 L 101.898438 37.140625 C 101.964844 37.121094 102.007812 37.140625 102.027344 37.207031 C 102.042969 37.269531 102.023438 37.3125 101.960938 37.332031 Z M 101.960938 37.332031 " fill-opacity="1" fill-rule="nonzero"/></g><g fill="#000000" fill-opacity="1"><g transform="translate(135.100099, 52.359138)"><g><path d="M 14.859375 -20.46875 L 14.859375 -18.296875 L 9.28125 -18.296875 L 9.28125 0 L 6.609375 0 L 6.609375 -18.296875 L 1 -18.296875 L 1 -20.46875 Z M 14.859375 -20.46875 "/></g></g></g><g fill="#000000" fill-opacity="1"><g transform="translate(150.980287, 52.359138)"><g><path d="M 9.28125 0.265625 C 7.769531 0.265625 6.398438 -0.078125 5.171875 -0.765625 C 3.953125 -1.453125 2.992188 -2.425781 2.296875 -3.6875 C 1.609375 -4.945312 1.265625 -6.410156 1.265625 -8.078125 C 1.265625 -9.722656 1.617188 -11.175781 2.328125 -12.4375 C 3.046875 -13.695312 4.019531 -14.664062 5.25 -15.34375 C 6.488281 -16.019531 7.867188 -16.359375 9.390625 -16.359375 C 10.921875 -16.359375 12.300781 -16.019531 13.53125 -15.34375 C 14.769531 -14.664062 15.742188 -13.695312 16.453125 -12.4375 C 17.171875 -11.1875 17.53125 -9.734375 17.53125 -8.078125 C 17.53125 -6.410156 17.160156 -4.945312 16.421875 -3.6875 C 15.691406 -2.425781 14.695312 -1.453125 13.4375 -0.765625 C 12.1875 -0.078125 10.800781 0.265625 9.28125 0.265625 Z M 9.28125 -2.078125 C 10.238281 -2.078125 11.132812 -2.300781 11.96875 -2.75 C 12.8125 -3.207031 13.492188 -3.882812 14.015625 -4.78125 C 14.535156 -5.6875 14.796875 -6.785156 14.796875 -8.078125 C 14.796875 -9.367188 14.539062 -10.460938 14.03125 -11.359375 C 13.519531 -12.265625 12.851562 -12.9375 12.03125 -13.375 C 11.207031 -13.8125 10.316406 -14.03125 9.359375 -14.03125 C 8.378906 -14.03125 7.484375 -13.8125 6.671875 -13.375 C 5.859375 -12.9375 5.207031 -12.265625 4.71875 -11.359375 C 4.238281 -10.460938 4 -9.367188 4 -8.078125 C 4 -6.765625 4.238281 -5.65625 4.71875 -4.75 C 5.195312 -3.851562 5.835938 -3.179688 6.640625 -2.734375 C 7.441406 -2.296875 8.320312 -2.078125 9.28125 -2.078125 Z M 9.28125 -2.078125 "/></g></g></g><g fill="#000000" fill-opacity="1"><g transform="translate(169.766463, 52.359138)"><g><path d="M 16.125 -16.09375 L 6.4375 7.578125 L 3.671875 7.578125 L 6.84375 -0.171875 L 0.359375 -16.09375 L 3.3125 -16.09375 L 8.375 -3.046875 L 13.359375 -16.09375 Z M 16.125 -16.09375 "/></g></g></g><g fill="#000000" fill-opacity="1"><g transform="translate(186.292429, 52.359138)"><g><path d="M 7.953125 0.265625 C 6.722656 0.265625 5.617188 0.0546875 4.640625 -0.359375 C 3.660156 -0.785156 2.882812 -1.375 2.3125 -2.125 C 1.75 -2.882812 1.4375 -3.753906 1.375 -4.734375 L 4.140625 -4.734375 C 4.210938 -3.921875 4.585938 -3.257812 5.265625 -2.75 C 5.941406 -2.25 6.828125 -2 7.921875 -2 C 8.941406 -2 9.742188 -2.222656 10.328125 -2.671875 C 10.921875 -3.117188 11.21875 -3.6875 11.21875 -4.375 C 11.21875 -5.082031 10.90625 -5.601562 10.28125 -5.9375 C 9.65625 -6.28125 8.6875 -6.617188 7.375 -6.953125 C 6.175781 -7.265625 5.195312 -7.582031 4.4375 -7.90625 C 3.6875 -8.226562 3.039062 -8.707031 2.5 -9.34375 C 1.96875 -9.988281 1.703125 -10.828125 1.703125 -11.859375 C 1.703125 -12.679688 1.945312 -13.4375 2.4375 -14.125 C 2.925781 -14.8125 3.617188 -15.351562 4.515625 -15.75 C 5.421875 -16.15625 6.453125 -16.359375 7.609375 -16.359375 C 9.390625 -16.359375 10.828125 -15.90625 11.921875 -15 C 13.015625 -14.101562 13.601562 -12.867188 13.6875 -11.296875 L 11.015625 -11.296875 C 10.953125 -12.140625 10.613281 -12.816406 10 -13.328125 C 9.382812 -13.835938 8.554688 -14.09375 7.515625 -14.09375 C 6.554688 -14.09375 5.789062 -13.882812 5.21875 -13.46875 C 4.65625 -13.0625 4.375 -12.523438 4.375 -11.859375 C 4.375 -11.328125 4.546875 -10.890625 4.890625 -10.546875 C 5.234375 -10.210938 5.660156 -9.941406 6.171875 -9.734375 C 6.691406 -9.523438 7.414062 -9.296875 8.34375 -9.046875 C 9.488281 -8.734375 10.425781 -8.421875 11.15625 -8.109375 C 11.882812 -7.804688 12.503906 -7.351562 13.015625 -6.75 C 13.535156 -6.144531 13.804688 -5.351562 13.828125 -4.375 C 13.828125 -3.488281 13.582031 -2.691406 13.09375 -1.984375 C 12.601562 -1.285156 11.910156 -0.734375 11.015625 -0.328125 C 10.128906 0.0664062 9.109375 0.265625 7.953125 0.265625 Z M 7.953125 0.265625 "/></g></g></g><g fill="#000000" fill-opacity="1"><g transform="translate(201.614905, 52.359138)"><g/></g></g><g fill="#000000" fill-opacity="1"><g transform="translate(209.452259, 52.359138)"><g><path d="M 17.96875 0 L 15.296875 -2.703125 C 14.296875 -1.660156 13.226562 -0.890625 12.09375 -0.390625 C 10.957031 0.109375 9.675781 0.359375 8.25 0.359375 C 6.84375 0.359375 5.59375 0.101562 4.5 -0.40625 C 3.414062 -0.914062 2.578125 -1.640625 1.984375 -2.578125 C 1.390625 -3.523438 1.09375 -4.625 1.09375 -5.875 C 1.09375 -7.300781 1.492188 -8.554688 2.296875 -9.640625 C 3.109375 -10.734375 4.3125 -11.59375 5.90625 -12.21875 C 5.28125 -12.957031 4.828125 -13.640625 4.546875 -14.265625 C 4.273438 -14.890625 4.140625 -15.578125 4.140625 -16.328125 C 4.140625 -17.179688 4.359375 -17.957031 4.796875 -18.65625 C 5.234375 -19.351562 5.863281 -19.894531 6.6875 -20.28125 C 7.507812 -20.675781 8.460938 -20.875 9.546875 -20.875 C 10.597656 -20.875 11.515625 -20.664062 12.296875 -20.25 C 13.078125 -19.84375 13.664062 -19.269531 14.0625 -18.53125 C 14.457031 -17.800781 14.632812 -16.988281 14.59375 -16.09375 L 11.921875 -16.09375 C 11.941406 -16.894531 11.71875 -17.523438 11.25 -17.984375 C 10.78125 -18.441406 10.171875 -18.671875 9.421875 -18.671875 C 8.640625 -18.671875 8.007812 -18.445312 7.53125 -18 C 7.050781 -17.5625 6.8125 -17.003906 6.8125 -16.328125 C 6.8125 -15.734375 6.972656 -15.160156 7.296875 -14.609375 C 7.617188 -14.066406 8.160156 -13.394531 8.921875 -12.59375 L 15.03125 -6.453125 L 15.5625 -7.28125 L 17.5625 -10.625 L 20.4375 -10.625 L 18.03125 -6.453125 C 17.695312 -5.867188 17.304688 -5.253906 16.859375 -4.609375 L 21.46875 0 Z M 8.25 -1.9375 C 9.300781 -1.9375 10.253906 -2.140625 11.109375 -2.546875 C 11.960938 -2.960938 12.769531 -3.601562 13.53125 -4.46875 L 7.515625 -10.515625 C 5.015625 -9.554688 3.765625 -8.035156 3.765625 -5.953125 C 3.765625 -4.804688 4.175781 -3.847656 5 -3.078125 C 5.832031 -2.316406 6.914062 -1.9375 8.25 -1.9375 Z M 8.25 -1.9375 "/></g></g></g><g fill="#000000" fill-opacity="1"><g transform="translate(231.144421, 52.359138)"><g/></g></g><g fill="#000000" fill-opacity="1"><g transform="translate(238.981774, 52.359138)"><g><path d="M 12.5 -10.546875 C 13.25 -10.421875 13.929688 -10.113281 14.546875 -9.625 C 15.160156 -9.132812 15.648438 -8.523438 16.015625 -7.796875 C 16.378906 -7.078125 16.5625 -6.304688 16.5625 -5.484375 C 16.5625 -4.453125 16.296875 -3.519531 15.765625 -2.6875 C 15.234375 -1.851562 14.460938 -1.195312 13.453125 -0.71875 C 12.453125 -0.238281 11.265625 0 9.890625 0 L 2.265625 0 L 2.265625 -20.46875 L 9.59375 -20.46875 C 10.988281 -20.46875 12.175781 -20.234375 13.15625 -19.765625 C 14.132812 -19.304688 14.867188 -18.6875 15.359375 -17.90625 C 15.847656 -17.125 16.09375 -16.242188 16.09375 -15.265625 C 16.09375 -14.054688 15.765625 -13.050781 15.109375 -12.25 C 14.453125 -11.457031 13.582031 -10.890625 12.5 -10.546875 Z M 4.9375 -11.625 L 9.421875 -11.625 C 10.671875 -11.625 11.640625 -11.914062 12.328125 -12.5 C 13.015625 -13.09375 13.359375 -13.90625 13.359375 -14.9375 C 13.359375 -15.976562 13.015625 -16.789062 12.328125 -17.375 C 11.640625 -17.96875 10.648438 -18.265625 9.359375 -18.265625 L 4.9375 -18.265625 Z M 9.65625 -2.203125 C 10.988281 -2.203125 12.023438 -2.515625 12.765625 -3.140625 C 13.515625 -3.765625 13.890625 -4.632812 13.890625 -5.75 C 13.890625 -6.882812 13.492188 -7.78125 12.703125 -8.4375 C 11.921875 -9.09375 10.878906 -9.421875 9.578125 -9.421875 L 4.9375 -9.421875 L 4.9375 -2.203125 Z M 9.65625 -2.203125 "/></g></g></g><g fill="#000000" fill-opacity="1"><g transform="translate(256.975408, 52.359138)"><g><path d="M 1.265625 -8.109375 C 1.265625 -9.742188 1.597656 -11.179688 2.265625 -12.421875 C 2.929688 -13.671875 3.84375 -14.640625 5 -15.328125 C 6.164062 -16.015625 7.460938 -16.359375 8.890625 -16.359375 C 10.304688 -16.359375 11.53125 -16.050781 12.5625 -15.4375 C 13.601562 -14.832031 14.378906 -14.070312 14.890625 -13.15625 L 14.890625 -16.09375 L 17.59375 -16.09375 L 17.59375 0 L 14.890625 0 L 14.890625 -3 C 14.359375 -2.050781 13.566406 -1.269531 12.515625 -0.65625 C 11.472656 -0.0390625 10.253906 0.265625 8.859375 0.265625 C 7.429688 0.265625 6.140625 -0.0820312 4.984375 -0.78125 C 3.835938 -1.488281 2.929688 -2.476562 2.265625 -3.75 C 1.597656 -5.03125 1.265625 -6.484375 1.265625 -8.109375 Z M 14.890625 -8.078125 C 14.890625 -9.285156 14.644531 -10.335938 14.15625 -11.234375 C 13.664062 -12.140625 13.003906 -12.832031 12.171875 -13.3125 C 11.335938 -13.789062 10.421875 -14.03125 9.421875 -14.03125 C 8.421875 -14.03125 7.507812 -13.796875 6.6875 -13.328125 C 5.863281 -12.859375 5.207031 -12.171875 4.71875 -11.265625 C 4.238281 -10.367188 4 -9.316406 4 -8.109375 C 4 -6.867188 4.238281 -5.789062 4.71875 -4.875 C 5.207031 -3.96875 5.863281 -3.273438 6.6875 -2.796875 C 7.507812 -2.316406 8.421875 -2.078125 9.421875 -2.078125 C 10.421875 -2.078125 11.335938 -2.316406 12.171875 -2.796875 C 13.003906 -3.273438 13.664062 -3.96875 14.15625 -4.875 C 14.644531 -5.789062 14.890625 -6.859375 14.890625 -8.078125 Z M 14.890625 -8.078125 "/></g></g></g><g fill="#000000" fill-opacity="1"><g transform="translate(276.818301, 52.359138)"><g><path d="M 4.9375 -13.09375 C 5.476562 -14.050781 6.273438 -14.832031 7.328125 -15.4375 C 8.390625 -16.050781 9.597656 -16.359375 10.953125 -16.359375 C 12.398438 -16.359375 13.703125 -16.015625 14.859375 -15.328125 C 16.015625 -14.640625 16.921875 -13.671875 17.578125 -12.421875 C 18.242188 -11.179688 18.578125 -9.742188 18.578125 -8.109375 C 18.578125 -6.484375 18.242188 -5.03125 17.578125 -3.75 C 16.921875 -2.476562 16.007812 -1.488281 14.84375 -0.78125 C 13.675781 -0.0820312 12.378906 0.265625 10.953125 0.265625 C 9.554688 0.265625 8.332031 -0.0351562 7.28125 -0.640625 C 6.238281 -1.253906 5.457031 -2.03125 4.9375 -2.96875 L 4.9375 0 L 2.265625 0 L 2.265625 -21.71875 L 4.9375 -21.71875 Z M 15.859375 -8.109375 C 15.859375 -9.316406 15.613281 -10.367188 15.125 -11.265625 C 14.632812 -12.171875 13.972656 -12.859375 13.140625 -13.328125 C 12.304688 -13.796875 11.390625 -14.03125 10.390625 -14.03125 C 9.410156 -14.03125 8.503906 -13.789062 7.671875 -13.3125 C 6.847656 -12.832031 6.1875 -12.132812 5.6875 -11.21875 C 5.1875 -10.3125 4.9375 -9.265625 4.9375 -8.078125 C 4.9375 -6.859375 5.1875 -5.789062 5.6875 -4.875 C 6.1875 -3.96875 6.847656 -3.273438 7.671875 -2.796875 C 8.503906 -2.316406 9.410156 -2.078125 10.390625 -2.078125 C 11.390625 -2.078125 12.304688 -2.316406 13.140625 -2.796875 C 13.972656 -3.273438 14.632812 -3.96875 15.125 -4.875 C 15.613281 -5.789062 15.859375 -6.867188 15.859375 -8.109375 Z M 15.859375 -8.109375 "/></g></g></g><g fill="#000000" fill-opacity="1"><g transform="translate(296.661193, 52.359138)"><g><path d="M 16.125 -16.09375 L 6.4375 7.578125 L 3.671875 7.578125 L 6.84375 -0.171875 L 0.359375 -16.09375 L 3.3125 -16.09375 L 8.375 -3.046875 L 13.359375 -16.09375 Z M 16.125 -16.09375 "/></g></g></g></svg>