<svg xmlns="http://www.w3.org/2000/svg" width="24" height="24" fill="none"><rect id="backgroundrect" width="100%" height="100%" x="0" y="0" fill="none" stroke="none"/>



<defs>
<linearGradient id="paint0_linear_1_23" x1="0.13537030426350596" y1="-0.026480953633854044" x2="1.0380997257477442" y2="0.4183328316176314">
<stop stop-color="#DE4BFD"/>
<stop offset="1" stop-color="#FF8543"/>
</linearGradient>
</defs>
<g class="currentLayer" style=""><title>Layer 1</title><path d="M19.701 17.085C20.169 17.4255 20.475 17.976 20.475 18.6C20.475 19.635 19.635 20.475 18.6 20.475C17.976 20.475 17.4255 20.169 17.085 19.701V19.704L14.3385 16.9575C15.423 16.3275 16.3275 15.423 16.9575 14.3385L19.704 17.0835H19.701V17.085Z" fill="#009900" id="svg_1" class="" fill-opacity="1"/><path d="M17.928 10.7265C17.928 12.042 17.574 13.2765 16.9575 14.3385L14.325 11.706L14.004 12.027C14.1645 11.625 14.253 11.1855 14.253 10.7265C14.253 8.778 12.6735 7.2 10.7265 7.2C8.7795 7.2 7.19999 8.778 7.19999 10.7265C7.19999 12.675 8.77799 14.253 10.7265 14.253C11.1855 14.253 11.625 14.1645 12.027 14.004L11.706 14.325L14.3385 16.9575C13.2765 17.574 12.042 17.928 10.7265 17.928C6.74849 17.928 3.52499 14.703 3.52499 10.7265C3.52499 6.75 6.74849 3.525 10.7265 3.525C14.7045 3.525 17.928 6.7485 17.928 10.7265V10.7265Z" fill="#484848" id="svg_2" class="" fill-opacity="1"/><path d="M14.325 11.706L16.9575 14.3385C16.3275 15.423 15.423 16.3275 14.3385 16.9575L11.706 14.325L12.027 14.004C12.9285 13.647 13.647 12.9285 14.004 12.027L14.325 11.706V11.706Z" fill="#000000" id="svg_3" class="" fill-opacity="1"/></g></svg>